<svg width="30" height="30" viewBox="0 0 30 30" fill="none" xmlns="http://www.w3.org/2000/svg">
<path d="M29.9881 16.5778C29.9881 17.1566 29.9881 17.7349 29.9881 18.3137C29.9492 18.6076 29.9085 18.9009 29.872 19.1948C29.5733 21.5878 28.7179 23.763 27.3059 25.7167C27.1946 25.8706 27.0276 26.0112 26.8552 26.0878C26.5008 26.2453 26.1231 26.1327 25.8789 25.8502C25.6186 25.5491 25.6132 25.1696 25.8388 24.7345C27.8165 20.927 27.6375 17.2087 25.369 13.5796C25.2899 13.4533 25.1972 13.3348 25.1074 13.2157C25.0188 13.0984 24.926 12.9841 24.8356 12.8685C25.2971 14.0178 25.6461 15.1772 25.7766 16.3977C26.1076 19.4934 25.3821 22.3127 23.4529 24.7626C21.3191 27.4729 18.4962 29.0914 15.1179 29.7445C14.5535 29.8534 13.9783 29.9073 13.4078 29.9863C12.829 29.9863 12.2508 29.9863 11.672 29.9863C11.347 29.9456 11.0214 29.9079 10.6969 29.8648C8.32843 29.5499 6.17359 28.6958 4.24203 27.288C3.81465 26.9767 3.7099 26.4751 3.9613 26.0788C4.22287 25.6658 4.71489 25.5593 5.20033 25.8107C5.43018 25.9298 5.65524 26.0603 5.89167 26.165C9.39866 27.7195 12.8057 27.525 16.1038 25.5635C16.4551 25.3546 16.7772 25.0972 17.113 24.862C16.998 24.8434 16.9154 24.8721 16.8352 24.9075C15.7955 25.3606 14.7151 25.6628 13.5862 25.7826C10.3641 26.1243 7.45931 25.3223 4.96509 23.2506C2.46908 21.1772 0.939746 18.4956 0.287909 15.3203C0.158619 14.6894 0.0939746 14.0453 0 13.4072C0 12.8087 0 12.2101 0 11.6116C0.0389067 11.338 0.0814043 11.0645 0.115522 10.7903C0.414805 8.39726 1.26836 6.22148 2.68217 4.26896C2.7935 4.11513 2.9605 3.97387 3.13289 3.89725C3.48843 3.73983 3.86493 3.85176 4.10915 4.13488C4.36952 4.43656 4.37551 4.81665 4.14985 5.2512C2.1698 9.05867 2.35056 12.7776 4.62032 16.4049C4.77714 16.6551 4.96808 16.8837 5.14286 17.1225C5.06804 16.7915 4.94175 16.4988 4.8352 16.1995C4.72507 15.8901 4.61912 15.5776 4.53592 15.2604C3.78472 12.3813 4.00978 9.57942 5.42658 6.95831C7.4617 3.19274 10.743 1.10076 14.8695 0.242422C15.4322 0.125103 16.0098 0.0790105 16.5802 0C17.159 0 17.7373 0 18.3161 0C18.413 0.0173584 18.51 0.0436937 18.6076 0.0508765C20.1016 0.162808 21.5351 0.521346 22.9166 1.09657C23.8869 1.5006 24.7943 2.01716 25.6527 2.62291C25.9867 2.85874 26.2081 3.14247 26.1441 3.57164C26.0441 4.24442 25.3839 4.48624 24.7069 4.13488C21.0599 2.24222 17.4559 2.3338 13.9082 4.40723C13.5467 4.61852 13.2169 4.88369 12.8727 5.12371C12.9787 5.14705 13.0517 5.12072 13.1229 5.08959C14.2464 4.59937 15.4154 4.28453 16.6383 4.17798C19.582 3.9212 22.2756 4.61972 24.6231 6.4208C27.3508 8.51458 28.9998 11.3099 29.699 14.6666C29.8301 15.2951 29.8935 15.9398 29.9881 16.5778ZM27.7081 14.0016C27.7327 13.9902 27.7566 13.9795 27.7812 13.9681C27.4358 13.178 27.1389 12.3615 26.7355 11.602C25.6072 9.47707 24.0294 7.77894 21.8111 6.76498C19.5707 5.74083 17.2452 5.5864 14.8947 6.31186C12.6842 6.99422 10.9058 8.28413 9.68956 10.2875C9.41721 10.7359 8.98505 10.9064 8.5457 10.7251C8.12432 10.5509 7.93158 10.1355 8.0471 9.6321C8.61753 7.13728 9.95592 5.13748 11.9922 3.60935C12.6662 3.10356 13.3983 2.67498 14.0776 2.22845C14.0866 2.22786 14.0477 2.22247 14.0142 2.23265C11.4499 3.01497 9.25919 4.38209 7.70771 6.5878C5.61813 9.56027 5.32363 12.7883 6.7111 16.1349C7.43477 17.8803 8.61454 19.2845 10.2486 20.274C10.7275 20.5637 10.9088 20.9737 10.7341 21.4244C10.5629 21.865 10.1379 22.0511 9.59259 21.9254C6.85117 21.2921 4.76278 19.7281 3.19873 17.4254C2.8773 16.9525 2.59837 16.4509 2.30028 15.9625C2.29849 16.087 2.32842 16.1995 2.36493 16.3103C2.90663 17.9719 3.75479 19.4539 4.90823 20.772C7.5886 23.8354 11.9216 24.9308 15.7027 23.4637C17.6277 22.7167 19.19 21.5106 20.2776 19.7335C20.5691 19.257 20.9749 19.0751 21.4286 19.2516C21.8691 19.4234 22.0547 19.8478 21.9284 20.3937C21.2921 23.1465 19.7155 25.2385 17.4045 26.8061C16.9088 27.1425 16.3821 27.4334 15.8063 27.7836C15.9242 27.7584 15.9721 27.7518 16.017 27.7381C17.7989 27.197 19.4013 26.3302 20.7756 25.0691C23.5451 22.5264 24.6076 19.3857 23.8678 15.7087C23.347 13.1223 21.9535 11.0722 19.6724 9.6734C19.2397 9.40764 19.0834 8.97547 19.26 8.54451C19.4324 8.12372 19.8496 7.92918 20.3524 8.04471C22.8574 8.61933 24.8632 9.9637 26.3919 12.0144C26.8666 12.6495 27.2712 13.3378 27.7081 14.0016Z" fill="white"/>
<path d="M15.0033 19.6297C12.4397 19.6339 10.3591 17.5617 10.3555 15.0004C10.3513 12.435 12.4217 10.3561 14.9842 10.3525C17.5496 10.349 19.6284 12.4188 19.632 14.9812C19.6356 17.5467 17.5658 19.6261 15.0033 19.6297ZM17.8794 14.9926C17.88 13.4124 16.5919 12.1159 15.0105 12.1057C13.4201 12.0956 12.1093 13.398 12.1081 14.9896C12.1069 16.5692 13.3968 17.8669 14.977 17.8771C16.5674 17.8873 17.8782 16.5842 17.8794 14.9926Z" fill="white"/>
</svg>
