<svg width="31" height="30" viewBox="0 0 31 30" fill="none" xmlns="http://www.w3.org/2000/svg">
<path d="M17.3432 29.9887C17.1833 29.9887 17.0241 29.9887 16.8643 29.9887C16.5716 29.9378 16.2801 29.8797 15.9862 29.8378C13.5004 29.4811 11.0145 29.1261 8.52811 28.7718C6.69291 28.5102 4.85711 28.2534 3.02191 27.9895C2.43592 27.9051 2.19111 27.6543 2.10132 27.0623C2.04027 26.6583 1.99059 26.2524 1.93313 25.8484C1.34055 21.6848 0.753956 17.52 0.144618 13.3588C0.0715927 12.8584 0.201476 12.5076 0.550439 12.1592C4.20168 8.52176 7.84095 4.87232 11.4898 1.23305C11.9232 0.800885 12.3978 0.410017 12.8533 0C13.0132 0 13.1724 0 13.3322 0C13.5956 0.0454909 13.8577 0.096968 14.1223 0.135276C18.4535 0.754192 22.7847 1.37131 27.1159 1.98963C27.7726 2.083 28.012 2.32722 28.1042 2.98504C28.2825 4.25819 28.4603 5.53194 28.6417 6.80508C29.1073 10.0804 29.5658 13.3576 30.0519 16.6299C30.1285 17.1459 29.9789 17.499 29.6245 17.8516C25.987 21.4747 22.3621 25.1098 18.7264 28.7347C18.2871 29.1746 17.8053 29.5721 17.3432 29.9887ZM12.335 23.0465C15.9485 19.4336 19.5531 15.829 23.1181 12.2646C21.3613 10.5036 19.5764 8.7151 17.8322 6.96669C14.2456 10.5527 10.6416 14.1572 7.04367 17.7546C8.80046 19.5114 10.5824 21.2927 12.335 23.0465ZM16.4812 5.65105C15.3374 4.49761 14.1899 3.34059 13.0628 2.20452C9.47982 5.78633 5.87946 9.3849 2.29227 12.9709C3.43612 14.1118 4.59015 15.2634 5.73281 16.4025C9.31283 12.8213 12.9192 9.2143 16.4812 5.65105ZM17.1073 27.7836C20.6993 24.1934 24.3051 20.59 27.8935 17.004C26.7586 15.8673 25.6075 14.7145 24.4739 13.579C20.8783 17.1746 17.2713 20.7816 13.6943 24.3586C14.8334 25.5012 15.9844 26.6565 17.1073 27.7836ZM6.13265 19.4599C5.5287 21.5369 4.91757 23.6367 4.28548 25.8101C6.46665 25.175 8.55504 24.5669 10.6321 23.9617C9.12727 22.4563 7.63864 20.9665 6.13265 19.4599ZM19.5585 6.03233C21.0686 7.54431 22.5561 9.03354 24.0609 10.5407C24.669 8.45054 25.2789 6.35675 25.911 4.18337C23.7358 4.81665 21.6427 5.42539 19.5585 6.03233ZM22.8931 3.23464C22.8937 3.2125 22.8937 3.19095 22.8942 3.1688C20.4916 2.82463 18.089 2.48105 15.6528 2.13209C15.6839 2.21409 15.6857 2.23684 15.6977 2.24941C16.4501 3.0036 17.2007 3.76078 17.9627 4.5054C18.0273 4.56884 18.18 4.58919 18.2763 4.56585C18.6528 4.47367 19.0233 4.35516 19.3962 4.24682C20.5616 3.90863 21.727 3.57164 22.8931 3.23464ZM26.9166 7.16242C26.8729 7.22228 26.8561 7.23605 26.8514 7.25341C26.4042 8.78453 25.9553 10.3157 25.5208 11.8504C25.4944 11.9432 25.5585 12.1006 25.6333 12.1766C26.33 12.8901 27.0381 13.5922 27.7444 14.2967C27.7935 14.3458 27.854 14.3829 27.9665 14.4709C27.6115 11.9994 27.2674 9.60397 26.9166 7.16242ZM2.34314 15.5142C2.30903 15.5363 2.27431 15.5585 2.24019 15.58C2.58556 17.9833 2.93034 20.3865 3.2793 22.8167C3.31821 22.7724 3.33736 22.7604 3.34214 22.7443C3.79167 21.2059 4.24298 19.6682 4.68113 18.1263C4.70567 18.0401 4.64582 17.8965 4.57758 17.8235C4.27291 17.4954 3.94789 17.186 3.63604 16.8646C3.20208 16.4174 2.77351 15.9649 2.34314 15.5142ZM7.29865 26.763C7.30045 26.781 7.30165 26.7983 7.30345 26.8163C9.70668 27.1617 12.1093 27.5064 14.5126 27.8518C14.473 27.7177 14.4156 27.6513 14.3533 27.589C13.6764 26.9121 12.994 26.2405 12.326 25.5545C12.1794 25.4043 12.0536 25.3719 11.8555 25.4324C11.0636 25.6724 10.2663 25.8945 9.47144 26.1255C8.74658 26.3368 8.02292 26.5505 7.29865 26.763Z" fill="white"/>
</svg>
