<svg width="27" height="30" viewBox="0 0 27 30" fill="none" xmlns="http://www.w3.org/2000/svg">
<path d="M1.03994 29.9875C0.517992 29.7481 0.367752 29.3362 0.38511 28.7772C0.464121 26.1752 1.52837 24.0461 3.42821 22.3085C4.15667 21.6423 4.90547 20.9988 5.63572 20.335C5.86377 20.1279 6.06908 19.8945 6.2702 19.6604C6.77778 19.0691 7.01361 18.3837 7.01062 17.599C7.00164 14.8258 6.95914 12.0521 7.0202 9.28074C7.08664 6.27056 8.18859 3.64526 10.2674 1.45811C10.9737 0.714689 11.8362 0.201719 12.876 0.0436977C12.9023 0.0395077 12.9262 0.0149641 12.9508 0C13.2501 0 13.5493 0 13.8486 0C14.4789 0.150838 15.087 0.350759 15.6335 0.718277C16.6325 1.38987 17.3807 2.28951 17.9841 3.31126C19.174 5.32543 19.8444 7.47847 19.8019 9.84938C19.7576 12.3023 19.8361 14.7576 19.7744 17.2099C19.7415 18.5016 20.2155 19.4875 21.1397 20.3177C21.9777 21.0707 22.8349 21.8039 23.6483 22.582C25.4081 24.267 26.3335 26.332 26.4143 28.7778C26.4328 29.335 26.285 29.7498 25.76 29.9881C17.5202 29.9875 9.28038 29.9875 1.03994 29.9875ZM8.75962 24.4436C11.874 24.4436 14.947 24.4436 18.041 24.4436C18.041 24.2885 18.041 24.1599 18.041 24.0306C18.041 19.3534 18.014 14.6756 18.0553 9.99842C18.0703 8.30209 17.7321 6.71529 17.0096 5.19913C16.4997 4.12949 15.8801 3.13229 14.938 2.37929C14.2999 1.86932 13.5799 1.54968 12.7766 1.87889C12.3097 2.07044 11.8368 2.35834 11.4951 2.72347C9.77539 4.56106 8.80033 6.75719 8.77459 9.27775C8.72431 14.2237 8.76022 19.1708 8.76022 24.1174C8.75962 24.2173 8.75962 24.3161 8.75962 24.4436ZM24.5863 28.2337C24.5761 28.09 24.5749 27.9925 24.5617 27.8961C24.3816 26.5739 23.877 25.3761 22.9522 24.4244C21.9753 23.4188 20.9015 22.5078 19.8684 21.5573C19.86 21.5495 19.8325 21.5627 19.8097 21.5669C19.8049 21.5932 19.7948 21.6213 19.7948 21.6495C19.7936 23.7636 19.796 25.8777 19.7894 27.9919C19.7888 28.2014 19.8738 28.2379 20.0563 28.2373C21.1134 28.2313 22.1705 28.2343 23.2275 28.2343C23.6645 28.2337 24.102 28.2337 24.5863 28.2337ZM7.00763 21.4927C6.25044 22.1547 5.54713 22.7562 4.85818 23.3739C3.70175 24.4095 2.7686 25.597 2.38851 27.1413C2.30411 27.4855 2.25742 27.8386 2.18439 28.2343C2.34062 28.2343 2.43699 28.2343 2.53396 28.2343C3.91006 28.2343 5.28616 28.2277 6.66225 28.2403C6.93041 28.2427 7.01661 28.1774 7.01481 27.8955C7.00224 25.8712 7.00823 23.8468 7.00823 21.8231C7.00763 21.7357 7.00763 21.6489 7.00763 21.4927ZM8.77219 28.2067C11.8787 28.2067 14.95 28.2067 18.041 28.2067C18.041 27.6429 18.0272 27.1054 18.0469 26.5685C18.0571 26.2973 17.9811 26.2147 17.701 26.2159C14.8315 26.2261 11.9625 26.2219 9.09302 26.2231C8.98828 26.2231 8.88353 26.2345 8.77219 26.2405C8.77219 26.9132 8.77219 27.5489 8.77219 28.2067Z" fill="white"/>
<path d="M13.4095 6.54985C14.8137 6.55763 15.9462 7.64043 16.0109 9.03569C16.036 9.58637 15.7074 9.99398 15.204 10.0347C14.7138 10.0742 14.3127 9.70308 14.2636 9.16437C14.2158 8.64542 13.8788 8.31022 13.4053 8.31082C12.9229 8.31082 12.5907 8.63525 12.5386 9.156C12.4841 9.70368 12.0968 10.0694 11.606 10.0371C11.0966 10.0036 10.762 9.58457 10.7908 9.01653C10.8608 7.62546 12.0113 6.54207 13.4095 6.54985Z" fill="white"/>
</svg>
