<svg width="31" height="28" viewBox="0 0 31 28" fill="none" xmlns="http://www.w3.org/2000/svg">
<path d="M7.29423 20.1728C7.83293 19.6239 8.34172 19.1056 8.87863 18.5585C8.61347 18.2909 8.31598 17.9893 8.0173 17.6888C7.82037 17.4907 7.61446 17.3009 7.42651 17.095C7.0578 16.691 7.06917 16.1601 7.44327 15.8111C7.78206 15.4951 8.31957 15.5166 8.6823 15.8763C9.16953 16.3594 9.64539 16.8532 10.1171 17.332C10.7731 16.6712 11.3956 16.0439 12.0373 15.3969C11.5644 14.4847 11.1993 13.4863 11.0412 12.4226C10.5091 8.8474 11.5518 5.78274 14.234 3.3831C17.0095 0.899656 20.3052 0.207119 23.8332 1.3426C27.5395 2.53553 29.8421 5.15545 30.5622 9.00182C31.4289 13.6329 29.0269 18.0629 24.6921 19.9071C21.9154 21.088 19.1296 20.9611 16.4068 19.6593C16.1889 19.5551 16.0758 19.6 15.9237 19.752C13.3188 22.3654 10.7096 24.9733 8.10229 27.5837C7.5564 28.1307 7.10329 28.1397 6.56158 27.5986C4.73417 25.7736 2.90854 23.9474 1.08292 22.1206C0.641781 21.6794 0.651364 21.1766 1.0967 20.7325C1.95803 19.8736 2.81757 19.0134 3.67531 18.1503C4.26011 17.5619 4.69467 17.5601 5.27887 18.1479C5.94567 18.8213 6.61426 19.4905 7.29423 20.1728ZM7.3457 25.8353C7.39778 25.788 7.46602 25.7323 7.52767 25.6707C10.1087 23.0908 12.6903 20.511 15.2701 17.93C15.6975 17.5026 16.068 17.4476 16.5834 17.7546C18.321 18.7902 20.1855 19.1499 22.1853 18.8303C27.2408 18.0216 30.3324 12.5699 28.4331 7.80469C27.0768 4.40186 23.8038 2.37572 20.1125 2.65405C16.0818 2.95812 12.801 6.36994 12.6532 10.409C12.5933 12.0371 12.9692 13.5527 13.8042 14.9534C14.164 15.5573 14.1298 15.8656 13.6366 16.36C11.7709 18.2305 9.90397 20.0998 8.03525 21.9673C7.55939 22.4432 7.08294 22.4378 6.60109 21.9584C5.972 21.3323 5.3459 20.7032 4.71801 20.0765C4.64319 20.0016 4.56358 19.9322 4.51749 19.8897C3.9704 20.4266 3.44785 20.9396 2.95344 21.4244C4.41034 22.8873 5.87084 24.3538 7.3457 25.8353Z" fill="white"/>
<path d="M20.8096 16.6763C17.5289 16.6667 14.9066 14.0228 14.9239 10.7427C14.9413 7.47871 17.5773 4.86957 20.8497 4.87795C24.1029 4.88633 26.736 7.53916 26.7252 10.7971C26.7138 14.0569 24.0688 16.6858 20.8096 16.6763ZM24.9612 10.8049C24.9798 8.522 23.1422 6.6467 20.8718 6.63174C18.5698 6.61618 16.6909 8.45317 16.6765 10.7331C16.6615 13.0358 18.4926 14.9039 20.7845 14.9237C23.0817 14.9434 24.9427 13.1082 24.9612 10.8049Z" fill="white"/>
</svg>
