<svg width="62" height="18" viewBox="0 0 62 18" fill="none" xmlns="http://www.w3.org/2000/svg">
<path d="M0.540039 1.09308C0.540039 0.814411 0.657372 0.675078 0.892039 0.675078H4.03804C4.27271 0.675078 4.39004 0.807078 4.39004 1.07108V13.8971C4.39004 14.0877 4.47071 14.1831 4.63204 14.1831H11.65C11.914 14.1831 12.046 14.2931 12.046 14.5131V16.6031C12.046 16.7204 12.0094 16.8157 11.936 16.8891C11.8774 16.9624 11.7747 16.9991 11.628 16.9991H1.02404C0.833372 16.9991 0.701372 16.9624 0.628039 16.8891C0.569372 16.8157 0.540039 16.6984 0.540039 16.5371V1.09308Z" fill="white"/>
<path d="M19.9325 17.2191C18.3779 17.2191 17.0359 16.8891 15.9065 16.2291C14.7772 15.5544 13.9045 14.5937 13.2885 13.3471C12.6872 12.1004 12.3865 10.6191 12.3865 8.90308C12.3865 7.15774 12.6945 5.65441 13.3105 4.39308C13.9412 3.13174 14.8212 2.16374 15.9505 1.48908C17.0799 0.799745 18.4072 0.455078 19.9325 0.455078C21.4579 0.455078 22.7779 0.799745 23.8925 1.48908C25.0219 2.16374 25.8945 3.13174 26.5105 4.39308C27.1265 5.63974 27.4345 7.13575 27.4345 8.88108C27.4345 10.5971 27.1265 12.0784 26.5105 13.3251C25.9092 14.5717 25.0439 15.5324 23.9145 16.2071C22.7852 16.8817 21.4579 17.2191 19.9325 17.2191ZM19.9325 14.5131C21.1352 14.5131 22.0152 14.0804 22.5725 13.2151C23.1299 12.3351 23.4085 10.9051 23.4085 8.92508C23.4085 6.90108 23.1225 5.43441 22.5505 4.52508C21.9932 3.60108 21.1205 3.13908 19.9325 3.13908C18.7299 3.13908 17.8425 3.60108 17.2705 4.52508C16.6985 5.44908 16.4125 6.91575 16.4125 8.92508C16.4125 10.8904 16.6912 12.3131 17.2485 13.1931C17.8205 14.0731 18.7152 14.5131 19.9325 14.5131Z" fill="white"/>
<path d="M36.7496 17.2191C35.2683 17.2191 33.9703 16.8744 32.8556 16.1851C31.7556 15.4957 30.905 14.5277 30.3036 13.2811C29.7023 12.0344 29.4016 10.5751 29.4016 8.90308C29.4016 7.17241 29.717 5.67641 30.3476 4.41508C30.9783 3.15374 31.8583 2.17841 32.9876 1.48908C34.1316 0.799745 35.459 0.455078 36.9696 0.455078C38.1576 0.455078 39.221 0.682412 40.1596 1.13708C41.0983 1.59174 41.8536 2.17108 42.4256 2.87508C43.0123 3.57908 43.379 4.32708 43.5256 5.11908C43.5843 5.33908 43.5916 5.48574 43.5476 5.55908C43.5183 5.63241 43.4303 5.68374 43.2836 5.71308L40.3796 6.15308C40.2476 6.15308 40.1596 6.12374 40.1156 6.06508C40.0863 6.00641 40.057 5.91841 40.0276 5.80108C39.9396 5.31708 39.7563 4.87708 39.4776 4.48108C39.2136 4.08508 38.8616 3.76974 38.4216 3.53508C37.9963 3.28575 37.483 3.16108 36.8816 3.16108C36.163 3.16108 35.5396 3.35175 35.0116 3.73308C34.4983 4.11441 34.1023 4.71574 33.8236 5.53708C33.5596 6.35841 33.4276 7.43641 33.4276 8.77108C33.4276 10.1791 33.567 11.3011 33.8456 12.1371C34.139 12.9731 34.5496 13.5817 35.0776 13.9631C35.6203 14.3297 36.2656 14.5131 37.0136 14.5131C37.483 14.5131 37.8936 14.4471 38.2456 14.3151C38.6123 14.1684 38.9203 13.9777 39.1696 13.7431C39.4336 13.5084 39.6463 13.2444 39.8076 12.9511C39.969 12.6431 40.0863 12.3277 40.1596 12.0051L40.2036 11.3671C40.2623 11.1471 40.189 11.0371 39.9836 11.0371H37.3216C37.2043 11.0371 37.1163 11.0151 37.0576 10.9711C36.999 10.9124 36.9696 10.8097 36.9696 10.6631V9.01308C36.9696 8.80774 37.087 8.70508 37.3216 8.70508L43.1956 8.72708C43.4156 8.72708 43.577 8.77841 43.6796 8.88108C43.7823 8.96908 43.8336 9.09375 43.8336 9.25508V16.6691C43.8336 16.7717 43.8043 16.8524 43.7456 16.9111C43.687 16.9697 43.6063 16.9991 43.5036 16.9991H42.7996C42.6823 16.9991 42.5796 16.9771 42.4916 16.9331C42.4036 16.8744 42.3156 16.7791 42.2276 16.6471L41.5896 15.0631C41.575 15.0191 41.5456 14.9971 41.5016 14.9971C41.4723 14.9971 41.4283 15.0337 41.3696 15.1071C41.1056 15.4297 40.7756 15.7597 40.3796 16.0971C39.9836 16.4197 39.4923 16.6911 38.9056 16.9111C38.319 17.1164 37.6003 17.2191 36.7496 17.2191Z" fill="white"/>
<path d="M53.5126 17.2191C51.9579 17.2191 50.6159 16.8891 49.4866 16.2291C48.3573 15.5544 47.4846 14.5937 46.8686 13.3471C46.2673 12.1004 45.9666 10.6191 45.9666 8.90308C45.9666 7.15774 46.2746 5.65441 46.8906 4.39308C47.5213 3.13174 48.4013 2.16374 49.5306 1.48908C50.6599 0.799745 51.9873 0.455078 53.5126 0.455078C55.0379 0.455078 56.3579 0.799745 57.4726 1.48908C58.6019 2.16374 59.4746 3.13174 60.0906 4.39308C60.7066 5.63974 61.0146 7.13575 61.0146 8.88108C61.0146 10.5971 60.7066 12.0784 60.0906 13.3251C59.4893 14.5717 58.6239 15.5324 57.4946 16.2071C56.3653 16.8817 55.0379 17.2191 53.5126 17.2191ZM53.5126 14.5131C54.7153 14.5131 55.5953 14.0804 56.1526 13.2151C56.7099 12.3351 56.9886 10.9051 56.9886 8.92508C56.9886 6.90108 56.7026 5.43441 56.1306 4.52508C55.5733 3.60108 54.7006 3.13908 53.5126 3.13908C52.3099 3.13908 51.4226 3.60108 50.8506 4.52508C50.2786 5.44908 49.9926 6.91575 49.9926 8.92508C49.9926 10.8904 50.2713 12.3131 50.8286 13.1931C51.4006 14.0731 52.2953 14.5131 53.5126 14.5131Z" fill="white"/>
</svg>
