<svg width="55" height="49" viewBox="0 0 55 49" fill="none" xmlns="http://www.w3.org/2000/svg">
<path opacity="0.7" d="M21.5903 1.86523L21.3082 1.48681L20.9142 1.74665C14.1145 6.23048 9.04718 11.6869 5.73147 18.1194C2.91768 23.4515 1.5 28.7061 1.5 33.8779C1.5 38.0853 2.75602 41.4934 5.30856 44.0459C7.60019 46.3376 10.3887 47.4883 13.6455 47.4883C15.8454 47.4883 17.7916 47.0008 19.4667 46.0086C21.1415 45.0166 22.518 43.5364 23.6035 41.5924L23.6041 41.5915C24.6206 39.7617 25.1318 37.8229 25.1318 35.7822C25.1318 33.7286 24.6747 31.9155 23.7422 30.3614C22.81 28.8077 21.4198 27.5412 19.5971 26.5538C18.0359 25.7024 16.2474 25.2501 14.2437 25.1835C14.6371 18.893 18.0301 12.6844 24.5352 6.55633L24.8596 6.25079L24.5933 5.89355L21.5903 1.86523ZM50.0815 1.86523L49.7994 1.48681L49.4054 1.74665C42.6057 6.23051 37.5383 11.687 34.2226 18.1195C31.4089 23.4515 29.9912 28.7061 29.9912 33.8779C29.9912 38.0853 31.2472 41.4934 33.7998 44.0459C36.0914 46.3376 38.88 47.4883 42.1367 47.4883C44.3366 47.4883 46.2828 47.0008 47.9579 46.0086C49.6327 45.0166 51.0092 43.5364 52.0947 41.5924L52.0953 41.5915C53.1118 39.7617 53.623 37.8229 53.623 35.7822C53.623 33.7286 53.1659 31.9155 52.2334 30.3614C51.3013 28.8078 49.9112 27.5414 48.0886 26.554C46.5274 25.7025 44.7388 25.2501 42.7349 25.1835C43.1283 18.893 46.5213 12.6844 53.0264 6.55633L53.3508 6.25079L53.0845 5.89355L50.0815 1.86523Z" stroke="white"/>
</svg>
