<svg width="63" height="55" viewBox="0 0 63 55" fill="none" xmlns="http://www.w3.org/2000/svg">
<mask id="path-1-inside-1_75_8517" fill="white">
<path fill-rule="evenodd" clip-rule="evenodd" d="M21.7196 5.00628e-05C21.2064 11.5311 30.1311 21.3012 41.6645 21.828C41.6645 21.828 41.6645 21.8281 41.6645 21.8281C30.1227 21.3013 20.3392 30.2306 19.8122 41.7724L19.8111 41.7966L19.811 41.7966L19.8121 41.7724C20.336 30.2958 11.5103 20.5575 0.0632353 19.9298C11.5121 20.347 21.1829 11.4655 21.7185 0L21.7192 3.02075e-05C21.7193 3.68244e-05 21.7194 4.34429e-05 21.7196 5.00628e-05Z"/>
</mask>
<path d="M21.7196 5.00628e-05L22.7186 0.0445094L22.763 -0.953341L21.7652 -0.998909L21.7196 5.00628e-05ZM41.6645 21.828H42.6645L42.6645 20.8726L41.7101 20.829L41.6645 21.828ZM41.6645 21.8281L41.6189 22.8271L42.6645 22.8748L42.6645 21.8281H41.6645ZM19.8122 41.7724L18.8133 41.7268L18.8132 41.7274L19.8122 41.7724ZM19.8111 41.7966L19.7695 42.7958L20.7653 42.8372L20.8101 41.8416L19.8111 41.7966ZM19.811 41.7966L18.812 41.7503L18.7655 42.7539L19.7693 42.7957L19.811 41.7966ZM19.8121 41.7724L20.811 41.8187L20.811 41.8181L19.8121 41.7724ZM0.0632353 19.9298L0.0996567 18.9304L0.00847792 20.9283L0.0632353 19.9298ZM21.7185 0L21.7641 -0.99896L20.7662 -1.0445L20.7196 -0.0466614L21.7185 0ZM21.7192 3.02075e-05L21.7648 -0.99893L21.7648 -0.99893L21.7192 3.02075e-05ZM20.7206 -0.0444092C20.1829 12.0378 29.5341 22.2749 41.6189 22.8269L41.7101 20.829C30.728 20.3274 22.23 11.0243 22.7186 0.0445094L20.7206 -0.0444092ZM42.6645 21.8281C42.6645 21.8505 42.6637 21.8685 42.6632 21.8791C42.6629 21.8845 42.6626 21.8889 42.6625 21.8916C42.6623 21.894 42.6622 21.8961 42.6622 21.8957L42.6622 21.8957C42.6622 21.8957 42.6622 21.8957 42.6622 21.8957C42.6622 21.8957 42.6622 21.8957 42.6622 21.8957C42.6622 21.8957 42.6622 21.8957 42.6622 21.8956C42.6622 21.8956 42.6622 21.8955 42.6622 21.8954C42.6622 21.8953 42.6622 21.895 42.6623 21.8947C42.6623 21.894 42.6624 21.8929 42.6625 21.8915C42.6626 21.8889 42.6629 21.8845 42.6632 21.879C42.6637 21.8684 42.6645 21.8504 42.6645 21.828H40.6645C40.6645 21.8056 40.6653 21.7876 40.6658 21.777C40.6661 21.7716 40.6663 21.7672 40.6665 21.7645C40.6667 21.7621 40.6668 21.7601 40.6668 21.7604C40.6668 21.7604 40.6668 21.7604 40.6668 21.7604C40.6668 21.7604 40.6668 21.7604 40.6668 21.7604C40.6668 21.7604 40.6668 21.7605 40.6668 21.7605C40.6668 21.7605 40.6668 21.7606 40.6668 21.7607C40.6668 21.7608 40.6667 21.7611 40.6667 21.7615C40.6667 21.7621 40.6666 21.7632 40.6665 21.7646C40.6663 21.7672 40.6661 21.7716 40.6658 21.7771C40.6652 21.7877 40.6645 21.8057 40.6645 21.8281H42.6645ZM20.8112 41.818C21.313 30.8279 30.6289 22.3255 41.6189 22.8271L41.7101 20.8292C29.6166 20.2772 19.3654 29.6333 18.8133 41.7268L20.8112 41.818ZM20.8101 41.8416L20.8112 41.8173L18.8132 41.7274L18.8122 41.7517L20.8101 41.8416ZM19.7693 42.7957L19.7695 42.7958L19.8528 40.7975L19.8526 40.7975L19.7693 42.7957ZM18.8132 41.7262L18.812 41.7503L20.8099 41.8429L20.811 41.8187L18.8132 41.7262ZM0.00847792 20.9283C10.9081 21.526 19.312 30.7989 18.8131 41.7268L20.811 41.8181C21.3601 29.7928 12.1124 19.5891 0.117993 18.9313L0.00847792 20.9283ZM20.7196 -0.0466614C20.2096 10.8707 11.001 19.3278 0.0996567 18.9304L0.0268139 20.9291C12.0231 21.3663 22.1562 12.0603 22.7174 0.0466614L20.7196 -0.0466614ZM21.7648 -0.99893L21.7641 -0.99896L21.6729 0.99896L21.6736 0.99899L21.7648 -0.99893ZM21.7652 -0.998909C21.7651 -0.998916 21.7649 -0.998923 21.7648 -0.99893L21.6736 0.99899C21.6737 0.998996 21.6738 0.999003 21.674 0.999009L21.7652 -0.998909Z" fill="white" mask="url(#path-1-inside-1_75_8517)"/>
<path fill-rule="evenodd" clip-rule="evenodd" d="M54.9321 37.293C54.7261 41.9059 58.2962 45.8146 62.9101 46.0253C62.9101 46.0253 62.9101 46.0254 62.9101 46.0254C58.2934 45.8147 54.38 49.3864 54.1693 54.0031L54.1689 54.0116L54.1688 54.0116L54.1692 54.0027C54.38 49.386 50.8082 45.4725 46.1915 45.2617L46.1914 45.2617L46.1914 45.2616C50.8051 45.4723 54.7165 41.9053 54.932 37.293L54.932 37.293C54.932 37.293 54.932 37.293 54.9321 37.293Z" fill="white"/>
</svg>
