<svg width="63" height="54" viewBox="0 0 63 54" fill="none" xmlns="http://www.w3.org/2000/svg">
<path fill-rule="evenodd" clip-rule="evenodd" d="M41.1735 3.49962e-05C41.6874 11.5272 32.766 21.2944 21.2366 21.821C21.2366 21.8211 21.2366 21.8212 21.2366 21.8213C32.7736 21.2948 42.5532 30.2205 43.0799 41.7576L43.0809 41.7799L43.0814 41.7799L43.0815 41.7799L43.0804 41.7569C42.5555 30.261 51.4156 20.5099 62.8928 19.9191C51.4171 20.3762 41.7107 11.485 41.1742 0L41.1739 1.45153e-05C41.1738 2.13407e-05 41.1736 2.81677e-05 41.1735 3.49962e-05Z" fill="white"/>
<path fill-rule="evenodd" clip-rule="evenodd" d="M7.97441 37.2813C8.17969 41.8827 4.62627 45.783 0.0282847 46.0085C4.63063 45.8139 8.5267 49.379 8.73696 53.9843L8.73736 53.9932L8.73751 53.9932L8.73711 53.9846C8.52683 49.3787 12.0828 45.4731 16.6846 45.2484C12.0843 45.4437 8.18931 41.8829 7.97457 37.2812L7.97456 37.2813C7.97451 37.2813 7.97446 37.2813 7.97441 37.2813Z" fill="white"/>
</svg>
