<?xml version="1.0" encoding="utf-8"?>
<!-- Generator: Adobe Illustrator 26.0.0, SVG Export Plug-In . SVG Version: 6.00 Build 0)  -->
<svg version="1.1" id="Layer_1" xmlns="http://www.w3.org/2000/svg" xmlns:xlink="http://www.w3.org/1999/xlink" x="0px" y="0px"
	 viewBox="0 0 439 439" style="enable-background:new 0 0 439 439;" xml:space="preserve">
<style type="text/css">
	.st0{fill:none;stroke:#FDBC4C;stroke-width:24;}
	.st1{fill:none;stroke:#FFFFFF;stroke-width:6;stroke-linecap:round;stroke-miterlimit:10;}
</style>
<circle class="st0" cx="219.5" cy="219.5" r="207.5"/>
<path class="st1" d="M423.5,236.7c-1.1,15-4.2,29.9-8.6,44.2c-4.5,14.4-10.5,28.2-17.9,41.3c-7.4,13.1-16.2,25.4-26.2,36.6
	c-4.3,4.8-8.7,9.3-13.4,13.7"/>
<line class="st1" x1="348.8" y1="378.8" x2="343.5" y2="382.7"/>
<path class="st1" d="M157.4,21.4c-6.9,2-13.6,5.1-20.1,8.1c-6.7,3.1-13.2,6.6-19.6,10.3C105,47.4,93,56.1,81.9,65.8
	c-11.1,9.8-21.2,20.6-30.3,32.3c-4.7,6.1-8.8,12.3-12.6,18.9"/>
<line class="st1" x1="35" y1="125.7" x2="32.3" y2="131.8"/>
</svg>
