<?xml version="1.0" encoding="utf-8"?>
<!-- Generator: Adobe Illustrator 26.0.0, SVG Export Plug-In . SVG Version: 6.00 Build 0)  -->
<svg version="1.1" id="Layer_1" xmlns="http://www.w3.org/2000/svg" xmlns:xlink="http://www.w3.org/1999/xlink" x="0px" y="0px"
	 viewBox="0 0 40 40" style="enable-background:new 0 0 40 40;" xml:space="preserve">
<style type="text/css">
	.st0{fill:#FDBC4C;}
	.st1{opacity:0.5;}
	.st2{fill:#FFFFFF;stroke:#000000;}
</style>
<circle class="st0" cx="20" cy="20" r="20"/>
<g>
	<g class="st1">
		<path d="M20,3.1c9.3,0,16.9,7.6,16.9,16.9S29.3,36.9,20,36.9S3.1,29.3,3.1,20S10.7,3.1,20,3.1 M20,0C9,0,0,9,0,20s9,20,20,20
			s20-9,20-20S31,0,20,0L20,0z"/>
	</g>
</g>
<g>
	<g class="st1">
		<path d="M20,3.1c9.3,0,16.9,7.6,16.9,16.9S29.3,36.9,20,36.9S3.1,29.3,3.1,20S10.7,3.1,20,3.1 M20,0C9,0,0,9,0,20s9,20,20,20
			s20-9,20-20S31,0,20,0L20,0z"/>
	</g>
</g>
<g>
	<g class="st1">
		<path d="M20,3.1c9.3,0,16.9,7.6,16.9,16.9S29.3,36.9,20,36.9S3.1,29.3,3.1,20S10.7,3.1,20,3.1 M20,0C9,0,0,9,0,20s9,20,20,20
			s20-9,20-20S31,0,20,0L20,0z"/>
	</g>
</g>
<g>
	<g class="st1">
		<path d="M20,3.1c9.3,0,16.9,7.6,16.9,16.9S29.3,36.9,20,36.9S3.1,29.3,3.1,20S10.7,3.1,20,3.1 M20,0C9,0,0,9,0,20s9,20,20,20
			s20-9,20-20S31,0,20,0L20,0z"/>
	</g>
</g>
<g>
	<g class="st1">
		<path d="M20,3.1c9.3,0,16.9,7.6,16.9,16.9S29.3,36.9,20,36.9S3.1,29.3,3.1,20S10.7,3.1,20,3.1 M20,0C9,0,0,9,0,20s9,20,20,20
			s20-9,20-20S31,0,20,0L20,0z"/>
	</g>
</g>
<g>
	<g class="st1">
		<path d="M20,3.1c9.3,0,16.9,7.6,16.9,16.9S29.3,36.9,20,36.9S3.1,29.3,3.1,20S10.7,3.1,20,3.1 M20,0C9,0,0,9,0,20s9,20,20,20
			s20-9,20-20S31,0,20,0L20,0z"/>
	</g>
</g>
<g>
	<g class="st1">
		<path d="M20,3.1c9.3,0,16.9,7.6,16.9,16.9S29.3,36.9,20,36.9S3.1,29.3,3.1,20S10.7,3.1,20,3.1 M20,0C9,0,0,9,0,20s9,20,20,20
			s20-9,20-20S31,0,20,0L20,0z"/>
	</g>
</g>
<g>
	<g class="st1">
		<path d="M20,3.1c9.3,0,16.9,7.6,16.9,16.9S29.3,36.9,20,36.9S3.1,29.3,3.1,20S10.7,3.1,20,3.1 M20,0C9,0,0,9,0,20s9,20,20,20
			s20-9,20-20S31,0,20,0L20,0z"/>
	</g>
</g>
<g>
	<g class="st1">
		<path d="M20,3.1c9.3,0,16.9,7.6,16.9,16.9S29.3,36.9,20,36.9S3.1,29.3,3.1,20S10.7,3.1,20,3.1 M20,0C9,0,0,9,0,20s9,20,20,20
			s20-9,20-20S31,0,20,0L20,0z"/>
	</g>
</g>
<path class="st2" d="M19.8,17.3c4.5-0.4,9-0.8,13.4-1.1c0,2.6,0,5.1,0,7.7c-4.5-0.4-8.9-0.7-13.4-1.1c0.4,1.9,0.9,3.8,1.3,5.8
	c-4.8-2.9-9.5-5.7-14.3-8.5c4.8-2.8,9.5-5.6,14.3-8.5C20.7,13.5,20.2,15.3,19.8,17.3z"/>
</svg>
