<svg width="31" height="30" viewBox="0 0 31 30" fill="none" xmlns="http://www.w3.org/2000/svg">
<path d="M30.68 14.7863C30.68 14.9258 30.68 15.0659 30.68 15.2053C30.4711 15.7165 30.0844 15.8632 29.5451 15.8817C27.07 15.9649 24.6213 16.2797 22.2103 16.8574C21.7991 16.9561 21.3992 17.1016 20.982 17.2291C21.2322 18.2365 21.6069 19.1367 22.1684 19.9436C22.5371 20.4727 22.9752 20.9539 23.3847 21.4543C23.6486 21.777 23.6947 22.1463 23.505 22.4809C23.3188 22.8095 22.9591 23.0052 22.5976 22.9071C22.3881 22.8502 22.1762 22.7203 22.0175 22.5689C21.1927 21.7818 20.2667 21.1527 19.2133 20.7193C18.8033 20.5505 18.3759 20.4236 17.9389 20.2716C17.8605 20.493 17.7923 20.6583 17.7438 20.8288C16.9974 23.4518 16.6837 26.1399 16.5712 28.8538C16.5491 29.3907 16.4072 29.7804 15.8954 29.9893C15.756 29.9893 15.6159 29.9893 15.4764 29.9893C15.0796 29.8067 14.8234 29.5415 14.809 29.0639C14.7306 26.4667 14.4038 23.9007 13.7867 21.3747C13.6981 21.012 13.5658 20.6606 13.4563 20.3117C12.7464 20.4194 11.4918 20.9342 10.7621 21.4591C10.2378 21.8362 9.74698 22.2606 9.25077 22.6754C8.71325 23.1249 7.96385 22.9352 7.78428 22.2893C7.67534 21.8979 7.83815 21.5932 8.10631 21.3209C8.89103 20.5236 9.50815 19.6102 9.93792 18.577C10.1157 18.1497 10.2504 17.7037 10.4114 17.2458C10.1887 17.1686 10.0235 17.1016 9.85233 17.0531C7.22942 16.3079 4.54126 15.9924 1.82737 15.8805C1.28986 15.8584 0.900793 15.7159 0.691895 15.2041C0.691895 15.0647 0.691895 14.9246 0.691895 14.7851C0.874457 14.3883 1.13962 14.1321 1.61787 14.1177C4.21504 14.0405 6.78109 13.7101 9.30703 13.096C9.66976 13.008 10.0211 12.8745 10.4563 12.7374C10.163 12.0359 9.91757 11.3739 9.6129 10.7406C9.22922 9.94514 8.68213 9.25859 8.0692 8.62291C7.61549 8.15184 7.65799 7.52814 8.14762 7.20432C8.5277 6.95292 8.96226 7.02595 9.35911 7.41442C10.1588 8.19734 11.0716 8.81386 12.1035 9.24542C12.5309 9.42379 12.9768 9.55787 13.4341 9.71948C13.5113 9.49682 13.579 9.33161 13.6275 9.16042C14.3751 6.52734 14.6917 3.82961 14.8013 1.10555C14.8228 0.574021 14.9838 0.205308 15.477 0C15.6165 0 15.7566 0 15.896 0C16.4084 0.2083 16.5796 0.592577 16.5712 1.13547C16.5628 1.73164 16.6221 2.3302 16.6754 2.92578C16.8412 4.78312 17.0944 6.6285 17.5385 8.44215C17.6414 8.86234 17.7875 9.27235 17.9377 9.76437C18.6357 9.47467 19.2899 9.23704 19.9142 8.93596C20.7187 8.54809 21.4148 7.99682 22.0582 7.37731C22.5197 6.93257 23.1255 6.96309 23.4607 7.43057C23.7312 7.80767 23.6624 8.26138 23.2656 8.66721C22.4533 9.49682 21.8236 10.4473 21.3879 11.5218C21.2286 11.9144 21.1095 12.3232 20.976 12.7129C21.0473 12.7584 21.07 12.7799 21.0976 12.7895C21.2382 12.8398 21.3777 12.8943 21.5213 12.935C24.1442 13.6814 26.8324 13.995 29.5463 14.1076C30.0832 14.1321 30.4705 14.2758 30.68 14.7863ZM15.7021 8.44155C15.6841 8.44155 15.6656 8.44155 15.6476 8.44155C15.6123 8.5852 15.5878 8.73245 15.5393 8.87132C15.3023 9.5465 15.0922 10.2348 14.8066 10.8897C14.5295 11.5254 14.1728 11.6726 13.5036 11.5104C12.9912 11.3865 12.4878 11.2279 11.9802 11.0848C11.8934 11.0603 11.8066 11.0375 11.7228 11.0148C11.8886 11.6349 12.058 12.2173 12.1993 12.8069C12.3603 13.4785 12.2143 13.8418 11.5858 14.1141C10.9214 14.4021 10.224 14.6145 9.53928 14.8558C9.4058 14.9031 9.26513 14.93 9.12806 14.9665C9.26573 15.0653 9.40221 15.0892 9.5309 15.1347C10.2246 15.3795 10.9315 15.5944 11.6049 15.8871C12.2089 16.1499 12.3603 16.5204 12.2083 17.1477C12.0814 17.6696 11.9216 18.1832 11.7761 18.7003C11.7516 18.7877 11.7258 18.8751 11.7013 18.9613C12.3226 18.7943 12.905 18.6243 13.4946 18.4837C14.1859 18.3185 14.5265 18.4609 14.8144 19.1211C15.0957 19.767 15.3023 20.4452 15.5363 21.1114C15.5878 21.258 15.6159 21.4124 15.6554 21.5627C15.7566 21.4106 15.7841 21.255 15.8356 21.1078C16.0696 20.4416 16.2773 19.7634 16.5586 19.1175C16.8442 18.4621 17.1865 18.3292 17.8815 18.4807C18.0467 18.5166 18.2137 18.5489 18.3765 18.5956C18.8015 18.7171 19.2246 18.8458 19.6802 18.9817C19.6454 18.8644 19.6197 18.7817 19.5958 18.6979C19.4473 18.1712 19.2851 17.6475 19.1564 17.1165C19.0187 16.5503 19.154 16.2247 19.6652 15.9422C20.0118 15.75 20.3829 15.5944 20.757 15.4627C21.2484 15.2903 21.7536 15.158 22.3414 14.9815C22.1007 14.9216 21.9481 14.8863 21.7961 14.8456C21.0251 14.6397 20.259 14.4194 19.5712 13.9944C19.1857 13.7562 19.0439 13.4138 19.1349 12.9727C19.1774 12.768 19.2151 12.5615 19.2719 12.3604C19.397 11.9162 19.5323 11.4745 19.6724 11.001C19.5628 11.0345 19.4892 11.0585 19.415 11.0794C18.8787 11.2303 18.3454 11.3955 17.8043 11.5266C17.241 11.6636 16.913 11.5242 16.6311 11.0142C16.4443 10.676 16.2881 10.3157 16.1606 9.95053C15.9858 9.45492 15.8523 8.94554 15.7021 8.44155Z" fill="white"/>
</svg>
