<?xml version="1.0" encoding="utf-8"?>
<!-- Generator: Adobe Illustrator 26.0.0, SVG Export Plug-In . SVG Version: 6.00 Build 0)  -->
<svg version="1.1" id="Layer_1" xmlns="http://www.w3.org/2000/svg" xmlns:xlink="http://www.w3.org/1999/xlink" x="0px" y="0px"
	 viewBox="0 0 27 30" style="enable-background:new 0 0 27 30;" xml:space="preserve">
<g>
	<path d="M15.2,15.2H11v-4c0.5-0.5,1.2-0.9,2.2-1c1-0.2,1.8-0.3,2.6-0.3c1.3,0,2.6,0.2,3.8,0.6c1.2,0.4,2.3,1,3.3,1.8
		c1,0.8,1.8,1.8,2.3,3c0.6,1.2,0.9,2.6,0.9,4.1c0,2-0.5,3.7-1.4,5.2c-1,1.4-2.2,2.6-3.9,3.3c-1.6,0.8-3.4,1.2-5.3,1.2
		c-1.8,0-3.5-0.4-5.1-1.1c-1.5-0.7-2.8-1.8-3.7-3.3c-0.9-1.5-1.4-3.2-1.4-5.4h6.1c0,1.4,0.4,2.5,1.2,3.2s1.8,1.1,3,1.1
		c1.2,0,2.2-0.4,2.9-1.2s1.1-1.8,1.1-3c0-1.1-0.4-2.1-1.1-2.9C18,15.6,16.8,15.2,15.2,15.2z M25.2,5.1l-10.1,8.8L11,11.2l9.8-8.6
		l-1.5,3H6.7V0.1h18.5V5.1z"/>
</g>
</svg>
