<?xml version="1.0" encoding="utf-8"?>
<!-- Generator: Adobe Illustrator 26.0.0, SVG Export Plug-In . SVG Version: 6.00 Build 0)  -->
<svg version="1.1" id="Layer_1" xmlns="http://www.w3.org/2000/svg" xmlns:xlink="http://www.w3.org/1999/xlink" x="0px" y="0px"
	 viewBox="0 0 27 30" style="enable-background:new 0 0 27 30;" xml:space="preserve">
<g>
	<path d="M25.2,29.5L4.9,29.5v-4.6l9.4-7.8c0.8-0.6,1.4-1.2,2-1.7c0.5-0.5,1-1.1,1.3-1.6c0.3-0.5,0.6-1,0.8-1.6
		c0.2-0.5,0.2-1.1,0.2-1.7c0-1.4-0.3-2.5-1-3.3c-0.7-0.8-1.7-1.1-2.9-1.1c-1.3,0-2.4,0.4-3.1,1.3c-0.7,0.9-1.1,2.1-1.1,3.7H4.3
		c0-2.1,0.4-4,1.3-5.5C6.4,4,7.6,2.8,9.2,1.9c1.5-0.9,3.4-1.3,5.4-1.3c2.2,0,4,0.4,5.6,1.1c1.5,0.8,2.7,1.8,3.6,3.3
		c0.8,1.4,1.2,3.1,1.2,5.2c0,1-0.1,1.9-0.4,2.8c-0.3,0.9-0.7,1.7-1.2,2.6c-0.5,0.8-1.1,1.6-1.8,2.4c-0.7,0.8-1.5,1.5-2.4,2.3
		l-6.3,5.3l-2.3-1.7h14.7V29.5z"/>
</g>
</svg>
