<?xml version="1.0" encoding="utf-8"?>
<!-- Generator: Adobe Illustrator 26.0.0, SVG Export Plug-In . SVG Version: 6.00 Build 0)  -->
<svg version="1.1" id="Layer_1" xmlns="http://www.w3.org/2000/svg" xmlns:xlink="http://www.w3.org/1999/xlink" x="0px" y="0px"
	 viewBox="0 0 27 30" style="enable-background:new 0 0 27 30;" xml:space="preserve">
<g>
	<path d="M13.3,29.7c-2,0-3.8-0.4-5.3-1.2s-2.7-2-3.6-3.4c-0.8-1.5-1.3-3.2-1.3-5.1h6.1c0,1.3,0.4,2.4,1.1,3.1s1.8,1.2,3.1,1.2
		c0.9,0,1.8-0.2,2.4-0.6c0.7-0.4,1.2-0.9,1.6-1.6c0.4-0.7,0.6-1.6,0.6-2.6c0-1-0.2-1.8-0.5-2.5c-0.3-0.7-0.8-1.2-1.5-1.6
		c-0.7-0.4-1.5-0.6-2.4-0.6c-0.9,0-1.8,0.2-2.6,0.7c-0.8,0.4-1.4,1-1.7,1.7L3.6,16L7.1,0.8h15.4v5.8H10.4L12,5l-2,7.3L8,13.5
		c0.5-1.3,1.4-2.2,2.6-2.9c1.2-0.7,2.7-1,4.4-1c1.8,0,3.5,0.4,4.9,1.2c1.4,0.8,2.5,1.9,3.3,3.3s1.2,3.1,1.2,5c0,2.1-0.5,4-1.4,5.6
		c-0.9,1.6-2.2,2.8-3.9,3.7S15.5,29.7,13.3,29.7z"/>
</g>
</svg>
