<?xml version="1.0" encoding="utf-8"?>
<!-- Generator: Adobe Illustrator 26.0.0, SVG Export Plug-In . SVG Version: 6.00 Build 0)  -->
<svg version="1.1" id="Layer_1" xmlns="http://www.w3.org/2000/svg" xmlns:xlink="http://www.w3.org/1999/xlink" x="0px" y="0px"
	 viewBox="0 0 27 30" style="enable-background:new 0 0 27 30;" xml:space="preserve">
<g>
	<path d="M7.7,8.4l5.6-7.6h7.1l-7.9,10.6L10.8,11c0.4-0.4,1-0.8,1.8-1.1c0.8-0.3,1.7-0.5,2.4-0.5c1.9,0,3.7,0.4,5.1,1.2
		c1.5,0.8,2.6,2,3.5,3.5c0.8,1.5,1.2,3.2,1.2,5.1c0,2.1-0.5,3.9-1.4,5.5c-0.9,1.6-2.2,2.8-3.9,3.7s-3.5,1.3-5.6,1.3
		c-2.1,0-4-0.5-5.7-1.4c-1.7-0.9-3-2.2-3.9-3.8C3.5,23,3,21.2,3,19.2c0-1.2,0.2-2.3,0.5-3.3c0.3-1,0.8-2.1,1.5-3.3S6.6,10,7.7,8.4z
		 M9.4,19.3c0,1,0.2,1.8,0.6,2.6c0.4,0.7,0.9,1.3,1.6,1.7c0.7,0.4,1.5,0.6,2.4,0.6c0.9,0,1.7-0.2,2.4-0.6c0.7-0.4,1.2-1,1.6-1.7
		s0.6-1.6,0.6-2.6s-0.2-1.8-0.6-2.6s-0.9-1.3-1.6-1.7c-0.7-0.4-1.5-0.6-2.4-0.6c-0.9,0-1.7,0.2-2.4,0.6c-0.7,0.4-1.2,1-1.6,1.7
		S9.4,18.3,9.4,19.3z"/>
</g>
</svg>
