<svg width="439" height="439" viewBox="0 0 439 439" fill="none" xmlns="http://www.w3.org/2000/svg">
<circle cx="219.5" cy="219.5" r="207.5" stroke="#272730" stroke-width="24"/>
<g opacity="0.6">
<path d="M374.899 353.466C374.984 353.37 375.071 353.362 375.16 353.441L380.333 358.036C380.422 358.115 380.433 358.192 380.366 358.267L379.819 358.883C379.752 358.958 379.681 358.963 379.606 358.896L379.011 358.367C378.976 358.337 378.95 358.325 378.931 358.333C378.912 358.34 378.901 358.373 378.898 358.432C378.875 358.816 378.84 359.158 378.793 359.459C378.747 359.773 378.664 360.06 378.543 360.32C378.429 360.586 378.269 360.836 378.062 361.068C377.588 361.602 377.082 361.882 376.546 361.907C376.003 361.939 375.502 361.751 375.044 361.344L371.215 357.943C371.106 357.846 371.097 357.746 371.188 357.643L371.698 357.069C371.741 357.021 371.782 356.996 371.82 356.993C371.866 356.997 371.909 357.017 371.95 357.054L375.615 360.309C375.95 360.607 376.286 360.752 376.623 360.745C376.966 360.744 377.302 360.559 377.631 360.189C377.807 359.991 377.94 359.772 378.029 359.534C378.12 359.308 378.182 359.051 378.217 358.764C378.259 358.483 378.285 358.151 378.294 357.767L374.414 354.321C374.312 354.23 374.306 354.133 374.397 354.03L374.899 353.466Z" fill="white"/>
<path d="M369.284 370.145C369.252 370.177 369.219 370.19 369.187 370.184C369.148 370.184 369.116 370.172 369.09 370.146L368.67 369.731C368.605 369.666 368.604 369.602 368.669 369.537L369.769 368.424C369.821 368.372 369.82 368.32 369.768 368.268L365.424 363.973C365.333 363.883 365.326 363.798 365.403 363.72L365.992 363.125C366.063 363.053 366.14 363.059 366.225 363.143L370.589 367.458C370.635 367.503 370.68 367.503 370.725 367.457L371.671 366.5C371.735 366.435 371.8 366.435 371.865 366.499L372.285 366.914C372.311 366.94 372.327 366.969 372.334 367.001C372.334 367.04 372.315 367.079 372.276 367.118L371.359 368.046C371.301 368.104 371.305 368.166 371.37 368.23L372.083 368.935C372.493 369.34 372.705 369.75 372.721 370.164C372.736 370.578 372.541 370.99 372.135 371.4L371.334 372.211C371.251 372.295 371.17 372.299 371.092 372.222L370.711 371.845C370.678 371.813 370.662 371.778 370.662 371.739C370.662 371.713 370.681 371.68 370.719 371.641L371.395 370.958C371.595 370.756 371.674 370.545 371.634 370.326C371.594 370.119 371.467 369.909 371.252 369.697L370.569 369.021C370.51 368.963 370.452 368.963 370.394 369.022L369.284 370.145Z" fill="white"/>
<path d="M362.912 375.035C362.965 374.986 362.968 374.934 362.918 374.88L359.968 371.68C359.677 371.364 359.427 371.201 359.22 371.193C359.014 371.184 358.802 371.279 358.587 371.478L357.891 372.12C357.857 372.151 357.821 372.166 357.782 372.164C357.749 372.169 357.714 372.152 357.677 372.111L357.371 371.759C357.309 371.691 357.309 371.611 357.371 371.516C357.426 371.44 357.514 371.34 357.636 371.216C357.751 371.097 357.866 370.979 357.981 370.861C358.095 370.755 358.193 370.665 358.273 370.591C358.697 370.2 359.097 370.012 359.472 370.027C359.853 370.049 360.242 370.276 360.639 370.706L363.747 374.078C363.809 374.145 363.874 374.148 363.941 374.086L364.749 373.342C364.823 373.273 364.894 373.276 364.962 373.35L365.353 373.774C365.415 373.842 365.413 373.906 365.345 373.968L364.487 374.759C364.44 374.803 364.441 374.851 364.491 374.905L365.859 376.613C365.933 376.706 365.937 376.784 365.869 376.846L365.365 377.311C365.284 377.386 365.2 377.376 365.113 377.282L363.643 375.687C363.593 375.633 363.542 375.631 363.488 375.68L362.216 376.853C362.142 376.921 362.077 376.925 362.021 376.864L361.621 376.43C361.553 376.356 361.556 376.285 361.63 376.217L362.912 375.035Z" fill="white"/>
<path d="M349.525 387.637C349.148 387.928 348.771 388.121 348.393 388.216C348.014 388.324 347.642 388.351 347.277 388.297C346.91 388.257 346.563 388.166 346.235 388.026C346.124 387.973 346.1 387.904 346.163 387.821L346.652 387.218C346.686 387.158 346.75 387.143 346.844 387.175C347.151 387.273 347.427 387.331 347.673 387.35C347.911 387.374 348.135 387.357 348.345 387.299C348.56 387.249 348.762 387.151 348.95 387.005C349.32 386.72 349.573 386.374 349.71 385.968C349.846 385.574 349.855 385.145 349.739 384.679C349.623 384.214 349.38 383.742 349.011 383.264C348.636 382.779 348.238 382.421 347.818 382.191C347.39 381.966 346.969 381.869 346.553 381.901C346.131 381.938 345.731 382.101 345.355 382.392C345.007 382.661 344.773 382.98 344.654 383.349C344.535 383.719 344.499 384.152 344.546 384.647C344.552 384.7 344.548 384.732 344.533 384.743C344.517 384.767 344.485 384.786 344.438 384.8L343.836 384.987C343.769 385.004 343.718 384.968 343.684 384.879C343.647 384.607 343.634 384.328 343.645 384.042C343.655 383.756 343.708 383.472 343.803 383.191C343.891 382.915 344.024 382.645 344.201 382.381C344.384 382.124 344.621 381.883 344.911 381.66C345.447 381.246 346.016 381.003 346.62 380.93C347.221 380.871 347.808 380.972 348.381 381.235C348.96 381.506 349.476 381.934 349.929 382.521C350.387 383.115 350.674 383.726 350.789 384.354C350.897 384.988 350.846 385.588 350.636 386.155C350.424 386.735 350.054 387.229 349.525 387.637Z" fill="white"/>
<path d="M335.518 388.487C336.085 388.101 336.676 387.886 337.29 387.844C337.901 387.815 338.485 387.948 339.042 388.244C339.596 388.553 340.079 389.01 340.492 389.615C340.92 390.243 341.173 390.874 341.251 391.507C341.326 392.154 341.239 392.757 340.988 393.315C340.738 393.874 340.329 394.346 339.762 394.733C339.187 395.125 338.595 395.33 337.986 395.346C337.374 395.375 336.789 395.232 336.23 394.915C335.668 394.612 335.178 394.154 334.761 393.541C334.348 392.936 334.103 392.317 334.025 391.683C333.952 391.057 334.041 390.464 334.292 389.906C334.535 389.352 334.943 388.879 335.518 388.487ZM335.983 389.217C335.59 389.486 335.318 389.81 335.167 390.19C335.021 390.577 334.998 390.997 335.096 391.451C335.193 391.917 335.411 392.399 335.751 392.898C336.092 393.397 336.459 393.773 336.852 394.025C337.251 394.285 337.658 394.418 338.071 394.424C338.485 394.429 338.889 394.298 339.282 394.03C339.668 393.767 339.937 393.439 340.09 393.047C340.244 392.654 340.276 392.222 340.187 391.751C340.096 391.292 339.88 390.814 339.54 390.315C339.204 389.823 338.837 389.447 338.439 389.188C338.032 388.933 337.618 388.805 337.197 388.805C336.781 388.812 336.376 388.949 335.983 389.217Z" fill="white"/>
<path d="M326.94 394.479C326.892 394.401 326.874 394.337 326.886 394.287C326.903 394.244 326.951 394.199 327.029 394.151L327.637 393.778C327.754 393.706 327.846 393.724 327.913 393.834L333.029 402.195C333.096 402.305 333.083 402.388 332.989 402.445L332.287 402.876C332.194 402.934 332.116 402.912 332.054 402.81L326.94 394.479Z" fill="white"/>
<path d="M320.683 398.15C320.638 398.07 320.622 398.005 320.636 397.955C320.654 397.913 320.703 397.87 320.783 397.825L321.404 397.473C321.524 397.406 321.615 397.428 321.678 397.539L326.493 406.078C326.556 406.189 326.54 406.272 326.444 406.326L325.727 406.732C325.632 406.786 325.555 406.761 325.496 406.658L320.683 398.15Z" fill="white"/>
<path d="M210.115 423.856C210.242 423.865 210.302 423.929 210.294 424.047L209.825 430.951C209.817 431.07 209.763 431.126 209.663 431.119L208.841 431.063C208.74 431.056 208.693 431.003 208.7 430.902L208.754 430.108C208.757 430.062 208.75 430.034 208.732 430.024C208.715 430.013 208.682 430.025 208.634 430.058C208.316 430.275 208.024 430.457 207.757 430.604C207.481 430.76 207.203 430.869 206.923 430.933C206.643 431.006 206.348 431.031 206.037 431.01C205.325 430.962 204.794 430.733 204.446 430.324C204.089 429.915 203.931 429.404 203.972 428.792L204.319 423.683C204.329 423.537 204.403 423.468 204.54 423.478L205.307 423.53C205.371 423.534 205.415 423.551 205.441 423.58C205.466 423.619 205.476 423.665 205.473 423.72L205.14 428.61C205.11 429.057 205.201 429.412 205.412 429.674C205.623 429.945 205.975 430.098 206.468 430.131C206.733 430.149 206.987 430.121 207.231 430.045C207.465 429.979 207.706 429.871 207.955 429.723C208.203 429.584 208.481 429.401 208.79 429.174L209.142 423.997C209.151 423.86 209.224 423.796 209.361 423.805L210.115 423.856Z" fill="white"/>
<path d="M193.488 429.621C193.442 429.616 193.412 429.598 193.397 429.569C193.373 429.538 193.363 429.505 193.368 429.469L193.439 428.883C193.45 428.792 193.501 428.752 193.592 428.763L195.146 428.952C195.218 428.961 195.259 428.929 195.268 428.856L196.007 422.792C196.023 422.665 196.085 422.608 196.194 422.621L197.025 422.722C197.125 422.734 197.168 422.8 197.154 422.918L196.411 429.01C196.403 429.073 196.431 429.109 196.495 429.117L197.831 429.279C197.921 429.291 197.961 429.341 197.95 429.432L197.879 430.018C197.874 430.055 197.861 430.085 197.84 430.11C197.809 430.134 197.767 430.143 197.712 430.136L196.418 429.979C196.336 429.969 196.289 430.009 196.278 430.1L196.157 431.095C196.087 431.667 195.893 432.086 195.575 432.352C195.257 432.617 194.812 432.715 194.239 432.645L193.108 432.507C192.99 432.493 192.938 432.431 192.951 432.322L193.016 431.791C193.021 431.745 193.039 431.711 193.07 431.687C193.09 431.671 193.128 431.666 193.182 431.673L194.136 431.789C194.418 431.823 194.633 431.757 194.783 431.591C194.922 431.433 195.01 431.204 195.046 430.904L195.162 429.95C195.172 429.868 195.137 429.822 195.055 429.812L193.488 429.621Z" fill="white"/>
<path d="M185.721 427.573C185.793 427.585 185.835 427.555 185.847 427.483L186.573 423.192C186.645 422.768 186.621 422.471 186.501 422.303C186.381 422.134 186.177 422.025 185.888 421.976L184.954 421.818C184.909 421.81 184.875 421.791 184.852 421.759C184.828 421.737 184.821 421.698 184.83 421.644L184.921 421.186C184.937 421.096 185.001 421.046 185.114 421.038C185.207 421.035 185.34 421.043 185.513 421.063C185.677 421.082 185.841 421.1 186.005 421.119C186.158 421.145 186.289 421.167 186.398 421.185C186.966 421.281 187.359 421.482 187.577 421.788C187.792 422.103 187.852 422.55 187.754 423.127L186.989 427.649C186.974 427.739 187.011 427.792 187.101 427.807L188.184 427.99C188.283 428.007 188.325 428.065 188.308 428.164L188.212 428.733C188.196 428.823 188.144 428.861 188.053 428.845L186.903 428.651C186.84 428.64 186.802 428.671 186.79 428.743L186.277 430.87C186.248 430.986 186.188 431.036 186.098 431.021L185.421 430.906C185.313 430.888 185.269 430.816 185.291 430.689L185.653 428.55C185.665 428.478 185.635 428.436 185.563 428.424L183.857 428.135C183.758 428.118 183.715 428.069 183.729 427.988L183.827 427.406C183.844 427.307 183.902 427.266 184.001 427.282L185.721 427.573Z" fill="white"/>
<path d="M167.562 424.698C167.101 424.578 166.718 424.398 166.411 424.157C166.094 423.923 165.845 423.645 165.664 423.324C165.472 423.009 165.331 422.679 165.241 422.334C165.215 422.214 165.255 422.153 165.359 422.152L166.135 422.17C166.204 422.159 166.254 422.201 166.287 422.294C166.397 422.597 166.52 422.852 166.655 423.057C166.782 423.26 166.933 423.427 167.107 423.558C167.278 423.697 167.479 423.797 167.71 423.857C168.161 423.975 168.59 423.963 168.995 423.823C169.39 423.689 169.735 423.434 170.032 423.057C170.329 422.681 170.553 422.2 170.706 421.616C170.86 421.022 170.9 420.489 170.825 420.015C170.741 419.539 170.559 419.147 170.281 418.838C169.993 418.526 169.619 418.31 169.158 418.19C168.733 418.08 168.338 418.09 167.972 418.222C167.607 418.354 167.243 418.59 166.88 418.93C166.842 418.968 166.814 418.984 166.796 418.979C166.767 418.981 166.733 418.968 166.693 418.938L166.177 418.577C166.122 418.534 166.119 418.472 166.169 418.39C166.362 418.195 166.575 418.014 166.807 417.847C167.04 417.681 167.296 417.549 167.577 417.452C167.849 417.353 168.144 417.292 168.461 417.271C168.777 417.259 169.111 417.299 169.466 417.391C170.121 417.562 170.662 417.863 171.088 418.296C171.504 418.735 171.783 419.262 171.925 419.876C172.066 420.499 172.042 421.169 171.855 421.887C171.666 422.613 171.358 423.214 170.932 423.689C170.496 424.162 169.99 424.489 169.413 424.67C168.825 424.857 168.208 424.866 167.562 424.698Z" fill="white"/>
<path d="M158.318 414.138C158.971 414.35 159.502 414.686 159.911 415.146C160.309 415.612 160.56 416.155 160.667 416.777C160.761 417.404 160.696 418.066 160.47 418.762C160.235 419.485 159.891 420.071 159.438 420.52C158.972 420.976 158.442 421.275 157.847 421.419C157.252 421.563 156.628 421.529 155.975 421.317C155.313 421.102 154.79 420.759 154.404 420.287C154.006 419.822 153.762 419.271 153.67 418.635C153.566 418.005 153.629 417.337 153.858 416.632C154.084 415.935 154.423 415.362 154.877 414.913C155.328 414.472 155.851 414.18 156.446 414.036C157.033 413.89 157.657 413.924 158.318 414.138ZM158.025 414.953C157.573 414.806 157.15 414.789 156.757 414.902C156.362 415.024 156.015 415.263 155.716 415.618C155.407 415.98 155.159 416.448 154.972 417.022C154.786 417.597 154.713 418.117 154.755 418.583C154.793 419.057 154.937 419.46 155.186 419.79C155.434 420.121 155.785 420.36 156.238 420.507C156.682 420.651 157.106 420.664 157.51 420.545C157.914 420.426 158.276 420.187 158.594 419.828C158.901 419.476 159.148 419.012 159.334 418.437C159.518 417.871 159.59 417.351 159.552 416.877C159.504 416.4 159.352 415.994 159.095 415.661C158.834 415.336 158.478 415.1 158.025 414.953Z" fill="white"/>
<path d="M148.331 411.02C148.363 410.934 148.403 410.881 148.45 410.859C148.494 410.847 148.559 410.857 148.645 410.889L149.312 411.142C149.441 411.19 149.482 411.275 149.437 411.394L145.954 420.557C145.909 420.677 145.834 420.718 145.732 420.679L144.961 420.387C144.859 420.348 144.828 420.273 144.87 420.162L148.331 411.02Z" fill="white"/>
<path d="M141.598 408.318C141.633 408.234 141.675 408.182 141.723 408.162C141.767 408.151 141.832 408.163 141.916 408.198L142.574 408.475C142.701 408.528 142.739 408.614 142.69 408.732L138.882 417.765C138.833 417.883 138.757 417.921 138.656 417.878L137.897 417.559C137.795 417.517 137.768 417.441 137.814 417.331L141.598 408.318Z" fill="white"/>
<path d="M134.058 408.228C134.252 407.823 134.334 407.406 134.306 406.977C134.266 406.552 134.132 406.163 133.904 405.811C133.669 405.455 133.348 405.18 132.944 404.987C132.531 404.79 132.124 404.697 131.723 404.708C131.318 404.728 130.917 404.856 130.52 405.092C130.471 405.109 130.438 405.114 130.422 405.106C130.393 405.103 130.362 405.083 130.329 405.046L129.933 404.538C129.878 404.461 129.897 404.399 129.991 404.353C130.372 404.129 130.75 403.974 131.125 403.89C131.488 403.81 131.858 403.799 132.236 403.858C132.613 403.916 133.009 404.044 133.422 404.241C134.033 404.533 134.507 404.932 134.843 405.438C135.18 405.943 135.364 406.513 135.396 407.147C135.428 407.781 135.286 408.429 134.971 409.089C134.627 409.808 134.197 410.358 133.68 410.74C133.151 411.126 132.584 411.347 131.979 411.403C131.366 411.455 130.766 411.341 130.179 411.061C129.577 410.773 129.115 410.39 128.795 409.913C128.476 409.436 128.312 408.886 128.305 408.264C128.298 407.642 128.464 406.976 128.803 406.265C128.831 406.208 128.867 406.154 128.911 406.104C128.947 406.05 129.014 406.047 129.113 406.094L133.858 408.36C133.891 408.376 133.93 408.369 133.975 408.34C134.007 408.315 134.035 408.277 134.058 408.228ZM129.853 407.284C129.762 407.241 129.701 407.221 129.668 407.226C129.631 407.239 129.595 407.283 129.56 407.357C129.39 407.712 129.311 408.08 129.322 408.461C129.321 408.845 129.419 409.202 129.618 409.53C129.808 409.854 130.105 410.113 130.51 410.306C130.956 410.519 131.383 410.591 131.791 410.522C132.195 410.462 132.557 410.3 132.875 410.036C133.194 409.772 133.442 409.455 133.62 409.083L129.853 407.284Z" fill="white"/>
<path d="M118.857 405.243C118.44 405.013 118.113 404.744 117.876 404.435C117.626 404.13 117.453 403.799 117.357 403.443C117.248 403.091 117.193 402.736 117.191 402.379C117.196 402.257 117.25 402.208 117.351 402.232L118.098 402.441C118.168 402.448 118.207 402.501 118.215 402.599C118.247 402.92 118.303 403.197 118.384 403.43C118.456 403.658 118.561 403.857 118.697 404.026C118.829 404.204 119 404.35 119.208 404.465C119.617 404.691 120.035 404.785 120.462 404.75C120.877 404.717 121.275 404.555 121.656 404.264C122.036 403.972 122.373 403.562 122.665 403.033C122.961 402.496 123.131 401.989 123.175 401.511C123.211 401.029 123.132 400.604 122.938 400.236C122.736 399.863 122.427 399.561 122.01 399.331C121.626 399.119 121.24 399.032 120.854 399.069C120.467 399.107 120.056 399.246 119.62 399.486C119.574 399.513 119.543 399.522 119.527 399.513C119.498 399.508 119.468 399.486 119.437 399.448L119.026 398.97C118.984 398.915 118.996 398.854 119.065 398.787C119.3 398.645 119.551 398.522 119.817 398.419C120.083 398.315 120.365 398.25 120.661 398.226C120.949 398.196 121.249 398.211 121.562 398.268C121.871 398.334 122.185 398.456 122.506 398.633C123.099 398.96 123.549 399.386 123.855 399.91C124.149 400.439 124.289 401.018 124.276 401.648C124.258 402.287 124.07 402.93 123.711 403.579C123.349 404.236 122.902 404.743 122.371 405.098C121.833 405.449 121.262 405.64 120.658 405.673C120.042 405.71 119.442 405.566 118.857 405.243Z" fill="white"/>
<path d="M109.996 398.886C110.058 398.925 110.109 398.913 110.147 398.851L112.444 395.155C112.672 394.789 112.762 394.506 112.714 394.304C112.667 394.102 112.519 393.924 112.271 393.77L111.466 393.269C111.427 393.245 111.403 393.214 111.395 393.177C111.381 393.146 111.389 393.108 111.418 393.061L111.676 392.672C111.724 392.595 111.802 392.573 111.91 392.608C111.997 392.64 112.117 392.699 112.27 392.783C112.414 392.862 112.559 392.941 112.704 393.02C112.836 393.103 112.949 393.173 113.042 393.231C113.532 393.535 113.819 393.87 113.905 394.235C113.985 394.609 113.871 395.044 113.562 395.542L111.141 399.436C111.093 399.514 111.108 399.577 111.185 399.625L112.118 400.205C112.204 400.258 112.22 400.328 112.167 400.413L111.862 400.903C111.814 400.981 111.751 400.995 111.673 400.947L110.682 400.331C110.628 400.297 110.581 400.311 110.543 400.374L109.262 402.148C109.191 402.244 109.117 402.268 109.039 402.22L108.456 401.858C108.363 401.8 108.35 401.716 108.418 401.607L109.563 399.765C109.602 399.703 109.59 399.652 109.528 399.614L108.058 398.701C107.973 398.647 107.952 398.586 107.995 398.516L108.307 398.014C108.36 397.929 108.429 397.913 108.515 397.966L109.996 398.886Z" fill="white"/>
<path d="M105.995 388.905C106.046 388.83 106.097 388.787 106.148 388.777C106.186 388.77 106.247 388.795 106.33 388.851L106.909 389.245C106.978 389.291 107.015 389.334 107.022 389.372C107.03 389.41 107.013 389.459 106.972 389.52L103.097 395.219C103.025 395.325 102.943 395.348 102.853 395.286L102.16 394.815C102.077 394.758 102.069 394.681 102.135 394.582L105.995 388.905ZM101.11 395.994C101.207 395.85 101.324 395.824 101.461 395.917L102.119 396.364C102.187 396.411 102.223 396.457 102.225 396.502C102.222 396.556 102.2 396.613 102.158 396.673L101.51 397.627C101.428 397.748 101.334 397.773 101.228 397.701L100.512 397.214C100.406 397.142 100.392 397.049 100.469 396.936L101.11 395.994Z" fill="white"/>
<path d="M98.7888 383.291C99.3373 383.703 99.7301 384.194 99.9671 384.762C100.191 385.331 100.253 385.927 100.151 386.55C100.036 387.174 99.7589 387.778 99.3186 388.363C98.8618 388.97 98.3457 389.412 97.7705 389.69C97.1824 389.969 96.5836 390.079 95.9741 390.022C95.3647 389.964 94.7857 389.729 94.2372 389.316C93.6814 388.897 93.2978 388.403 93.0864 387.831C92.8622 387.261 92.8101 386.661 92.9301 386.03C93.0373 385.4 93.3139 384.789 93.7597 384.197C94.2 383.612 94.7078 383.18 95.283 382.903C95.8528 382.633 96.4424 382.527 97.0519 382.585C97.6541 382.637 98.233 382.872 98.7888 383.291ZM98.2468 383.965C97.8665 383.679 97.4723 383.526 97.0641 383.505C96.6504 383.491 96.2447 383.604 95.8471 383.843C95.4367 384.084 95.0498 384.446 94.6866 384.929C94.3233 385.411 94.0855 385.88 93.973 386.333C93.8551 386.794 93.8599 387.222 93.9874 387.616C94.1149 388.009 94.3688 388.349 94.749 388.636C95.122 388.916 95.519 389.066 95.94 389.085C96.361 389.104 96.7804 388.996 97.1981 388.76C97.6031 388.527 97.9872 388.169 98.3504 387.686C98.7082 387.211 98.946 386.742 99.0639 386.281C99.1746 385.815 99.1625 385.382 99.0277 384.982C98.8874 384.591 98.6271 384.251 98.2468 383.965Z" fill="white"/>
<path d="M91.2558 377.561C91.3533 377.644 91.3635 377.731 91.2863 377.821L86.7983 383.088C86.7211 383.178 86.6442 383.191 86.5676 383.126L85.9406 382.591C85.864 382.526 85.8583 382.455 85.9236 382.378L86.4401 381.772C86.4698 381.738 86.4806 381.711 86.4726 381.692C86.4646 381.673 86.4314 381.663 86.3728 381.661C85.9885 381.646 85.6455 381.618 85.3435 381.578C85.0287 381.538 84.7401 381.46 84.4777 381.345C84.2093 381.236 83.9567 381.081 83.7198 380.879C83.1765 380.416 82.8866 379.917 82.8503 379.381C82.8071 378.839 82.9843 378.334 83.3821 377.868L86.7036 373.97C86.7985 373.859 86.8983 373.847 87.0028 373.936L87.588 374.435C87.6367 374.477 87.6627 374.517 87.6658 374.555C87.6629 374.601 87.6437 374.645 87.6081 374.687L84.429 378.417C84.1381 378.759 83.9996 379.097 84.0135 379.434C84.0214 379.777 84.2135 380.109 84.5897 380.43C84.7917 380.602 85.013 380.731 85.2535 380.815C85.4811 380.901 85.7389 380.958 86.0268 380.987C86.3089 381.023 86.6415 381.042 87.0247 381.044L90.3908 377.094C90.4798 376.99 90.5766 376.982 90.6811 377.071L91.2558 377.561Z" fill="white"/>
<path d="M53.6084 336.597C53.6798 336.703 53.6661 336.79 53.5672 336.856L47.82 340.709C47.7211 340.775 47.6437 340.767 47.5876 340.683L47.1289 339.999C47.0728 339.915 47.0866 339.845 47.1702 339.789L47.8316 339.346C47.8696 339.32 47.8873 339.298 47.8847 339.277C47.8822 339.257 47.8529 339.238 47.797 339.22C47.4312 339.102 47.1084 338.982 46.8289 338.861C46.5366 338.738 46.2798 338.585 46.0585 338.403C45.8296 338.225 45.6284 338.008 45.4551 337.749C45.0576 337.156 44.9139 336.597 45.0242 336.071C45.1295 335.538 45.4367 335.1 45.9461 334.759L50.1995 331.907C50.3211 331.825 50.4202 331.842 50.4967 331.956L50.9248 332.594C50.9605 332.647 50.9746 332.693 50.9671 332.731C50.9519 332.774 50.9216 332.811 50.876 332.842L46.805 335.571C46.4325 335.821 46.2073 336.11 46.1295 336.437C46.044 336.77 46.1389 337.142 46.4142 337.552C46.562 337.773 46.7402 337.956 46.9487 338.103C47.1446 338.247 47.3772 338.372 47.6466 338.478C47.9083 338.589 48.2234 338.698 48.5917 338.803L52.9022 335.913C53.0162 335.837 53.1115 335.856 53.1879 335.97L53.6084 336.597Z" fill="white"/>
<path d="M38.8747 326.972C38.8513 326.933 38.8467 326.899 38.8609 326.869C38.8704 326.831 38.8909 326.803 38.9224 326.784L39.4296 326.482C39.5082 326.435 39.571 326.451 39.6178 326.53L40.4187 327.875C40.4562 327.937 40.5064 327.95 40.5693 327.913L45.8183 324.786C45.9284 324.721 46.0115 324.735 46.0677 324.83L46.4963 325.549C46.5478 325.636 46.5225 325.709 46.4202 325.77L41.1476 328.911C41.0926 328.943 41.0814 328.987 41.1142 329.042L41.8027 330.198C41.8496 330.277 41.8337 330.34 41.755 330.386L41.2478 330.689C41.2164 330.707 41.1842 330.716 41.1512 330.714C41.1136 330.705 41.0807 330.676 41.0526 330.629L40.3852 329.508C40.343 329.438 40.2826 329.426 40.204 329.473L39.3429 329.985C38.8475 330.28 38.3974 330.383 37.9927 330.294C37.5881 330.205 37.2382 329.913 36.9431 329.417L36.36 328.438C36.2991 328.336 36.3158 328.257 36.4102 328.201L36.8702 327.927C36.9095 327.903 36.948 327.896 36.9857 327.906C37.0108 327.912 37.0374 327.939 37.0655 327.986L37.5572 328.812C37.7024 329.056 37.8865 329.186 38.1093 329.202C38.3196 329.215 38.5545 329.145 38.814 328.99L39.6397 328.498C39.7105 328.456 39.7248 328.4 39.6826 328.329L38.8747 326.972Z" fill="white"/>
<path d="M35.7414 319.576C35.7759 319.641 35.8255 319.656 35.8901 319.622L39.7284 317.57C40.1078 317.367 40.3275 317.167 40.3876 316.969C40.4478 316.77 40.4088 316.542 40.2707 316.284L39.8242 315.448C39.8026 315.408 39.7975 315.369 39.8087 315.332C39.8119 315.299 39.8378 315.27 39.8862 315.244L40.3043 315.036C40.3851 314.993 40.4634 315.013 40.5394 315.097C40.5987 315.169 40.6734 315.28 40.7634 315.429C40.8491 315.57 40.9349 315.711 41.0206 315.852C41.094 315.989 41.1565 316.106 41.2083 316.203C41.4801 316.712 41.5615 317.145 41.4525 317.505C41.3355 317.868 41.0187 318.188 40.502 318.464L36.4579 320.626C36.3772 320.669 36.3584 320.731 36.4015 320.811L36.9193 321.78C36.9667 321.869 36.946 321.937 36.8573 321.985L36.3487 322.256C36.268 322.299 36.2061 322.281 36.1629 322.2L35.6128 321.171C35.5826 321.114 35.5352 321.103 35.4706 321.138L33.4743 322.034C33.365 322.082 33.2888 322.065 33.2457 321.985L32.9221 321.379C32.8703 321.282 32.9009 321.204 33.0139 321.143L34.927 320.121C34.9916 320.086 35.0066 320.037 34.9721 319.972L34.1567 318.446C34.1092 318.358 34.1218 318.294 34.1945 318.255L34.7151 317.977C34.8039 317.929 34.8721 317.95 34.9195 318.039L35.7414 319.576Z" fill="white"/>
<path d="M26.905 303.454C26.7181 303.016 26.6261 302.603 26.629 302.213C26.62 301.819 26.6872 301.452 26.8306 301.112C26.9621 300.767 27.1368 300.454 27.3547 300.172C27.4342 300.078 27.5063 300.072 27.5711 300.154L28.0317 300.778C28.0821 300.826 28.0802 300.892 28.026 300.975C27.8538 301.247 27.7279 301.5 27.6482 301.733C27.565 301.958 27.5251 302.179 27.5284 302.396C27.5233 302.618 27.5674 302.838 27.6609 303.056C27.8442 303.486 28.1153 303.818 28.4744 304.053C28.8214 304.283 29.2347 304.4 29.7142 304.404C30.1937 304.408 30.7112 304.292 31.2668 304.055C31.8308 303.814 32.2771 303.519 32.6056 303.169C32.9306 302.812 33.13 302.428 33.2039 302.018C33.2742 301.6 33.2159 301.172 33.029 300.735C32.8565 300.331 32.6063 300.024 32.2785 299.816C31.9507 299.608 31.541 299.464 31.0496 299.385C30.9967 299.378 30.9667 299.366 30.9595 299.349C30.9403 299.327 30.9301 299.292 30.929 299.243L30.8992 298.613C30.8993 298.544 30.9468 298.504 31.0418 298.493C31.3145 298.526 31.5879 298.583 31.8618 298.665C32.1357 298.747 32.3969 298.87 32.6455 299.032C32.8904 299.186 33.1185 299.383 33.3297 299.621C33.5325 299.863 33.7058 300.152 33.8495 300.489C34.1155 301.112 34.2078 301.724 34.1265 302.326C34.0331 302.923 33.7872 303.466 33.3888 303.955C32.9819 304.447 32.4375 304.839 31.7557 305.13C31.0655 305.424 30.4019 305.549 29.765 305.502C29.1245 305.447 28.5563 305.247 28.0604 304.901C27.5525 304.551 27.1674 304.068 26.905 303.454Z" fill="white"/>
<path d="M29.6001 289.683C29.8321 290.329 29.8913 290.955 29.7779 291.559C29.6527 292.159 29.3768 292.69 28.9503 293.155C28.5121 293.614 27.9485 293.967 27.2593 294.214C26.5443 294.471 25.8703 294.557 25.2372 294.474C24.5925 294.384 24.0312 294.148 23.5534 293.765C23.0755 293.383 22.7206 292.868 22.4887 292.222C22.2536 291.567 22.2045 290.943 22.3414 290.349C22.4666 289.75 22.7526 289.219 23.1994 288.758C23.6345 288.29 24.2009 287.931 24.8987 287.681C25.5878 287.433 26.2489 287.351 26.882 287.435C27.5065 287.522 28.0576 287.757 28.5354 288.14C29.0101 288.514 29.365 289.028 29.6001 289.683ZM28.7768 289.95C28.6159 289.502 28.3706 289.157 28.0408 288.916C27.7024 288.677 27.3013 288.549 26.8377 288.531C26.3623 288.507 25.8404 288.597 25.2719 288.801C24.7033 289.005 24.2475 289.266 23.9045 289.584C23.5529 289.905 23.3223 290.265 23.2128 290.664C23.1033 291.063 23.1289 291.486 23.2898 291.934C23.4475 292.374 23.6972 292.717 24.0387 292.964C24.3802 293.211 24.7902 293.35 25.2686 293.383C25.7354 293.41 26.253 293.321 26.8215 293.117C27.3815 292.916 27.8373 292.655 28.1889 292.334C28.5374 292.005 28.7649 291.636 28.8713 291.228C28.9691 290.824 28.9376 290.397 28.7768 289.95Z" fill="white"/>
<path d="M25.9554 279.874C26.043 279.847 26.1096 279.846 26.1553 279.87C26.1923 279.897 26.2241 279.954 26.2509 280.042L26.4596 280.725C26.4997 280.856 26.4585 280.94 26.3359 280.978L16.9573 283.83C16.8348 283.867 16.7575 283.834 16.7254 283.729L16.4846 282.941C16.4525 282.836 16.4933 282.766 16.6071 282.731L25.9554 279.874Z" fill="white"/>
<path d="M23.9723 272.894C24.0607 272.87 24.1273 272.871 24.1721 272.897C24.2081 272.926 24.2379 272.984 24.2615 273.072L24.4458 273.762C24.4812 273.895 24.437 273.978 24.3132 274.011L14.8389 276.527C14.7151 276.56 14.6391 276.523 14.6107 276.417L14.3982 275.621C14.3698 275.515 14.4131 275.447 14.5281 275.416L23.9723 272.894Z" fill="white"/>
<path d="M19.4304 266.878C19.8688 266.783 20.2491 266.593 20.5714 266.308C20.8829 266.016 21.1082 265.673 21.2475 265.277C21.3849 264.873 21.4062 264.452 21.3114 264.013C21.2147 263.566 21.0392 263.187 20.7849 262.877C20.5216 262.569 20.175 262.33 19.7451 262.161C19.7016 262.133 19.6779 262.11 19.674 262.092C19.6593 262.067 19.656 262.03 19.6643 261.981L19.8242 261.357C19.8516 261.267 19.9122 261.244 20.0063 261.289C20.4164 261.454 20.7696 261.658 21.066 261.903C21.3516 262.141 21.5867 262.427 21.7714 262.762C21.9561 263.097 22.0968 263.488 22.1935 263.935C22.3366 264.597 22.3111 265.216 22.1172 265.792C21.9232 266.367 21.5853 266.862 21.1034 267.275C20.6215 267.688 20.0227 267.972 19.307 268.127C18.5287 268.295 17.8303 268.291 17.2118 268.116C16.5824 267.934 16.0606 267.62 15.6462 267.176C15.2298 266.723 14.953 266.179 14.8157 265.544C14.6746 264.891 14.6949 264.292 14.8768 263.747C15.0586 263.202 15.3934 262.736 15.8811 262.35C16.3688 261.963 16.9974 261.687 17.7667 261.521C17.8294 261.507 17.8939 261.503 17.9604 261.507C18.025 261.502 18.0689 261.554 18.0921 261.661L19.203 266.801C19.2107 266.836 19.2399 266.863 19.2904 266.88C19.33 266.89 19.3767 266.89 19.4304 266.878ZM17.6034 262.975C17.5822 262.876 17.5597 262.816 17.536 262.793C17.5034 262.772 17.4468 262.77 17.3663 262.787C16.9816 262.87 16.6421 263.033 16.3478 263.274C16.0427 263.509 15.8211 263.805 15.683 264.162C15.543 264.511 15.5203 264.904 15.6151 265.343C15.7195 265.826 15.9238 266.208 16.2279 266.489C16.5232 266.771 16.8725 266.958 17.2761 267.049C17.6796 267.139 18.0827 267.141 18.4852 267.054L17.6034 262.975Z" fill="white"/>
<path d="M12.4875 253.029C12.4145 252.559 12.4275 252.136 12.5264 251.759C12.615 251.375 12.7707 251.036 12.9937 250.742C13.2062 250.44 13.4528 250.179 13.7336 249.96C13.8338 249.889 13.9051 249.901 13.9477 249.996L14.2399 250.715C14.2769 250.774 14.2589 250.837 14.1859 250.904C13.9517 251.126 13.7673 251.339 13.6326 251.546C13.4965 251.743 13.4032 251.947 13.3527 252.159C13.2931 252.372 13.2816 252.596 13.3181 252.831C13.3898 253.292 13.5705 253.681 13.8605 253.997C14.14 254.306 14.5115 254.521 14.9752 254.644C15.4388 254.766 15.9691 254.781 16.566 254.689C17.172 254.594 17.6773 254.419 18.0819 254.161C18.4851 253.895 18.7731 253.572 18.9459 253.194C19.1172 252.806 19.1663 252.377 19.0933 251.906C19.0259 251.472 18.859 251.114 18.5928 250.831C18.3266 250.548 17.9651 250.308 17.5083 250.11C17.4589 250.09 17.4327 250.071 17.4299 250.053C17.4167 250.027 17.4156 249.99 17.4266 249.942L17.5531 249.325C17.5704 249.258 17.6264 249.23 17.721 249.243C17.9773 249.343 18.228 249.466 18.4731 249.613C18.7183 249.76 18.9412 249.943 19.1419 250.162C19.3413 250.372 19.5138 250.618 19.6597 250.901C19.7965 251.186 19.893 251.509 19.9492 251.871C20.0531 252.54 19.9914 253.156 19.7639 253.719C19.526 254.275 19.1537 254.74 18.6469 255.116C18.1311 255.492 17.5069 255.737 16.7743 255.851C16.0327 255.966 15.359 255.923 14.7533 255.72C14.1462 255.509 13.645 255.175 13.2498 254.717C12.8442 254.252 12.5901 253.69 12.4875 253.029Z" fill="white"/>
<path d="M12.0956 242.128C12.1031 242.2 12.1432 242.233 12.2161 242.226L16.5454 241.781C16.9734 241.737 17.2527 241.634 17.3834 241.474C17.5141 241.313 17.5645 241.087 17.5346 240.796L17.4377 239.853C17.433 239.808 17.443 239.77 17.4675 239.74C17.4829 239.711 17.5179 239.693 17.5725 239.688L18.0383 239.654C18.1293 239.644 18.1941 239.693 18.2326 239.799C18.2602 239.888 18.2874 240.019 18.3143 240.191C18.3403 240.354 18.3662 240.517 18.3922 240.68C18.4081 240.835 18.4216 240.967 18.4329 241.076C18.4918 241.65 18.4028 242.082 18.1659 242.373C17.9199 242.665 17.5055 242.841 16.9228 242.901L12.3613 243.37C12.2702 243.379 12.2294 243.43 12.2387 243.521L12.351 244.613C12.3613 244.713 12.3164 244.769 12.2162 244.779L11.6426 244.838C11.5516 244.847 11.5014 244.806 11.492 244.715L11.3727 243.554C11.3662 243.491 11.3265 243.463 11.2536 243.47L9.06667 243.543C8.94738 243.546 8.88305 243.502 8.87369 243.411L8.80352 242.728C8.79229 242.619 8.85041 242.558 8.97788 242.545L11.1357 242.323C11.2086 242.315 11.2413 242.275 11.2338 242.202L11.0569 240.481C11.0466 240.381 11.0825 240.327 11.1644 240.319L11.7517 240.258C11.8518 240.248 11.9071 240.293 11.9174 240.393L12.0956 242.128Z" fill="white"/>
<path d="M17.5414 232.858C17.6328 232.852 17.6979 232.867 17.7367 232.901C17.7657 232.927 17.7834 232.99 17.7896 233.09L17.8325 233.789C17.8376 233.871 17.8273 233.927 17.8015 233.956C17.7758 233.985 17.7264 234.002 17.6533 234.006L10.7742 234.429C10.6463 234.437 10.579 234.386 10.5723 234.277L10.5209 233.441C10.5147 233.34 10.571 233.286 10.6898 233.279L17.5414 232.858ZM8.94606 233.331C9.11964 233.321 9.21148 233.398 9.22159 233.562L9.27047 234.357C9.27552 234.439 9.26062 234.495 9.22577 234.525C9.18177 234.555 9.12324 234.572 9.05015 234.577L7.89907 234.647C7.7529 234.656 7.67588 234.597 7.66802 234.469L7.61493 233.606C7.60706 233.478 7.67165 233.41 7.80868 233.401L8.94606 233.331Z" fill="white"/>
<path d="M17.5732 223.722C17.5823 224.408 17.4349 225.019 17.1308 225.554C16.8174 226.079 16.3835 226.493 15.8291 226.793C15.2655 227.084 14.6176 227.235 13.8854 227.244C13.1258 227.254 12.4603 227.117 11.889 226.832C11.3084 226.537 10.8545 226.131 10.5272 225.614C10.1999 225.097 10.0318 224.495 10.0226 223.808C10.0134 223.113 10.1701 222.506 10.4927 221.99C10.8061 221.464 11.2492 221.055 11.822 220.764C12.3855 220.463 13.0379 220.308 13.7792 220.298C14.5114 220.288 15.1632 220.426 15.7345 220.712C16.2966 220.997 16.7414 221.398 17.0686 221.916C17.3958 222.424 17.564 223.026 17.5732 223.722ZM16.708 223.706C16.7016 223.23 16.5818 222.824 16.3485 222.488C16.1061 222.153 15.7686 221.901 15.3361 221.733C14.8944 221.556 14.3715 221.471 13.7675 221.479C13.1635 221.487 12.6476 221.586 12.2199 221.774C11.783 221.963 11.4479 222.229 11.2144 222.57C10.981 222.912 10.8674 223.321 10.8738 223.797C10.88 224.264 11.0044 224.669 11.2469 225.014C11.4895 225.359 11.8317 225.624 12.2736 225.81C12.7062 225.988 13.2245 226.072 13.8285 226.064C14.4234 226.056 14.9393 225.958 15.3761 225.769C15.8129 225.571 16.1479 225.297 16.3812 224.946C16.6054 224.595 16.7143 224.181 16.708 223.706Z" fill="white"/>
<path d="M17.4937 214.258C17.4877 214.386 17.4252 214.447 17.3064 214.442L10.3946 214.115C10.2757 214.109 10.2187 214.056 10.2234 213.955L10.2624 213.132C10.2671 213.032 10.3198 212.984 10.4203 212.989L11.2158 213.026C11.2615 213.029 11.2893 213.021 11.2993 213.003C11.3093 212.985 11.2971 212.952 11.2627 212.905C11.0393 212.592 10.8514 212.304 10.6989 212.04C10.5377 211.766 10.4225 211.491 10.3532 211.213C10.2748 210.934 10.2429 210.639 10.2576 210.328C10.2913 209.615 10.5091 209.08 10.9108 208.724C11.3129 208.358 11.8203 208.189 12.4329 208.218L17.5481 208.46C17.6944 208.467 17.7643 208.539 17.7578 208.676L17.7215 209.444C17.7185 209.508 17.7026 209.554 17.6739 209.58C17.636 209.605 17.5896 209.617 17.5348 209.614L12.6389 209.383C12.1909 209.361 11.8381 209.459 11.5804 209.676C11.3136 209.893 11.1685 210.248 11.1452 210.741C11.1326 211.007 11.1665 211.26 11.2466 211.502C11.3181 211.735 11.4305 211.974 11.5838 212.219C11.728 212.464 11.9166 212.739 12.1496 213.043L17.3335 213.288C17.4706 213.295 17.5359 213.367 17.5294 213.504L17.4937 214.258Z" fill="white"/>
<path d="M26.8583 159.416C26.8178 159.538 26.7411 159.58 26.6282 159.542L20.0636 157.354C19.9507 157.317 19.9102 157.25 19.942 157.155L20.2025 156.373C20.2343 156.278 20.298 156.246 20.3935 156.278L21.1489 156.529C21.1924 156.544 21.2213 156.544 21.2358 156.529C21.2502 156.515 21.2473 156.48 21.2271 156.425C21.0968 156.063 20.994 155.735 20.9188 155.44C20.8377 155.133 20.8015 154.836 20.8102 154.55C20.8102 154.26 20.8593 153.968 20.9577 153.673C21.1835 152.995 21.538 152.539 22.0213 152.305C22.5076 152.062 23.0416 152.037 23.6234 152.231L28.4817 153.85C28.6206 153.896 28.6684 153.985 28.625 154.115L28.3819 154.844C28.3616 154.905 28.3341 154.944 28.2994 154.962C28.256 154.976 28.2082 154.975 28.1561 154.957L23.5062 153.408C23.0807 153.266 22.7146 153.264 22.4078 153.403C22.0923 153.539 21.8564 153.842 21.7002 154.311C21.6163 154.563 21.5801 154.816 21.5917 155.071C21.5975 155.314 21.6409 155.574 21.722 155.852C21.7944 156.127 21.9015 156.442 22.0433 156.798L26.9667 158.439C27.097 158.483 27.1404 158.57 27.097 158.7L26.8583 159.416Z" fill="white"/>
<path d="M25.4543 141.874C25.4711 141.831 25.4956 141.806 25.5278 141.799C25.5634 141.784 25.5983 141.783 25.6323 141.796L26.1816 142.012C26.2668 142.046 26.2926 142.105 26.2591 142.19L25.6856 143.647C25.6588 143.715 25.6794 143.762 25.7476 143.789L31.4322 146.028C31.5514 146.075 31.5909 146.149 31.5506 146.252L31.2438 147.031C31.2069 147.124 31.1331 147.149 31.0224 147.106L25.3122 144.857C25.2526 144.834 25.2111 144.852 25.1876 144.911L24.6946 146.163C24.6611 146.248 24.6017 146.274 24.5165 146.241L23.9672 146.024C23.9332 146.011 23.9067 145.991 23.8879 145.964C23.8724 145.928 23.8747 145.885 23.8948 145.834L24.3727 144.62C24.4029 144.543 24.3754 144.488 24.2903 144.455L23.3577 144.088C22.8212 143.876 22.4644 143.583 22.2873 143.209C22.1103 142.834 22.1274 142.378 22.3386 141.842L22.7562 140.782C22.7998 140.671 22.8727 140.636 22.9749 140.676L23.4731 140.872C23.5157 140.889 23.5447 140.915 23.5602 140.951C23.5705 140.974 23.5656 141.012 23.5455 141.063L23.1933 141.957C23.0894 142.221 23.0991 142.446 23.2225 142.633C23.3407 142.807 23.5403 142.95 23.8213 143.06L24.7155 143.412C24.7922 143.443 24.8456 143.419 24.8758 143.343L25.4543 141.874Z" fill="white"/>
<path d="M29.3869 134.869C29.357 134.936 29.3754 134.985 29.4422 135.015L33.4135 136.795C33.8061 136.971 34.0991 137.022 34.2926 136.949C34.4862 136.875 34.6429 136.704 34.7627 136.437L35.1502 135.573C35.169 135.531 35.1965 135.503 35.2328 135.489C35.2607 135.472 35.2997 135.474 35.3498 135.497L35.7702 135.7C35.8537 135.738 35.8855 135.812 35.8656 135.923C35.8449 136.014 35.8031 136.141 35.7403 136.304C35.6813 136.458 35.6222 136.612 35.5632 136.766C35.4995 136.908 35.4452 137.029 35.4003 137.129C35.1644 137.655 34.871 137.985 34.5202 138.119C34.1611 138.249 33.7143 138.194 33.1797 137.954L28.9955 136.078C28.912 136.041 28.8515 136.064 28.814 136.147L28.3647 137.149C28.3235 137.241 28.257 137.267 28.1651 137.226L27.6389 136.99C27.5554 136.952 27.5324 136.892 27.5698 136.808L28.0473 135.743C28.0735 135.685 28.0532 135.641 27.9864 135.611L26.0562 134.58C25.9514 134.523 25.9177 134.453 25.9552 134.369L26.236 133.743C26.2809 133.642 26.3619 133.618 26.4788 133.671L28.4582 134.558C28.525 134.588 28.5734 134.57 28.6033 134.503L29.311 132.925C29.3522 132.833 29.4104 132.804 29.4856 132.837L30.0243 133.079C30.1161 133.12 30.1415 133.187 30.1003 133.278L29.3869 134.869Z" fill="white"/>
<path d="M36.7316 118.015C36.9634 117.599 37.2343 117.273 37.544 117.037C37.8503 116.789 38.1817 116.617 38.5384 116.523C38.8915 116.416 39.2463 116.362 39.6028 116.362C39.7254 116.367 39.7742 116.421 39.7492 116.522L39.5372 117.269C39.53 117.338 39.477 117.376 39.3783 117.384C39.0574 117.415 38.7803 117.47 38.5473 117.55C38.3187 117.621 38.1194 117.725 37.9494 117.861C37.7713 117.992 37.6244 118.161 37.5084 118.369C37.2811 118.777 37.1843 119.195 37.2183 119.622C37.2487 120.037 37.4089 120.436 37.699 120.818C37.989 121.2 38.3979 121.538 38.9254 121.832C39.461 122.131 39.9674 122.303 40.4448 122.349C40.9265 122.388 41.352 122.31 41.7213 122.118C42.095 121.918 42.3978 121.61 42.6297 121.194C42.8437 120.811 42.9328 120.425 42.897 120.039C42.8612 119.652 42.7241 119.24 42.4857 118.803C42.4591 118.757 42.4502 118.726 42.4592 118.71C42.4645 118.681 42.4864 118.651 42.5247 118.62L43.0041 118.212C43.0593 118.169 43.1201 118.182 43.1867 118.251C43.3276 118.487 43.4495 118.738 43.5521 119.005C43.6548 119.272 43.7179 119.553 43.7414 119.849C43.7694 120.137 43.7537 120.438 43.6945 120.751C43.6273 121.059 43.5046 121.373 43.3262 121.693C42.9963 122.284 42.5684 122.732 42.0425 123.036C41.513 123.328 40.9332 123.465 40.3029 123.449C39.6646 123.429 39.0217 123.238 38.3743 122.877C37.7188 122.511 37.2146 122.062 36.8617 121.53C36.5132 120.99 36.3239 120.418 36.2938 119.814C36.2602 119.198 36.4061 118.598 36.7316 118.015Z" fill="white"/>
<path d="M49.2725 111.719C48.9035 112.298 48.445 112.728 47.8972 113.008C47.3467 113.276 46.7572 113.383 46.129 113.33C45.498 113.264 44.8738 113.034 44.2563 112.641C43.6158 112.232 43.135 111.752 42.8139 111.2C42.4901 110.635 42.3334 110.047 42.3437 109.435C42.3541 108.823 42.5438 108.227 42.9128 107.648C43.2868 107.062 43.7505 106.641 44.3039 106.386C44.8544 106.118 45.4491 106.02 46.0879 106.091C46.7238 106.149 47.3544 106.377 47.9795 106.776C48.5969 107.169 49.0661 107.642 49.3872 108.194C49.7005 108.741 49.852 109.321 49.8416 109.933C49.8362 110.537 49.6465 111.133 49.2725 111.719ZM48.5579 111.231C48.8138 110.83 48.9363 110.425 48.9254 110.016C48.9068 109.603 48.7629 109.207 48.4937 108.829C48.2216 108.439 47.8309 108.081 47.3216 107.756C46.8122 107.432 46.327 107.231 45.8658 107.154C45.397 107.072 44.9712 107.11 44.5885 107.268C44.2057 107.425 43.8864 107.705 43.6306 108.106C43.3796 108.5 43.261 108.907 43.2747 109.328C43.2883 109.749 43.4287 110.159 43.6958 110.557C43.9602 110.943 44.347 111.298 44.8564 111.623C45.358 111.943 45.8433 112.144 46.3121 112.225C46.7859 112.3 47.2166 112.254 47.6043 112.089C47.9842 111.918 48.3021 111.633 48.5579 111.231Z" fill="white"/>
<path d="M54.8 102.835C54.8747 102.888 54.9165 102.94 54.9252 102.991C54.9265 103.036 54.9007 103.097 54.8478 103.171L54.4355 103.754C54.3562 103.866 54.2643 103.885 54.1597 103.811L46.165 98.1387C46.0604 98.0647 46.0398 97.9828 46.1032 97.8932L46.579 97.2207C46.6424 97.131 46.7227 97.1205 46.8198 97.1893L54.8 102.835Z" fill="white"/>
<path d="M59.1068 96.9964C59.1796 97.0519 59.2194 97.1053 59.2263 97.1566C59.226 97.2024 59.1981 97.2616 59.1426 97.3344L58.7098 97.9022C58.6265 98.0114 58.534 98.0271 58.432 97.9494L50.6446 91.9956C50.5427 91.9179 50.525 91.8354 50.5916 91.7481L51.091 91.093C51.1576 91.0056 51.2382 90.998 51.3328 91.0701L59.1068 96.9964Z" fill="white"/>
<path d="M61.0869 89.7213C61.4301 90.0101 61.8131 90.1947 62.2357 90.2752C62.6573 90.3428 63.067 90.3108 63.4649 90.179C63.8687 90.0403 64.215 89.7994 64.5037 89.4562C64.7984 89.106 64.9905 88.7354 65.0803 88.3444C65.163 87.9475 65.1398 87.5273 65.0106 87.0837C65.0062 87.0321 65.0099 86.9993 65.0216 86.9853C65.0323 86.9584 65.0594 86.9333 65.1029 86.9101L65.6947 86.6545C65.7828 86.6209 65.8377 86.6551 65.8595 86.7572C65.9805 87.182 66.0349 87.5866 66.0225 87.9709C66.009 88.3423 65.9265 88.7035 65.7748 89.0543C65.6231 89.4052 65.4 89.7557 65.1054 90.1059C64.6693 90.6242 64.1643 90.9827 63.5903 91.1816C63.0163 91.3805 62.4185 91.4157 61.7968 91.2874C61.1751 91.1591 60.5841 90.8592 60.0238 90.3878C59.4145 89.8752 58.9899 89.3206 58.7502 88.7241C58.5093 88.1148 58.4377 87.5103 58.5355 86.9108C58.6391 86.3042 58.9001 85.7523 59.3185 85.255C59.7486 84.7438 60.2349 84.3933 60.7772 84.2037C61.3195 84.014 61.8927 83.9939 62.4967 84.1432C63.1007 84.2926 63.7038 84.6206 64.3062 85.1274C64.3552 85.1686 64.3983 85.2169 64.4356 85.2721C64.4787 85.3204 64.4649 85.3865 64.3942 85.4706L61.0089 89.4942C60.9853 89.5222 60.9822 89.5615 60.9996 89.6119C61.0158 89.6495 61.0449 89.686 61.0869 89.7213ZM63.0562 85.8879C63.1211 85.8109 63.1553 85.7559 63.159 85.7232C63.1556 85.6845 63.1225 85.6386 63.0594 85.5856C62.7583 85.3322 62.4221 85.163 62.051 85.0781C61.6788 84.9802 61.3091 84.9861 60.9417 85.0957C60.5803 85.1983 60.2552 85.4212 59.9665 85.7644C59.6483 86.1426 59.4712 86.5378 59.4353 86.9502C59.3924 87.3566 59.4585 87.7472 59.6337 88.1218C59.8089 88.4965 60.0541 88.8164 60.3692 89.0816L63.0562 85.8879Z" fill="white"/>
<path d="M67.7919 75.7559C68.1192 75.4103 68.462 75.1615 68.8205 75.0093C69.1786 74.8442 69.5421 74.7599 69.911 74.7563C70.2796 74.7399 70.6367 74.7755 70.9822 74.8632C71.0997 74.8989 71.1338 74.9627 71.0845 75.0547L70.6949 75.7256C70.6707 75.791 70.6099 75.8154 70.5123 75.7986C70.1937 75.749 69.9117 75.734 69.6662 75.7536C69.427 75.7665 69.2082 75.8178 69.01 75.9074C68.805 75.9906 68.6208 76.1186 68.4571 76.2914C68.1361 76.6303 67.9393 77.0112 67.8666 77.434C67.7936 77.8439 67.8504 78.2696 68.0372 78.7113C68.224 79.1529 68.5367 79.5815 68.9753 79.9969C69.4206 80.4186 69.8688 80.7107 70.3199 80.8733C70.7773 81.0292 71.2087 81.0596 71.614 80.9644C72.0256 80.8626 72.3951 80.6389 72.7223 80.2933C73.0245 79.9743 73.2059 79.623 73.2667 79.2394C73.3275 78.8558 73.2963 78.4228 73.1732 77.9406C73.1588 77.8892 73.158 77.8568 73.1705 77.8435C73.1828 77.8173 73.2113 77.7939 73.256 77.7732L73.8215 77.4957C73.8855 77.468 73.9413 77.4957 73.9888 77.5785C74.0672 77.8419 74.1232 78.1155 74.1568 78.3995C74.1904 78.6834 74.1821 78.9718 74.1317 79.2645C74.0877 79.5505 73.9984 79.8378 73.8638 80.1264C73.7225 80.4086 73.526 80.6826 73.2743 80.9484C72.8085 81.4402 72.2833 81.7685 71.6986 81.9332C71.1135 82.0851 70.5176 82.0754 69.9109 81.9041C69.2974 81.7265 68.7216 81.3828 68.1833 80.873C67.6384 80.3569 67.2607 79.7974 67.0501 79.1945C66.8458 78.585 66.8035 77.984 66.9234 77.3916C67.0429 76.7862 67.3324 76.241 67.7919 75.7559Z" fill="white"/>
<path d="M76.1732 68.7759C76.1201 68.8263 76.1189 68.8781 76.1693 68.9311L79.1704 72.0831C79.467 72.3947 79.7189 72.553 79.9259 72.5581C80.1329 72.5632 80.3425 72.4647 80.5546 72.2628L81.2407 71.6096C81.2739 71.578 81.3099 71.5627 81.3487 71.5636C81.3812 71.558 81.4164 71.575 81.4542 71.6148L81.7662 71.9623C81.8293 72.0286 81.8305 72.1096 81.7699 72.2052C81.7163 72.2816 81.6296 72.383 81.51 72.5096C81.397 72.6298 81.284 72.75 81.171 72.8703C81.0583 72.9776 80.9621 73.0691 80.8826 73.1448C80.465 73.5424 80.0685 73.7366 79.6933 73.7274C79.3117 73.7116 78.919 73.4915 78.515 73.0673L75.3531 69.7463C75.2899 69.68 75.2252 69.6784 75.1589 69.7415L74.3635 70.4989C74.2906 70.5683 74.2194 70.5665 74.15 70.4936L73.7524 70.076C73.6892 70.0097 73.6908 69.945 73.7571 69.8819L74.6023 69.0772C74.6487 69.033 74.6467 68.9844 74.5962 68.9314L73.2003 67.2463C73.1249 67.1538 73.1203 67.076 73.1866 67.0129L73.6838 66.5395C73.7633 66.4638 73.8473 66.4723 73.9356 66.5651L75.4314 68.1362C75.4819 68.1892 75.5336 68.1905 75.5867 68.14L76.8395 66.9471C76.9124 66.8777 76.9773 66.8728 77.0341 66.9325L77.4412 67.36C77.5106 67.433 77.5089 67.5041 77.4359 67.5735L76.1732 68.7759Z" fill="white"/>
<path d="M86.8387 67.4092C86.8991 67.4781 86.9275 67.5383 86.9242 67.59C86.9216 67.6287 86.8825 67.6813 86.8068 67.7477L86.2803 68.2093C86.2184 68.2636 86.1681 68.2895 86.1293 68.2869C86.0906 68.2844 86.047 68.2556 85.9988 68.2005L81.4548 63.0185C81.3704 62.9222 81.3694 62.8378 81.452 62.7654L82.0817 62.2132C82.1574 62.1469 82.2344 62.1584 82.3129 62.2479L86.8387 67.4092ZM81.2046 60.9007C81.3193 61.0314 81.3147 61.1511 81.1908 61.2597L80.5921 61.7847C80.5301 61.839 80.4768 61.8615 80.432 61.852C80.3812 61.8357 80.3316 61.8001 80.2834 61.745L79.523 60.8779C79.4265 60.7678 79.4264 60.6705 79.5227 60.586L80.173 60.0158C80.2694 59.9313 80.3628 59.9406 80.4533 60.0439L81.2046 60.9007Z" fill="white"/>
<path d="M94.084 61.8451C93.5467 62.2724 92.9734 62.5294 92.3642 62.6162C91.7565 62.6902 91.1643 62.5998 90.5875 62.3451C90.0123 62.0775 89.4968 61.6571 89.0411 61.084C88.5682 60.4894 88.2699 59.8788 88.1459 59.2524C88.0235 58.613 88.0667 58.0057 88.2757 57.4302C88.4847 56.8548 88.8578 56.3534 89.3951 55.9262C89.9396 55.4933 90.515 55.2463 91.1212 55.1852C91.729 55.1112 92.3233 55.2116 92.9043 55.4863C93.4867 55.7482 94.0086 56.1693 94.4701 56.7496C94.9258 57.3227 95.2156 57.9225 95.3395 58.549C95.4578 59.1683 95.4124 59.7657 95.2034 60.3411C95.0016 60.9109 94.6285 61.4122 94.084 61.8451ZM93.5672 61.151C93.9397 60.8548 94.1873 60.5118 94.31 60.1219C94.4269 59.7249 94.4196 59.3039 94.288 58.8589C94.1578 58.4011 93.9048 57.9358 93.5288 57.463C93.1528 56.9901 92.7593 56.6423 92.3483 56.4195C91.9316 56.1896 91.5167 56.0869 91.1035 56.1114C90.6903 56.1359 90.2974 56.2962 89.9249 56.5925C89.5595 56.883 89.3148 57.2296 89.1907 57.6323C89.0665 58.0351 89.066 58.4682 89.189 58.9317C89.3134 59.3823 89.5636 59.8441 89.9396 60.3169C90.3099 60.7826 90.7034 61.1304 91.1201 61.3603C91.5439 61.5846 91.9661 61.6816 92.3864 61.6514C92.801 61.614 93.1946 61.4472 93.5672 61.151Z" fill="white"/>
<path d="M101.52 55.9921C101.415 56.0657 101.329 56.0537 101.26 55.9563L97.2897 50.2894C97.2214 50.1919 97.2285 50.1143 97.3109 50.0566L97.9856 49.5839C98.068 49.5261 98.1381 49.5384 98.1959 49.6209L98.6529 50.273C98.6791 50.3105 98.7024 50.3277 98.7226 50.3247C98.7429 50.3217 98.7612 50.2921 98.7777 50.2358C98.8885 49.8676 99.0016 49.5425 99.1169 49.2605C99.2345 48.9658 99.3821 48.7059 99.5597 48.4809C99.7321 48.2484 99.9457 48.0428 100.201 47.8642C100.785 47.4545 101.341 47.2994 101.869 47.3989C102.405 47.4932 102.849 47.7914 103.2 48.2936L106.139 52.4875C106.223 52.6075 106.209 52.7068 106.096 52.7856L105.467 53.2268C105.414 53.2636 105.369 53.2786 105.331 53.2719C105.287 53.2576 105.25 53.228 105.218 53.1831L102.406 49.169C102.148 48.8017 101.855 48.5825 101.526 48.5115C101.191 48.4329 100.822 48.5354 100.417 48.819C100.2 48.9713 100.02 49.1533 99.8773 49.3648C99.7372 49.5635 99.6169 49.7987 99.5166 50.0702C99.411 50.3341 99.3091 50.6514 99.2111 51.0218L102.189 55.272C102.268 55.3844 102.251 55.48 102.139 55.5588L101.52 55.9921Z" fill="white"/>
<path d="M150.628 29.8393C150.507 29.8816 150.427 29.8467 150.387 29.7344L148.101 23.2035C148.061 23.0912 148.089 23.0184 148.184 22.9852L148.962 22.713C149.057 22.6797 149.121 22.7106 149.154 22.8056L149.417 23.5572C149.432 23.6003 149.45 23.6232 149.47 23.6258C149.491 23.6284 149.516 23.6049 149.547 23.5552C149.754 23.2308 149.951 22.9485 150.138 22.7083C150.331 22.4565 150.544 22.2463 150.776 22.0778C151.005 21.9007 151.266 21.7607 151.56 21.6579C152.234 21.422 152.811 21.4234 153.292 21.6622C153.782 21.898 154.128 22.3053 154.331 22.8841L156.023 27.7174C156.072 27.8557 156.031 27.9474 155.901 27.9928L155.176 28.2469C155.115 28.268 155.068 28.2702 155.033 28.2534C154.995 28.2279 154.967 28.1892 154.948 28.1374L153.329 23.5114C153.181 23.0881 152.958 22.7976 152.66 22.64C152.359 22.4737 151.976 22.4723 151.509 22.6356C151.259 22.7233 151.036 22.8497 150.842 23.0147C150.653 23.1681 150.474 23.3618 150.304 23.5959C150.13 23.8214 149.946 24.0992 149.752 24.4292L151.467 29.3273C151.512 29.4569 151.47 29.5444 151.34 29.5898L150.628 29.8393Z" fill="white"/>
<path d="M163.643 17.9935C163.687 17.9807 163.721 17.9849 163.747 18.0062C163.781 18.0249 163.803 18.0518 163.813 18.0869L163.978 18.6538C164.004 18.7416 163.973 18.7984 163.885 18.824L162.382 19.2615C162.312 19.2819 162.287 19.3273 162.307 19.3976L164.015 25.2636C164.051 25.3866 164.016 25.4635 163.911 25.4942L163.106 25.7283C163.01 25.7564 162.945 25.7134 162.912 25.5991L161.196 19.7068C161.178 19.6453 161.138 19.6235 161.077 19.6414L159.785 20.0176C159.697 20.0431 159.64 20.012 159.615 19.9241L159.45 19.3573C159.44 19.3221 159.439 19.2888 159.449 19.2573C159.468 19.2233 159.504 19.1986 159.556 19.1833L160.809 18.8187C160.888 18.7956 160.915 18.7402 160.889 18.6523L160.609 17.69C160.448 17.1364 160.461 16.6749 160.649 16.3056C160.837 15.9363 161.208 15.671 161.761 15.5098L162.856 15.1913C162.97 15.158 163.042 15.1941 163.073 15.2995L163.223 15.8136C163.235 15.8576 163.233 15.8966 163.214 15.9306C163.201 15.9533 163.169 15.9723 163.116 15.9877L162.193 16.2563C161.921 16.3357 161.749 16.4811 161.677 16.6927C161.611 16.8929 161.621 17.138 161.705 17.428L161.974 18.3508C161.997 18.4299 162.048 18.4579 162.127 18.4349L163.643 17.9935Z" fill="white"/>
<path d="M171.589 16.8191C171.518 16.8363 171.491 16.8805 171.508 16.9516L172.53 21.1822C172.631 21.6003 172.769 21.8634 172.946 21.9713C173.123 22.0793 173.354 22.0989 173.638 22.0302L174.559 21.8077C174.604 21.797 174.643 21.8017 174.676 21.822C174.707 21.8333 174.729 21.8657 174.741 21.9191L174.838 22.3761C174.859 22.465 174.82 22.5357 174.719 22.5882C174.635 22.6275 174.509 22.672 174.342 22.7217C174.184 22.7693 174.026 22.8169 173.868 22.8645C173.717 22.901 173.588 22.9322 173.481 22.9579C172.921 23.0933 172.48 23.0632 172.16 22.8675C171.837 22.6629 171.607 22.2759 171.47 21.7065L170.393 17.2491C170.372 17.1601 170.317 17.1264 170.228 17.1479L169.16 17.4057C169.062 17.4294 169.001 17.3923 168.978 17.2944L168.842 16.7339C168.821 16.6449 168.855 16.5897 168.944 16.5682L170.078 16.2942C170.14 16.2792 170.163 16.2361 170.146 16.1649L169.78 14.0075C169.761 13.8897 169.796 13.82 169.885 13.7985L170.552 13.6374C170.659 13.6116 170.727 13.661 170.757 13.7855L171.267 15.8941C171.284 15.9653 171.328 15.9923 171.399 15.9751L173.081 15.569C173.178 15.5453 173.237 15.5735 173.256 15.6536L173.395 16.2275C173.419 16.3253 173.382 16.3861 173.284 16.4097L171.589 16.8191Z" fill="white"/>
<path d="M189.414 12.3141C189.885 12.2432 190.308 12.258 190.684 12.3586C191.068 12.4488 191.407 12.6061 191.7 12.8303C192 13.0441 192.26 13.292 192.478 13.5737C192.549 13.6742 192.536 13.7454 192.441 13.7876L191.721 14.0767C191.662 14.1134 191.599 14.0951 191.532 14.0219C191.312 13.7867 191.098 13.6013 190.893 13.4657C190.696 13.3287 190.492 13.2345 190.281 13.1831C190.068 13.1226 189.844 13.1101 189.609 13.1456C189.147 13.2152 188.758 13.3943 188.44 13.6828C188.131 13.961 187.913 14.3316 187.789 14.7946C187.664 15.2577 187.647 15.7879 187.737 16.3853C187.829 16.9917 188.002 17.4977 188.258 17.9035C188.522 18.3079 188.844 18.5973 189.222 18.7717C189.609 18.9447 190.038 18.9957 190.508 18.9248C190.943 18.8593 191.302 18.694 191.586 18.429C191.87 18.164 192.112 17.8036 192.311 17.3477C192.332 17.2983 192.351 17.2723 192.369 17.2696C192.395 17.2564 192.432 17.2555 192.48 17.2668L193.096 17.3959C193.164 17.4135 193.191 17.4696 193.177 17.5642C193.077 17.82 192.953 18.0702 192.804 18.3147C192.656 18.5592 192.472 18.7813 192.252 18.9811C192.042 19.1795 191.794 19.351 191.511 19.4956C191.226 19.6311 190.902 19.7262 190.54 19.7808C189.87 19.8818 189.254 19.8173 188.692 19.5874C188.137 19.3471 187.674 18.9727 187.301 18.4643C186.927 17.9469 186.684 17.3216 186.574 16.5885C186.462 15.8464 186.508 15.1729 186.713 14.5681C186.927 13.9619 187.264 13.4622 187.723 13.069C188.19 12.6654 188.753 12.4138 189.414 12.3141Z" fill="white"/>
<path d="M202.067 18.3824C201.383 18.4447 200.763 18.345 200.206 18.0833C199.657 17.8116 199.212 17.411 198.869 16.8816C198.535 16.3422 198.335 15.7079 198.269 14.9787C198.2 14.2222 198.285 13.548 198.526 12.9563C198.774 12.3546 199.143 11.8706 199.634 11.5043C200.124 11.1379 200.711 10.9235 201.395 10.8613C202.088 10.7981 202.704 10.9074 203.245 11.189C203.793 11.4607 204.235 11.8708 204.57 12.4193C204.913 12.9578 205.118 13.5963 205.186 14.3346C205.252 15.0638 205.165 15.7242 204.925 16.316C204.684 16.8986 204.318 17.373 203.828 17.7394C203.347 18.105 202.759 18.3193 202.067 18.3824ZM202.016 17.5186C202.49 17.4754 202.885 17.3245 203.201 17.0659C203.517 16.7981 203.742 16.4422 203.876 15.998C204.018 15.5438 204.062 15.016 204.007 14.4144C203.953 13.8128 203.814 13.3061 203.593 12.8943C203.371 12.4734 203.08 12.1598 202.722 11.9535C202.363 11.7473 201.946 11.6658 201.472 11.709C201.007 11.7513 200.613 11.9068 200.288 12.1753C199.963 12.4439 199.725 12.8056 199.573 13.2606C199.43 13.7056 199.386 14.2289 199.441 14.8305C199.495 15.423 199.633 15.9297 199.855 16.3506C200.086 16.7707 200.386 17.0834 200.754 17.2889C201.121 17.4852 201.542 17.5617 202.016 17.5186Z" fill="white"/>
<path d="M212.476 17.318C212.48 17.4095 212.464 17.4743 212.429 17.5124C212.394 17.5414 212.33 17.5579 212.239 17.5618L211.526 17.5923C211.389 17.5982 211.317 17.5371 211.312 17.4091L210.906 7.61479C210.901 7.48677 210.953 7.42041 211.063 7.41571L211.886 7.38049C211.996 7.3758 212.053 7.43289 212.058 7.55177L212.476 17.318Z" fill="white"/>
<path d="M219.729 17.1498C219.73 17.2414 219.712 17.3056 219.676 17.3424C219.639 17.3702 219.575 17.3843 219.484 17.385L218.77 17.3901C218.632 17.3911 218.563 17.3275 218.562 17.1993L218.506 7.39682C218.505 7.26868 218.56 7.20422 218.67 7.20344L219.493 7.19757C219.603 7.19679 219.659 7.25589 219.659 7.37487L219.729 17.1498Z" fill="white"/>
<path d="M226.695 14.2652C226.677 14.7133 226.765 15.1291 226.96 15.5127C227.164 15.8875 227.44 16.192 227.788 16.4261C228.145 16.6606 228.547 16.787 228.995 16.8054C229.453 16.8241 229.863 16.7494 230.228 16.5811C230.592 16.4037 230.91 16.1281 231.182 15.7546C231.22 15.7195 231.248 15.7023 231.267 15.7031C231.295 15.695 231.331 15.7011 231.376 15.7213L231.94 16.033C232.021 16.0821 232.027 16.1465 231.96 16.2261C231.698 16.5818 231.411 16.8724 231.1 17.0978C230.798 17.3144 230.461 17.4701 230.091 17.5648C229.721 17.6596 229.307 17.6976 228.85 17.6788C228.173 17.6511 227.58 17.471 227.072 17.1387C226.563 16.8064 226.17 16.3551 225.891 15.7849C225.612 15.2147 225.487 14.5638 225.517 13.8321C225.55 13.0365 225.729 12.3614 226.054 11.8068C226.388 11.2434 226.823 10.8169 227.357 10.5273C227.9 10.2382 228.496 10.1069 229.145 10.1335C229.813 10.1609 230.388 10.331 230.87 10.6439C231.351 10.9568 231.718 11.3978 231.97 11.9669C232.221 12.536 232.331 13.2138 232.298 14.0003C232.296 14.0643 232.284 14.1279 232.263 14.1912C232.251 14.2548 232.191 14.2844 232.081 14.2799L226.827 14.0645C226.79 14.063 226.757 14.0845 226.728 14.1291C226.708 14.165 226.697 14.2103 226.695 14.2652ZM230.932 13.4771C231.033 13.4812 231.097 13.4747 231.125 13.4575C231.154 13.4312 231.17 13.3769 231.173 13.2946C231.189 12.9013 231.117 12.532 230.957 12.1865C230.807 11.8322 230.576 11.5433 230.265 11.3199C229.962 11.0968 229.587 10.9761 229.139 10.9577C228.645 10.9374 228.224 11.0393 227.876 11.2632C227.528 11.4779 227.26 11.7692 227.071 12.137C226.882 12.5049 226.779 12.8945 226.762 13.3061L230.932 13.4771Z" fill="white"/>
<path d="M241.844 11.0242C242.317 11.0716 242.724 11.1905 243.064 11.3809C243.413 11.5631 243.703 11.799 243.931 12.0886C244.17 12.3701 244.36 12.6743 244.502 13.0013C244.546 13.116 244.516 13.1821 244.413 13.1994L243.644 13.3017C243.578 13.3227 243.521 13.2894 243.475 13.202C243.319 12.9196 243.158 12.6874 242.993 12.5052C242.836 12.3239 242.662 12.1823 242.469 12.0803C242.278 11.9691 242.064 11.9017 241.827 11.878C241.363 11.8315 240.941 11.9089 240.562 12.1101C240.193 12.3031 239.891 12.6087 239.656 13.0267C239.421 13.4447 239.274 13.9542 239.214 14.5553C239.153 15.1655 239.196 15.6987 239.343 16.155C239.5 16.6122 239.74 16.972 240.063 17.2343C240.395 17.4976 240.798 17.6529 241.272 17.7003C241.709 17.7441 242.098 17.6726 242.439 17.486C242.779 17.2993 243.103 17.0097 243.409 16.6172C243.441 16.5744 243.466 16.554 243.484 16.5558C243.512 16.5494 243.548 16.5576 243.592 16.5804L244.157 16.8578C244.218 16.8915 244.231 16.9525 244.194 17.0408C244.034 17.2639 243.852 17.4757 243.648 17.676C243.444 17.8763 243.21 18.0462 242.948 18.1855C242.695 18.3257 242.413 18.4309 242.103 18.501C241.793 18.5619 241.456 18.5742 241.092 18.5377C240.418 18.4702 239.837 18.2557 239.348 17.8941C238.87 17.5243 238.513 17.047 238.278 16.4623C238.043 15.8684 237.962 15.2027 238.036 14.465C238.111 13.7182 238.322 13.0771 238.67 12.5416C239.027 12.007 239.477 11.6059 240.019 11.3382C240.571 11.0623 241.179 10.9576 241.844 11.0242Z" fill="white"/>
<path d="M252.492 13.3815C252.42 13.3704 252.378 13.4011 252.367 13.4735L251.711 17.7758C251.646 18.2011 251.674 18.4971 251.797 18.664C251.92 18.8309 252.126 18.9364 252.415 18.9806L253.352 19.1235C253.397 19.1304 253.431 19.1495 253.454 19.1808C253.479 19.2031 253.487 19.2413 253.478 19.2956L253.394 19.755C253.381 19.8455 253.317 19.896 253.205 19.9066C253.111 19.9109 252.978 19.9044 252.805 19.8872C252.641 19.8714 252.476 19.8556 252.312 19.8398C252.158 19.8163 252.027 19.7963 251.919 19.7797C251.348 19.6927 250.952 19.498 250.73 19.1955C250.509 18.884 250.443 18.4388 250.531 17.8597L251.223 13.3266C251.237 13.2361 251.198 13.184 251.108 13.1702L250.022 13.0045C249.923 12.9893 249.881 12.9319 249.896 12.8324L249.983 12.2624C249.997 12.1719 250.049 12.1335 250.139 12.1474L251.293 12.3234C251.356 12.3331 251.393 12.3017 251.404 12.2294L251.883 10.0942C251.91 9.97794 251.969 9.92673 252.059 9.94054L252.738 10.0441C252.846 10.0607 252.891 10.1323 252.872 10.259L252.544 12.4034C252.533 12.4757 252.564 12.5175 252.636 12.5285L254.346 12.7895C254.446 12.8047 254.49 12.853 254.477 12.9345L254.388 13.5181C254.373 13.6176 254.315 13.6598 254.216 13.6446L252.492 13.3815Z" fill="white"/>
<path d="M260.099 20.981C260.082 21.0709 260.052 21.1303 260.009 21.1592C259.977 21.1809 259.911 21.1821 259.812 21.1629L259.125 21.0289C259.044 21.0132 258.993 20.9892 258.971 20.957C258.949 20.9248 258.946 20.8728 258.96 20.8009L260.278 14.036C260.302 13.9103 260.368 13.8579 260.476 13.8789L261.298 14.0391C261.397 14.0583 261.435 14.1263 261.412 14.2431L260.099 20.981ZM261.8 12.5422C261.767 12.7129 261.669 12.7825 261.507 12.751L260.726 12.5987C260.645 12.5829 260.594 12.5545 260.575 12.5133C260.556 12.4631 260.554 12.4021 260.568 12.3302L260.789 11.1982C260.817 11.0545 260.894 10.9949 261.019 11.0194L261.868 11.1848C261.994 11.2093 262.044 11.289 262.018 11.4237L261.8 12.5422Z" fill="white"/>
<path d="M268.934 23.3073C268.267 23.1438 267.713 22.8477 267.272 22.4189C266.841 21.9835 266.55 21.4598 266.399 20.8478C266.259 20.229 266.276 19.5641 266.45 18.853C266.631 18.1152 266.931 17.5056 267.351 17.0242C267.782 16.5361 268.289 16.1987 268.872 16.0119C269.455 15.825 270.08 15.8134 270.746 15.9769C271.422 16.1427 271.969 16.4466 272.389 16.8887C272.819 17.3241 273.103 17.8557 273.241 18.4833C273.391 19.1042 273.377 19.7747 273.2 20.4947C273.026 21.2058 272.729 21.8021 272.309 22.2834C271.892 22.7559 271.391 23.0856 270.808 23.2724C270.234 23.4614 269.609 23.473 268.934 23.3073ZM269.167 22.4738C269.629 22.5872 270.052 22.5731 270.435 22.4316C270.821 22.2811 271.149 22.0177 271.421 21.6414C271.703 21.2583 271.916 20.7734 272.06 20.1867C272.204 19.6 272.238 19.076 272.163 18.6146C272.09 18.1443 271.917 17.7532 271.645 17.4414C271.373 17.1296 271.006 16.917 270.543 16.8036C270.09 16.6924 269.666 16.711 269.272 16.8592C268.877 17.0075 268.534 17.272 268.243 17.6529C267.963 18.0271 267.751 18.5076 267.607 19.0943C267.465 19.6721 267.431 20.1961 267.504 20.6664C267.586 21.1389 267.767 21.5321 268.048 21.8461C268.332 22.1512 268.704 22.3604 269.167 22.4738Z" fill="white"/>
<path d="M278.114 25.6059C277.991 25.5679 277.948 25.492 277.983 25.3784L280.035 18.7703C280.071 18.6566 280.136 18.6147 280.233 18.6446L281.019 18.8889C281.115 18.9188 281.149 18.9818 281.119 19.078L280.882 19.8384C280.869 19.8821 280.869 19.9111 280.884 19.9252C280.899 19.9394 280.934 19.9358 280.988 19.9144C281.347 19.7767 281.674 19.6672 281.967 19.5859C282.272 19.4986 282.568 19.4563 282.855 19.4591C283.144 19.4531 283.437 19.4963 283.735 19.5886C284.416 19.8003 284.88 20.1454 285.124 20.6238C285.377 21.105 285.413 21.6384 285.231 22.224L283.712 27.1146C283.668 27.2544 283.581 27.304 283.45 27.2633L282.716 27.0352C282.655 27.0162 282.615 26.9895 282.597 26.9552C282.581 26.9121 282.582 26.8643 282.598 26.8118L284.052 22.1311C284.185 21.7028 284.179 21.3367 284.034 21.0328C283.891 20.7202 283.584 20.4906 283.112 20.344C282.858 20.2652 282.604 20.2343 282.35 20.2511C282.107 20.2619 281.848 20.3107 281.571 20.3974C281.298 20.4754 280.985 20.589 280.632 20.7381L279.092 25.6943C279.052 25.8254 278.966 25.8706 278.835 25.8298L278.114 25.6059Z" fill="white"/>
<path d="M328.848 48.443C328.74 48.3733 328.719 48.2885 328.784 48.1887L332.55 42.384C332.615 42.2841 332.689 42.2616 332.774 42.3164L333.465 42.7648C333.549 42.8196 333.564 42.8892 333.509 42.9737L333.076 43.6417C333.051 43.6801 333.044 43.7081 333.054 43.7257C333.064 43.7434 333.099 43.7493 333.157 43.7435C333.54 43.7083 333.884 43.6913 334.188 43.6926C334.506 43.6912 334.802 43.7306 335.077 43.811C335.357 43.8837 335.628 44.0047 335.889 44.1741C336.488 44.5627 336.84 45.0203 336.946 45.5471C337.059 46.0788 336.949 46.6019 336.615 47.1163L333.828 51.4123C333.748 51.5351 333.65 51.5592 333.535 51.4845L332.89 51.066C332.837 51.0311 332.806 50.9947 332.798 50.9567C332.794 50.9111 332.808 50.8652 332.838 50.8191L335.506 46.7074C335.75 46.3312 335.843 45.9771 335.785 45.6453C335.733 45.3058 335.499 45.0015 335.085 44.7325C334.862 44.588 334.626 44.4894 334.377 44.4366C334.14 44.3812 333.877 44.3578 333.588 44.3665C333.303 44.3675 332.971 44.3919 332.591 44.4398L329.766 48.7934C329.691 48.9086 329.596 48.9288 329.481 48.8541L328.848 48.443Z" fill="white"/>
<path d="M346.18 51.491C346.217 51.5179 346.235 51.5479 346.233 51.5808C346.239 51.6192 346.232 51.6532 346.21 51.6828L345.863 52.1602C345.809 52.2342 345.745 52.2443 345.671 52.1904L344.405 51.2696C344.346 51.2265 344.295 51.2346 344.252 51.2938L340.658 56.234C340.582 56.3376 340.5 56.3571 340.411 56.2925L339.734 55.7997C339.653 55.7405 339.647 55.6628 339.717 55.5666L343.328 50.6042C343.365 50.5523 343.358 50.5076 343.306 50.4699L342.218 49.6783C342.144 49.6245 342.134 49.5605 342.188 49.4865L342.536 49.0091C342.557 48.9795 342.583 48.959 342.614 48.9476C342.653 48.9415 342.694 48.9547 342.738 48.987L343.793 49.7543C343.86 49.8028 343.92 49.79 343.974 49.716L344.563 48.9056C344.903 48.4393 345.276 48.1675 345.683 48.0902C346.09 48.0129 346.527 48.1439 346.993 48.4832L347.915 49.1536C348.011 49.2236 348.027 49.303 347.962 49.3918L347.647 49.8248C347.62 49.8618 347.587 49.8833 347.549 49.8894C347.523 49.8934 347.488 49.8793 347.444 49.847L346.667 49.2815C346.438 49.1146 346.217 49.0675 346.006 49.1401C345.807 49.2107 345.619 49.3681 345.441 49.6124L344.876 50.3895C344.828 50.4561 344.837 50.5136 344.903 50.5621L346.18 51.491Z" fill="white"/>
<path d="M351.972 57.0565C351.914 57.0107 351.863 57.0164 351.817 57.0736L349.096 60.4704C348.827 60.8062 348.704 61.077 348.727 61.2828C348.75 61.4887 348.876 61.6832 349.104 61.8663L349.844 62.4585C349.879 62.4871 349.899 62.5207 349.903 62.5593C349.913 62.5908 349.901 62.6279 349.867 62.6708L349.564 63.0265C349.507 63.098 349.427 63.1101 349.324 63.0628C349.241 63.0199 349.129 62.9477 348.988 62.8461C348.853 62.7502 348.719 62.6544 348.585 62.5585C348.463 62.4613 348.36 62.3783 348.274 62.3096C347.824 61.9491 347.578 61.5823 347.537 61.2092C347.502 60.829 347.667 60.4103 348.033 59.9531L350.9 56.374C350.957 56.3026 350.95 56.2383 350.879 56.1811L350.021 55.4944C349.943 55.4315 349.935 55.3607 349.998 55.2821L350.358 54.8321C350.416 54.7606 350.48 54.7535 350.551 54.8108L351.462 55.5403C351.512 55.5804 351.56 55.5718 351.606 55.5147L353.088 53.9053C353.17 53.8181 353.246 53.8032 353.318 53.8604L353.854 54.2895C353.939 54.3582 353.942 54.4426 353.862 54.5426L352.506 56.2356C352.46 56.2928 352.466 56.3442 352.523 56.39L353.873 57.4715C353.952 57.5344 353.965 57.598 353.914 57.6623L353.545 58.1231C353.482 58.2017 353.411 58.2095 353.332 58.1466L351.972 57.0565Z" fill="white"/>
<path d="M366.442 68.3988C366.786 68.7276 367.033 69.0716 367.184 69.4307C367.347 69.7895 367.43 70.1533 367.432 70.5223C367.447 70.891 367.41 71.2479 367.32 71.593C367.284 71.7104 367.22 71.7442 367.128 71.6945L366.459 71.3019C366.394 71.2774 366.37 71.2165 366.387 71.119C366.438 70.8006 366.454 70.5187 366.436 70.2731C366.424 70.0338 366.374 69.8149 366.285 69.6162C366.203 69.4109 366.075 69.2261 365.903 69.0617C365.566 68.7392 365.186 68.5407 364.763 68.4661C364.354 68.3913 363.928 68.4463 363.485 68.6311C363.043 68.816 362.613 69.1268 362.196 69.5636C361.772 70.0069 361.478 70.4539 361.313 70.9043C361.155 71.361 361.123 71.7923 361.217 72.198C361.317 72.61 361.539 72.9805 361.883 73.3093C362.2 73.6128 362.551 73.7958 362.934 73.8583C363.318 73.9207 363.751 73.8915 364.233 73.7704C364.285 73.7563 364.317 73.7556 364.33 73.7682C364.357 73.7806 364.38 73.8092 364.4 73.854L364.675 74.4207C364.703 74.4848 364.675 74.5405 364.592 74.5877C364.328 74.6649 364.054 74.7197 363.77 74.752C363.486 74.7844 363.198 74.7748 362.905 74.7231C362.619 74.6779 362.333 74.5873 362.045 74.4514C361.763 74.3089 361.49 74.1112 361.225 73.8583C360.735 73.3904 360.409 72.8637 360.247 72.2783C360.098 71.6926 360.11 71.0967 360.284 70.4907C360.465 69.8781 360.811 69.3038 361.323 68.7677C361.841 68.2251 362.403 67.8498 363.006 67.6419C363.617 67.4402 364.218 67.4007 364.81 67.5231C365.415 67.6453 365.959 67.9372 366.442 68.3988Z" fill="white"/>
<path d="M369.385 82.1181C368.918 81.6155 368.617 81.0639 368.483 80.4633C368.362 79.8631 368.407 79.2656 368.616 78.6709C368.838 78.0766 369.217 77.5301 369.753 77.0313C370.309 76.5139 370.895 76.1691 371.51 75.997C372.138 75.8253 372.747 75.8214 373.337 75.9852C373.927 76.1489 374.455 76.4821 374.923 76.9847C375.397 77.4939 375.688 78.0484 375.796 78.6481C375.916 79.2483 375.862 79.8487 375.633 80.4492C375.417 81.0501 375.038 81.6031 374.495 82.1081C373.959 82.6069 373.384 82.9423 372.769 83.1144C372.16 83.2803 371.561 83.2814 370.971 83.1176C370.388 82.9605 369.859 82.6274 369.385 82.1181ZM370.037 81.549C370.361 81.8975 370.723 82.1178 371.121 82.2098C371.526 82.2957 371.945 82.2558 372.378 82.09C372.825 81.9248 373.269 81.6365 373.711 81.225C374.153 80.8135 374.47 80.3942 374.66 79.9672C374.857 79.5339 374.927 79.1123 374.871 78.7022C374.814 78.2922 374.624 77.9129 374.3 77.5645C373.982 77.2227 373.617 77.0056 373.206 76.913C372.795 76.8205 372.363 76.8535 371.911 77.012C371.471 77.171 371.03 77.4562 370.588 77.8677C370.152 78.273 369.836 78.6922 369.639 79.1255C369.448 79.5655 369.384 79.9938 369.447 80.4106C369.516 80.8211 369.713 81.2006 370.037 81.549Z" fill="white"/>
<path d="M376.597 89.6995C376.527 89.7586 376.466 89.7859 376.414 89.7816C376.37 89.7713 376.318 89.7312 376.259 89.6613L375.798 89.1158C375.71 89.0109 375.714 88.9171 375.812 88.8345L383.311 82.5207C383.409 82.438 383.493 82.4386 383.564 82.5225L384.095 83.1519C384.166 83.2358 384.156 83.3162 384.065 83.3929L376.597 89.6995Z" fill="white"/>
<path d="M381.167 95.3343C381.095 95.3908 381.033 95.416 380.982 95.4098C380.938 95.398 380.887 95.356 380.831 95.284L380.39 94.7225C380.305 94.6145 380.313 94.521 380.414 94.4418L388.133 88.3992C388.233 88.3201 388.318 88.3237 388.386 88.4101L388.894 89.058C388.962 89.1444 388.949 89.2244 388.856 89.2978L381.167 95.3343Z" fill="white"/>
<path d="M387.711 99.0787C387.345 99.3383 387.071 99.6626 386.886 100.052C386.715 100.443 386.643 100.847 386.671 101.265C386.704 101.691 386.85 102.087 387.11 102.453C387.375 102.826 387.685 103.105 388.041 103.29C388.404 103.47 388.817 103.553 389.279 103.539C389.33 103.548 389.361 103.559 389.371 103.574C389.395 103.591 389.412 103.624 389.424 103.672L389.522 104.309C389.533 104.403 389.486 104.447 389.382 104.443C388.94 104.453 388.535 104.404 388.166 104.296C387.81 104.189 387.481 104.019 387.179 103.784C386.878 103.549 386.595 103.245 386.33 102.872C385.937 102.319 385.717 101.741 385.669 101.135C385.621 100.529 385.737 99.942 386.017 99.3724C386.297 98.8029 386.736 98.3062 387.333 97.8822C387.982 97.4212 388.626 97.1495 389.263 97.0672C389.913 96.9871 390.517 97.0696 391.072 97.3148C391.633 97.5675 392.102 97.9587 392.478 98.4886C392.865 99.0333 393.082 99.592 393.13 100.165C393.177 100.737 393.053 101.297 392.756 101.844C392.46 102.391 391.991 102.893 391.349 103.348C391.297 103.386 391.24 103.415 391.177 103.437C391.119 103.467 391.059 103.437 390.995 103.347L387.951 99.0602C387.929 99.0303 387.892 99.0175 387.839 99.0216C387.798 99.0278 387.756 99.0469 387.711 99.0787ZM390.927 101.948C390.985 102.03 391.03 102.077 391.061 102.088C391.099 102.095 391.152 102.074 391.219 102.027C391.54 101.799 391.788 101.516 391.963 101.178C392.152 100.842 392.239 100.483 392.225 100.1C392.216 99.7242 392.082 99.3536 391.823 98.9879C391.536 98.5849 391.198 98.3142 390.808 98.1759C390.426 98.0323 390.031 97.9982 389.624 98.0737C389.218 98.1492 388.846 98.3061 388.511 98.5446L390.927 101.948Z" fill="white"/>
<path d="M399.545 109.076C399.798 109.479 399.952 109.874 400.01 110.259C400.08 110.647 400.07 111.02 399.981 111.378C399.904 111.739 399.78 112.076 399.608 112.388C399.544 112.493 399.474 112.51 399.397 112.439L398.846 111.893C398.788 111.854 398.78 111.789 398.821 111.698C398.949 111.402 399.034 111.133 399.077 110.891C399.124 110.656 399.13 110.431 399.093 110.217C399.064 109.998 398.986 109.787 398.86 109.585C398.613 109.189 398.293 108.903 397.902 108.727C397.524 108.553 397.098 108.501 396.623 108.571C396.149 108.641 395.655 108.836 395.143 109.156C394.623 109.481 394.228 109.842 393.957 110.238C393.691 110.641 393.554 111.051 393.544 111.467C393.539 111.891 393.663 112.305 393.915 112.709C394.148 113.081 394.443 113.345 394.799 113.5C395.155 113.656 395.582 113.734 396.079 113.736C396.133 113.735 396.164 113.742 396.174 113.758C396.196 113.776 396.212 113.81 396.22 113.858L396.347 114.475C396.358 114.544 396.317 114.591 396.225 114.616C395.95 114.626 395.671 114.612 395.388 114.573C395.105 114.534 394.828 114.454 394.557 114.331C394.291 114.217 394.036 114.058 393.79 113.856C393.552 113.648 393.336 113.389 393.142 113.079C392.783 112.504 392.598 111.913 392.585 111.306C392.585 110.702 392.744 110.127 393.062 109.583C393.388 109.034 393.865 108.563 394.494 108.17C395.13 107.772 395.767 107.547 396.403 107.494C397.045 107.45 397.637 107.56 398.18 107.824C398.736 108.092 399.191 108.509 399.545 109.076Z" fill="white"/>
<path d="M404.196 118.942C404.161 118.878 404.111 118.864 404.047 118.9L400.242 121.013C399.866 121.222 399.65 121.426 399.593 121.625C399.536 121.824 399.579 122.052 399.721 122.308L400.181 123.136C400.203 123.176 400.209 123.214 400.198 123.252C400.195 123.285 400.17 123.314 400.122 123.341L399.707 123.556C399.627 123.6 399.549 123.581 399.471 123.498C399.411 123.427 399.334 123.318 399.242 123.17C399.154 123.031 399.066 122.891 398.978 122.752C398.902 122.616 398.838 122.5 398.785 122.404C398.505 121.899 398.416 121.467 398.519 121.106C398.631 120.741 398.942 120.416 399.454 120.131L403.463 117.905C403.543 117.86 403.561 117.798 403.516 117.718L402.983 116.758C402.934 116.67 402.954 116.601 403.042 116.552L403.546 116.273C403.626 116.228 403.688 116.246 403.732 116.326L404.299 117.346C404.33 117.402 404.378 117.412 404.442 117.377L406.423 116.449C406.532 116.399 406.608 116.414 406.653 116.494L406.986 117.094C407.039 117.19 407.01 117.269 406.898 117.332L405.002 118.385C404.938 118.42 404.924 118.47 404.959 118.534L405.799 120.047C405.848 120.135 405.836 120.199 405.764 120.239L405.248 120.525C405.16 120.574 405.092 120.555 405.043 120.467L404.196 118.942Z" fill="white"/>
<path d="M402.84 129.61C402.759 129.651 402.693 129.663 402.644 129.647C402.607 129.635 402.566 129.584 402.521 129.494L402.206 128.868C402.169 128.795 402.157 128.739 402.169 128.703C402.181 128.666 402.22 128.631 402.285 128.598L408.443 125.501C408.557 125.443 408.639 125.464 408.688 125.562L409.065 126.31C409.11 126.4 409.079 126.472 408.973 126.525L402.84 129.61ZM410.555 125.791C410.4 125.869 410.285 125.834 410.211 125.687L409.854 124.976C409.817 124.902 409.808 124.845 409.829 124.804C409.857 124.759 409.904 124.72 409.969 124.687L411 124.169C411.131 124.103 411.225 124.127 411.282 124.242L411.671 125.014C411.729 125.129 411.696 125.217 411.573 125.279L410.555 125.791Z" fill="white"/>
<path d="M406.407 138.019C406.128 137.392 406.024 136.772 406.092 136.161C406.174 135.554 406.41 135.003 406.801 134.509C407.205 134.02 407.741 133.626 408.41 133.329C409.104 133.021 409.77 132.885 410.408 132.923C411.057 132.965 411.635 133.159 412.139 133.506C412.644 133.853 413.035 134.34 413.314 134.967C413.596 135.603 413.691 136.222 413.598 136.824C413.516 137.431 413.27 137.981 412.858 138.474C412.458 138.972 411.92 139.372 411.242 139.673C410.573 139.97 409.92 140.1 409.282 140.062C408.653 140.021 408.086 139.827 407.582 139.48C407.081 139.142 406.689 138.655 406.407 138.019ZM407.209 137.693C407.402 138.128 407.672 138.454 408.018 138.671C408.373 138.884 408.782 138.982 409.246 138.967C409.722 138.956 410.236 138.827 410.788 138.582C411.34 138.337 411.776 138.044 412.095 137.702C412.422 137.356 412.625 136.98 412.705 136.574C412.785 136.168 412.729 135.747 412.536 135.313C412.346 134.886 412.072 134.562 411.714 134.341C411.355 134.119 410.936 134.01 410.456 134.013C409.989 134.02 409.479 134.146 408.927 134.391C408.383 134.633 407.948 134.926 407.621 135.272C407.297 135.626 407.097 136.01 407.021 136.425C406.953 136.835 407.015 137.258 407.209 137.693Z" fill="white"/>
<path d="M410.205 146.687C410.16 146.567 410.193 146.486 410.305 146.445L416.787 144.024C416.899 143.983 416.972 144.009 417.007 144.104L417.296 144.875C417.331 144.97 417.301 145.034 417.207 145.07L416.461 145.348C416.418 145.364 416.395 145.382 416.393 145.403C416.391 145.423 416.415 145.448 416.465 145.478C416.794 145.678 417.08 145.869 417.324 146.052C417.58 146.239 417.795 146.447 417.968 146.676C418.15 146.901 418.295 147.16 418.404 147.451C418.653 148.12 418.664 148.697 418.435 149.183C418.209 149.678 417.809 150.032 417.235 150.247L412.437 152.038C412.3 152.089 412.207 152.051 412.159 151.922L411.89 151.202C411.868 151.142 411.865 151.094 411.881 151.059C411.906 151.02 411.944 150.991 411.995 150.972L416.587 149.258C417.007 149.101 417.293 148.872 417.444 148.571C417.604 148.267 417.598 147.884 417.425 147.421C417.332 147.172 417.201 146.952 417.032 146.761C416.875 146.576 416.678 146.4 416.44 146.235C416.211 146.067 415.93 145.888 415.596 145.7L410.734 147.516C410.605 147.564 410.517 147.523 410.469 147.395L410.205 146.687Z" fill="white"/>
<path d="M423.769 208.014C423.763 207.886 423.819 207.819 423.938 207.813L430.85 207.486C430.969 207.481 431.031 207.528 431.035 207.629L431.074 208.452C431.079 208.552 431.031 208.605 430.931 208.61L430.135 208.647C430.089 208.649 430.062 208.66 430.054 208.678C430.046 208.697 430.061 208.729 430.1 208.773C430.352 209.063 430.566 209.332 430.743 209.581C430.929 209.837 431.07 210.101 431.165 210.371C431.269 210.641 431.329 210.932 431.344 211.243C431.377 211.956 431.211 212.509 430.845 212.902C430.479 213.304 429.99 213.52 429.377 213.549L424.262 213.791C424.116 213.798 424.039 213.732 424.033 213.595L423.997 212.827C423.994 212.763 424.005 212.717 424.031 212.688C424.067 212.659 424.112 212.643 424.166 212.641L429.062 212.409C429.51 212.388 429.852 212.257 430.088 212.017C430.334 211.776 430.444 211.409 430.421 210.915C430.409 210.65 430.351 210.401 430.248 210.167C430.155 209.943 430.021 209.715 429.845 209.486C429.678 209.255 429.465 209 429.204 208.719L424.02 208.964C423.883 208.97 423.811 208.905 423.805 208.768L423.769 208.014Z" fill="white"/>
<path d="M431.406 223.868C431.405 223.914 431.391 223.946 431.364 223.964C431.336 223.991 431.304 224.005 431.267 224.005L430.677 224.001C430.586 224 430.54 223.954 430.541 223.863L430.55 222.298C430.551 222.224 430.514 222.188 430.441 222.187L424.332 222.149C424.204 222.149 424.14 222.093 424.141 221.983L424.146 221.146C424.146 221.045 424.206 220.995 424.325 220.996L430.462 221.034C430.526 221.034 430.558 221.003 430.559 220.939L430.567 219.593C430.568 219.502 430.614 219.456 430.705 219.457L431.295 219.46C431.332 219.461 431.364 219.47 431.391 219.488C431.419 219.516 431.432 219.557 431.432 219.612L431.424 220.916C431.423 220.999 431.469 221.04 431.56 221.041L432.563 221.047C433.139 221.051 433.578 221.195 433.878 221.481C434.178 221.766 434.327 222.197 434.323 222.774L434.316 223.914C434.315 224.033 434.26 224.092 434.15 224.091L433.615 224.088C433.569 224.087 433.532 224.073 433.505 224.046C433.487 224.027 433.478 223.991 433.478 223.936L433.484 222.975C433.486 222.691 433.396 222.485 433.213 222.355C433.04 222.235 432.803 222.174 432.501 222.172L431.54 222.167C431.457 222.166 431.416 222.207 431.415 222.289L431.406 223.868Z" fill="white"/>
<path d="M430.264 231.819C430.267 231.746 430.233 231.707 430.16 231.703L425.813 231.475C425.384 231.452 425.092 231.51 424.938 231.649C424.784 231.787 424.7 232.003 424.684 232.295L424.635 233.242C424.632 233.287 424.616 233.323 424.588 233.349C424.568 233.375 424.531 233.387 424.476 233.384L424.01 233.346C423.919 233.341 423.862 233.283 423.841 233.172C423.827 233.08 423.821 232.947 423.821 232.773C423.82 232.608 423.82 232.443 423.819 232.278C423.827 232.122 423.834 231.99 423.84 231.88C423.87 231.304 424.025 230.891 424.304 230.639C424.592 230.389 425.029 230.279 425.613 230.31L430.193 230.55C430.284 230.555 430.332 230.512 430.337 230.42L430.395 229.324C430.4 229.223 430.453 229.175 430.553 229.181L431.129 229.211C431.221 229.216 431.264 229.264 431.259 229.355L431.198 230.521C431.195 230.585 431.229 230.618 431.303 230.622L433.475 230.888C433.593 230.903 433.65 230.956 433.645 231.048L433.609 231.733C433.603 231.843 433.536 231.895 433.408 231.888L431.242 231.774C431.169 231.77 431.13 231.805 431.127 231.878L431.036 233.605C431.03 233.706 430.987 233.754 430.904 233.75L430.315 233.719C430.214 233.713 430.167 233.661 430.172 233.56L430.264 231.819Z" fill="white"/>
<path d="M429.492 250.189C429.425 250.66 429.29 251.062 429.086 251.394C428.89 251.736 428.643 252.015 428.344 252.232C428.054 252.459 427.742 252.637 427.41 252.766C427.293 252.805 427.229 252.773 427.215 252.669L427.144 251.897C427.126 251.829 427.161 251.774 427.25 251.731C427.539 251.587 427.777 251.436 427.966 251.277C428.153 251.128 428.302 250.96 428.411 250.772C428.53 250.585 428.606 250.374 428.639 250.138C428.704 249.676 428.644 249.252 428.458 248.865C428.28 248.489 427.987 248.175 427.578 247.923C427.17 247.672 426.667 247.504 426.069 247.42C425.461 247.334 424.927 247.356 424.465 247.485C424.002 247.623 423.633 247.849 423.358 248.161C423.081 248.483 422.91 248.879 422.844 249.35C422.782 249.785 422.838 250.177 423.011 250.525C423.184 250.873 423.46 251.207 423.84 251.529C423.882 251.562 423.901 251.588 423.899 251.606C423.904 251.635 423.894 251.67 423.87 251.713L423.57 252.267C423.534 252.327 423.473 252.337 423.386 252.297C423.169 252.128 422.965 251.937 422.773 251.725C422.581 251.513 422.421 251.273 422.292 251.006C422.162 250.747 422.068 250.461 422.01 250.148C421.962 249.836 421.963 249.499 422.014 249.137C422.109 248.466 422.346 247.894 422.727 247.421C423.116 246.958 423.607 246.62 424.201 246.408C424.803 246.197 425.472 246.143 426.206 246.247C426.949 246.351 427.581 246.588 428.102 246.957C428.622 247.335 429.005 247.8 429.251 248.353C429.504 248.915 429.585 249.527 429.492 250.189Z" fill="white"/>
<path d="M420.065 260.582C420.2 259.909 420.473 259.343 420.883 258.884C421.3 258.435 421.811 258.123 422.416 257.946C423.028 257.78 423.693 257.769 424.411 257.913C425.156 258.063 425.777 258.338 426.276 258.737C426.782 259.147 427.14 259.639 427.351 260.213C427.562 260.788 427.6 261.412 427.465 262.085C427.327 262.767 427.047 263.327 426.622 263.764C426.205 264.212 425.686 264.519 425.065 264.683C424.451 264.858 423.78 264.873 423.054 264.726C422.336 264.582 421.728 264.31 421.229 263.911C420.74 263.514 420.389 263.028 420.178 262.453C419.965 261.887 419.927 261.263 420.065 260.582ZM420.907 260.779C420.813 261.246 420.845 261.668 421.003 262.045C421.169 262.424 421.446 262.741 421.833 262.996C422.228 263.262 422.721 263.455 423.314 263.574C423.906 263.693 424.431 263.706 424.889 263.611C425.355 263.518 425.739 263.329 426.039 263.044C426.339 262.759 426.536 262.384 426.63 261.917C426.722 261.459 426.686 261.037 426.521 260.649C426.357 260.261 426.078 259.929 425.685 259.654C425.299 259.39 424.811 259.198 424.218 259.079C423.635 258.961 423.11 258.949 422.643 259.042C422.175 259.144 421.789 259.341 421.487 259.635C421.195 259.931 421.001 260.313 420.907 260.779Z" fill="white"/>
<path d="M418.113 270.863C418.025 270.841 417.967 270.807 417.94 270.763C417.923 270.721 417.925 270.655 417.947 270.566L418.122 269.874C418.155 269.741 418.234 269.69 418.359 269.721L427.861 272.129C427.985 272.16 428.034 272.229 428.007 272.335L427.806 273.134C427.779 273.241 427.708 273.279 427.593 273.25L418.113 270.863Z" fill="white"/>
<path d="M416.202 277.861C416.114 277.836 416.058 277.8 416.033 277.755C416.017 277.712 416.021 277.647 416.047 277.559L416.246 276.873C416.284 276.741 416.365 276.693 416.488 276.729L425.899 279.473C426.022 279.509 426.068 279.58 426.037 279.685L425.808 280.476C425.777 280.582 425.705 280.618 425.59 280.585L416.202 277.861Z" fill="white"/>
<path d="M416.979 285.362C416.555 285.216 416.132 285.182 415.708 285.259C415.291 285.348 414.92 285.526 414.596 285.792C414.27 286.067 414.034 286.417 413.888 286.841C413.74 287.274 413.694 287.689 413.751 288.086C413.817 288.486 413.991 288.87 414.271 289.237C414.294 289.283 414.302 289.315 414.296 289.333C414.296 289.362 414.28 289.395 414.248 289.432L413.788 289.884C413.718 289.947 413.654 289.935 413.597 289.847C413.331 289.495 413.134 289.137 413.007 288.774C412.886 288.423 412.833 288.056 412.848 287.674C412.863 287.292 412.944 286.885 413.093 286.452C413.313 285.812 413.654 285.295 414.118 284.902C414.582 284.51 415.126 284.261 415.753 284.157C416.379 284.052 417.038 284.119 417.731 284.357C418.484 284.615 419.08 284.979 419.519 285.449C419.963 285.93 420.248 286.468 420.373 287.063C420.495 287.666 420.451 288.275 420.24 288.89C420.023 289.522 419.696 290.024 419.258 290.396C418.821 290.769 418.294 290.994 417.676 291.073C417.059 291.151 416.378 291.063 415.634 290.807C415.573 290.787 415.516 290.757 415.461 290.719C415.403 290.69 415.392 290.623 415.428 290.519L417.134 285.545C417.146 285.511 417.135 285.473 417.1 285.432C417.072 285.403 417.031 285.379 416.979 285.362ZM416.525 289.647C416.493 289.743 416.48 289.806 416.489 289.838C416.506 289.873 416.553 289.904 416.631 289.93C417.004 290.058 417.378 290.095 417.755 290.04C418.137 289.997 418.48 289.858 418.783 289.624C419.083 289.398 419.306 289.072 419.452 288.648C419.612 288.181 419.635 287.748 419.519 287.351C419.413 286.956 419.21 286.616 418.912 286.329C418.613 286.043 418.269 285.833 417.88 285.699L416.525 289.647Z" fill="white"/>
<path d="M415.762 300.806C415.582 301.246 415.352 301.602 415.072 301.873C414.798 302.156 414.489 302.366 414.146 302.502C413.808 302.651 413.462 302.746 413.109 302.789C412.986 302.798 412.931 302.751 412.944 302.647L413.066 301.881C413.064 301.811 413.112 301.767 413.21 301.747C413.525 301.678 413.793 301.591 414.015 301.484C414.233 301.385 414.419 301.259 414.572 301.104C414.733 300.952 414.858 300.766 414.949 300.546C415.126 300.114 415.172 299.688 415.087 299.268C415.008 298.859 414.801 298.482 414.468 298.138C414.134 297.793 413.688 297.506 413.129 297.277C412.562 297.044 412.038 296.933 411.559 296.944C411.076 296.964 410.663 297.091 410.319 297.326C409.972 297.57 409.708 297.912 409.527 298.352C409.36 298.758 409.318 299.151 409.4 299.531C409.481 299.911 409.666 300.303 409.955 300.709C409.987 300.752 410 300.781 409.993 300.798C409.991 300.827 409.973 300.859 409.938 300.895L409.511 301.358C409.461 301.406 409.399 301.401 409.325 301.341C409.157 301.123 409.006 300.888 408.872 300.636C408.739 300.383 408.642 300.111 408.584 299.82C408.522 299.537 408.501 299.237 408.523 298.919C408.553 298.605 408.637 298.279 408.776 297.94C409.033 297.313 409.405 296.818 409.891 296.453C410.381 296.1 410.941 295.895 411.568 295.836C412.205 295.78 412.866 295.893 413.552 296.174C414.246 296.459 414.8 296.845 415.214 297.331C415.624 297.826 415.88 298.371 415.982 298.967C416.089 299.575 416.016 300.188 415.762 300.806Z" fill="white"/>
<path d="M410.462 310.337C410.494 310.271 410.476 310.222 410.41 310.191L406.474 308.334C406.085 308.15 405.793 308.093 405.598 308.163C405.403 308.233 405.243 308.4 405.118 308.665L404.714 309.522C404.694 309.563 404.666 309.591 404.63 309.604C404.601 309.621 404.562 309.618 404.513 309.594L404.097 309.382C404.014 309.343 403.983 309.268 404.005 309.157C404.028 309.067 404.072 308.941 404.138 308.78C404.2 308.627 404.262 308.474 404.324 308.321C404.391 308.18 404.447 308.06 404.494 307.961C404.74 307.439 405.04 307.115 405.393 306.989C405.755 306.866 406.201 306.929 406.73 307.179L410.877 309.136C410.96 309.176 411.021 309.154 411.06 309.071L411.529 308.078C411.572 307.987 411.639 307.963 411.73 308.006L412.251 308.252C412.334 308.291 412.356 308.352 412.317 308.434L411.819 309.49C411.791 309.548 411.811 309.592 411.877 309.624L413.787 310.692C413.891 310.751 413.923 310.822 413.884 310.905L413.591 311.525C413.544 311.625 413.463 311.647 413.347 311.592L411.385 310.666C411.319 310.635 411.27 310.653 411.239 310.719L410.5 312.283C410.457 312.374 410.399 312.402 410.324 312.367L409.79 312.115C409.699 312.072 409.675 312.005 409.718 311.914L410.462 310.337Z" fill="white"/>
<path d="M401.007 315.459C400.926 315.417 400.878 315.371 400.862 315.322C400.851 315.284 400.868 315.221 400.915 315.132L401.24 314.512C401.278 314.439 401.315 314.396 401.352 314.385C401.389 314.373 401.44 314.384 401.505 314.418L407.612 317.613C407.726 317.672 407.757 317.751 407.706 317.848L407.318 318.59C407.271 318.679 407.195 318.696 407.09 318.641L401.007 315.459ZM408.61 319.498C408.455 319.417 408.417 319.304 408.493 319.158L408.862 318.452C408.9 318.379 408.942 318.339 408.987 318.332C409.04 318.329 409.099 318.344 409.164 318.378L410.186 318.913C410.316 318.98 410.351 319.071 410.292 319.185L409.891 319.951C409.831 320.065 409.741 320.09 409.619 320.026L408.61 319.498Z" fill="white"/>
<path d="M396.257 323.261C396.604 322.669 397.046 322.222 397.583 321.922C398.123 321.634 398.708 321.504 399.338 321.534C399.971 321.576 400.603 321.782 401.235 322.152C401.89 322.536 402.389 322.998 402.73 323.538C403.075 324.09 403.254 324.672 403.266 325.284C403.279 325.896 403.112 326.498 402.765 327.091C402.413 327.691 401.965 328.129 401.422 328.404C400.882 328.693 400.291 328.813 399.65 328.766C399.013 328.732 398.374 328.528 397.734 328.153C397.103 327.783 396.616 327.328 396.274 326.788C395.941 326.253 395.768 325.68 395.755 325.068C395.738 324.463 395.905 323.861 396.257 323.261ZM396.989 323.722C396.748 324.133 396.641 324.542 396.667 324.95C396.702 325.362 396.86 325.752 397.143 326.12C397.43 326.5 397.834 326.843 398.355 327.148C398.876 327.454 399.369 327.636 399.832 327.696C400.304 327.76 400.728 327.706 401.105 327.534C401.481 327.362 401.79 327.071 402.03 326.66C402.266 326.258 402.37 325.846 402.34 325.426C402.311 325.005 402.155 324.601 401.873 324.213C401.594 323.838 401.195 323.497 400.673 323.192C400.16 322.891 399.668 322.709 399.196 322.644C398.72 322.588 398.291 322.65 397.91 322.83C397.537 323.014 397.23 323.311 396.989 323.722Z" fill="white"/>
<path d="M391.432 331.402C391.504 331.295 391.589 331.275 391.687 331.341L397.435 335.195C397.534 335.261 397.555 335.336 397.499 335.42L397.04 336.104C396.984 336.187 396.914 336.201 396.831 336.145L396.169 335.702C396.131 335.676 396.103 335.669 396.085 335.679C396.068 335.689 396.061 335.723 396.066 335.781C396.096 336.165 396.107 336.509 396.102 336.813C396.098 337.131 396.054 337.426 395.97 337.7C395.893 337.979 395.768 338.248 395.594 338.507C395.197 339.1 394.734 339.445 394.206 339.542C393.672 339.648 393.151 339.53 392.642 339.188L388.388 336.336C388.267 336.255 388.244 336.157 388.32 336.043L388.749 335.404C388.784 335.351 388.821 335.321 388.859 335.313C388.905 335.311 388.951 335.325 388.996 335.355L393.067 338.085C393.44 338.335 393.792 338.433 394.125 338.381C394.465 338.334 394.773 338.105 395.048 337.694C395.196 337.474 395.298 337.239 395.355 336.99C395.414 336.754 395.441 336.492 395.437 336.202C395.44 335.918 395.421 335.586 395.378 335.205L391.068 332.315C390.954 332.238 390.935 332.143 391.012 332.029L391.432 331.402Z" fill="white"/>
<path d="M311.216 402.744C311.831 402.439 312.446 402.308 313.059 402.352C313.669 402.407 314.229 402.62 314.739 402.99C315.246 403.373 315.661 403.892 315.986 404.548C316.323 405.229 316.486 405.889 316.476 406.527C316.461 407.178 316.291 407.763 315.966 408.281C315.64 408.8 315.17 409.212 314.555 409.516C313.932 409.825 313.317 409.946 312.712 409.878C312.102 409.822 311.542 409.599 311.032 409.208C310.517 408.83 310.096 408.308 309.767 407.644C309.442 406.988 309.285 406.34 309.295 405.702C309.31 405.072 309.48 404.497 309.805 403.978C310.122 403.464 310.593 403.052 311.216 402.744ZM311.575 403.531C311.149 403.742 310.835 404.025 310.633 404.381C310.435 404.744 310.353 405.157 310.388 405.62C310.419 406.095 310.569 406.603 310.837 407.144C311.105 407.686 311.417 408.109 311.772 408.413C312.131 408.725 312.515 408.913 312.924 408.976C313.333 409.039 313.751 408.965 314.177 408.754C314.595 408.546 314.908 408.259 315.114 407.891C315.32 407.524 315.411 407.1 315.389 406.621C315.362 406.155 315.214 405.651 314.946 405.109C314.682 404.576 314.371 404.153 314.012 403.841C313.644 403.533 313.252 403.349 312.835 403.29C312.422 403.239 312.002 403.32 311.575 403.531Z" fill="white"/>
<path d="M301.892 407.49C301.855 407.406 301.846 407.34 301.865 407.292C301.888 407.252 301.941 407.214 302.025 407.177L302.679 406.892C302.805 406.837 302.893 406.868 302.945 406.985L306.855 415.974C306.906 416.092 306.882 416.173 306.781 416.216L306.026 416.546C305.925 416.59 305.851 416.558 305.804 416.449L301.892 407.49Z" fill="white"/>
<path d="M295.186 410.262C295.153 410.177 295.146 410.111 295.167 410.063C295.191 410.024 295.245 409.988 295.33 409.954L295.994 409.692C296.122 409.641 296.21 409.676 296.257 409.795L299.844 418.918C299.891 419.037 299.864 419.117 299.762 419.157L298.995 419.459C298.893 419.5 298.82 419.465 298.777 419.354L295.186 410.262Z" fill="white"/>
<path d="M289.73 415.466C289.586 415.041 289.353 414.685 289.033 414.398C288.707 414.122 288.34 413.937 287.931 413.844C287.514 413.754 287.093 413.782 286.668 413.926C286.235 414.073 285.879 414.291 285.6 414.58C285.324 414.877 285.127 415.248 285.008 415.695C284.985 415.741 284.965 415.767 284.948 415.773C284.925 415.791 284.888 415.798 284.839 415.796L284.2 415.708C284.108 415.692 284.078 415.634 284.113 415.535C284.229 415.109 284.391 414.735 284.601 414.412C284.804 414.101 285.061 413.835 285.373 413.613C285.684 413.391 286.056 413.206 286.489 413.059C287.131 412.841 287.748 412.795 288.342 412.921C288.937 413.048 289.467 413.327 289.932 413.758C290.398 414.189 290.749 414.752 290.985 415.445C291.241 416.199 291.318 416.893 291.215 417.527C291.106 418.173 290.855 418.728 290.461 419.19C290.059 419.656 289.55 419.994 288.935 420.203C288.302 420.418 287.705 420.467 287.143 420.349C286.58 420.231 286.079 419.952 285.64 419.511C285.2 419.071 284.853 418.479 284.6 417.733C284.579 417.673 284.567 417.609 284.564 417.543C284.552 417.479 284.598 417.43 284.702 417.394L289.68 415.7C289.714 415.689 289.737 415.657 289.748 415.604C289.754 415.564 289.748 415.518 289.73 415.466ZM286.063 417.729C285.967 417.761 285.91 417.79 285.89 417.817C285.872 417.851 285.877 417.908 285.904 417.986C286.03 418.358 286.231 418.677 286.504 418.942C286.772 419.218 287.092 419.404 287.463 419.5C287.825 419.599 288.219 419.576 288.644 419.432C289.111 419.273 289.467 419.026 289.711 418.692C289.958 418.366 290.103 417.997 290.147 417.586C290.191 417.175 290.147 416.774 290.014 416.384L286.063 417.729Z" fill="white"/>
<path d="M276.77 423.953C276.312 424.08 275.889 424.116 275.504 424.061C275.112 424.017 274.757 423.901 274.44 423.713C274.116 423.537 273.828 423.322 273.578 423.068C273.496 422.977 273.5 422.904 273.589 422.851L274.27 422.478C274.324 422.435 274.389 422.445 274.464 422.51C274.711 422.717 274.945 422.876 275.165 422.986C275.376 423.099 275.59 423.168 275.806 423.194C276.025 423.229 276.248 423.214 276.478 423.151C276.928 423.027 277.293 422.803 277.574 422.478C277.848 422.165 278.02 421.771 278.088 421.297C278.157 420.822 278.111 420.294 277.95 419.711C277.787 419.12 277.554 418.638 277.252 418.266C276.941 417.896 276.588 417.647 276.192 417.519C275.787 417.393 275.355 417.394 274.896 417.52C274.472 417.637 274.135 417.844 273.885 418.141C273.635 418.438 273.438 418.825 273.294 419.301C273.279 419.352 273.263 419.381 273.246 419.385C273.222 419.402 273.185 419.407 273.136 419.401L272.509 419.347C272.44 419.337 272.406 419.285 272.408 419.189C272.477 418.923 272.571 418.66 272.689 418.4C272.807 418.139 272.963 417.897 273.158 417.672C273.343 417.45 273.568 417.25 273.833 417.073C274.099 416.904 274.409 416.771 274.762 416.674C275.415 416.494 276.034 416.485 276.62 416.646C277.199 416.818 277.704 417.135 278.135 417.595C278.569 418.064 278.884 418.656 279.081 419.371C279.281 420.094 279.315 420.768 279.183 421.393C279.043 422.021 278.768 422.557 278.359 423.002C277.944 423.459 277.414 423.776 276.77 423.953Z" fill="white"/>
<path d="M265.988 425.594C266.059 425.579 266.087 425.535 266.071 425.464L265.132 421.214C265.039 420.794 264.906 420.528 264.731 420.417C264.556 420.305 264.326 420.281 264.04 420.344L263.115 420.549C263.07 420.559 263.032 420.553 262.999 420.532C262.968 420.52 262.947 420.488 262.935 420.434L262.848 419.975C262.828 419.886 262.869 419.816 262.97 419.765C263.056 419.728 263.182 419.686 263.35 419.639C263.509 419.595 263.668 419.55 263.827 419.506C263.979 419.472 264.108 419.444 264.215 419.42C264.778 419.295 265.218 419.334 265.535 419.536C265.853 419.747 266.076 420.138 266.202 420.71L267.191 425.188C267.211 425.277 267.266 425.312 267.355 425.292L268.428 425.055C268.526 425.034 268.586 425.072 268.608 425.17L268.732 425.733C268.752 425.823 268.717 425.877 268.628 425.897L267.488 426.149C267.426 426.163 267.402 426.205 267.418 426.277L267.742 428.441C267.758 428.559 267.722 428.628 267.633 428.648L266.962 428.796C266.855 428.819 266.788 428.769 266.76 428.644L266.292 426.526C266.276 426.454 266.233 426.426 266.161 426.442L264.472 426.815C264.374 426.837 264.316 426.808 264.298 426.727L264.17 426.151C264.149 426.052 264.187 425.992 264.285 425.971L265.988 425.594Z" fill="white"/>
<path d="M256.152 421.25C256.136 421.16 256.143 421.093 256.172 421.051C256.195 421.019 256.255 420.994 256.354 420.976L257.044 420.854C257.125 420.839 257.181 420.843 257.213 420.865C257.245 420.887 257.267 420.934 257.28 421.007L258.49 427.792C258.513 427.918 258.47 427.99 258.362 428.01L257.538 428.157C257.438 428.174 257.378 428.125 257.358 428.008L256.152 421.25ZM257.61 429.734C257.579 429.563 257.645 429.462 257.807 429.434L258.591 429.294C258.672 429.279 258.729 429.288 258.763 429.319C258.798 429.359 258.822 429.415 258.835 429.487L259.037 430.623C259.063 430.767 259.013 430.85 258.887 430.873L258.035 431.025C257.909 431.047 257.834 430.991 257.81 430.856L257.61 429.734Z" fill="white"/>
<path d="M247.073 422.267C247.754 422.179 248.377 422.256 248.944 422.496C249.502 422.747 249.962 423.131 250.324 423.647C250.678 424.173 250.902 424.8 250.996 425.526C251.093 426.279 251.033 426.956 250.815 427.556C250.589 428.167 250.238 428.665 249.762 429.049C249.286 429.434 248.707 429.67 248.026 429.758C247.336 429.847 246.716 429.761 246.166 429.5C245.607 429.249 245.15 428.856 244.795 428.32C244.432 427.795 244.203 427.164 244.108 426.429C244.014 425.703 244.076 425.04 244.294 424.439C244.513 423.848 244.861 423.36 245.337 422.976C245.804 422.592 246.383 422.356 247.073 422.267ZM247.156 423.128C246.684 423.189 246.295 423.355 245.988 423.625C245.683 423.905 245.472 424.269 245.354 424.718C245.229 425.177 245.205 425.706 245.282 426.305C245.36 426.904 245.517 427.405 245.753 427.809C245.991 428.221 246.293 428.523 246.66 428.716C247.026 428.909 247.445 428.974 247.917 428.914C248.38 428.854 248.769 428.684 249.083 428.403C249.398 428.122 249.622 427.752 249.757 427.292C249.883 426.842 249.908 426.317 249.83 425.718C249.754 425.128 249.597 424.627 249.359 424.214C249.112 423.803 248.801 423.502 248.426 423.311C248.051 423.128 247.628 423.067 247.156 423.128Z" fill="white"/>
<path d="M237.681 423.431C237.809 423.422 237.877 423.477 237.885 423.596L238.354 430.5C238.362 430.618 238.316 430.681 238.216 430.688L237.394 430.744C237.293 430.751 237.24 430.704 237.233 430.603L237.179 429.809C237.176 429.763 237.165 429.736 237.146 429.729C237.127 429.721 237.096 429.737 237.053 429.776C236.768 430.034 236.503 430.254 236.258 430.436C236.005 430.627 235.745 430.773 235.476 430.874C235.208 430.984 234.919 431.049 234.609 431.071C233.897 431.119 233.34 430.964 232.94 430.606C232.53 430.249 232.305 429.764 232.263 429.152L231.916 424.043C231.906 423.897 231.97 423.819 232.107 423.81L232.874 423.758C232.938 423.753 232.984 423.764 233.013 423.789C233.043 423.824 233.06 423.869 233.064 423.924L233.396 428.814C233.426 429.261 233.564 429.6 233.809 429.831C234.055 430.072 234.424 430.175 234.917 430.141C235.182 430.123 235.43 430.061 235.661 429.953C235.884 429.856 236.109 429.716 236.335 429.536C236.562 429.365 236.813 429.146 237.088 428.879L236.737 423.702C236.727 423.565 236.791 423.491 236.928 423.482L237.681 423.431Z" fill="white"/>
</g>
</svg>
