<svg width="147" height="76" viewBox="0 0 147 76" fill="none" xmlns="http://www.w3.org/2000/svg">
<path d="M37.4082 37.6148L37.7061 37.5518H62.4834L71.7938 46.8621H46.6559L37.4082 37.6148Z" fill="#64646A"/>
<path d="M29.432 37.5518L4.29395 37.5519L13.6043 46.8623H29.4317L29.432 37.5518Z" fill="#64646A"/>
<path d="M80.4473 10.8086H84.3084V22.8063H90.9401V26.0567H80.4473V10.8086Z" fill="#64646A"/>
<path d="M97.9486 26.3829C96.6542 26.3829 95.5204 26.1503 94.5452 25.6848C93.571 25.205 92.8148 24.5507 92.2766 23.7216C91.753 22.8782 91.4912 21.9111 91.4912 20.8203C91.4912 19.7297 91.753 18.7698 92.2766 17.9409C92.8148 17.0975 93.571 16.443 94.5452 15.9777C95.5204 15.4977 96.6542 15.2578 97.9486 15.2578C99.2429 15.2578 100.378 15.4977 101.352 15.9777C102.326 16.443 103.075 17.0975 103.598 17.9409C104.137 18.7698 104.406 19.7297 104.406 20.8203C104.406 21.9111 104.137 22.8782 103.598 23.7216C103.075 24.5507 102.326 25.205 101.352 25.6848C100.378 26.1503 99.2429 26.3829 97.9486 26.3829ZM97.9486 23.3945C98.7193 23.3945 99.3305 23.169 99.7811 22.7183C100.246 22.2528 100.479 21.6203 100.479 20.8203C100.479 20.0205 100.246 19.3952 99.7811 18.9443C99.3305 18.479 98.7193 18.2463 97.9486 18.2463C97.1777 18.2463 96.5603 18.479 96.0941 18.9443C95.6435 19.3952 95.4182 20.0205 95.4182 20.8203C95.4182 21.6203 95.6435 22.2528 96.0941 22.7183C96.5603 23.169 97.1777 23.3945 97.9486 23.3945Z" fill="#64646A"/>
<path d="M111.618 31.073C110.92 31.073 110.215 31.0076 109.502 30.8766C108.804 30.7458 108.201 30.5712 107.692 30.3531V27.6918C108.84 28.1862 110.149 28.4336 111.618 28.4336C112.68 28.4336 113.443 28.2153 113.908 27.779C114.388 27.3428 114.628 26.703 114.628 25.8594V25.2267C114.207 25.5903 113.683 25.874 113.058 26.0775C112.447 26.2812 111.792 26.3829 111.094 26.3829C109.99 26.3829 109.015 26.1503 108.172 25.6848C107.328 25.2197 106.667 24.5651 106.186 23.7216C105.721 22.8782 105.488 21.9111 105.488 20.8203C105.488 19.7151 105.721 18.7407 106.186 17.8973C106.652 17.0538 107.306 16.4067 108.15 15.9558C108.993 15.4905 109.961 15.2578 111.051 15.2578C112.549 15.2578 113.785 15.7159 114.759 16.632V15.585H118.467V25.3359C118.467 27.1538 117.908 28.5644 116.788 29.5679C115.683 30.5712 113.96 31.073 111.618 31.073ZM112.054 23.4162C112.651 23.4162 113.181 23.2635 113.647 22.9581C114.112 22.6527 114.439 22.2456 114.628 21.7365V19.9043C114.425 19.3952 114.09 18.9953 113.625 18.7044C113.16 18.399 112.636 18.2463 112.054 18.2463C111.27 18.2463 110.637 18.479 110.157 18.9443C109.677 19.3952 109.437 20.0133 109.437 20.7986C109.437 21.5984 109.677 22.2383 110.157 22.7183C110.637 23.1836 111.27 23.4162 112.054 23.4162Z" fill="#64646A"/>
<path d="M125.899 26.3829C124.604 26.3829 123.47 26.1503 122.495 25.6848C121.521 25.205 120.765 24.5507 120.227 23.7216C119.703 22.8782 119.441 21.9111 119.441 20.8203C119.441 19.7297 119.703 18.7698 120.227 17.9409C120.765 17.0975 121.521 16.443 122.495 15.9777C123.47 15.4977 124.604 15.2578 125.899 15.2578C127.193 15.2578 128.327 15.4977 129.302 15.9777C130.276 16.443 131.025 17.0975 131.549 17.9409C132.087 18.7698 132.356 19.7297 132.356 20.8203C132.356 21.9111 132.087 22.8782 131.549 23.7216C131.025 24.5507 130.276 25.205 129.302 25.6848C128.327 26.1503 127.193 26.3829 125.899 26.3829ZM125.899 23.3945C126.669 23.3945 127.28 23.169 127.731 22.7183C128.196 22.2528 128.429 21.6203 128.429 20.8203C128.429 20.0205 128.196 19.3952 127.731 18.9443C127.28 18.479 126.669 18.2463 125.899 18.2463C125.128 18.2463 124.509 18.479 124.044 18.9443C123.594 19.3952 123.368 20.0205 123.368 20.8203C123.368 21.6203 123.594 22.2528 124.044 22.7183C124.509 23.169 125.128 23.3945 125.899 23.3945Z" fill="#64646A"/>
<path d="M80.4473 31.667H84.3084V46.9151H80.4473V31.667Z" fill="#64646A"/>
<path d="M86.2627 36.4443H89.9707V37.4913C90.9449 36.5753 92.182 36.1172 93.6797 36.1172C94.7696 36.1172 95.7376 36.3498 96.5803 36.8153C97.424 37.266 98.078 37.9131 98.5442 38.7566C99.0095 39.5855 99.242 40.5527 99.242 41.6579C99.242 42.7485 99.0095 43.7229 98.5442 44.5809C98.078 45.4244 97.424 46.079 96.5803 46.5441C95.7521 47.0096 94.7842 47.2422 93.6797 47.2422C92.9809 47.2422 92.3123 47.1332 91.6729 46.9151C91.0471 46.7115 90.5236 46.4279 90.1022 46.0643V51.6924H86.2627V36.4443ZM92.6764 44.2538C93.4616 44.2538 94.0937 44.0211 94.5736 43.5557C95.0533 43.0904 95.2933 42.4577 95.2933 41.6579C95.2933 40.8581 95.0533 40.2327 94.5736 39.7818C94.0937 39.3165 93.4616 39.0839 92.6764 39.0839C92.0944 39.0839 91.5707 39.2366 91.1056 39.542C90.6403 39.8327 90.3055 40.2327 90.1022 40.7417V42.5958C90.3055 43.1049 90.6403 43.512 91.1056 43.8174C91.5707 44.1084 92.0944 44.2538 92.6764 44.2538Z" fill="#64646A"/>
<path d="M104.965 47.2422C104.121 47.2422 103.241 47.1549 102.325 46.9805C101.409 46.8206 100.681 46.5879 100.144 46.2825V43.4685C100.74 43.8174 101.452 44.1084 102.281 44.3411C103.125 44.5592 103.896 44.6682 104.594 44.6682C105.103 44.6682 105.474 44.6318 105.707 44.5592C105.939 44.4864 106.055 44.3411 106.055 44.1228C106.055 43.9484 105.976 43.8102 105.815 43.7085C105.67 43.5921 105.394 43.4757 104.987 43.3593C104.594 43.2285 104.136 43.0904 103.612 42.9449C102.725 42.6831 102.027 42.414 101.518 42.1377C101.009 41.8614 100.631 41.5125 100.384 41.0907C100.137 40.6691 100.013 40.1381 100.013 39.4982C100.013 38.364 100.456 37.5204 101.344 36.968C102.245 36.4007 103.474 36.1172 105.03 36.1172C105.786 36.1172 106.578 36.1971 107.408 36.357C108.251 36.5171 108.884 36.728 109.306 36.9897V39.7601C108.869 39.4692 108.288 39.2292 107.561 39.0402C106.848 38.8512 106.179 38.7566 105.553 38.7566C105.059 38.7566 104.674 38.8074 104.397 38.9093C104.121 38.9966 103.983 39.1566 103.983 39.3893C103.983 39.6074 104.121 39.7746 104.397 39.8909C104.674 40.0073 105.168 40.1528 105.881 40.3272C106.346 40.4435 106.543 40.4945 106.47 40.4799C107.4 40.7271 108.12 41.0034 108.629 41.3088C109.138 41.6144 109.495 41.9778 109.698 42.3996C109.916 42.8067 110.026 43.3302 110.026 43.9701C110.026 44.9736 109.59 45.7736 108.717 46.3697C107.858 46.9514 106.608 47.2422 104.965 47.2422Z" fill="#64646A"/>
<path d="M115.76 47.2422C114.32 47.2422 113.237 46.8423 112.509 46.0425C111.797 45.2426 111.44 44.1884 111.44 42.8795V36.4443H115.28V42.4431C115.28 43.6502 115.825 44.2538 116.915 44.2538C117.411 44.2538 117.861 44.1374 118.268 43.9047C118.676 43.6721 119.01 43.3302 119.271 42.8795V36.4443H123.111V46.9151H119.403V45.7806C118.952 46.2606 118.407 46.6242 117.766 46.8714C117.127 47.1186 116.457 47.2422 115.76 47.2422Z" fill="#64646A"/>
<path d="M125.076 36.4443H128.632V37.5786C129.068 37.1133 129.569 36.7571 130.137 36.5097C130.704 36.248 131.308 36.1172 131.948 36.1172C132.733 36.1172 133.359 36.2334 133.824 36.4661C134.304 36.6989 134.688 37.0478 134.979 37.5132C135.416 37.0769 135.946 36.7352 136.572 36.488C137.197 36.2408 137.83 36.1172 138.469 36.1172C139.851 36.1172 140.833 36.4734 141.415 37.1859C141.997 37.884 142.288 38.8947 142.288 40.2182V46.9151H138.623V40.7636C138.623 40.1819 138.513 39.7601 138.295 39.4982C138.077 39.2366 137.713 39.1056 137.204 39.1056C136.55 39.1056 136.019 39.3384 135.613 39.8036C135.627 40.0509 135.635 40.4291 135.635 40.938V46.9151H131.969V40.6109C131.969 40.0727 131.874 39.6873 131.686 39.4547C131.497 39.222 131.162 39.1056 130.682 39.1056C129.941 39.1056 129.3 39.5201 128.763 40.349V46.9151H125.076V36.4443Z" fill="#64646A"/>
<path d="M37.7077 37.5518L37.4096 37.6149L46.6568 46.8621V72H38.743L29.4326 62.6896H37.3465V37.5516H29.4326V29.6381H37.3465V4.5L46.6568 13.8103V29.6379L37.3465 29.6381V37.5516L37.7077 37.5518Z" fill="#64646A"/>
<path d="M62.4834 37.5525L71.7937 46.8629V38.949L62.4834 29.6387V37.5525Z" fill="#64646A"/>
<path d="M80.9922 54.0732H86.6419C88.2414 54.0732 89.4846 54.4514 90.3723 55.2077C91.2733 55.9638 91.725 57.0836 91.725 58.5669C91.725 60.0648 91.2807 61.1847 90.3942 61.9265C89.5065 62.6681 88.2559 63.0389 86.6419 63.0389H82.6936V69.3213H80.9922V54.0732ZM86.5111 61.5992C87.6019 61.5992 88.4604 61.3811 89.0851 60.9447C89.7109 60.494 90.0228 59.7014 90.0228 58.5669C90.0228 57.4181 89.7109 56.6255 89.0851 56.1893C88.4604 55.7384 87.6019 55.5131 86.5111 55.5131H82.6936V61.5992H86.5111Z" fill="#64646A"/>
<path d="M93.9014 53.2002H95.5806V69.3208H93.9014V53.2002Z" fill="#64646A"/>
<path d="M102.862 69.6486C101.465 69.6486 100.389 69.2705 99.6323 68.5142C98.8907 67.758 98.5205 66.7473 98.5205 65.4821V58.8506H100.2V65.5694C100.2 67.4018 101.152 68.318 103.058 68.318C103.858 68.318 104.555 68.1434 105.152 67.7945C105.762 67.4453 106.308 66.8927 106.787 66.1365V58.8506H108.468V69.3213H106.831V67.7507C105.886 69.0159 104.563 69.6486 102.862 69.6486Z" fill="#64646A"/>
<path d="M115.162 69.6486C114.478 69.6486 113.744 69.5468 112.958 69.3432C112.173 69.1541 111.563 68.9142 111.126 68.6232V67.2054C111.679 67.5399 112.312 67.8089 113.024 68.0124C113.751 68.2161 114.449 68.3178 115.118 68.3178C116.02 68.3178 116.667 68.1942 117.059 67.947C117.467 67.6853 117.671 67.2999 117.671 66.791C117.671 66.3983 117.583 66.0929 117.409 65.8748C117.234 65.642 116.944 65.4384 116.536 65.264C116.129 65.0894 115.496 64.8858 114.639 64.6532C113.795 64.4205 113.119 64.1805 112.61 63.9333C112.116 63.6714 111.737 63.3443 111.475 62.9516C111.213 62.559 111.083 62.0573 111.083 61.4465C111.083 60.5012 111.461 59.7813 112.217 59.2869C112.988 58.7778 114.005 58.5234 115.271 58.5234C115.954 58.5234 116.594 58.5888 117.191 58.7196C117.801 58.836 118.31 59.0033 118.718 59.2215V60.6393C118.295 60.4067 117.786 60.2249 117.191 60.0939C116.594 59.9486 115.976 59.8758 115.336 59.8758C114.492 59.8758 113.853 59.9994 113.416 60.2466C112.98 60.494 112.762 60.8939 112.762 61.4465C112.762 61.8246 112.835 62.1155 112.98 62.319C113.141 62.5226 113.423 62.7117 113.831 62.8862C114.253 63.0462 114.922 63.2498 115.838 63.497C117.147 63.8606 118.055 64.2896 118.564 64.7841C119.088 65.264 119.35 65.933 119.35 66.791C119.35 67.6779 119.002 68.376 118.303 68.8851C117.62 69.3941 116.572 69.6486 115.162 69.6486Z" fill="#64646A"/>
</svg>
