<svg width="221" height="94" viewBox="0 0 221 94" fill="none" xmlns="http://www.w3.org/2000/svg">
<path d="M110.636 31.4315C111.543 31.4188 112.314 31.2493 112.301 30.3172V30.1774C112.314 29.2495 111.543 29.08 110.636 29.0674C109.725 29.08 108.954 29.2495 108.967 30.1774V30.3172C108.954 31.2493 109.725 31.4188 110.636 31.4315Z" fill="white" fill-opacity="0.33"/>
<path d="M77.4875 29.5585C77.4875 29.2873 77.2715 29.0713 77.0003 29.0713H74.293V30.0415H77.0003C77.1359 30.0415 77.2502 29.9948 77.3435 29.9017C77.4409 29.8042 77.4875 29.6899 77.4875 29.5585Z" fill="white" fill-opacity="0.33"/>
<path d="M92.7275 29.0596L93.5076 30.7425H91.9434L92.7275 29.0596Z" fill="white" fill-opacity="0.33"/>
<path d="M127.511 29.0596L128.291 30.7425H126.727L127.511 29.0596Z" fill="white" fill-opacity="0.33"/>
<path d="M72.1255 64.4786L70.9732 61.9922L69.8145 64.4786H72.1255Z" fill="white" fill-opacity="0.33"/>
<path d="M99.3206 63.7653C99.3206 64.6108 98.8383 65.3061 97.9866 65.3061H94.3916V62.2246H97.9866C98.8383 62.2246 99.3206 62.9136 99.3206 63.7653Z" fill="white" fill-opacity="0.33"/>
<path d="M108.427 61.9922L109.58 64.4786H107.269L108.427 61.9922Z" fill="white" fill-opacity="0.33"/>
<path d="M122.433 62.0107C122.834 62.0107 123.153 62.3302 123.153 62.731C123.153 62.9251 123.084 63.0943 122.94 63.2383C122.802 63.3762 122.633 63.445 122.433 63.445H118.431V62.0107H122.433Z" fill="white" fill-opacity="0.33"/>
<path d="M135.673 63.7653C135.673 64.6108 135.19 65.3061 134.338 65.3061H130.742V62.2246H134.338C135.19 62.2246 135.673 62.9136 135.673 63.7653Z" fill="white" fill-opacity="0.33"/>
<path d="M56.9096 48.0715L52.7327 38.4277H45.5664V54.5007H50.7875V45.8193L54.5549 54.5007H59.2233L63.0317 45.8193V54.5007H68.2323V38.4277H61.2912L56.9096 48.0715Z" fill="white" fill-opacity="0.33"/>
<path d="M89.5413 54.5007V50.508H78.0138V48.4195H89.0704V44.5089H78.0138V42.4408H89.398V38.4277H72.6084V54.5007H89.5413Z" fill="white" fill-opacity="0.33"/>
<path d="M93.9458 51.6532C95.5429 53.7212 98.3888 54.7449 101.808 54.7449C104.376 54.7449 106.258 54.2234 107.57 53.3963C107.795 53.2539 108.004 53.1024 108.196 52.9431L108.34 54.4993H112.742V44.9783H102.054V48.4386H107.767C107.741 48.6024 107.654 48.8595 107.528 49.1045C107.45 49.2575 107.357 49.4057 107.255 49.5237C106.661 50.2199 105.084 50.8341 103.037 50.8341C100.907 50.8341 99.5354 50.2814 98.7983 49.4214C98.3069 48.7866 98.0203 47.8857 98.0203 46.5344C98.0203 45.1217 98.3069 44.1593 98.8598 43.5246C99.6583 42.6237 101.01 42.2346 102.996 42.2346C104.777 42.2346 106.006 42.6441 106.579 43.1561C106.948 43.4631 107.234 43.8932 107.296 44.1798H112.599C112.591 43.9908 112.564 43.7598 112.518 43.514C112.44 43.0938 112.309 42.6296 112.128 42.2552C110.858 39.6752 107.91 38.1396 102.893 38.1396C98.5322 38.1396 95.6042 39.4704 93.9868 41.4771C92.9221 42.8489 92.4307 44.5688 92.4307 46.4934C92.4307 48.6228 93.004 50.4452 93.9458 51.6532Z" fill="white" fill-opacity="0.33"/>
<path d="M98.6865 46.5353C98.6865 45.1992 98.9597 44.4266 99.3605 43.965C99.9633 43.2866 101.063 42.9014 102.996 42.9014C104.715 42.9014 105.743 43.3031 106.136 43.6536L106.144 43.6611L106.153 43.6685C106.288 43.781 106.412 43.9196 106.505 44.0547C106.597 44.1882 106.634 44.2809 106.643 44.3133H101.388V49.1054H106.737C106.546 49.3218 106.135 49.592 105.481 49.809C104.831 50.025 103.997 50.1692 103.037 50.1692C101.014 50.1692 99.876 49.6455 99.3152 49.0014C98.9486 48.5208 98.6865 47.7837 98.6865 46.5353Z" fill="white" fill-opacity="0.33"/>
<path d="M126.652 44.3496L125.127 47.262H128.094L126.652 44.3496Z" fill="white" fill-opacity="0.33"/>
<path fill-rule="evenodd" clip-rule="evenodd" d="M130.906 51.5317L132.319 54.5007H138.237L130.128 38.4277H123.515L114.936 54.5007H120.73L122.225 51.5317H130.906ZM124.026 47.9281L126.054 44.0584L126.668 42.5842L127.241 44.0379L129.166 47.9281H124.026Z" fill="white" fill-opacity="0.33"/>
<path fill-rule="evenodd" clip-rule="evenodd" d="M173.632 82.3302H173.623C173.509 82.3302 173.395 82.3296 173.281 82.3284V82.3302H48.0426C36.9912 82.3302 27.1333 77.2199 20.7033 69.2336H39.1554V66.8948H18.9744C15.9637 62.4488 13.9464 57.2754 13.2408 51.6932H39.1554V49.3545H13.024C12.9828 48.6581 12.9619 47.9562 12.9619 47.2496C12.9619 42.6197 13.8588 38.1995 15.4884 34.1528H39.1554V31.8141H16.5315C19.0107 26.7624 22.6687 22.3941 27.1473 19.0682H152.735C154.301 17.9054 155.968 16.8699 157.718 15.9771C157.246 16.2177 156.781 16.4685 156.322 16.7294H30.7333C35.8407 13.8266 41.748 12.1689 48.0424 12.1689H173.281V12.1706C173.398 12.1694 173.515 12.1689 173.632 12.1689C193.006 12.1689 208.712 27.875 208.712 47.2496C208.712 66.624 193.006 82.3302 173.632 82.3302ZM186.676 63.7028C188.246 58.9709 189.184 53.3505 189.184 47.2496C189.184 41.562 188.368 36.2921 186.986 31.7702C186.817 31.218 186.64 30.6771 186.455 30.1479C186.146 29.2665 185.815 28.4178 185.464 27.6045C184.99 26.5062 184.48 25.4724 183.938 24.51C181.379 19.9691 178.46 17.5235 175.736 16.7001V27.6045H182.9C183.506 28.8977 184.06 30.3057 184.549 31.8141H175.736V45.1446H186.806C186.832 45.8384 186.845 46.5402 186.845 47.2496C186.845 47.9589 186.832 48.6608 186.806 49.3544H175.736V62.685H184.547C184.06 64.1934 183.506 65.6015 182.9 66.8946H175.736V77.7992C178.46 76.976 181.379 74.5302 183.938 69.9891C184.48 69.0267 184.991 67.9929 185.464 66.8946C185.9 65.8836 186.305 64.8179 186.676 63.7028ZM191.383 31.8141C192.506 35.8776 193.201 40.3833 193.358 45.1446H204.431C204.106 40.3116 202.667 35.7836 200.372 31.8141H191.383ZM197.446 27.6045H190.007C188.657 24.0669 186.953 20.9898 184.985 18.5337C189.875 20.4686 194.152 23.6157 197.446 27.6045ZM171.527 16.6997V27.6045H161.798C162.272 26.5062 162.782 25.4724 163.325 24.51C165.883 19.9683 168.803 17.5224 171.527 16.6997ZM162.277 18.5336C160.309 20.9897 158.606 24.0668 157.256 27.6045H149.816C153.11 23.6156 157.388 20.4683 162.277 18.5336ZM155.879 31.8141H142.409V34.1528H145.669C144.084 37.5279 143.094 41.2365 142.831 45.1446H153.904C154.063 40.3833 154.756 35.8776 155.879 31.8141ZM171.527 31.8141H160.264C159.061 35.7624 158.291 40.2789 158.117 45.1446H171.527V31.8141ZM193.358 49.3544C193.201 54.1157 192.506 58.6214 191.383 62.685H200.372C202.667 58.7156 204.106 54.1874 204.431 49.3544H193.358ZM160.264 62.685C159.061 58.7367 158.291 54.2201 158.117 49.3544H171.527V62.685H160.264ZM155.879 62.685C154.756 58.6214 154.063 54.1157 153.904 49.3544H142.831C143.156 54.1874 144.594 58.7156 146.89 62.685H155.879ZM190.007 66.8946C188.657 70.4322 186.953 73.5092 184.987 75.9653C189.875 74.0304 194.152 70.8833 197.446 66.8946H190.007ZM161.798 66.8946H171.527V77.7996C168.803 76.9769 165.883 74.531 163.325 69.9891C162.782 69.0267 162.272 67.9929 161.798 66.8946ZM157.256 66.8946L142.409 66.8948V69.2334H151.958C154.886 72.1203 158.387 74.4266 162.277 75.9656C160.309 73.5095 158.606 70.4324 157.256 66.8946ZM110.637 27.2621C108.494 27.2663 106.74 27.8849 106.748 30.0414V30.4566C106.74 32.609 108.494 33.2318 110.637 33.236C112.777 33.2318 114.531 32.609 114.523 30.4566V30.0414C114.523 27.8891 112.781 27.2621 110.637 27.2621ZM44.0344 27.4019V33.0962H46.2546V27.4019H44.0344ZM52.9869 30.4185L50.4871 27.4019H47.4324V33.0962H49.6525V29.6178L52.7115 33.0962H55.2112V27.4019H52.9869V30.4185ZM60.8419 29.2152V33.1047H58.6219V29.2152H55.9824V27.4104H63.4815V29.2152H60.8419ZM64.2273 33.1047H70.8918V31.643H66.4473V30.9143H70.8918V29.5965H66.4473V28.8678H70.8918V27.4104H64.2273V33.1047ZM72.0738 33.1004V27.4061H77.5605C78.7341 27.3935 79.7298 28.3806 79.7128 29.5584C79.7128 29.9864 79.5984 30.3761 79.3696 30.7236C79.1451 31.0667 78.8443 31.3295 78.4714 31.5032L79.7128 33.1004H77.3487L76.2768 31.7108H74.2939V33.1004H72.0738ZM85.9579 30.4185L83.4582 27.4019H80.4034V33.0962H82.6236V29.6178L85.6825 33.0962H88.1823V27.4019H85.9579V30.4185ZM90.8515 33.1047H88.3518L91.4065 27.4104H94.0461L97.1008 33.1047H94.6011L94.152 32.1302H91.3006L90.8515 33.1047ZM100.49 33.1047V29.2152H103.13V27.4104H95.6307V29.2152H98.2702V33.1047H100.49ZM103.875 33.0962V27.4019H106.096V33.0962H103.875ZM118.243 27.4019L120.742 30.4185V27.4019H122.967V33.0962H120.467L117.408 29.6178V33.0962H115.188V27.4019H118.243ZM123.136 33.1047H125.636L126.085 32.1302H128.936L129.386 33.1047H131.885L128.831 27.4104H126.191L123.136 33.1047ZM132.059 33.0962V27.4019H134.279V31.2912H138.724V33.0962H132.059ZM49.7869 61.4966C48.766 61.4966 47.5134 61.647 47.5134 62.3171C47.5134 62.6867 48.5343 62.7368 49.8558 62.7993L49.8703 62.8001C52.2181 62.919 55.5051 63.0855 55.4989 65.1918C55.4989 67.5969 52.7431 68.1669 49.7869 68.1669C46.837 68.1606 44.3881 67.8036 44.0749 65.1918H47.5134C47.8891 65.8433 48.7597 66.0123 49.7869 66.0123C50.8078 66.0123 52.0605 65.8433 52.0605 65.1918C52.0605 64.8224 51.0396 64.766 49.7181 64.7034L49.7034 64.7027C47.3556 64.5837 44.0686 64.4172 44.0749 62.3171C44.0749 59.9121 46.8307 59.3358 49.7869 59.3358C52.7368 59.3546 55.1857 59.6865 55.4989 62.3171H52.0605C51.6846 61.6532 50.8141 61.4966 49.7869 61.4966ZM62.7829 62.2232V67.9727H59.5011V62.2232H55.5991V59.5551H66.6849V62.2232H62.7829ZM64.5052 67.9727H68.2005L68.8644 66.5322H73.0795L73.7434 67.9727H77.4387L72.9229 59.5551H69.021L64.5052 67.9727ZM82.2112 59.5425L85.9065 64.0019V59.5425H89.1946V67.9602H85.4994L80.9773 62.8182V67.9602H77.6955V59.5425H82.2112ZM91.111 59.5551V67.9727H98.6019C100.913 68.004 102.629 66.05 102.61 63.7638C102.629 61.4654 100.913 59.5238 98.6019 59.5551H91.111ZM105.654 67.9727H101.959L106.475 59.5551H110.377L114.892 67.9727H111.197L110.533 66.5322H106.318L105.654 67.9727ZM115.149 59.5488V67.9665H118.431V65.9121H121.362L122.947 67.9665H126.441L124.606 65.6052C125.158 65.3484 125.602 64.9602 125.934 64.4528C126.272 63.9393 126.441 63.363 126.441 62.7305C126.466 60.9893 124.995 59.5301 123.26 59.5488H115.149ZM127.462 67.9727V59.5551H134.953C137.264 59.5238 138.98 61.4654 138.962 63.7638C138.98 66.05 137.264 68.004 134.953 67.9727H127.462ZM68.8992 55.1654H62.3668V48.9935L59.6593 55.1654H54.1191L51.4543 49.0251V55.1654H44.9016V37.7607H53.1709L56.9251 46.4286L60.8634 37.7607H68.8992V55.1654ZM90.2085 55.1654H71.9439V37.7607H90.0652V43.1055H78.681V43.8419H89.7376V49.0842H78.681V49.841H90.2085V55.1654ZM113.409 55.1654H107.734L107.638 54.132C106.216 54.9401 104.29 55.4111 101.809 55.4111C98.281 55.4111 95.1934 54.3558 93.4209 52.0619C92.3664 50.7087 91.7659 48.7307 91.7659 46.4937C91.7659 44.4557 92.2873 42.5823 93.4618 41.0691L93.4656 41.0642L93.4695 41.0595C95.2536 38.8461 98.4063 37.4741 102.895 37.4741C108.024 37.4741 111.294 39.0506 112.726 41.9615L112.727 41.9637L112.728 41.966C113.061 42.6557 113.242 43.5669 113.265 44.1534L113.271 44.3127H113.409V55.1654ZM122.636 52.1964L121.141 55.1654H113.826L123.116 37.7607H130.54L139.319 55.1654H131.899L130.487 52.1964H122.636ZM43.9498 76.6004H139.252V74.2616H43.9498V76.6004Z" fill="white" fill-opacity="0.33"/>
<path fill-rule="evenodd" clip-rule="evenodd" d="M48.041 3.75H173.63C197.654 3.75 217.13 23.2255 217.13 47.25C217.13 71.2745 197.654 90.75 173.63 90.75H48.041C24.0166 90.75 4.54102 71.2745 4.54102 47.25C4.54102 23.2255 24.0166 3.75 48.041 3.75ZM48.041 7.95975C26.3416 7.95975 8.75077 25.5506 8.75077 47.25C8.75077 68.9494 26.3416 86.5404 48.041 86.5404H173.63C195.329 86.5404 212.92 68.9494 212.92 47.25C212.92 25.5506 195.329 7.95975 173.63 7.95975H48.041Z" fill="white" fill-opacity="0.33"/>
</svg>
