<svg width="241" height="46" viewBox="0 0 241 46" fill="none" xmlns="http://www.w3.org/2000/svg">
<g clip-path="url(#clip0_375_20786)">
<path d="M57.8896 2.66211H63.8817V35.3457H73.7412V40.7931H57.8896V2.66211Z" fill="#64646A"/>
<path d="M85.0637 41.3366C82.1222 41.3366 79.8707 40.5014 78.309 38.8308C76.7475 37.1603 75.9668 34.7999 75.9668 31.7493V11.7034C75.9668 8.65294 76.7475 6.29245 78.309 4.62196C79.8707 2.95146 82.1222 2.11621 85.0637 2.11621C88.0052 2.11621 90.2567 2.95146 91.8183 4.62196C93.3798 6.29245 94.1606 8.65294 94.1606 11.7034V31.7493C94.1606 34.7999 93.3798 37.1603 91.8183 38.8308C90.2567 40.5014 88.0052 41.3366 85.0637 41.3366ZM85.0637 35.8893C87.1337 35.8893 88.1687 34.6364 88.1687 32.1306V11.3221C88.1687 8.81635 87.1337 7.56348 85.0637 7.56348C82.9937 7.56348 81.9587 8.81635 81.9587 11.3221V32.1306C81.9587 34.6364 82.9937 35.8893 85.0637 35.8893Z" fill="#64646A"/>
<path d="M106.709 41.3366C103.804 41.3366 101.589 40.5195 100.063 38.8853C98.538 37.2149 97.7754 34.8362 97.7754 31.7493V11.7034C97.7754 8.61663 98.538 6.25614 100.063 4.62196C101.589 2.95146 103.804 2.11621 106.709 2.11621C109.614 2.11621 111.829 2.95146 113.355 4.62196C114.88 6.25614 115.642 8.61663 115.642 11.7034V14.9718H109.977V11.3221C109.977 8.81635 108.942 7.56348 106.872 7.56348C104.802 7.56348 103.767 8.81635 103.767 11.3221V32.1852C103.767 34.6547 104.802 35.8893 106.872 35.8893C108.942 35.8893 109.977 34.6547 109.977 32.1852V24.7224H106.981V19.2752H115.642V31.7493C115.642 34.8362 114.88 37.2149 113.355 38.8853C111.829 40.5195 109.614 41.3366 106.709 41.3366Z" fill="#64646A"/>
<path d="M128.151 41.3366C125.209 41.3366 122.958 40.5014 121.396 38.8308C119.834 37.1603 119.054 34.7999 119.054 31.7493V11.7034C119.054 8.65294 119.834 6.29245 121.396 4.62196C122.958 2.95146 125.209 2.11621 128.151 2.11621C131.092 2.11621 133.344 2.95146 134.905 4.62196C136.467 6.29245 137.248 8.65294 137.248 11.7034V31.7493C137.248 34.7999 136.467 37.1603 134.905 38.8308C133.344 40.5014 131.092 41.3366 128.151 41.3366ZM128.151 35.8893C130.221 35.8893 131.256 34.6364 131.256 32.1306V11.3221C131.256 8.81635 130.221 7.56348 128.151 7.56348C126.081 7.56348 125.046 8.81635 125.046 11.3221V32.1306C125.046 34.6364 126.081 35.8893 128.151 35.8893Z" fill="#64646A"/>
<path d="M141.312 2.66211H147.304V40.7931H141.312V2.66211Z" fill="#64646A"/>
<path d="M151.792 2.66211H160.616C163.594 2.66211 165.827 3.46104 167.317 5.05891C168.806 6.65677 169.55 8.9991 169.55 12.0859V15.8445C169.55 18.9313 168.806 21.2736 167.317 22.8715C165.827 24.4693 163.594 25.2682 160.616 25.2682H157.784V40.7931H151.792V2.66211ZM160.616 19.821C161.597 19.821 162.323 19.5486 162.796 19.0039C163.304 18.4591 163.558 17.5332 163.558 16.2258V11.7046C163.558 10.3972 163.304 9.47119 162.796 8.92647C162.323 8.38174 161.597 8.10939 160.616 8.10939H157.784V19.821H160.616Z" fill="#64646A"/>
<path d="M180.806 41.3366C177.902 41.3366 175.704 40.5195 174.215 38.8853C172.727 37.2149 171.981 34.8362 171.981 31.7493V29.5704H177.647V32.1852C177.647 34.6547 178.682 35.8893 180.752 35.8893C181.769 35.8893 182.531 35.5988 183.039 35.0178C183.584 34.4004 183.857 33.4199 183.857 32.0762C183.857 30.4784 183.494 29.0802 182.768 27.8819C182.042 26.6471 180.698 25.1763 178.736 23.4695C176.267 21.2906 174.542 19.3296 173.561 17.5865C172.581 15.807 172.091 13.8097 172.091 11.5945C172.091 8.58031 172.853 6.25614 174.378 4.62196C175.904 2.95146 178.119 2.11621 181.025 2.11621C183.893 2.11621 186.054 2.95146 187.506 4.62196C188.996 6.25614 189.74 8.61663 189.74 11.7034V13.2831H184.074V11.3221C184.074 10.0148 183.821 9.07056 183.312 8.48952C182.804 7.87216 182.06 7.56348 181.079 7.56348C179.081 7.56348 178.083 8.78004 178.083 11.2132C178.083 12.5931 178.446 13.8823 179.172 15.0807C179.934 16.2791 181.296 17.7317 183.258 19.4385C185.763 21.6174 187.488 23.5967 188.433 25.3761C189.377 27.1556 189.849 29.2436 189.849 31.6404C189.849 34.7636 189.068 37.1603 187.506 38.8308C185.981 40.5014 183.747 41.3366 180.806 41.3366Z" fill="#64646A"/>
<path d="M202 41.3377C199.095 41.3377 196.879 40.5207 195.354 38.8864C193.828 37.216 193.066 34.8373 193.066 31.7505V2.66211H199.059V32.1864C199.059 33.4936 199.312 34.4379 199.821 35.019C200.365 35.5999 201.129 35.8905 202.108 35.8905C203.089 35.8905 203.833 35.5999 204.342 35.019C204.886 34.4379 205.159 33.4936 205.159 32.1864V2.66211H210.933V31.7505C210.933 34.8373 210.171 37.216 208.645 38.8864C207.12 40.5207 204.904 41.3377 202 41.3377Z" fill="#64646A"/>
<path d="M215.199 2.66211H223.752L227.565 29.9529H227.673L231.488 2.66211H240.039V40.7931H234.374V11.9225H234.266L229.907 40.7931H224.895L220.538 11.9225H220.43V40.7931H215.199V2.66211Z" fill="#64646A"/>
<path d="M0.0419922 40.7939C7.41371 40.7939 13.3896 34.8179 13.3896 27.4463C13.3896 20.0746 7.41371 14.0986 0.0419922 14.0986V23.4419C2.25349 23.4419 4.04626 25.2347 4.04626 27.4463C4.04626 29.6578 2.25349 31.4506 0.0419922 31.4506V40.7939Z" fill="#64646A"/>
<path d="M44.5331 18.546C42.2522 17.8234 39.8233 17.4336 37.3031 17.4336C24.0955 17.4336 13.3887 28.1406 13.3887 41.3481C13.3887 42.6738 13.4966 43.9743 13.7039 45.2412H28.5628C28.0324 44.052 27.7375 42.7345 27.7375 41.3481C27.7375 36.0651 32.0201 31.7823 37.3031 31.7823C40.1906 31.7823 42.7792 33.0616 44.5331 35.0844V18.546Z" fill="#64646A"/>
<path d="M2.3877 0.75C3.49431 10.7606 11.9814 18.5469 22.287 18.5469C32.5924 18.5469 41.0796 10.7606 42.1861 0.75H27.8679C26.9839 2.96595 24.8182 4.53182 22.287 4.53182C19.7556 4.53182 17.59 2.96595 16.7059 0.75H2.3877Z" fill="#64646A"/>
</g>
<defs>
<clipPath id="clip0_375_20786">
<rect width="240" height="45" fill="white" transform="translate(0.0419922 0.75)"/>
</clipPath>
</defs>
</svg>
