<svg width="121" height="121" viewBox="0 0 121 121" fill="none" xmlns="http://www.w3.org/2000/svg">
<path d="M66.6153 96.5841C66.7231 85.5698 63.9307 76.613 60.3787 76.5782C56.8264 76.5437 53.8596 85.4443 53.752 96.4584C53.6443 107.473 56.4367 116.43 59.9887 116.464C63.5409 116.499 66.5078 107.598 66.6153 96.5841Z" fill="#64646A"/>
<path d="M46.0146 94.0837C52.0604 84.8764 54.5543 75.8317 51.585 73.882C48.6155 71.9322 41.3072 77.8156 35.2616 87.0229C29.2158 96.2303 26.7219 105.275 29.6912 107.225C32.6607 109.174 39.9687 103.291 46.0146 94.0837Z" fill="#64646A"/>
<path d="M30.0119 80.8738C40.076 76.3973 47.0641 70.1372 45.6203 66.8914C44.1767 63.6457 34.8479 64.6436 24.7837 69.1203C14.7197 73.5968 7.73151 79.8569 9.17523 83.1027C10.6189 86.3485 19.9478 85.3505 30.0119 80.8738Z" fill="#64646A"/>
<path d="M44.4113 57.7897C44.9517 54.2787 36.5644 50.0742 25.6781 48.3985C14.7914 46.7228 5.52799 48.2108 4.9876 51.7218C4.44722 55.2327 12.8345 59.437 23.721 61.1127C34.6075 62.7884 43.871 61.3004 44.4113 57.7897Z" fill="#64646A"/>
<path d="M48.3202 49.4248C50.6727 46.7632 45.889 38.6923 37.6357 31.3979C29.3823 24.1037 20.7846 20.3482 18.4322 23.01C16.0797 25.6718 20.8634 33.7427 29.1169 41.0371C37.3702 48.3314 45.968 52.0867 48.3202 49.4248Z" fill="#64646A"/>
<path d="M56.1035 44.5362C59.5216 43.569 59.8612 34.1929 56.8622 23.5944C53.8631 12.9958 48.6609 5.18798 45.2428 6.15521C41.8247 7.12243 41.4851 16.4984 44.4842 27.0971C47.4832 37.6955 52.6854 45.5034 56.1035 44.5362Z" fill="#64646A"/>
<path d="M77.2413 27.4286C80.4489 16.8912 80.2944 7.51035 76.896 6.47592C73.4976 5.44147 68.1425 13.1451 64.9349 23.6826C61.7275 34.2199 61.8821 43.6008 65.2805 44.6352C68.6789 45.6696 74.034 37.9661 77.2413 27.4286Z" fill="#64646A"/>
<path d="M92.3448 41.6647C100.739 34.5331 105.68 26.5572 103.38 23.8501C101.08 21.1429 92.4103 24.7296 84.0161 31.861C75.6216 38.9926 70.6812 46.9685 72.9811 49.6757C75.281 52.3829 83.9506 48.7963 92.3448 41.6647Z" fill="#64646A"/>
<path d="M97.3368 61.8151C108.254 60.3545 116.723 56.3162 116.252 52.7952C115.781 49.2744 106.548 47.6042 95.6309 49.0646C84.7135 50.5253 76.2449 54.5635 76.716 58.0845C77.1871 61.6053 86.4192 63.2757 97.3368 61.8151Z" fill="#64646A"/>
<path d="M111.422 84.11C112.929 80.8936 106.066 74.4968 96.0919 69.8226C86.1182 65.1484 76.8108 63.9668 75.3033 67.1833C73.7959 70.4 80.6592 76.7968 90.6331 81.471C100.607 86.145 109.914 87.3268 111.422 84.11Z" fill="#64646A"/>
<path d="M90.4429 107.841C93.4501 105.951 91.135 96.8584 85.2721 87.5337C79.4091 78.209 72.2182 72.1828 69.211 74.0735C66.2038 75.9642 68.5189 85.0564 74.3818 94.3811C80.2448 103.706 87.4357 109.732 90.4429 107.841Z" fill="#64646A"/>
</svg>
