<svg width="180" height="46" viewBox="0 0 180 46" fill="none" xmlns="http://www.w3.org/2000/svg">
<path d="M4.95312 42.4867H43.4282V4.01172H4.95312V42.4867ZM36.0227 19.5472H27.8927V11.4172H36.0227V19.5472ZM12.3571 11.4172H20.4917V26.9512H36.0227V35.0812H12.3571V11.4172ZM68.4827 4.01172C64.6778 4.01172 60.9584 5.13999 57.7949 7.25383C54.6312 9.36768 52.1655 12.3722 50.7095 15.8874C49.2534 19.4026 48.8726 23.2705 49.6148 27.0022C50.3571 30.7339 52.1892 34.1617 54.8796 36.8521C57.57 39.5427 60.9978 41.3748 64.7295 42.1171C68.4614 42.8593 72.3293 42.4785 75.8445 41.0224C79.3598 39.5664 82.3641 37.1007 84.4781 33.937C86.5919 30.7734 87.7202 27.054 87.7202 23.2492C87.7142 18.1489 85.6854 13.2593 82.079 9.65284C78.4725 6.04639 73.583 4.01767 68.4827 4.01172ZM68.4827 35.0812C66.1425 35.0812 63.8549 34.3873 61.9091 33.0871C59.9634 31.7871 58.4468 29.9392 57.5513 27.7771C56.6558 25.6152 56.4215 23.2362 56.8779 20.9409C57.3345 18.6457 58.4615 16.5375 60.1161 14.8827C61.7709 13.228 63.8792 12.1011 66.1743 11.6446C68.4695 11.188 70.8485 11.4223 73.0106 12.3179C75.1725 13.2134 77.0205 14.73 78.3206 16.6758C79.6208 18.6214 80.3147 20.9091 80.3147 23.2492C80.3099 26.3859 79.0617 29.3926 76.8438 31.6105C74.6259 33.8284 71.6192 35.0764 68.4827 35.0812ZM156.561 4.01172C152.756 4.01143 149.037 5.13943 145.873 7.2531C142.709 9.36676 140.243 12.3711 138.787 15.8863C137.331 19.4014 136.949 23.2696 137.692 27.0013C138.434 30.7332 140.266 34.1611 142.956 36.8517C145.646 39.5422 149.074 41.3746 152.807 42.117C156.537 42.8593 160.406 42.4785 163.922 41.0226C167.436 39.5665 170.441 37.1008 172.554 33.9372C174.669 30.7735 175.797 27.0541 175.797 23.2492C175.791 18.1492 173.763 13.2598 170.157 9.65337C166.551 6.04696 161.661 4.01808 156.561 4.01172ZM156.561 35.0812C154.221 35.0815 151.934 34.3878 149.987 33.0879C148.041 31.788 146.525 29.9401 145.629 27.7782C144.733 25.6162 144.498 23.2371 144.955 20.9418C145.411 18.6466 146.538 16.5382 148.193 14.8833C149.847 13.2284 151.956 12.1013 154.251 11.6447C156.546 11.188 158.925 11.4222 161.087 12.3177C163.25 13.2132 165.098 14.7298 166.398 16.6756C167.697 18.6214 168.392 20.9091 168.392 23.2492C168.387 26.3856 167.139 29.392 164.921 31.6099C162.704 33.8278 159.698 35.0761 156.561 35.0812ZM112.521 4.01172C108.716 4.01172 104.997 5.13999 101.833 7.25383C98.6697 9.36768 96.204 12.3722 94.748 15.8874C93.2919 19.4026 92.9111 23.2705 93.6533 27.0022C94.3956 30.7339 96.2277 34.1617 98.9181 36.8521C101.609 39.5427 105.036 41.3748 108.768 42.1171C112.5 42.8593 116.368 42.4785 119.883 41.0224C123.398 39.5664 126.403 37.1007 128.517 33.937C130.63 30.7734 131.759 27.054 131.759 23.2492C131.753 18.1489 129.724 13.2593 126.117 9.65284C122.511 6.04639 117.621 4.01767 112.521 4.01172ZM112.521 35.0812C110.341 35.0823 108.203 34.4809 106.343 33.3435C104.483 32.206 102.973 30.5769 101.98 28.6356C100.988 26.6943 100.551 24.5164 100.718 22.3426C100.885 20.1687 101.649 18.0832 102.927 16.3164C104.205 14.5496 105.945 13.1701 107.957 12.3303C109.97 11.4904 112.175 11.2228 114.329 11.5571C116.484 11.8913 118.504 12.8144 120.167 14.2243C121.83 15.6343 123.071 17.4765 123.753 19.5472H112.521V26.9512H123.753C122.972 29.3142 121.466 31.3713 119.45 32.8305C117.434 34.2898 115.01 35.0772 112.521 35.0812Z" fill="#64646A"/>
</svg>
