<svg width="157" height="112" viewBox="0 0 157 112" fill="none" xmlns="http://www.w3.org/2000/svg">
<path d="M12.7485 101.364V78.75H9.04102V101.364H12.7485Z" fill="#64646A"/>
<path d="M15.0176 93.8266C15.0176 98.4466 18.1173 101.729 22.8276 101.729C27.5379 101.729 30.6377 98.4466 30.6377 93.8266C30.6377 89.2064 27.5379 85.9238 22.8276 85.9238C18.1173 85.9238 15.0176 89.2064 15.0176 93.8266ZM18.7554 93.8266C18.7554 91.1213 20.3661 89.2369 22.8276 89.2369C25.2891 89.2369 26.8998 91.1213 26.8998 93.8266C26.8998 96.5012 25.2891 98.4161 22.8276 98.4161C20.3661 98.4161 18.7554 96.5012 18.7554 93.8266Z" fill="#64646A"/>
<path d="M31.8857 93.5219C31.8857 97.8989 34.7119 101.06 38.936 101.06C41.1241 101.06 43.0082 100.178 43.9502 98.7196V101.273C43.9502 103.735 42.4004 105.376 39.8173 105.376C37.5077 105.376 35.9275 104.251 35.7148 102.276H31.9769C32.4631 106.197 35.4716 108.75 39.6046 108.75C44.467 108.75 47.5666 105.558 47.5666 100.604V86.3488H44.2846L44.0719 88.3852C43.1602 86.8046 41.276 85.8623 39.0575 85.8623C34.7726 85.8623 31.8857 89.1146 31.8857 93.5219ZM35.654 93.4307C35.654 90.9383 37.2343 89.1146 39.5743 89.1146C42.127 89.1146 43.8287 90.9688 43.8287 93.4307C43.8287 95.9231 42.127 97.838 39.5743 97.838C37.2646 97.838 35.654 95.9536 35.654 93.4307Z" fill="#64646A"/>
<path d="M49.4014 93.8266C49.4014 98.4466 52.5011 101.729 57.2114 101.729C61.9217 101.729 65.0215 98.4466 65.0215 93.8266C65.0215 89.2064 61.9217 85.9238 57.2114 85.9238C52.5011 85.9238 49.4014 89.2064 49.4014 93.8266ZM53.1392 93.8266C53.1392 91.1213 54.7499 89.2369 57.2114 89.2369C59.6729 89.2369 61.2836 91.1213 61.2836 93.8266C61.2836 96.5012 59.6729 98.4161 57.2114 98.4161C54.7499 98.4161 53.1392 96.5012 53.1392 93.8266Z" fill="#64646A"/>
<path d="M69.0328 83.2794C70.2484 83.2794 71.2513 82.3066 71.2513 81.0604C71.2513 79.8447 70.2484 78.8721 69.0328 78.8721C67.7869 78.8721 66.8447 79.8447 66.8447 81.0604C66.8447 82.3066 67.7869 83.2794 69.0328 83.2794ZM67.1791 101.364H70.8866V86.3493H67.1791V101.364Z" fill="#64646A"/>
<path d="M74.1357 108.324H77.7519V99.2969C78.6941 100.847 80.7302 101.759 82.979 101.759C87.4158 101.759 90.0597 98.3546 89.9988 93.6737C89.9078 88.9625 87.2031 85.8926 82.9485 85.8926C80.6694 85.8926 78.6029 86.8956 77.6912 88.6281L77.4785 86.3486H74.1357V108.324ZM77.9039 93.8561C77.9039 91.151 79.545 89.2664 82.128 89.2664C84.7112 89.2664 86.261 91.1813 86.261 93.8561C86.261 96.5309 84.7112 98.4153 82.128 98.4153C79.545 98.4153 77.9039 96.5613 77.9039 93.8561Z" fill="#64646A"/>
<path d="M90.9385 96.8652C91.0601 99.8439 93.3697 101.759 96.9556 101.759C100.481 101.759 102.881 99.8744 102.881 96.9564C102.881 94.7984 101.544 93.3393 99.0829 92.7315L96.439 92.0931C95.3146 91.7892 94.5548 91.3941 94.5548 90.4215C94.5548 89.388 95.3753 88.6586 96.7124 88.6586C98.1104 88.6586 99.0221 89.4488 99.0221 90.7559H102.395C102.274 87.777 100.055 85.8926 96.8036 85.8926C93.5824 85.8926 91.1816 87.777 91.1816 90.6342C91.1816 92.5796 92.306 94.1904 95.1931 94.9503L97.8065 95.619C98.779 95.8926 99.3868 96.3485 99.3868 97.1996C99.3868 98.385 98.2624 98.9321 96.8948 98.9321C95.2538 98.9321 94.3117 98.1722 94.3117 96.8652H90.9385Z" fill="#64646A"/>
<path d="M110.573 101.759C112.609 101.759 114.554 100.817 115.435 99.4184L115.678 101.364H119.143V86.3486H115.435V94.2209C115.435 96.926 114.402 98.4458 111.971 98.4458C110.087 98.4458 108.78 97.534 108.78 94.4336V86.3486H105.072V95.7407C105.072 99.3272 107.017 101.759 110.573 101.759Z" fill="#64646A"/>
<path d="M126.121 101.364V92.7315C126.121 90.2999 127.55 89.1449 129.312 89.1449C131.075 89.1449 132.23 90.2694 132.23 92.3972V101.364H135.846V92.7618C135.846 90.2999 137.244 89.1449 139.007 89.1449C140.8 89.1449 141.954 90.2694 141.954 92.3972V101.364H145.54V91.5461C145.54 88.0811 143.626 85.8926 139.979 85.8926C137.7 85.8926 135.907 86.9868 135.178 88.7498C134.357 86.9868 132.716 85.8926 130.224 85.8926C128.461 85.8926 126.881 86.7132 126 88.0506L125.818 86.3486H122.414V101.364H126.121Z" fill="#64646A"/>
<path d="M68.2725 58.2785C63.3882 67.0681 53.4433 71.25 43.3876 71.25H3.04199C45.042 66 74.292 45 78.042 15.75C81.792 45 111.042 66 153.042 71.25H112.696C102.641 71.25 92.6958 67.0681 87.8115 58.2785C82.5249 48.765 79.1568 38.0001 78.042 26.25C76.9272 38.0001 73.5591 48.765 68.2725 58.2785Z" fill="#64646A"/>
<path d="M45.1986 55.172C42.8426 56.4984 40.3643 57.7443 37.7693 58.9049C36.2952 53.813 35.7528 48.4707 36.1854 43.149C36.7577 36.1087 39.0186 29.3214 42.768 23.3885C46.5176 17.4555 51.6396 12.5598 57.6807 9.13512C63.7218 5.71047 70.4955 3.86251 77.4017 3.75498C84.3078 3.64743 91.1333 5.28361 97.2735 8.51859C103.414 11.7535 108.679 16.4874 112.603 22.3009C116.528 28.1145 118.99 34.8282 119.771 41.8473C120.41 47.5886 119.909 53.3894 118.313 58.9049C115.718 57.7443 113.239 56.4982 110.883 55.1718C111.877 51.1395 112.155 46.9446 111.692 42.7884C111.062 37.1282 109.077 31.7142 105.912 27.0262C102.748 22.3383 98.5016 18.5208 93.5501 15.9121C88.5986 13.3035 83.0945 11.9841 77.5254 12.0708C71.9562 12.1575 66.494 13.6477 61.6226 16.4093C56.751 19.1709 52.6205 23.1188 49.5969 27.9032C46.5734 32.6875 44.7501 38.1608 44.2887 43.8381C43.9785 47.6541 44.2899 51.4833 45.1986 55.172Z" fill="#64646A"/>
</svg>
