<svg width="266" height="151" viewBox="0 0 266 151" fill="none" xmlns="http://www.w3.org/2000/svg">
<path d="M186.903 48.2256C188.136 50.0683 189.32 52.3415 188.738 54.7777C186.729 53.6281 185.114 51.7512 183.833 49.8982C182.543 48.0328 181.203 46.0492 180.744 43.75C183.278 44.398 185.546 46.1968 186.903 48.2256Z" fill="#64646A"/>
<path d="M78.0112 54.7745C77.4307 52.3379 78.6166 50.0655 79.8518 48.2238C81.2116 46.1963 83.4803 44.3991 86.0141 43.7529C85.5538 46.0517 84.2122 48.0345 82.9208 49.8987C81.6382 51.7508 80.0204 53.6265 78.0112 54.7745Z" fill="#64646A"/>
<path d="M76.2447 59.4478C76.6979 57.5182 76.6878 55.4057 76.2564 53.5958C75.8771 52.0052 75.3251 49.7567 73.5083 48.998C72.1877 51.1163 71.6568 54.001 72.4265 56.1625C72.983 57.726 73.9838 59.7931 76.0593 60.113C77.9639 60.5521 79.8897 59.5361 81.4107 58.6974C83.102 57.7648 84.7586 56.2811 85.7651 54.5173C83.9187 53.5853 81.816 54.3416 80.2341 55.0664C78.5289 55.8478 76.9625 57.5242 76.2447 59.4478Z" fill="#64646A"/>
<path d="M113.206 61.3012V51.6133H109.899V55.1429H104.937V51.6133H101.63V61.3012H104.937V57.784H109.899V61.3012H113.206Z" fill="#64646A"/>
<path d="M124.175 51.6133H127.828L122.645 58.1048V61.3012H119.325V58.1171L114.203 51.6133H117.967L121.028 55.4884L124.175 51.6133Z" fill="#64646A"/>
<path fill-rule="evenodd" clip-rule="evenodd" d="M139.346 52.4401C140 52.9585 140.37 53.8348 140.37 55.1059C140.37 56.1425 140.111 56.92 139.617 57.4631C138.951 58.2283 137.852 58.5737 136.421 58.5862C135.976 58.5985 132.175 58.5862 132.175 58.5862V61.3012H128.855V51.6133H136.371C137.704 51.6133 138.716 51.8848 139.346 52.4401ZM136.89 55.8587C136.988 55.6859 137.038 55.4638 137.038 55.1552C137.038 54.8344 136.976 54.5629 136.865 54.4148C136.655 54.1063 136.26 53.9581 135.619 53.9581H132.151V56.3276H135.594C136.285 56.3276 136.692 56.1673 136.89 55.8587Z" fill="#64646A"/>
<path d="M151.897 58.8946V61.3012H141.691V51.6133H151.812V54.0322H144.949V55.2787H151.614V57.6358H144.949V58.8946H151.897Z" fill="#64646A"/>
<path fill-rule="evenodd" clip-rule="evenodd" d="M164.289 52.6006C164.735 53.0572 164.943 53.6866 164.943 54.5629C164.943 55.3157 164.759 55.9574 164.45 56.3894C164.105 56.8583 163.574 57.2533 162.92 57.352L165.845 61.3012H162.167L159.761 57.8827H156.762V61.3012H153.467V51.6133H161.18C162.71 51.6133 163.71 51.9835 164.289 52.6006ZM161.624 55.3774C161.711 55.2293 161.735 55.0318 161.735 54.8714C161.735 54.6863 161.711 54.4888 161.624 54.3653C161.451 54.0445 161.106 53.9581 160.587 53.9581H156.774V55.723H160.649C161.18 55.723 161.501 55.6243 161.624 55.3774Z" fill="#64646A"/>
<path d="M150.13 73.4526C150.13 71.2382 148.723 70.0743 145.441 69.7187C144.908 69.654 143.34 69.4923 142.354 69.4115C139.816 69.1367 139.056 68.9913 139.056 68.3447C139.056 67.7628 139.654 67.488 141.934 67.488C143.55 67.488 144.455 67.7951 144.811 68.2638C144.989 68.4902 145.053 68.6679 145.07 68.8458H149.725C149.676 68.4578 149.515 67.9082 149.256 67.4234C148.416 65.8068 146.395 64.5137 142.047 64.5137C137.149 64.5137 134.466 66.2433 134.466 68.5064C134.466 70.6886 135.985 71.9655 140.091 72.3374C140.555 72.3771 141.552 72.4713 142.368 72.5484L142.419 72.5532L142.428 72.5541L142.432 72.5544L142.871 72.596C145.021 72.8223 145.603 72.9677 145.603 73.6467C145.603 74.277 145.037 74.6165 142.661 74.6165C140.818 74.6165 139.735 74.3417 139.347 73.8729C139.186 73.679 139.072 73.388 139.04 73.194H134.385C134.433 73.5173 134.514 74.0346 134.692 74.4549C135.484 76.233 137.553 77.5908 142.354 77.5908C147.51 77.5908 150.13 76.136 150.13 73.4526Z" fill="#64646A"/>
<path fill-rule="evenodd" clip-rule="evenodd" d="M117.125 76.1041C117.61 75.5383 117.853 74.6815 117.853 73.8087C117.853 73.0651 117.659 72.3538 117.255 71.8851C116.77 71.2546 115.913 70.8021 115.008 70.689C115.622 70.6081 116.204 70.2849 116.543 69.8646C116.964 69.3634 117.158 68.6845 117.158 67.8601C117.158 67.0357 116.915 66.3084 116.366 65.7588C115.751 65.1283 114.636 64.708 112.89 64.708H101.931V77.3973H113.197C114.992 77.3973 116.382 77.0092 117.125 76.1041ZM112.664 68.6199C112.664 68.9271 112.567 69.1857 112.405 69.3634C112.179 69.5736 111.759 69.6544 111.209 69.6544H106.166V67.5853H111.096C111.71 67.5853 112.131 67.6662 112.357 67.8763C112.567 68.0541 112.664 68.3127 112.664 68.6199ZM113.149 74.1805C112.89 74.4229 112.438 74.52 111.678 74.52H106.166V72.4024H111.726C112.438 72.4024 112.858 72.4993 113.1 72.7095C113.294 72.9034 113.375 73.146 113.375 73.4692C113.375 73.7764 113.31 74.0188 113.149 74.1805Z" fill="#64646A"/>
<path d="M133.076 74.2452V77.3973H119.708V64.708H132.963V67.8763H123.975V69.5089H132.704V72.5964H123.975V74.2452H133.076Z" fill="#64646A"/>
<path d="M165.858 67.8925V64.708H150.713V67.8925H156.063V77.3973H160.491V67.8925H165.858Z" fill="#64646A"/>
<path d="M165.475 88.6231H164.762L164.711 87.937C164.494 88.2842 164.033 88.7011 163.061 88.7011C161.419 88.7011 160.655 87.7111 160.655 85.1834C160.655 83.2292 161.141 81.6572 163.147 81.6572C164.885 81.6572 165.415 82.7951 165.44 84.0197H164.572C164.546 83.2207 164.189 82.4824 163.165 82.4824C161.932 82.4824 161.575 83.2207 161.575 85.2097C161.575 87.2855 162.019 87.937 163.183 87.937C163.999 87.937 164.476 87.4853 164.633 86.9468V85.6526H162.878V84.8621H165.466V86.86C165.466 87.4568 165.472 88.0939 165.473 88.4141L165.475 88.5665V88.6231Z" fill="#64646A"/>
<path fill-rule="evenodd" clip-rule="evenodd" d="M102.096 86.8965H104.528L105.032 88.6249H105.953L103.938 81.7461H102.817L100.663 88.6249H101.575L102.096 86.8965ZM104.311 86.1235H102.331C102.331 86.1235 103.191 83.3442 103.208 83.2834C103.217 83.2399 103.356 82.6233 103.356 82.6233L103.452 83.0794L103.495 83.2834C103.503 83.3268 104.311 86.1235 104.311 86.1235Z" fill="#64646A"/>
<path d="M112.544 81.7461H113.377L111.753 88.6249H110.72C110.72 88.6249 109.564 83.2747 109.564 83.0488C109.556 83.2747 108.374 88.6249 108.374 88.6249H107.341L105.717 81.7461H106.655C106.655 81.7461 107.914 87.1918 107.914 87.409C107.914 87.1918 109.069 81.7461 109.069 81.7461H110.103C110.103 81.7461 111.258 87.2005 111.258 87.409C111.258 87.2005 112.544 81.7461 112.544 81.7461Z" fill="#64646A"/>
<path fill-rule="evenodd" clip-rule="evenodd" d="M116.945 86.8965H114.513L113.992 88.6249H113.08L115.234 81.7461H116.355L118.37 88.6249H117.449L116.945 86.8965ZM114.748 86.1235H116.728C116.728 86.1235 115.92 83.3268 115.912 83.2834L115.846 82.9704L115.773 82.6233C115.773 82.6233 115.634 83.2399 115.625 83.2834C115.608 83.3442 114.748 86.1235 114.748 86.1235Z" fill="#64646A"/>
<path fill-rule="evenodd" clip-rule="evenodd" d="M121.717 81.7461C122.776 81.7461 123.35 82.2411 123.35 83.6829C123.35 84.9076 122.889 85.3158 122.412 85.4547L123.732 88.6249H122.776L121.552 85.6285H119.884V88.6249H119.016V81.7461H121.717ZM121.587 84.8467C122.273 84.8467 122.438 84.4906 122.438 83.709C122.438 82.8231 122.177 82.5538 121.543 82.5538H119.893V84.8467H121.587Z" fill="#64646A"/>
<path fill-rule="evenodd" clip-rule="evenodd" d="M129.132 85.0726C129.132 86.6968 129.011 87.3568 128.664 87.852C128.316 88.3297 127.769 88.6249 126.883 88.6249H124.521V81.7461H126.822C127.691 81.7461 128.368 82.0066 128.681 82.4757C129.028 82.9794 129.132 83.6047 129.132 85.0726ZM126.701 87.8085C127.23 87.8085 127.673 87.6696 127.899 87.3655C128.142 87.0355 128.212 86.3667 128.212 85.0726C128.212 83.9869 128.151 83.4049 127.899 83.0314C127.665 82.7101 127.213 82.5711 126.683 82.5711H125.398V87.8085H126.701Z" fill="#64646A"/>
<path d="M138.297 81.7461H139.13L137.506 88.6249H136.473C136.473 88.6249 135.317 83.2747 135.317 83.0488C135.309 83.2747 134.127 88.6249 134.127 88.6249H133.094L131.47 81.7461H132.408C132.408 81.7461 133.667 87.1918 133.667 87.409C133.667 87.1918 134.822 81.7461 134.822 81.7461H135.856C135.856 81.7461 137.011 87.2005 137.011 87.409C137.011 87.2005 138.297 81.7461 138.297 81.7461Z" fill="#64646A"/>
<path d="M140.665 81.7461V88.6249H139.762V81.7461H140.665Z" fill="#64646A"/>
<path d="M146.321 81.7461V88.6249H145.322L142.76 83.292V88.6249H141.917V81.7461H142.968L145.469 87.0007V81.7461H146.321Z" fill="#64646A"/>
<path d="M151.951 81.7461V88.6249H150.952L148.39 83.292V88.6249H147.548V81.7461H148.599L151.101 87.0007V81.7461H151.951Z" fill="#64646A"/>
<path d="M154.083 81.7461V88.6249H153.18V81.7461H154.083Z" fill="#64646A"/>
<path d="M159.74 81.7461V88.6249H158.741L156.179 83.292V88.6249H155.336V81.7461H156.387L158.889 87.0007V81.7461H159.74Z" fill="#64646A"/>
<path d="M111.875 102.182L110.879 99.1191L109.884 102.182H106.663L109.269 104.076L108.273 107.139L110.879 105.246L113.485 107.139L112.49 104.076L115.095 102.182H111.875Z" fill="#64646A"/>
<path d="M123.383 102.182L122.368 99.1191L121.352 102.182H118.065L120.724 104.076L119.709 107.139L122.368 105.246L125.027 107.139L124.011 104.076L126.67 102.182H123.383Z" fill="#64646A"/>
<path d="M134.785 102.182L133.769 99.1191L132.753 102.182H129.467L132.126 104.076L131.11 107.139L133.769 105.246L136.428 107.139L135.412 104.076L138.071 102.182H134.785Z" fill="#64646A"/>
<path d="M146.183 102.182L145.168 99.1191L144.152 102.182H140.865L143.524 104.076L142.508 107.139L145.168 105.246L147.826 107.139L146.811 104.076L149.47 102.182H146.183Z" fill="#64646A"/>
<path d="M157.655 102.182L156.661 99.1191L155.665 102.182H152.444L155.05 104.076L154.055 107.139L156.661 105.246L159.266 107.139L158.27 104.076L160.877 102.182H157.655Z" fill="#64646A"/>
<path d="M70.3787 64.6537C71.3153 66.0826 72.7646 67.8724 74.8778 67.8214C76.7995 67.9174 78.4597 66.6059 79.7671 65.5114C81.1751 64.3325 82.4461 62.6086 82.9826 60.7448C81.0172 60.173 79.1354 61.2323 77.7322 62.2315C76.2668 63.275 75.1399 65.1848 74.8978 67.1458C74.8796 65.1812 74.3479 63.1522 73.4906 61.5176C72.7069 60.0233 71.6147 58.0034 69.6662 57.5996C68.8985 59.9248 69.1435 62.7697 70.3787 64.6537Z" fill="#64646A"/>
<path d="M75.5029 75.5178C73.5417 75.8465 71.6286 74.6448 70.3861 73.2314C68.7865 71.4116 67.8348 68.9703 68.0289 66.5264C70.0437 66.5775 71.5696 68.3192 72.6975 69.6362C73.9122 71.0546 74.9074 72.9207 75.3849 74.8458C75.1749 72.9273 75.819 70.8557 77.0146 69.5756C78.1687 68.3399 79.7854 66.9932 81.7969 67.2093C81.7536 69.1547 80.7784 71.0081 79.7727 72.3962C78.8352 73.6898 77.391 75.2898 75.5029 75.5178Z" fill="#64646A"/>
<path d="M71.8797 81.9816C73.686 83.1576 75.8767 84.3216 78.1791 83.4406C80.0679 82.7724 81.2688 80.8711 82.0074 79.126C82.7898 77.277 83.3124 75.1449 82.9506 73.1211C80.875 73.3053 79.1539 74.7903 78.2398 76.603C77.2842 78.4981 77.1009 80.7538 77.835 82.7407C76.7503 80.6967 75.1641 79.0428 73.4838 77.5146C71.9563 76.1254 69.7561 74.662 67.54 74.9373C67.9617 77.677 69.6336 80.5194 71.8797 81.9816Z" fill="#64646A"/>
<path d="M82.8332 90.8478C84.6107 89.7852 85.3261 87.5493 85.6184 85.6334C85.9336 83.5671 85.9201 81.2883 85.0619 79.3281C82.9997 79.9041 81.5842 81.7602 81.1168 83.7932C80.623 85.941 81.0397 88.2302 82.2409 90.059C80.6441 88.227 78.5209 86.7144 76.4861 85.6538C74.5207 84.6293 72.1094 83.3936 69.749 84.1398C70.8872 86.9177 73.322 89.504 76.0205 90.5738C78.1103 91.4021 80.6527 92.2212 82.8332 90.8478Z" fill="#64646A"/>
<path d="M91.26 91.5677C91.5209 93.5621 91.5135 96.0917 89.9651 97.6268C88.0301 99.6074 85.0355 99.2252 82.7258 98.7894C79.625 98.204 76.1345 96.0891 74.2637 93.2732C76.5485 92.0151 79.3428 92.8199 81.6048 93.4713L81.734 93.5084C84.2589 94.2348 86.9496 95.4048 89.1999 97.0035C87.4041 95.3808 86.0957 92.9991 86.0316 90.5985C85.974 88.4514 86.906 86.1543 88.9115 85.1309C90.3116 86.9685 90.9672 89.3279 91.26 91.5677Z" fill="#64646A"/>
<path d="M100.246 103.273C101.386 101.102 100.256 98.5547 99.3558 96.6718C98.2914 94.4458 96.8372 92.1772 94.7559 90.5479C92.7575 92.2702 92.9475 94.7345 93.5417 96.8762C94.2482 99.4227 96.6975 101.594 99.2339 102.831C96.2964 101.735 93.0884 101.078 90.0362 100.884L89.727 100.864C87.275 100.704 84.0828 100.496 82.1289 102.29C85.0832 104.802 89.2794 106.251 92.9778 106.176C95.4563 106.125 98.8568 105.832 100.246 103.273Z" fill="#64646A"/>
<path d="M190.501 59.454C189.786 57.529 188.22 55.8505 186.516 55.0677C184.933 54.3417 182.832 53.584 180.985 54.5143C181.99 56.2789 183.645 57.7638 185.335 58.6977C186.855 59.5374 188.779 60.5547 190.684 60.1174C192.76 59.7994 193.764 57.7327 194.322 56.1693C195.094 54.0088 194.566 51.1236 193.248 49.0039C191.43 49.7616 190.875 52.0095 190.495 53.5999C190.062 55.4103 190.05 57.5235 190.501 59.454Z" fill="#64646A"/>
<path d="M189.01 62.2368C190.474 63.2808 191.598 65.1896 191.839 67.1492C191.86 65.1857 192.394 63.1586 193.252 61.5257C194.037 60.0318 195.132 58.0128 197.08 57.6104C197.845 59.9363 197.598 62.781 196.36 64.664C195.424 66.0903 193.975 67.8764 191.866 67.8285C189.942 67.9268 188.28 66.6122 186.972 65.5154C185.565 64.3353 184.296 62.6104 183.762 60.7464C185.727 60.1758 187.608 61.2366 189.01 62.2368Z" fill="#64646A"/>
<path d="M191.343 74.8592C191.557 72.939 190.915 70.863 189.718 69.5804C188.566 68.3438 186.951 66.9959 184.939 67.2105C184.98 69.1559 185.953 71.0102 186.958 72.399C187.894 73.6928 189.336 75.2928 191.223 75.5234C193.185 75.8556 195.1 74.6546 196.345 73.2413C197.946 71.4228 198.9 68.9823 198.709 66.5381C196.693 66.5879 195.166 68.3282 194.037 69.6443C192.819 71.0636 191.821 72.9318 191.343 74.8592Z" fill="#64646A"/>
<path d="M188.487 76.6066C189.441 78.5028 189.622 80.7589 188.886 82.7452C189.972 80.7015 191.56 79.0486 193.242 77.5215C194.77 76.1334 196.972 74.6719 199.188 74.9487C198.765 77.6883 197.089 80.5294 194.842 81.9898C193.036 83.1628 190.848 84.3244 188.548 83.4471C186.657 82.78 185.455 80.8749 184.717 79.1268C183.936 77.2771 183.415 75.1447 183.78 73.1211C185.854 73.3069 187.575 74.7933 188.487 76.6066Z" fill="#64646A"/>
<path d="M184.478 90.0559C185.678 88.2289 186.097 85.942 185.606 83.7952C185.141 81.7618 183.727 79.9046 181.664 79.3271C180.805 81.2864 180.79 83.5651 181.102 85.6318C181.393 87.544 182.104 89.7754 183.871 90.8419C186.053 92.2261 188.602 91.4074 190.694 90.5794C193.394 89.5115 195.832 86.927 196.972 84.1498C194.612 83.402 192.2 84.6359 190.234 85.6589C188.2 86.7175 186.076 88.2269 184.478 90.0559Z" fill="#64646A"/>
<path d="M175.453 91.5613C175.191 93.5552 175.195 96.0847 176.743 97.6211C178.675 99.6032 181.671 99.2231 183.981 98.7889C187.083 98.2058 190.575 96.0932 192.448 93.2789C190.165 92.0194 187.369 92.8217 185.107 93.4714L184.977 93.5086C182.452 94.2328 179.761 95.4004 177.51 96.9967C179.307 95.3753 180.616 92.9956 180.682 90.5959C180.742 88.4489 179.812 86.1511 177.808 85.126C176.406 86.9626 175.749 89.3216 175.453 91.5613Z" fill="#64646A"/>
<path d="M173.721 106.168C171.243 106.116 167.842 105.82 166.456 103.26L166.437 103.225C165.33 101.061 166.455 98.5312 167.352 96.6594C168.418 94.4341 169.875 92.1666 171.957 90.5391C173.955 92.2627 173.761 94.7269 173.166 96.868C172.456 99.4141 170.005 101.583 167.467 102.818C170.406 101.725 173.614 101.07 176.667 100.878L176.977 100.858C179.43 100.701 182.622 100.495 184.573 102.291C181.617 104.8 177.42 106.246 173.721 106.168Z" fill="#64646A"/>
</svg>
