<?xml version="1.0" encoding="utf-8"?>
<!-- Generator: Adobe Illustrator 26.0.0, SVG Export Plug-In . SVG Version: 6.00 Build 0)  -->
<svg version="1.1" id="Layer_1" xmlns="http://www.w3.org/2000/svg" xmlns:xlink="http://www.w3.org/1999/xlink" x="0px" y="0px"
	 viewBox="0 0 305 550" style="enable-background:new 0 0 305 550;" xml:space="preserve">
<style type="text/css">
	.st0{opacity:0.41;}
	.st1{fill:#FDBC4C;}
	.st2{fill:none;}
	.st3{fill:#FDBC4C;stroke:#231F20;stroke-width:3;stroke-miterlimit:10;}
	.st4{fill:#FDBC4C;stroke:#231F20;stroke-width:2.0028;stroke-miterlimit:10;}
</style>
<g class="st0">
	<path class="st1" d="M-20.4,455l4.7,9.2l-2,1l-4.7-9.2L-20.4,455z M-15.5,460.3l-2.2,1.1l-0.9-1.8l1.8-0.9c0.5-0.2,0.8-0.5,0.9-0.9
		s0.1-0.7-0.1-1.2c-0.2-0.4-0.5-0.7-0.9-0.8c-0.3-0.1-0.8,0-1.3,0.2L-20,457l-0.9-1.8l2.2-1.1c0.6-0.3,1.2-0.5,1.9-0.5
		c0.6,0,1.2,0.2,1.6,0.5c0.5,0.3,0.9,0.8,1.2,1.4c0.3,0.6,0.5,1.2,0.4,1.8s-0.2,1.1-0.5,1.6S-14.9,460-15.5,460.3z"/>
	<path class="st1" d="M-11.9,458.4c-0.4-0.6-0.5-1.3-0.5-1.9c0-0.6,0.2-1.2,0.6-1.8s0.9-1,1.5-1.4c0.7-0.4,1.3-0.6,2-0.6
		c0.7,0,1.3,0.1,1.8,0.5c0.6,0.3,1,0.8,1.4,1.4c0.4,0.6,0.5,1.3,0.5,1.9c0,0.6-0.2,1.2-0.6,1.8c-0.4,0.6-0.9,1-1.5,1.4
		c-0.7,0.4-1.3,0.6-2,0.6c-0.7,0-1.3-0.1-1.8-0.4C-11.1,459.5-11.6,459-11.9,458.4z M-10.1,457.3c0.2,0.3,0.4,0.5,0.6,0.7
		c0.3,0.2,0.5,0.2,0.8,0.2c0.3,0,0.6-0.1,0.9-0.2c0.3-0.2,0.5-0.4,0.7-0.6s0.2-0.5,0.2-0.8c0-0.3-0.1-0.6-0.3-0.9s-0.4-0.5-0.6-0.7
		c-0.3-0.2-0.5-0.2-0.8-0.2c-0.3,0-0.6,0.1-0.9,0.2c-0.3,0.2-0.5,0.4-0.7,0.6s-0.2,0.5-0.2,0.8C-10.3,456.7-10.2,457-10.1,457.3z"/>
	<path class="st1" d="M-4.4,454.1c-0.4-0.6-0.6-1.3-0.6-1.9s0.1-1.3,0.5-1.8c0.3-0.6,0.8-1.1,1.4-1.4s1.3-0.6,1.9-0.7
		c0.7,0,1.3,0.1,1.8,0.4c0.6,0.3,1.1,0.8,1.4,1.4s0.6,1.3,0.6,1.9s-0.1,1.2-0.5,1.8s-0.8,1-1.4,1.4c-0.6,0.4-1.3,0.6-1.9,0.7
		c-0.7,0-1.3-0.1-1.8-0.4C-3.5,455.1-4,454.7-4.4,454.1z M-2.5,452.9c0.2,0.3,0.4,0.5,0.7,0.7c0.3,0.1,0.5,0.2,0.8,0.2
		c0.3,0,0.6-0.1,0.9-0.3s0.5-0.4,0.6-0.7c0.1-0.3,0.2-0.5,0.2-0.8c0-0.3-0.1-0.6-0.3-0.9c-0.2-0.3-0.4-0.5-0.7-0.7
		c-0.3-0.1-0.5-0.2-0.8-0.2c-0.3,0-0.6,0.1-0.9,0.3s-0.5,0.4-0.6,0.7c-0.1,0.3-0.2,0.5-0.2,0.8C-2.8,452.3-2.7,452.6-2.5,452.9z"/>
	<path class="st1" d="M7.2,454.9l-5.9-8.5l1.7-1.1l0.6,0.6c0-0.4,0.1-0.8,0.3-1.2c0.2-0.4,0.5-0.7,1-1c0.5-0.4,1.1-0.6,1.7-0.6
		c0.6,0,1.1,0.1,1.7,0.4c0.5,0.3,1,0.7,1.4,1.4c0.4,0.6,0.7,1.2,0.8,1.8c0.1,0.6,0.1,1.2-0.2,1.7c-0.2,0.5-0.6,1-1.2,1.4
		c-0.4,0.3-0.8,0.5-1.3,0.6c-0.4,0.1-0.8,0.1-1.1,0l2.3,3.3L7.2,454.9z M5.1,448c0.2,0.3,0.4,0.5,0.7,0.6c0.3,0.1,0.6,0.2,0.8,0.2
		c0.3,0,0.6-0.1,0.9-0.3c0.3-0.2,0.5-0.4,0.6-0.7c0.1-0.3,0.2-0.5,0.1-0.8s-0.2-0.6-0.3-0.9s-0.4-0.5-0.7-0.6s-0.5-0.2-0.8-0.2
		c-0.3,0-0.6,0.1-0.9,0.3c-0.3,0.2-0.5,0.4-0.6,0.7c-0.1,0.3-0.2,0.5-0.2,0.8C4.8,447.4,4.9,447.7,5.1,448z"/>
	<path class="st1" d="M9.7,440.5l5.3,3.6l0.7,2.6l-7.8-4.9L9.7,440.5z M14.2,450.1l-1.1-1.4l1-0.7c0.2-0.1,0.3-0.3,0.4-0.4
		c0.1-0.1,0.1-0.3,0.1-0.5c0-0.2,0-0.4-0.1-0.7l-2.3-7.8l1.8-1.3l2.3,9c0.2,0.7,0.2,1.4,0.1,1.9c-0.1,0.5-0.5,0.9-1,1.3
		c-0.2,0.2-0.4,0.3-0.6,0.4C14.6,449.9,14.4,450,14.2,450.1z"/>
	<path class="st1" d="M20.8,440.8l-1.7,1.4l-6.7-8.2l1.7-1.4l2.7,3.3c0-0.4,0.1-0.7,0.2-1.1c0.2-0.4,0.5-0.7,0.8-1
		c0.6-0.5,1.3-0.7,2-0.6c0.7,0.1,1.3,0.5,1.9,1.2l2.7,3.4l-1.7,1.4l-2.4-3c-0.2-0.2-0.4-0.4-0.6-0.5c-0.2-0.1-0.4-0.1-0.6-0.1
		s-0.4,0.1-0.6,0.3c-0.2,0.2-0.4,0.4-0.5,0.6s-0.1,0.5-0.1,0.7c0,0.2,0.2,0.5,0.3,0.7L20.8,440.8z"/>
	<path class="st1" d="M28.5,434.6c-0.5,0.5-1.1,0.8-1.7,0.9c-0.6,0.1-1.2,0.1-1.8-0.1c-0.6-0.2-1.1-0.6-1.6-1.1
		c-0.5-0.5-0.8-1.1-0.9-1.7s-0.1-1.2,0.1-1.8c0.2-0.6,0.6-1.1,1.1-1.6c0.6-0.5,1.1-0.8,1.7-0.9c0.6-0.1,1.2-0.1,1.8,0.1
		c0.6,0.2,1.1,0.6,1.6,1.2l0.4,0.4l-4.5,4l-0.9-1l2.9-2.6c-0.2-0.3-0.5-0.4-0.9-0.4c-0.3,0-0.7,0.1-1,0.4c-0.3,0.2-0.4,0.5-0.5,0.7
		c-0.1,0.3-0.1,0.5,0,0.8c0.1,0.3,0.3,0.6,0.6,1c0.4,0.5,0.9,0.8,1.3,0.8c0.4,0.1,0.8-0.1,1.2-0.5c0.3-0.3,0.5-0.6,0.6-0.8
		s0.1-0.5,0-0.8l1.5-1.3c0.4,0.7,0.5,1.4,0.4,2.2C29.6,433.2,29.2,433.9,28.5,434.6z"/>
	<path class="st1" d="M33.7,429.8c-0.5,0.5-1.1,0.8-1.7,0.8s-1.1-0.2-1.6-0.7c-0.4-0.5-0.6-1-0.6-1.6c0.1-0.6,0.4-1.2,0.9-1.8
		l1.3-1.5l-0.1-0.1c-0.2-0.2-0.3-0.3-0.5-0.3c-0.2,0-0.4,0-0.5,0c-0.2,0.1-0.4,0.2-0.6,0.4c-0.3,0.3-0.5,0.6-0.6,0.9s0,0.5,0.2,0.8
		l-1.3,1.2c-0.4-0.4-0.6-0.8-0.7-1.3c-0.1-0.5,0-1,0.2-1.5c0.2-0.5,0.6-1,1-1.4c0.5-0.5,1-0.8,1.5-0.9c0.5-0.2,1-0.1,1.5,0
		s1,0.5,1.4,1l2.8,3l-1.4,1.3l-0.7-0.6c0.1,0.3,0.1,0.7,0,1.1C34.3,429,34.1,429.4,33.7,429.8z M33.1,428.1c0.3-0.3,0.5-0.6,0.5-0.9
		c0-0.3-0.1-0.6-0.3-0.9l-0.3-0.3l-0.7,0.8c-0.3,0.4-0.5,0.6-0.6,0.9c-0.1,0.2,0,0.4,0.1,0.6c0.2,0.2,0.4,0.3,0.6,0.2
		C32.7,428.5,32.9,428.3,33.1,428.1z"/>
	<path class="st1" d="M40.1,423.5c-0.5,0.5-1,0.8-1.5,1c-0.6,0.2-1.1,0.1-1.7,0c-0.6-0.2-1.1-0.5-1.7-1c-0.5-0.5-0.9-1.1-1.1-1.7
		c-0.2-0.6-0.3-1.2-0.1-1.8c0.1-0.6,0.4-1.1,0.9-1.7c0.3-0.3,0.6-0.6,1-0.7c0.4-0.2,0.7-0.2,1.1-0.2l-3-2.9l1.5-1.6l7.6,7.3
		l-1.4,1.5l-0.7-0.5c0.1,0.4,0.1,0.7-0.1,1.2S40.4,423.1,40.1,423.5z M39,421.7c0.2-0.2,0.4-0.5,0.5-0.8c0.1-0.3,0.1-0.6,0-0.9
		c-0.1-0.3-0.3-0.6-0.5-0.8c-0.3-0.2-0.5-0.4-0.8-0.5s-0.6-0.1-0.9,0c-0.3,0.1-0.5,0.2-0.8,0.5c-0.2,0.2-0.4,0.5-0.4,0.8
		c-0.1,0.3-0.1,0.6,0,0.8s0.3,0.5,0.5,0.8c0.2,0.2,0.5,0.4,0.8,0.5s0.6,0.1,0.8,0C38.5,422.1,38.8,422,39,421.7z"/>
	<path class="st1" d="M42.2,417.7l1.4-1.5c0.2,0.1,0.4,0.2,0.6,0.2c0.2,0,0.4-0.2,0.7-0.4c0.2-0.3,0.3-0.5,0.4-0.7
		c0-0.2,0-0.3-0.2-0.5c-0.1-0.1-0.2-0.1-0.3-0.1s-0.3,0.1-0.5,0.2l-1.1,0.8c-0.5,0.4-1,0.6-1.5,0.6c-0.4,0-0.9-0.2-1.4-0.6
		c-0.4-0.3-0.6-0.7-0.7-1.1s0-0.9,0.1-1.3s0.4-0.9,0.8-1.3c0.4-0.4,0.7-0.7,1.2-0.9c0.4-0.2,0.8-0.2,1.3-0.2
		c0.4,0.1,0.8,0.2,1.2,0.6l-1.4,1.5c-0.2-0.2-0.4-0.2-0.6-0.2s-0.4,0.1-0.6,0.3c-0.2,0.2-0.2,0.4-0.3,0.6c0,0.2,0.1,0.3,0.2,0.5
		c0.2,0.2,0.5,0.1,1-0.2l1.1-0.8c0.5-0.4,0.9-0.5,1.3-0.6s0.8,0.1,1.3,0.5c0.4,0.3,0.6,0.7,0.7,1.1c0.1,0.4,0.1,0.9-0.1,1.4
		c-0.2,0.5-0.5,0.9-0.9,1.4c-0.6,0.7-1.3,1.1-2,1.2S42.8,418.2,42.2,417.7z"/>
	<path class="st1" d="M52.9,408.6l-1.4,1.8l-8.2-6.4l1.4-1.8l9.1,0.7l-0.4,0.6l-6-4.7l1.4-1.8l8.2,6.4l-1.4,1.8l-9.1-0.7l0.4-0.6
		L52.9,408.6z"/>
	<path class="st1" d="M51.2,393.6l8.5,6l-1.3,1.9l-8.5-6L51.2,393.6z M55.4,391.3l-3.7,5.2l-1.7-1.2l3.7-5.2L55.4,391.3z
		 M58.4,394.3l-3.3,4.7l-1.7-1.2l3.3-4.7L58.4,394.3z"/>
	<path class="st1" d="M55.8,390.7l-1.8-1.1l4.4-6.9l1.8,1.1L55.8,390.7z M57.7,385.8l7.8,5l-1.2,1.9l-7.8-5L57.7,385.8z"/>
	<path class="st1" d="M72.3,379.8c-0.5,0.9-1.1,1.6-1.9,2c-0.7,0.5-1.6,0.7-2.5,0.6s-1.8-0.3-2.8-0.8c-0.9-0.5-1.7-1.2-2.2-1.9
		c-0.5-0.8-0.8-1.6-0.8-2.5c0-0.9,0.2-1.8,0.7-2.7c0.4-0.8,0.9-1.4,1.5-1.8c0.6-0.4,1.3-0.7,2-0.8c0.7-0.1,1.4,0,2.2,0.3l-1.2,2.1
		c-0.5-0.1-1-0.1-1.5,0.2c-0.5,0.2-0.8,0.6-1.1,1.2c-0.3,0.5-0.4,1-0.4,1.5s0.2,0.9,0.5,1.3c0.3,0.4,0.8,0.8,1.3,1.1
		c0.6,0.3,1.1,0.5,1.6,0.5c0.5,0,1-0.1,1.4-0.3c0.4-0.2,0.8-0.6,1-1.1c0.3-0.6,0.4-1.1,0.4-1.6s-0.3-1-0.6-1.4l1.1-2.1
		c0.6,0.5,1.1,1,1.4,1.7c0.3,0.7,0.4,1.4,0.4,2.1C72.9,378.3,72.7,379.1,72.3,379.8z"/>
	<path class="st1" d="M71.8,372.9c-0.7-0.3-1.2-0.8-1.5-1.3c-0.4-0.5-0.5-1.1-0.6-1.8s0.1-1.3,0.5-2s0.8-1.2,1.3-1.6
		c0.5-0.4,1.1-0.6,1.8-0.7c0.6-0.1,1.3,0.1,2,0.4c0.7,0.3,1.2,0.8,1.5,1.3c0.3,0.5,0.5,1.1,0.6,1.8s-0.1,1.3-0.5,2
		c-0.3,0.7-0.8,1.2-1.3,1.6c-0.5,0.4-1.1,0.6-1.8,0.7C73.1,373.3,72.5,373.2,71.8,372.9z M72.8,370.9c0.3,0.2,0.6,0.2,0.9,0.2
		c0.3,0,0.6-0.1,0.8-0.3c0.2-0.2,0.4-0.4,0.6-0.7c0.1-0.3,0.2-0.6,0.2-0.9c0-0.3-0.1-0.6-0.3-0.8c-0.2-0.2-0.4-0.4-0.7-0.6
		c-0.3-0.2-0.6-0.2-0.9-0.2c-0.3,0-0.6,0.1-0.8,0.3c-0.2,0.2-0.4,0.4-0.6,0.7c-0.1,0.3-0.2,0.6-0.2,0.9s0.1,0.6,0.3,0.8
		S72.4,370.7,72.8,370.9z"/>
	<path class="st1" d="M79.8,364.2l-0.9,2l-9.6-4.3l0.9-2L79.8,364.2z"/>
	<path class="st1" d="M81.4,360.6l-0.8,2l-9.7-4.1l0.8-2L81.4,360.6z"/>
	<path class="st1" d="M83.4,356c-0.3,0.7-0.6,1.2-1.1,1.6s-1.1,0.6-1.7,0.7c-0.6,0.1-1.3,0-2-0.3c-0.7-0.3-1.2-0.6-1.6-1.1
		c-0.4-0.5-0.7-1-0.8-1.7c-0.1-0.6,0-1.3,0.2-1.9c0.3-0.7,0.6-1.2,1.1-1.6s1-0.6,1.6-0.7s1.3,0,2,0.3l0.5,0.2l-2.2,5.6l-1.2-0.5
		l1.4-3.6c-0.3-0.1-0.7-0.1-1,0c-0.3,0.2-0.5,0.4-0.7,0.8c-0.1,0.3-0.2,0.6-0.1,0.9s0.2,0.5,0.4,0.7c0.2,0.2,0.6,0.4,1,0.6
		c0.6,0.2,1.1,0.3,1.5,0.2c0.4-0.1,0.7-0.5,0.9-1c0.1-0.4,0.2-0.7,0.2-1c0-0.3-0.2-0.5-0.4-0.7l0.7-1.8c0.7,0.4,1.1,1,1.3,1.7
		C83.9,354.3,83.8,355.1,83.4,356z"/>
	<path class="st1" d="M81.6,350.4c-0.7-0.2-1.2-0.6-1.7-1.1c-0.4-0.5-0.7-1-0.8-1.6c-0.1-0.6-0.1-1.2,0.2-1.9c0.3-1,0.9-1.7,1.6-2.1
		s1.5-0.5,2.4-0.3l-0.7,2c-0.4,0-0.7,0-0.9,0.2s-0.4,0.4-0.5,0.8c-0.1,0.3-0.1,0.6-0.1,0.8c0.1,0.3,0.2,0.5,0.4,0.7
		c0.2,0.2,0.5,0.4,0.8,0.5c0.4,0.1,0.7,0.2,1,0.1c0.3,0,0.5-0.1,0.7-0.3c0.2-0.2,0.4-0.4,0.5-0.7c0.1-0.4,0.1-0.7,0.1-1
		c-0.1-0.3-0.3-0.5-0.6-0.7l0.7-2.1c0.5,0.2,1,0.6,1.3,1c0.3,0.4,0.5,0.9,0.6,1.5c0.1,0.6,0,1.2-0.2,1.8c-0.2,0.7-0.6,1.3-1.1,1.7
		c-0.5,0.4-1,0.7-1.6,0.8C83,350.7,82.3,350.7,81.6,350.4z"/>
	<path class="st1" d="M88.5,340.8l-0.6,2.1l-8.8-2.7l0.6-2.1L88.5,340.8z M80.8,342l1.4-4.6l1.7,0.5l-1.4,4.6L80.8,342z"/>
	<path class="st1" d="M81.7,335.2c-0.1,0.3-0.3,0.6-0.6,0.7c-0.3,0.2-0.6,0.2-0.9,0.1c-0.3-0.1-0.6-0.3-0.7-0.6s-0.2-0.6-0.1-0.9
		c0.1-0.3,0.3-0.6,0.6-0.7s0.6-0.2,0.9-0.1c0.3,0.1,0.6,0.3,0.7,0.6C81.8,334.6,81.8,334.9,81.7,335.2z M89.2,338.4l-6.7-1.9
		l0.6-2.1l6.7,1.9L89.2,338.4z"/>
	<path class="st1" d="M86.8,334.1c-0.7-0.2-1.3-0.5-1.8-1c-0.5-0.5-0.8-1-0.9-1.6c-0.2-0.6-0.1-1.3,0-2c0.2-0.7,0.5-1.3,0.9-1.8
		s1-0.8,1.6-1c0.6-0.2,1.3-0.2,2,0c0.7,0.2,1.3,0.5,1.8,1s0.8,1,0.9,1.6c0.2,0.6,0.1,1.3,0,2s-0.5,1.3-0.9,1.8c-0.4,0.5-1,0.8-1.6,1
		C88.2,334.3,87.5,334.3,86.8,334.1z M87.3,332c0.3,0.1,0.7,0.1,1,0c0.3-0.1,0.5-0.2,0.7-0.4c0.2-0.2,0.3-0.5,0.4-0.8
		c0.1-0.3,0.1-0.6,0-0.9c-0.1-0.3-0.2-0.5-0.5-0.7c-0.2-0.2-0.5-0.3-0.9-0.4c-0.3-0.1-0.7-0.1-0.9,0c-0.3,0.1-0.5,0.2-0.7,0.4
		c-0.2,0.2-0.3,0.5-0.4,0.8c-0.1,0.3-0.1,0.6,0,0.9c0.1,0.3,0.2,0.5,0.4,0.7C86.7,331.8,87,331.9,87.3,332z"/>
	<path class="st1" d="M92.9,323.9l-0.4,2.1l-6.9-1.4l0.4-2l0.7,0c-0.2-0.3-0.4-0.6-0.5-1c-0.1-0.4-0.1-0.8,0-1.3
		c0.2-0.8,0.5-1.4,1.1-1.7c0.6-0.4,1.3-0.4,2.2-0.2l4.2,0.9l-0.4,2.1l-3.7-0.8c-0.4-0.1-0.8,0-1.1,0.1c-0.3,0.2-0.5,0.4-0.6,0.8
		c-0.1,0.4,0,0.8,0.2,1.1c0.2,0.3,0.5,0.5,0.9,0.6L92.9,323.9z"/>
	<path class="st1" d="M86.2,298.9l10.3,0.9l-0.2,2.3L86,301.2L86.2,298.9z M93.2,297.6L93,300l-2-0.2l0.2-2c0-0.5,0-1-0.3-1.3
		c-0.2-0.3-0.6-0.5-1-0.5c-0.5,0-0.9,0.1-1.1,0.3s-0.4,0.6-0.5,1.2l-0.2,2l-2-0.2l0.2-2.5c0.1-0.7,0.3-1.3,0.6-1.8
		c0.3-0.5,0.8-0.9,1.3-1.1c0.5-0.2,1.2-0.3,1.8-0.3s1.3,0.3,1.8,0.6s0.9,0.8,1.1,1.3S93.3,296.8,93.2,297.6z"/>
	<path class="st1" d="M93.5,293.5c-0.7,0-1.4-0.2-1.9-0.6c-0.5-0.4-1-0.8-1.2-1.4c-0.3-0.6-0.4-1.3-0.4-2c0-0.7,0.2-1.4,0.5-2
		c0.3-0.6,0.8-1,1.3-1.3c0.6-0.3,1.2-0.4,2-0.4c0.7,0,1.4,0.2,1.9,0.6c0.5,0.4,0.9,0.8,1.2,1.4c0.3,0.6,0.4,1.3,0.4,2
		s-0.2,1.4-0.5,2c-0.3,0.6-0.8,1-1.3,1.3S94.2,293.5,93.5,293.5z M93.5,291.3c0.4,0,0.7,0,0.9-0.2c0.3-0.1,0.5-0.3,0.6-0.6
		s0.2-0.5,0.3-0.9c0-0.3,0-0.6-0.2-0.9c-0.1-0.3-0.3-0.5-0.6-0.6c-0.3-0.2-0.6-0.2-0.9-0.2c-0.4,0-0.7,0-0.9,0.2
		c-0.3,0.1-0.5,0.3-0.6,0.6s-0.2,0.5-0.3,0.9c0,0.3,0,0.6,0.2,0.9s0.3,0.5,0.6,0.6S93.2,291.3,93.5,291.3z"/>
	<path class="st1" d="M93.8,284.8c-0.7,0-1.4-0.1-1.9-0.5s-1-0.8-1.3-1.4c-0.3-0.6-0.5-1.2-0.5-2c0-0.7,0.1-1.4,0.4-2
		c0.3-0.6,0.7-1,1.3-1.4s1.2-0.5,1.9-0.5s1.4,0.1,1.9,0.5c0.6,0.3,1,0.8,1.3,1.3s0.5,1.2,0.5,2c0,0.7-0.1,1.4-0.4,2
		c-0.3,0.6-0.7,1.1-1.3,1.4S94.6,284.8,93.8,284.8z M93.8,282.6c0.4,0,0.7-0.1,0.9-0.2c0.3-0.1,0.5-0.4,0.6-0.6
		c0.1-0.3,0.2-0.5,0.2-0.9s-0.1-0.6-0.2-0.9c-0.1-0.2-0.4-0.4-0.6-0.6c-0.3-0.1-0.6-0.2-0.9-0.2c-0.4,0-0.7,0.1-0.9,0.2
		c-0.3,0.1-0.5,0.3-0.6,0.6c-0.1,0.3-0.2,0.5-0.2,0.9c0,0.3,0.1,0.6,0.2,0.9c0.1,0.2,0.4,0.4,0.6,0.6S93.4,282.6,93.8,282.6z"/>
	<path class="st1" d="M100.6,275.4l-10.3,0.5l-0.1-2l0.8-0.2c-0.3-0.2-0.6-0.5-0.8-0.9c-0.2-0.4-0.3-0.8-0.4-1.3
		c0-0.7,0.1-1.2,0.4-1.7s0.7-0.9,1.2-1.2s1.2-0.5,1.9-0.5c0.7,0,1.4,0.1,2,0.3s1.1,0.6,1.4,1.1c0.3,0.5,0.5,1.1,0.6,1.8
		c0,0.5,0,0.9-0.2,1.4c-0.1,0.4-0.3,0.7-0.6,1l4.1-0.2L100.6,275.4z M93.6,273.6c0.3,0,0.6-0.1,0.9-0.3c0.3-0.2,0.5-0.4,0.6-0.6
		s0.2-0.6,0.2-0.9c0-0.3-0.1-0.6-0.3-0.9c-0.2-0.2-0.4-0.4-0.6-0.5c-0.3-0.1-0.6-0.2-0.9-0.2c-0.3,0-0.6,0.1-0.9,0.2
		c-0.3,0.1-0.5,0.3-0.6,0.6c-0.1,0.3-0.2,0.6-0.2,0.9c0,0.3,0.1,0.6,0.3,0.9c0.2,0.2,0.4,0.4,0.6,0.6
		C93,273.5,93.3,273.6,93.6,273.6z"/>
	<path class="st1" d="M100.2,266.9l-1.8,0.2l-0.1-1.2c0-0.2-0.1-0.4-0.1-0.6c-0.1-0.2-0.2-0.3-0.3-0.4c-0.1-0.1-0.4-0.2-0.6-0.3
		l-7.8-2.2l-0.2-2.2l8.8,2.8c0.7,0.2,1.3,0.5,1.6,0.9s0.6,0.9,0.6,1.5c0,0.3,0,0.5,0,0.8C100.3,266.5,100.2,266.7,100.2,266.9z
		 M89.7,265.7l5.8-2.6l2.6,0.8l-8.2,4L89.7,265.7z"/>
	<path class="st1" d="M95.8,256.4l0.3,2.1l-10.5,1.3l-0.3-2.2l4.2-0.5c-0.3-0.2-0.6-0.4-0.8-0.8c-0.2-0.4-0.4-0.8-0.4-1.2
		c-0.1-0.8,0.1-1.5,0.5-2s1.1-0.8,2-1l4.3-0.5l0.3,2.1l-3.8,0.5c-0.3,0-0.5,0.1-0.7,0.3c-0.2,0.1-0.3,0.3-0.4,0.5
		c-0.1,0.2-0.1,0.4-0.1,0.7c0,0.3,0.1,0.5,0.3,0.7c0.1,0.2,0.3,0.3,0.6,0.4c0.2,0.1,0.5,0.1,0.8,0.1L95.8,256.4z"/>
	<path class="st1" d="M94.5,246.6c0.1,0.7,0.1,1.3-0.2,1.9c-0.2,0.6-0.6,1.1-1.1,1.5s-1.1,0.7-1.8,0.8c-0.7,0.1-1.4,0.1-2-0.1
		c-0.6-0.2-1.1-0.5-1.5-1s-0.7-1.1-0.8-1.8c-0.1-0.7-0.1-1.4,0.1-2c0.2-0.6,0.6-1.1,1.1-1.4c0.5-0.4,1.1-0.6,1.9-0.8l0.5-0.1l1,5.9
		l-1.3,0.2l-0.6-3.8c-0.4,0.1-0.6,0.2-0.8,0.5c-0.2,0.3-0.2,0.6-0.1,1.1c0.1,0.4,0.2,0.6,0.4,0.8c0.2,0.2,0.4,0.3,0.7,0.4
		c0.3,0.1,0.7,0.1,1.1,0c0.6-0.1,1.1-0.3,1.4-0.6c0.3-0.3,0.3-0.7,0.3-1.3c-0.1-0.4-0.2-0.7-0.4-1c-0.2-0.2-0.4-0.4-0.7-0.4
		l-0.3-1.9c0.8,0,1.5,0.3,2,0.8S94.4,245.7,94.5,246.6z"/>
	<path class="st1" d="M93.2,239.7c0.2,0.7,0.1,1.3-0.2,1.8c-0.3,0.5-0.8,0.8-1.5,1c-0.6,0.1-1.2,0-1.6-0.3s-0.8-0.9-1.1-1.7
		l-0.6-1.9l-0.1,0c-0.2,0-0.4,0.1-0.5,0.3c-0.1,0.1-0.2,0.3-0.3,0.5c0,0.2,0,0.4,0,0.7c0.1,0.4,0.2,0.8,0.5,1s0.5,0.3,0.8,0.2
		l0.4,1.8c-0.5,0.1-1,0.1-1.4-0.1c-0.4-0.2-0.8-0.5-1.1-0.9c-0.3-0.4-0.5-1-0.7-1.6c-0.1-0.7-0.1-1.3,0-1.8c0.1-0.5,0.4-0.9,0.8-1.3
		s0.9-0.6,1.6-0.7l4-0.8l0.4,1.9l-0.9,0.3c0.3,0,0.6,0.2,0.9,0.6C92.9,238.7,93.1,239.2,93.2,239.7z M91.5,239.3
		c-0.1-0.4-0.3-0.7-0.5-0.9s-0.6-0.3-1-0.2l-0.4,0.1l0.3,1c0.1,0.4,0.3,0.8,0.4,0.9c0.2,0.2,0.3,0.2,0.6,0.2
		c0.2-0.1,0.4-0.2,0.5-0.3C91.6,239.8,91.6,239.6,91.5,239.3z"/>
	<path class="st1" d="M91.2,230.9c0.2,0.7,0.2,1.3,0,1.8c-0.2,0.6-0.5,1-0.9,1.4s-1,0.7-1.8,0.9c-0.7,0.2-1.4,0.2-2,0.1
		c-0.6-0.1-1.1-0.4-1.6-0.8c-0.4-0.4-0.7-1-0.9-1.7c-0.1-0.4-0.1-0.8-0.1-1.2c0.1-0.4,0.2-0.7,0.4-1l-4.1,1l-0.5-2.1l10.2-2.6l0.5,2
		l-0.8,0.3c0.4,0.1,0.7,0.3,1,0.7S91.1,230.4,91.2,230.9z M89.2,230.9c-0.1-0.3-0.2-0.6-0.4-0.8s-0.5-0.4-0.7-0.4
		c-0.3-0.1-0.6-0.1-0.9,0c-0.3,0.1-0.6,0.2-0.8,0.4c-0.2,0.2-0.4,0.5-0.4,0.7s-0.1,0.6,0,0.9c0.1,0.3,0.2,0.6,0.4,0.8
		c0.2,0.2,0.5,0.3,0.7,0.4c0.3,0.1,0.6,0.1,0.9,0c0.3-0.1,0.6-0.2,0.8-0.4c0.2-0.2,0.4-0.4,0.5-0.7
		C89.2,231.5,89.2,231.2,89.2,230.9z"/>
	<path class="st1" d="M87.4,226l-0.6-2c0.2-0.1,0.4-0.2,0.5-0.4c0.1-0.2,0.1-0.5,0-0.8c-0.1-0.3-0.2-0.5-0.4-0.7
		c-0.2-0.1-0.3-0.2-0.5-0.1c-0.1,0-0.2,0.1-0.3,0.2c-0.1,0.1-0.1,0.3-0.1,0.6l0.1,1.3c0.1,0.7,0,1.2-0.2,1.6
		c-0.2,0.4-0.6,0.7-1.2,0.9c-0.5,0.1-0.9,0.1-1.3,0c-0.4-0.1-0.8-0.4-1.1-0.8c-0.3-0.4-0.5-0.8-0.7-1.4c-0.2-0.5-0.2-1-0.1-1.5
		s0.2-0.8,0.5-1.2s0.6-0.6,1.1-0.7l0.6,2c-0.2,0.1-0.4,0.2-0.5,0.4c-0.1,0.2-0.1,0.4,0,0.6c0.1,0.2,0.2,0.4,0.3,0.5s0.3,0.1,0.5,0.1
		c0.3-0.1,0.4-0.4,0.4-0.9l-0.1-1.3c-0.1-0.6,0-1.1,0.2-1.4s0.6-0.6,1.1-0.8c0.5-0.1,0.9-0.1,1.3,0s0.8,0.4,1.1,0.8
		c0.3,0.4,0.6,0.9,0.7,1.5c0.3,0.9,0.3,1.7,0,2.3C88.6,225.4,88.1,225.8,87.4,226z"/>
	<path class="st1" d="M85.3,212.2l0.8,2.1l-9.7,3.6l-0.8-2.1l5.4-7.4l0.2,0.7l-7.2,2.7l-0.8-2.1L83,206l0.8,2.1l-5.4,7.4l-0.2-0.7
		L85.3,212.2z"/>
	<path class="st1" d="M71.9,201l2.5,5.9l-1.9,0.8l-2.5-5.9L71.9,201z M71.7,205.8l9.5-4.1l0.9,2.1l-9.5,4.1L71.7,205.8z M76,199.9
		l2.3,5.3l-1.9,0.8l-2.3-5.3L76,199.9z"/>
	<path class="st1" d="M71.6,200.4l-1.9,0.9l-3.5-7.3l1.9-0.9L71.6,200.4z M68.5,196.1l8.4-4l1,2l-8.4,4L68.5,196.1z"/>
	<path class="st1" d="M53.5,160.6l1.5,2l-1.6,1.2l-1.2-1.6c-0.3-0.4-0.7-0.7-1-0.8c-0.4-0.1-0.7,0-1.1,0.3c-0.4,0.3-0.6,0.6-0.6,1
		c0,0.4,0.1,0.8,0.5,1.2l1.2,1.6l-1.6,1.2l-1.5-2c-0.4-0.6-0.7-1.1-0.8-1.7c-0.1-0.6,0-1.2,0.2-1.7c0.2-0.5,0.6-1,1.2-1.4
		c0.6-0.4,1.1-0.7,1.7-0.7s1.2,0,1.7,0.3C52.6,159.6,53.1,160.1,53.5,160.6z M49.2,166.3l8.3-6.2l1.4,1.8l-8.3,6.2L49.2,166.3z"/>
	<path class="st1" d="M51,157.4c-0.6,0.5-1.2,0.7-1.8,0.8c-0.6,0.1-1.3,0-1.9-0.2c-0.6-0.3-1.1-0.7-1.6-1.3
		c-0.5-0.6-0.8-1.2-0.9-1.8s-0.1-1.3,0.1-1.9c0.2-0.6,0.6-1.1,1.2-1.6c0.6-0.5,1.2-0.7,1.8-0.8c0.6-0.1,1.3,0,1.9,0.2
		c0.6,0.3,1.1,0.7,1.6,1.2c0.5,0.6,0.8,1.2,0.9,1.8c0.1,0.6,0.1,1.3-0.1,1.9C52,156.4,51.6,156.9,51,157.4z M49.6,155.7
		c0.3-0.2,0.5-0.5,0.6-0.8c0.1-0.3,0.1-0.6,0.1-0.9s-0.2-0.6-0.4-0.8c-0.2-0.3-0.5-0.4-0.7-0.5c-0.3-0.1-0.6-0.1-0.8-0.1
		c-0.3,0.1-0.6,0.2-0.9,0.4c-0.3,0.2-0.5,0.5-0.6,0.7c-0.1,0.3-0.1,0.6-0.1,0.8s0.2,0.6,0.4,0.8s0.5,0.4,0.7,0.5
		c0.3,0.1,0.6,0.1,0.8,0.1C49.1,156.1,49.4,156,49.6,155.7z"/>
	<path class="st1" d="M45.5,150.7c-0.6,0.5-1.1,0.8-1.8,0.9c-0.6,0.1-1.3,0.1-1.9-0.2c-0.6-0.2-1.2-0.6-1.7-1.2
		c-0.5-0.6-0.8-1.2-1-1.8c-0.2-0.6-0.1-1.3,0.1-1.9c0.2-0.6,0.6-1.2,1.1-1.7c0.6-0.5,1.1-0.8,1.8-0.9c0.6-0.1,1.3-0.1,1.9,0.2
		c0.6,0.2,1.2,0.6,1.7,1.2s0.8,1.2,1,1.8c0.2,0.6,0.1,1.3,0,1.9C46.4,149.7,46.1,150.2,45.5,150.7z M44.1,149.1
		c0.3-0.2,0.4-0.5,0.6-0.8c0.1-0.3,0.1-0.6,0.1-0.9c-0.1-0.3-0.2-0.6-0.4-0.8c-0.2-0.3-0.5-0.4-0.7-0.5c-0.3-0.1-0.6-0.1-0.9,0
		c-0.3,0.1-0.6,0.2-0.8,0.5c-0.3,0.2-0.4,0.5-0.6,0.8c-0.1,0.3-0.1,0.6-0.1,0.8c0.1,0.3,0.2,0.6,0.4,0.8c0.2,0.3,0.5,0.4,0.7,0.5
		c0.3,0.1,0.6,0.1,0.9,0C43.5,149.5,43.8,149.3,44.1,149.1z"/>
	<path class="st1" d="M44.4,139.1l-7.4,7.2l-1.4-1.5l0.5-0.7c-0.4,0.1-0.8,0.1-1.2-0.1c-0.4-0.2-0.8-0.4-1.2-0.8
		c-0.5-0.5-0.8-1-0.9-1.5c-0.1-0.6-0.1-1.1,0.1-1.7c0.2-0.6,0.6-1.1,1.1-1.7c0.5-0.5,1.1-0.9,1.7-1.1s1.2-0.3,1.7-0.1
		s1.1,0.4,1.6,0.9c0.3,0.3,0.6,0.7,0.8,1.1s0.2,0.8,0.2,1.1l2.9-2.8L44.4,139.1z M37.9,142.4c0.2-0.2,0.4-0.5,0.5-0.8
		c0.1-0.3,0.1-0.6,0-0.9c-0.1-0.3-0.2-0.5-0.5-0.8c-0.2-0.2-0.5-0.4-0.8-0.5s-0.6-0.1-0.8,0c-0.3,0.1-0.5,0.2-0.8,0.5
		s-0.4,0.5-0.5,0.8c-0.1,0.3-0.1,0.6,0,0.8s0.2,0.5,0.5,0.8c0.2,0.2,0.5,0.4,0.8,0.5s0.6,0.1,0.9,0
		C37.4,142.8,37.7,142.6,37.9,142.4z"/>
	<path class="st1" d="M38.4,133.1l-1.2,1.3l-0.9-0.8c-0.2-0.2-0.3-0.3-0.5-0.3c-0.2-0.1-0.3-0.1-0.5-0.1c-0.2,0-0.4,0.1-0.6,0.2
		l-7.3,3.5l-1.6-1.5l8.4-3.7c0.7-0.3,1.3-0.4,1.8-0.4s1,0.3,1.5,0.7c0.2,0.2,0.4,0.4,0.5,0.6S38.3,132.9,38.4,133.1z M29.8,139.1
		l2.7-5.8l2.5-1.1l-3.5,8.5L29.8,139.1z"/>
	<path class="st1" d="M28.1,128.1l1.6,1.4l-6.9,8l-1.6-1.4l2.8-3.2c-0.4,0.1-0.7,0.1-1.1-0.1c-0.4-0.1-0.8-0.3-1.1-0.6
		c-0.6-0.5-0.9-1.2-1-1.8c0-0.7,0.3-1.4,0.9-2.1l2.8-3.3l1.6,1.4l-2.5,2.9c-0.2,0.2-0.3,0.5-0.4,0.7c-0.1,0.2-0.1,0.4,0,0.7
		c0.1,0.2,0.2,0.4,0.4,0.6c0.2,0.2,0.4,0.3,0.7,0.4c0.2,0.1,0.5,0,0.7-0.1s0.4-0.2,0.6-0.5L28.1,128.1z"/>
	<path class="st1" d="M20.7,121.7c0.5,0.4,0.9,1,1.2,1.5c0.2,0.6,0.3,1.2,0.2,1.8s-0.4,1.2-0.8,1.8c-0.5,0.6-1,1-1.6,1.2
		s-1.2,0.3-1.8,0.2c-0.6-0.1-1.2-0.4-1.8-0.8c-0.6-0.5-1-1-1.2-1.5c-0.2-0.6-0.3-1.2-0.2-1.8c0.1-0.6,0.4-1.2,0.9-1.8l0.3-0.4
		l4.7,3.7l-0.9,1l-3-2.4c-0.2,0.3-0.3,0.6-0.3,0.9s0.3,0.6,0.6,0.9c0.3,0.2,0.6,0.4,0.8,0.4s0.5,0,0.8-0.2c0.3-0.2,0.6-0.4,0.8-0.8
		c0.4-0.5,0.6-1,0.6-1.4c0-0.4-0.2-0.8-0.7-1.1c-0.3-0.3-0.6-0.4-0.9-0.5c-0.3-0.1-0.6,0-0.8,0.1l-1.5-1.2c0.6-0.5,1.3-0.8,2.1-0.7
		C19.2,120.7,20,121.1,20.7,121.7z"/>
	<path class="st1" d="M15.1,117.3c0.6,0.4,0.9,0.9,1.1,1.5c0.1,0.6,0,1.2-0.4,1.7c-0.4,0.5-0.9,0.8-1.4,0.8c-0.6,0-1.2-0.2-1.9-0.6
		l-1.7-1l-0.1,0.1c-0.1,0.2-0.2,0.4-0.2,0.6c0,0.2,0,0.4,0.1,0.5c0.1,0.2,0.2,0.3,0.5,0.5c0.4,0.3,0.7,0.4,1,0.4
		c0.3,0,0.5-0.1,0.7-0.4l1.4,1.1c-0.3,0.4-0.7,0.7-1.1,0.9c-0.5,0.2-0.9,0.2-1.5,0c-0.5-0.1-1.1-0.4-1.6-0.8
		c-0.5-0.4-0.9-0.8-1.2-1.3s-0.3-1-0.2-1.5c0.1-0.5,0.3-1.1,0.7-1.6l2.4-3.3l1.5,1.1l-0.4,0.8c0.3-0.2,0.6-0.2,1.1-0.2
		C14.3,116.8,14.7,117,15.1,117.3z M13.6,118.1c-0.3-0.2-0.7-0.4-1-0.4c-0.3,0-0.6,0.2-0.9,0.5l-0.2,0.3l0.9,0.6
		c0.4,0.2,0.7,0.4,0.9,0.4c0.2,0,0.4-0.1,0.5-0.2c0.1-0.2,0.2-0.4,0.1-0.6S13.8,118.3,13.6,118.1z"/>
	<path class="st1" d="M7.8,112.1c0.6,0.4,1,0.8,1.2,1.4c0.2,0.5,0.3,1.1,0.2,1.7c-0.1,0.6-0.3,1.2-0.7,1.8c-0.4,0.6-0.9,1.1-1.4,1.4
		c-0.5,0.3-1.1,0.5-1.7,0.4s-1.2-0.2-1.8-0.6c-0.4-0.2-0.7-0.5-0.9-0.9c-0.2-0.3-0.3-0.7-0.4-1l-2.3,3.5l-1.8-1.2l5.9-8.8l1.7,1.1
		l-0.4,0.8c0.3-0.2,0.7-0.2,1.2-0.1C6.9,111.6,7.4,111.8,7.8,112.1z M6.3,113.4c-0.3-0.2-0.6-0.3-0.9-0.3c-0.3,0-0.6,0-0.8,0.2
		s-0.5,0.4-0.7,0.6c-0.2,0.3-0.3,0.6-0.3,0.9c0,0.3,0,0.6,0.2,0.8c0.1,0.3,0.3,0.5,0.6,0.7c0.3,0.2,0.6,0.3,0.9,0.3
		c0.3,0,0.6,0,0.8-0.2c0.3-0.1,0.5-0.4,0.7-0.6c0.2-0.3,0.3-0.6,0.3-0.9c0-0.3,0-0.6-0.1-0.8S6.5,113.6,6.3,113.4z"/>
	<path class="st1" d="M1.7,110.9L0,109.9c0.1-0.2,0.1-0.4,0.1-0.6c-0.1-0.2-0.3-0.4-0.5-0.6c-0.3-0.2-0.5-0.3-0.7-0.2
		s-0.3,0.1-0.4,0.2c-0.1,0.1-0.1,0.2-0.1,0.3c0,0.1,0.1,0.3,0.3,0.5l0.9,0.9c0.5,0.5,0.8,0.9,0.9,1.3c0.1,0.4,0,0.9-0.3,1.4
		c-0.3,0.4-0.6,0.7-1,0.9s-0.8,0.2-1.3,0.1c-0.5-0.1-0.9-0.3-1.4-0.6c-0.5-0.3-0.8-0.6-1.1-1c-0.2-0.4-0.4-0.8-0.4-1.2
		s0.1-0.8,0.4-1.2l1.7,1.1c-0.1,0.2-0.2,0.4-0.1,0.6c0,0.2,0.2,0.4,0.4,0.5c0.2,0.1,0.4,0.2,0.6,0.2c0.2,0,0.3-0.1,0.4-0.3
		c0.2-0.3,0.1-0.6-0.3-0.9l-1-0.9c-0.4-0.4-0.7-0.8-0.8-1.2c-0.1-0.4,0-0.9,0.3-1.3c0.3-0.4,0.6-0.7,1-0.9c0.4-0.2,0.9-0.2,1.4-0.1
		c0.5,0.1,1,0.3,1.5,0.6c0.8,0.5,1.3,1.1,1.5,1.7C2.2,109.7,2.1,110.3,1.7,110.9z"/>
	<path class="st1" d="M-9,102l2,1.1l-4.9,9.1l-2-1.1l-0.9-9.1l0.6,0.3l-3.6,6.7l-2-1.1l4.9-9.1l2,1.1l0.9,9.1l-0.6-0.3L-9,102z"/>
	<path class="st1" d="M-26.5,102.5l5.8,2.7l-0.9,1.9l-5.8-2.7L-26.5,102.5z M-24.1,99l5.2,2.5l-0.9,1.8l-5.2-2.5L-24.1,99z
		 M-23.5,106.2l4.4-9.4l2.1,1l-4.4,9.4L-23.5,106.2z"/>
	<path class="st1" d="M-27.1,102.2l-0.8,1.9l-7.5-3.2l0.8-1.9L-27.1,102.2z M-32.3,101.1l3.6-8.5l2.1,0.9l-3.6,8.5L-32.3,101.1z"/>
</g>
<g class="st0">
	<circle class="st2" cx="-107.1" cy="281.4" r="261.3"/>
</g>
<g class="st0">
	<path class="st1" d="M3.4,500.9l7.1,13.8l-3,1.6l-7.1-13.8L3.4,500.9z M10.7,508.9l-3.3,1.7L6,507.9l2.7-1.4
		c0.7-0.4,1.2-0.8,1.4-1.3c0.2-0.5,0.1-1.1-0.2-1.7s-0.8-1-1.3-1.2c-0.5-0.1-1.2,0-1.9,0.4L4,504l-1.4-2.7l3.3-1.7
		c0.9-0.5,1.9-0.7,2.8-0.7c0.9,0,1.7,0.3,2.5,0.8c0.7,0.5,1.4,1.2,1.8,2.1c0.5,0.9,0.7,1.8,0.7,2.7c0,0.9-0.3,1.7-0.8,2.5
		C12.4,507.8,11.6,508.4,10.7,508.9z"/>
	<path class="st1" d="M16.1,505.9c-0.6-1-0.8-1.9-0.8-2.9c0-1,0.3-1.9,0.8-2.7c0.5-0.8,1.3-1.5,2.2-2.1c1-0.6,1.9-0.9,2.9-0.9
		c1,0,1.9,0.2,2.7,0.7s1.5,1.2,2.1,2.1s0.8,1.9,0.8,2.9c0,1-0.3,1.9-0.8,2.7c-0.5,0.8-1.3,1.5-2.2,2.1s-1.9,0.9-2.9,0.9
		s-1.9-0.2-2.7-0.6C17.3,507.6,16.6,506.9,16.1,505.9z M18.9,504.3c0.3,0.5,0.6,0.8,1,1c0.4,0.2,0.8,0.4,1.2,0.4
		c0.4,0,0.9-0.1,1.3-0.4c0.4-0.3,0.8-0.6,1-0.9c0.2-0.4,0.3-0.8,0.3-1.2c0-0.5-0.2-0.9-0.4-1.4c-0.3-0.5-0.6-0.8-1-1
		c-0.4-0.2-0.8-0.3-1.2-0.3c-0.4,0-0.9,0.1-1.3,0.4c-0.4,0.3-0.8,0.6-1,0.9c-0.2,0.4-0.3,0.8-0.3,1.2S18.6,503.8,18.9,504.3z"/>
	<path class="st1" d="M27.4,499.3c-0.6-0.9-0.9-1.9-1-2.8c0-1,0.2-1.9,0.7-2.8c0.5-0.9,1.2-1.6,2.1-2.2c0.9-0.6,1.9-1,2.9-1
		s1.9,0.1,2.8,0.5s1.6,1.1,2.2,2c0.6,0.9,0.9,1.9,1,2.8c0,1-0.2,1.9-0.7,2.7s-1.2,1.6-2.1,2.2c-0.9,0.6-1.9,1-2.9,1
		c-1,0.1-1.9-0.1-2.8-0.5C28.7,500.9,28,500.3,27.4,499.3z M30.1,497.5c0.3,0.4,0.6,0.8,1,1c0.4,0.2,0.8,0.3,1.3,0.3
		c0.4,0,0.9-0.2,1.3-0.4c0.4-0.3,0.7-0.6,0.9-1c0.2-0.4,0.3-0.8,0.2-1.3c0-0.4-0.2-0.9-0.5-1.3c-0.3-0.4-0.6-0.8-1-1
		c-0.4-0.2-0.8-0.3-1.2-0.3c-0.4,0-0.9,0.2-1.3,0.4c-0.4,0.3-0.7,0.6-0.9,1s-0.3,0.8-0.3,1.3C29.6,496.7,29.8,497.1,30.1,497.5z"/>
	<path class="st1" d="M44.8,500.2l-9.1-12.6l2.5-1.8l0.9,0.9c-0.1-0.6,0.1-1.2,0.4-1.8s0.8-1.1,1.4-1.6c0.8-0.6,1.6-0.9,2.5-1
		c0.9-0.1,1.7,0.1,2.5,0.5s1.6,1.1,2.2,2c0.6,0.9,1.1,1.8,1.3,2.7s0.1,1.8-0.2,2.6s-0.9,1.6-1.7,2.2c-0.6,0.4-1.2,0.7-1.9,0.9
		s-1.2,0.2-1.7,0l3.6,4.9L44.8,500.2z M41.4,490c0.3,0.4,0.7,0.7,1.1,0.9s0.8,0.3,1.3,0.2c0.4-0.1,0.9-0.2,1.3-0.5
		c0.4-0.3,0.7-0.7,0.9-1.1c0.2-0.4,0.2-0.8,0.2-1.3c-0.1-0.4-0.3-0.9-0.6-1.3c-0.3-0.4-0.7-0.7-1-0.9c-0.4-0.2-0.8-0.3-1.2-0.2
		s-0.9,0.2-1.3,0.5c-0.4,0.3-0.7,0.6-0.9,1c-0.2,0.4-0.2,0.8-0.2,1.3C40.9,489.1,41.1,489.5,41.4,490z"/>
	<path class="st1" d="M48,478.5l8.1,5.1l1.1,3.9l-11.9-6.9L48,478.5z M55.2,492.6l-1.7-2.1l1.4-1.1c0.3-0.2,0.5-0.5,0.6-0.7
		c0.1-0.2,0.2-0.5,0.2-0.7c0-0.3-0.1-0.6-0.2-1l-3.8-11.5l2.6-2.1l3.8,13.3c0.3,1.1,0.4,2,0.2,2.8c-0.2,0.8-0.6,1.4-1.4,2
		c-0.3,0.2-0.6,0.5-0.9,0.6C55.8,492.3,55.5,492.5,55.2,492.6z"/>
	<path class="st1" d="M64.7,478.2l-2.4,2.1l-10.5-11.9l2.4-2.2l4.3,4.8c-0.1-0.5,0-1.1,0.3-1.7s0.6-1.1,1.2-1.5
		c0.9-0.8,1.9-1.2,2.9-1.1c1,0.1,2,0.7,2.9,1.7l4.3,4.9l-2.4,2.1l-3.8-4.3c-0.3-0.3-0.6-0.6-0.9-0.7c-0.3-0.1-0.7-0.2-1-0.1
		c-0.3,0-0.6,0.2-0.9,0.4c-0.3,0.3-0.5,0.6-0.7,0.9s-0.1,0.7-0.1,1c0.1,0.4,0.3,0.7,0.6,1L64.7,478.2z"/>
	<path class="st1" d="M75.8,468.4c-0.8,0.7-1.6,1.2-2.5,1.4c-0.9,0.2-1.8,0.2-2.8-0.1s-1.8-0.8-2.5-1.6c-0.8-0.8-1.3-1.6-1.5-2.5
		c-0.3-0.9-0.3-1.8,0-2.7s0.7-1.7,1.5-2.5c0.8-0.8,1.6-1.3,2.5-1.5c0.9-0.2,1.8-0.2,2.7,0.1c0.9,0.3,1.7,0.8,2.5,1.7l0.6,0.6
		l-6.4,6.3l-1.4-1.5l4.1-4c-0.4-0.4-0.8-0.6-1.3-0.6c-0.5,0-1,0.3-1.5,0.7c-0.4,0.4-0.6,0.8-0.7,1.2c-0.1,0.4-0.1,0.8,0.1,1.2
		c0.2,0.4,0.5,0.9,1,1.4c0.7,0.7,1.3,1.1,1.9,1.1c0.6,0.1,1.2-0.2,1.8-0.8c0.4-0.4,0.7-0.9,0.9-1.3c0.1-0.4,0.1-0.8-0.1-1.2l2.1-2.1
		c0.7,1,0.9,2,0.7,3.2S76.8,467.4,75.8,468.4z"/>
	<path class="st1" d="M83.3,460.8c-0.8,0.8-1.6,1.2-2.5,1.3c-0.9,0.1-1.7-0.3-2.5-1c-0.7-0.7-1-1.4-1-2.3s0.4-1.8,1.2-2.8l1.8-2.3
		l-0.1-0.1c-0.3-0.2-0.5-0.4-0.8-0.4c-0.3-0.1-0.5,0-0.8,0.1c-0.3,0.1-0.5,0.3-0.8,0.6c-0.5,0.5-0.7,1-0.8,1.4
		c-0.1,0.4,0.1,0.8,0.4,1.1l-1.8,2c-0.6-0.5-1-1.2-1.1-1.9c-0.2-0.7-0.1-1.4,0.2-2.2s0.8-1.5,1.4-2.2c0.7-0.7,1.4-1.3,2.2-1.5
		c0.7-0.3,1.5-0.3,2.3-0.1c0.8,0.2,1.5,0.7,2.3,1.3l4.5,4.2l-1.9,2.1l-1.2-0.8c0.2,0.4,0.3,1,0.1,1.7
		C84.2,459.6,83.8,460.2,83.3,460.8z M82.3,458.3c0.4-0.5,0.7-0.9,0.7-1.4s-0.1-0.9-0.6-1.4l-0.4-0.4l-1,1.3c-0.4,0.5-0.7,1-0.8,1.3
		c-0.1,0.3,0,0.6,0.3,0.8c0.3,0.3,0.6,0.4,0.9,0.3C81.6,458.9,82,458.6,82.3,458.3z"/>
	<path class="st1" d="M92.3,450.6c-0.6,0.8-1.4,1.3-2.2,1.6c-0.8,0.3-1.7,0.3-2.6,0.1c-0.9-0.2-1.8-0.7-2.6-1.4
		c-0.9-0.7-1.5-1.5-1.9-2.4c-0.4-0.9-0.5-1.8-0.4-2.7s0.5-1.8,1.2-2.6c0.4-0.5,0.9-0.9,1.5-1.2c0.5-0.3,1.1-0.4,1.6-0.4l-4.8-4.1
		l2.1-2.5l12.1,10.2l-2,2.3l-1.1-0.7c0.2,0.5,0.2,1.1,0,1.8C93.1,449.5,92.8,450.1,92.3,450.6z M90.5,448.1c0.3-0.4,0.5-0.8,0.6-1.2
		s0-0.9-0.1-1.3c-0.2-0.4-0.4-0.8-0.8-1.1c-0.4-0.3-0.8-0.6-1.3-0.6s-0.9-0.1-1.3,0.1c-0.4,0.2-0.8,0.4-1.1,0.8
		c-0.3,0.4-0.5,0.8-0.6,1.2c-0.1,0.4,0,0.9,0.1,1.3c0.2,0.4,0.5,0.8,0.8,1.1c0.4,0.3,0.8,0.5,1.2,0.6c0.4,0.1,0.9,0.1,1.3-0.1
		C89.9,448.8,90.2,448.5,90.5,448.1z"/>
	<path class="st1" d="M95,441.8l1.9-2.4c0.3,0.2,0.6,0.3,1,0.2c0.3-0.1,0.6-0.3,0.9-0.7c0.3-0.4,0.5-0.7,0.5-1
		c0-0.3-0.1-0.5-0.3-0.7c-0.1-0.1-0.3-0.1-0.5-0.1c-0.2,0-0.4,0.1-0.7,0.4l-1.5,1.3c-0.8,0.6-1.5,1-2.1,1.1
		c-0.7,0.1-1.4-0.1-2.1-0.7c-0.6-0.4-1-1-1.1-1.6s-0.2-1.3,0-2s0.5-1.4,1-2c0.5-0.6,1-1.1,1.7-1.4s1.2-0.5,1.9-0.4
		c0.6,0,1.2,0.3,1.8,0.7l-1.9,2.4c-0.3-0.2-0.6-0.3-0.9-0.3c-0.3,0-0.6,0.2-0.8,0.5c-0.2,0.3-0.3,0.6-0.3,0.9c0,0.3,0.1,0.5,0.3,0.7
		c0.4,0.3,0.8,0.2,1.4-0.3l1.5-1.3c0.7-0.6,1.3-0.9,1.9-1c0.6-0.1,1.3,0.1,1.9,0.6c0.6,0.5,1,1,1.2,1.6c0.2,0.6,0.2,1.3,0,2.1
		s-0.6,1.5-1.1,2.2c-0.8,1.1-1.8,1.8-2.8,2C96.8,442.6,95.8,442.4,95,441.8z"/>
	<path class="st1" d="M109.9,427l-1.8,2.8l-13-8.5l1.8-2.8l13.8-0.1l-0.6,0.9l-9.6-6.3l1.8-2.8l13,8.5l-1.8,2.8l-13.7,0.1l0.6-0.9
		L109.9,427z"/>
	<path class="st1" d="M105.5,404.7l13.5,7.8l-1.7,2.9l-13.5-7.8L105.5,404.7z M111.5,400.7l-4.8,8.3l-2.7-1.6l4.8-8.3L111.5,400.7z
		 M116.4,404.7l-4.3,7.5l-2.7-1.5l4.3-7.5L116.4,404.7z"/>
	<path class="st1" d="M111.9,399.8l-2.8-1.4l5.6-10.9l2.8,1.4L111.9,399.8z M114.1,392.2l12.4,6.3l-1.5,3l-12.4-6.3L114.1,392.2z"/>
	<path class="st1" d="M134.8,380.9c-0.6,1.4-1.4,2.6-2.4,3.4s-2.2,1.3-3.6,1.4c-1.3,0.1-2.8-0.1-4.3-0.8c-1.5-0.6-2.7-1.5-3.6-2.5
		c-0.9-1.1-1.4-2.2-1.6-3.6c-0.2-1.3,0-2.7,0.6-4.1c0.5-1.2,1.2-2.2,2-2.9c0.8-0.8,1.7-1.3,2.8-1.5s2.1-0.3,3.3,0l-1.4,3.3
		c-0.8-0.1-1.5,0.1-2.2,0.5c-0.6,0.4-1.1,1.1-1.5,1.9c-0.3,0.8-0.4,1.5-0.3,2.2s0.4,1.3,1,1.9c0.5,0.6,1.3,1,2.2,1.4
		c0.9,0.4,1.7,0.5,2.5,0.5c0.8,0,1.5-0.3,2.1-0.7c0.6-0.4,1-1,1.4-1.8c0.4-0.9,0.5-1.7,0.3-2.5c-0.2-0.8-0.5-1.4-1.2-1.9l1.3-3.3
		c1,0.6,1.8,1.4,2.3,2.3c0.5,0.9,0.8,2,0.9,3.1C135.6,378.5,135.3,379.7,134.8,380.9z"/>
	<path class="st1" d="M133,370.6c-1-0.4-1.9-0.9-2.5-1.7c-0.6-0.7-1-1.6-1.2-2.6c-0.2-1,0-2,0.3-3.1c0.4-1.1,0.9-1.9,1.6-2.6
		c0.7-0.7,1.6-1.1,2.5-1.3s1.9-0.1,3,0.2c1,0.4,1.9,0.9,2.5,1.7c0.6,0.7,1,1.6,1.2,2.6s0,2-0.3,3c-0.4,1.1-0.9,1.9-1.6,2.6
		c-0.7,0.7-1.6,1.1-2.5,1.3C135.1,371,134.1,370.9,133,370.6z M134.1,367.5c0.5,0.2,1,0.2,1.4,0.1c0.4-0.1,0.8-0.3,1.2-0.5
		c0.3-0.3,0.6-0.7,0.7-1.1c0.2-0.5,0.2-0.9,0.1-1.4c-0.1-0.4-0.3-0.8-0.6-1.1c-0.3-0.3-0.7-0.6-1.2-0.8s-1-0.2-1.4-0.2
		c-0.4,0.1-0.8,0.2-1.2,0.5c-0.3,0.3-0.6,0.7-0.7,1.1c-0.2,0.5-0.2,0.9-0.1,1.4c0.1,0.4,0.3,0.8,0.6,1.1
		C133.2,367.1,133.6,367.3,134.1,367.5z"/>
	<path class="st1" d="M143.3,356.2l-0.9,3.1l-15.1-4.6l0.9-3.1L143.3,356.2z"/>
	<path class="st1" d="M145,350.5l-0.9,3.1l-15.2-4.3l0.9-3.1L145,350.5z"/>
	<path class="st1" d="M147.1,343.2c-0.2,1-0.7,1.9-1.4,2.6c-0.7,0.7-1.4,1.2-2.4,1.4s-1.9,0.3-3,0c-1.1-0.3-1.9-0.7-2.6-1.3
		c-0.7-0.6-1.2-1.4-1.5-2.3s-0.3-1.9,0-2.9c0.3-1.1,0.7-1.9,1.3-2.6c0.6-0.7,1.4-1.1,2.3-1.3c0.9-0.2,1.9-0.2,3,0.1l0.8,0.2
		l-2.1,8.8l-1.9-0.5l1.4-5.6c-0.5-0.1-1-0.1-1.4,0.2c-0.4,0.3-0.7,0.8-0.8,1.4c-0.1,0.5-0.1,1,0,1.4c0.1,0.4,0.4,0.7,0.8,1
		c0.4,0.3,0.9,0.5,1.6,0.6c1,0.2,1.7,0.2,2.3-0.1c0.6-0.3,0.9-0.8,1.1-1.6c0.1-0.6,0.2-1.1,0.1-1.6s-0.3-0.8-0.7-1l0.7-2.9
		c1.1,0.5,1.9,1.2,2.3,2.3S147.5,341.8,147.1,343.2z"/>
	<path class="st1" d="M143.3,335.2c-1.1-0.2-2-0.6-2.7-1.2c-0.7-0.6-1.3-1.4-1.6-2.2c-0.3-0.9-0.4-1.8-0.2-2.9
		c0.3-1.5,0.9-2.7,1.9-3.5c1-0.8,2.1-1.1,3.5-1l-0.6,3.2c-0.5,0-1,0.2-1.3,0.4c-0.3,0.3-0.5,0.7-0.6,1.2c-0.1,0.4-0.1,0.8,0.1,1.2
		c0.1,0.4,0.4,0.7,0.7,0.9s0.8,0.4,1.3,0.5c0.5,0.1,1,0.1,1.5,0c0.4-0.1,0.8-0.3,1-0.6c0.3-0.3,0.4-0.7,0.5-1.1
		c0.1-0.6,0.1-1-0.1-1.4c-0.2-0.4-0.5-0.7-1-0.9l0.6-3.2c0.9,0.2,1.6,0.6,2.1,1.2s1,1.3,1.2,2.1c0.2,0.8,0.2,1.7,0.1,2.7
		c-0.2,1.1-0.6,2-1.2,2.7c-0.6,0.7-1.4,1.2-2.3,1.5C145.4,335.4,144.4,335.4,143.3,335.2z"/>
	<path class="st1" d="M151.5,319.4l-0.5,3.2l-13.6-2.1l0.5-3.2L151.5,319.4z M140.3,323l1.1-7.1l2.7,0.4l-1.1,7.1L140.3,323z"/>
	<path class="st1" d="M140.1,312.6c-0.1,0.5-0.3,0.9-0.7,1.2c-0.4,0.3-0.9,0.4-1.4,0.4c-0.5-0.1-0.9-0.3-1.2-0.7
		c-0.3-0.4-0.4-0.9-0.4-1.4c0.1-0.5,0.3-0.9,0.7-1.2c0.4-0.3,0.8-0.4,1.4-0.4c0.5,0.1,0.9,0.3,1.2,0.7
		C140.1,311.7,140.2,312.1,140.1,312.6z M152,315.7l-10.4-1.3l0.4-3.2l10.4,1.3L152,315.7z"/>
	<path class="st1" d="M147.4,309.9c-1.1-0.1-2-0.4-2.8-1c-0.8-0.6-1.4-1.3-1.8-2.2c-0.4-0.9-0.5-1.9-0.4-3c0.1-1.1,0.4-2.1,1-2.9
		s1.2-1.4,2.1-1.9c0.9-0.4,1.9-0.6,3-0.5c1.1,0.1,2,0.4,2.8,1c0.8,0.6,1.4,1.3,1.7,2.2c0.4,0.9,0.5,1.9,0.4,3
		c-0.1,1.1-0.4,2.1-1,2.9c-0.5,0.8-1.2,1.5-2.1,1.9C149.5,309.8,148.5,310,147.4,309.9z M147.7,306.6c0.5,0,1,0,1.4-0.2
		s0.7-0.5,1-0.8c0.2-0.4,0.4-0.8,0.4-1.3c0-0.5,0-1-0.2-1.3s-0.5-0.7-0.8-1c-0.4-0.2-0.8-0.4-1.4-0.4c-0.5,0-1,0-1.4,0.2
		s-0.7,0.4-1,0.8s-0.4,0.8-0.4,1.3c0,0.5,0,1,0.2,1.3s0.5,0.7,0.8,1C146.7,306.4,147.2,306.6,147.7,306.6z"/>
	<path class="st1" d="M153.9,293.3l-0.1,3.2l-10.5-0.4l0.1-3l1.1-0.2c-0.4-0.3-0.8-0.8-1-1.4s-0.3-1.2-0.3-1.9
		c0-1.2,0.5-2.2,1.3-2.9c0.8-0.7,1.9-1,3.2-0.9l6.5,0.2l-0.1,3.2l-5.7-0.2c-0.7,0-1.2,0.1-1.6,0.4c-0.4,0.3-0.6,0.8-0.6,1.3
		c0,0.6,0.1,1.2,0.5,1.6c0.4,0.4,0.9,0.6,1.5,0.6L153.9,293.3z"/>
	<path class="st1" d="M147.6,254.2l0.4,3.7l-3,0.3l-0.3-3c-0.1-0.8-0.3-1.4-0.7-1.8c-0.4-0.4-1-0.5-1.7-0.4
		c-0.7,0.1-1.2,0.3-1.6,0.8c-0.3,0.4-0.4,1.1-0.3,1.9l0.3,3l-3,0.3l-0.4-3.7c-0.1-1.1,0-2,0.4-2.8s0.9-1.5,1.6-2
		c0.7-0.5,1.6-0.8,2.6-0.9c1-0.1,2,0,2.8,0.4c0.8,0.4,1.5,0.9,2,1.7C147.2,252.3,147.5,253.2,147.6,254.2z M137.6,258.1l15.5-1.6
		l0.3,3.4l-15.5,1.6L137.6,258.1z"/>
	<path class="st1" d="M146.8,248.1c-1.1,0.2-2.1,0.1-3-0.3c-0.9-0.4-1.6-0.9-2.2-1.7c-0.6-0.8-1-1.7-1.1-2.9
		c-0.2-1.1-0.1-2.1,0.2-3.1s0.9-1.7,1.6-2.3c0.7-0.6,1.7-1,2.8-1.2c1.1-0.2,2.1-0.1,3,0.3c0.9,0.4,1.6,0.9,2.2,1.7
		c0.6,0.8,1,1.7,1.1,2.8c0.2,1.1,0.1,2.1-0.2,3.1s-0.9,1.7-1.6,2.3C148.9,247.6,147.9,248,146.8,248.1z M146.3,244.9
		c0.5-0.1,1-0.3,1.3-0.5c0.4-0.3,0.6-0.6,0.8-1c0.2-0.4,0.2-0.9,0.1-1.4c-0.1-0.5-0.2-0.9-0.5-1.3c-0.3-0.3-0.6-0.6-1-0.7
		c-0.4-0.1-0.9-0.2-1.4-0.1c-0.5,0.1-1,0.3-1.3,0.5c-0.4,0.3-0.6,0.6-0.8,1c-0.2,0.4-0.2,0.9-0.1,1.4c0.1,0.5,0.2,0.9,0.5,1.3
		s0.6,0.6,1,0.7C145.3,245,145.8,245,146.3,244.9z"/>
	<path class="st1" d="M144.8,235.2c-1.1,0.2-2.1,0.2-3-0.1s-1.7-0.9-2.3-1.6c-0.6-0.8-1.1-1.7-1.3-2.8s-0.2-2.1,0.1-3.1
		c0.3-0.9,0.8-1.7,1.5-2.4c0.7-0.7,1.6-1.1,2.7-1.3c1.1-0.2,2.1-0.2,3,0.1c0.9,0.3,1.7,0.9,2.3,1.6c0.6,0.8,1.1,1.7,1.3,2.8
		c0.2,1.1,0.2,2.1-0.1,3.1c-0.3,1-0.8,1.8-1.5,2.4C146.8,234.5,145.9,235,144.8,235.2z M144.2,232c0.5-0.1,1-0.3,1.3-0.6
		s0.6-0.6,0.7-1.1c0.1-0.4,0.2-0.9,0.1-1.4c-0.1-0.5-0.3-0.9-0.6-1.2s-0.6-0.6-1.1-0.7s-0.9-0.1-1.4,0c-0.5,0.1-1,0.3-1.3,0.6
		c-0.3,0.3-0.6,0.6-0.7,1c-0.1,0.4-0.2,0.9-0.1,1.4s0.3,0.9,0.6,1.2c0.3,0.3,0.6,0.6,1.1,0.7C143.2,232.1,143.6,232.1,144.2,232z"/>
	<path class="st1" d="M152,219.2l-15,3.9l-0.8-2.9l1.2-0.5c-0.5-0.2-1-0.5-1.5-1c-0.4-0.5-0.8-1.1-0.9-1.9c-0.2-0.9-0.3-1.8,0-2.7
		s0.7-1.5,1.4-2.2c0.7-0.6,1.6-1.1,2.7-1.3c1.1-0.3,2.1-0.3,3-0.2c0.9,0.2,1.7,0.5,2.4,1.1s1.1,1.4,1.4,2.4c0.2,0.7,0.2,1.4,0.1,2
		s-0.3,1.2-0.6,1.6l5.9-1.5L152,219.2z M141.2,218.7c0.5-0.1,0.9-0.4,1.2-0.7c0.3-0.3,0.6-0.7,0.7-1.1c0.1-0.4,0.1-0.9,0-1.4
		c-0.1-0.5-0.4-0.9-0.7-1.2c-0.3-0.3-0.7-0.5-1.1-0.6c-0.4-0.1-0.9-0.1-1.4,0.1c-0.5,0.1-0.9,0.3-1.2,0.6c-0.3,0.3-0.6,0.7-0.7,1.1
		c-0.1,0.4-0.1,0.9,0,1.4c0.1,0.5,0.3,0.9,0.7,1.2s0.7,0.5,1.1,0.6C140.2,218.8,140.7,218.8,141.2,218.7z"/>
	<path class="st1" d="M148.7,206.8l-2.6,0.8l-0.5-1.7c-0.1-0.3-0.2-0.6-0.4-0.8c-0.2-0.2-0.4-0.3-0.6-0.4c-0.3-0.1-0.6-0.2-1-0.2
		l-12.1-0.7l-1-3.2l13.8,1.3c1.1,0.1,2,0.4,2.7,0.8c0.6,0.5,1.1,1.1,1.4,2c0.1,0.4,0.2,0.7,0.3,1.1
		C148.7,206.1,148.7,206.5,148.7,206.8z M132.9,208.4l7.7-5.7l4,0.4l-10.7,8.6L132.9,208.4z"/>
	<path class="st1" d="M138.8,192.8l1.1,3l-14.9,5.5l-1.1-3.1l6-2.2c-0.5-0.1-1-0.4-1.4-0.9s-0.8-1-1-1.6c-0.4-1.2-0.4-2.2,0.1-3.1
		c0.5-0.9,1.4-1.6,2.6-2.1l6.1-2.2l1.1,3l-5.4,2c-0.4,0.2-0.8,0.4-1,0.6s-0.4,0.5-0.5,0.9c-0.1,0.3,0,0.7,0.1,1
		c0.1,0.4,0.4,0.7,0.6,0.9c0.3,0.2,0.6,0.4,1,0.4c0.4,0.1,0.7,0,1.2-0.1L138.8,192.8z"/>
	<path class="st1" d="M133.6,178.9c0.4,1,0.6,1.9,0.4,2.9c-0.1,0.9-0.5,1.8-1,2.5c-0.6,0.8-1.4,1.3-2.4,1.8c-1,0.4-2,0.6-2.9,0.5
		c-0.9-0.1-1.8-0.4-2.6-1c-0.8-0.6-1.3-1.3-1.8-2.3c-0.4-1-0.6-2-0.5-2.9c0.1-0.9,0.5-1.7,1.1-2.5s1.4-1.3,2.5-1.8l0.8-0.3l3.6,8.3
		l-1.9,0.7l-2.3-5.3c-0.5,0.2-0.9,0.6-1,1c-0.2,0.5-0.1,1,0.2,1.6c0.2,0.5,0.5,0.9,0.8,1.1c0.3,0.2,0.7,0.3,1.2,0.3
		c0.5,0,1-0.2,1.7-0.4c0.9-0.4,1.5-0.9,1.8-1.4c0.3-0.6,0.2-1.2-0.1-2c-0.2-0.6-0.5-1-0.9-1.3c-0.4-0.3-0.7-0.4-1.1-0.4l-1.2-2.7
		c1.1-0.3,2.2-0.1,3.2,0.5C132.3,176.6,133.1,177.6,133.6,178.9z"/>
	<path class="st1" d="M129.2,169.1c0.5,1,0.6,1.9,0.3,2.8c-0.3,0.9-0.9,1.5-1.8,1.9c-0.9,0.4-1.7,0.5-2.5,0.1
		c-0.8-0.3-1.5-1.1-2.2-2.2l-1.5-2.5l-0.2,0.1c-0.3,0.2-0.5,0.3-0.7,0.6c-0.1,0.2-0.2,0.5-0.2,0.8c0,0.3,0.1,0.6,0.3,1
		c0.3,0.6,0.6,1,1,1.2c0.4,0.2,0.8,0.2,1.2,0l1.2,2.4c-0.7,0.3-1.4,0.5-2.1,0.4s-1.4-0.4-2-1c-0.6-0.5-1.1-1.2-1.6-2.1
		c-0.4-0.9-0.7-1.8-0.6-2.6c0-0.8,0.3-1.5,0.7-2.2c0.5-0.6,1.2-1.2,2.1-1.6l5.5-2.7l1.2,2.6l-1.2,0.8c0.5-0.1,1,0.1,1.6,0.6
		C128.4,167.8,128.9,168.4,129.2,169.1z M126.6,169.1c-0.3-0.6-0.6-0.9-1.1-1.2c-0.4-0.2-0.9-0.2-1.5,0.1l-0.5,0.2l0.8,1.4
		c0.4,0.6,0.7,1,1,1.2c0.3,0.2,0.6,0.2,0.9,0.1c0.3-0.2,0.5-0.4,0.6-0.7C126.9,169.9,126.8,169.6,126.6,169.1z"/>
	<path class="st1" d="M123.1,157c0.5,0.9,0.7,1.8,0.7,2.6c0,0.9-0.3,1.7-0.8,2.4s-1.3,1.4-2.2,1.9c-1,0.5-1.9,0.8-2.9,0.9
		c-0.9,0-1.8-0.2-2.6-0.6c-0.8-0.5-1.4-1.1-2-2.1c-0.3-0.6-0.5-1.2-0.6-1.8c-0.1-0.6,0-1.1,0.2-1.6l-5.5,3l-1.6-2.8l13.9-7.6
		l1.5,2.7l-1.1,0.8c0.6,0,1.1,0.2,1.7,0.6C122.2,155.8,122.7,156.3,123.1,157z M120.1,157.8c-0.2-0.4-0.6-0.8-0.9-1
		c-0.4-0.2-0.8-0.4-1.2-0.3s-0.9,0.1-1.4,0.4c-0.5,0.3-0.8,0.6-1.1,1s-0.4,0.8-0.4,1.2c0,0.4,0.1,0.9,0.4,1.3c0.2,0.4,0.6,0.8,0.9,1
		c0.4,0.2,0.8,0.3,1.2,0.3c0.4,0,0.9-0.1,1.3-0.4c0.5-0.2,0.8-0.6,1.1-0.9c0.2-0.4,0.4-0.8,0.4-1.2
		C120.5,158.6,120.3,158.2,120.1,157.8z"/>
	<path class="st1" d="M115.8,151.3l-1.6-2.6c0.3-0.2,0.5-0.5,0.5-0.8s-0.1-0.7-0.3-1.1c-0.3-0.4-0.5-0.7-0.8-0.8
		c-0.3-0.1-0.5-0.1-0.7,0c-0.1,0.1-0.2,0.2-0.3,0.4c-0.1,0.2,0,0.5,0.1,0.8l0.6,1.9c0.3,0.9,0.4,1.7,0.3,2.4
		c-0.2,0.7-0.6,1.2-1.4,1.7c-0.6,0.4-1.3,0.5-1.9,0.5s-1.2-0.3-1.8-0.7s-1.1-1-1.5-1.7c-0.4-0.7-0.7-1.4-0.7-2.1
		c-0.1-0.7,0-1.3,0.3-1.9s0.7-1,1.3-1.4l1.6,2.6c-0.3,0.2-0.5,0.4-0.6,0.7c-0.1,0.3,0,0.6,0.2,0.9c0.2,0.3,0.4,0.5,0.7,0.6
		c0.3,0.1,0.5,0.1,0.8-0.1c0.4-0.2,0.4-0.7,0.2-1.4l-0.7-1.9c-0.3-0.8-0.4-1.6-0.2-2.2c0.1-0.6,0.6-1.1,1.3-1.6
		c0.6-0.4,1.3-0.6,2-0.5c0.7,0.1,1.3,0.3,1.9,0.7s1.2,1.1,1.6,1.8c0.7,1.2,1,2.3,0.9,3.3C117.2,149.9,116.7,150.7,115.8,151.3z"/>
	<path class="st1" d="M107.4,132l2,2.7l-12.6,9.1l-2-2.7l4.9-12.9l0.6,0.9l-9.3,6.7l-2-2.7l12.6-9.1l2,2.7l-4.9,12.8l-0.6-0.9
		L107.4,132z"/>
	<path class="st1" d="M83.4,121.1l6,7.5l-2.5,2l-6-7.5L83.4,121.1z M85,128.1l12.1-9.8l2.1,2.6l-12.1,9.8L85,128.1z M89,117.9
		l5.4,6.7l-2.4,1.9l-5.4-6.7L89,117.9z"/>
	<path class="st1" d="M82.8,120.3l-2.4,2.1l-8.1-9.1l2.4-2.1L82.8,120.3z M76.5,115.5l10.4-9.3l2.3,2.5l-10.4,9.3L76.5,115.5z"/>
	<path class="st1" d="M39.5,71.3l3.1,2.2l-1.7,2.5l-2.4-1.7c-0.7-0.5-1.3-0.7-1.8-0.6s-1,0.4-1.4,1c-0.4,0.6-0.6,1.2-0.4,1.7
		c0.1,0.5,0.5,1,1.2,1.5l2.4,1.7l-1.7,2.5l-3.1-2.2c-0.9-0.6-1.5-1.3-1.9-2.1c-0.4-0.8-0.6-1.7-0.5-2.5c0.1-0.9,0.4-1.8,1-2.6
		c0.6-0.8,1.3-1.5,2.1-1.8c0.8-0.4,1.7-0.5,2.6-0.4C37.7,70.3,38.6,70.7,39.5,71.3z M35.8,81.4l9-12.7l2.8,2l-9,12.7L35.8,81.4z"/>
	<path class="st1" d="M34.4,67.9c-0.6,0.9-1.3,1.6-2.2,2.1c-0.9,0.4-1.8,0.6-2.8,0.5c-1-0.1-2-0.4-2.9-1s-1.7-1.3-2.2-2.2
		c-0.5-0.9-0.7-1.8-0.7-2.7c0-1,0.3-1.9,0.9-2.9c0.6-0.9,1.3-1.6,2.2-2.1c0.9-0.4,1.8-0.6,2.8-0.5c1,0.1,1.9,0.4,2.9,1
		s1.7,1.3,2.2,2.2c0.5,0.9,0.7,1.8,0.7,2.7C35.3,66,35,66.9,34.4,67.9z M31.6,66.2c0.3-0.4,0.4-0.9,0.5-1.4c0-0.5-0.1-0.9-0.3-1.3
		s-0.5-0.7-0.9-1c-0.4-0.3-0.9-0.4-1.3-0.4c-0.4,0-0.8,0.1-1.2,0.3c-0.4,0.2-0.7,0.6-1,1c-0.3,0.4-0.4,0.9-0.5,1.3
		c0,0.4,0.1,0.9,0.3,1.2s0.5,0.7,0.9,1c0.4,0.3,0.9,0.4,1.3,0.4c0.4,0,0.8-0.1,1.2-0.3C31,66.9,31.3,66.6,31.6,66.2z"/>
	<path class="st1" d="M23.3,60.9c-0.5,1-1.2,1.7-2.1,2.2s-1.8,0.7-2.7,0.7s-2-0.3-2.9-0.9c-1-0.5-1.7-1.2-2.3-2.1
		c-0.5-0.8-0.8-1.7-0.8-2.7c0-1,0.2-1.9,0.8-2.9c0.5-1,1.2-1.7,2.1-2.2c0.8-0.5,1.7-0.7,2.7-0.7s2,0.3,2.9,0.9
		c1,0.5,1.7,1.2,2.3,2.1s0.8,1.7,0.8,2.7C24.1,59,23.8,60,23.3,60.9z M20.4,59.3c0.3-0.5,0.4-0.9,0.4-1.4s-0.1-0.9-0.3-1.2
		c-0.2-0.4-0.6-0.7-1-0.9c-0.4-0.2-0.9-0.4-1.3-0.4c-0.4,0-0.8,0.1-1.2,0.4c-0.4,0.2-0.7,0.6-1,1.1c-0.3,0.5-0.4,0.9-0.4,1.4
		c0,0.4,0.1,0.9,0.3,1.2c0.2,0.4,0.6,0.7,1,0.9c0.4,0.2,0.9,0.4,1.3,0.4c0.4,0,0.8-0.1,1.2-0.4C19.9,60.2,20.2,59.8,20.4,59.3z"/>
	<path class="st1" d="M15.9,45.1L9,59l-2.7-1.4l0.4-1.2c-0.5,0.3-1.1,0.5-1.7,0.4c-0.7,0-1.4-0.2-2-0.5c-0.9-0.4-1.6-1-2-1.7
		c-0.5-0.7-0.7-1.5-0.7-2.4c0-0.9,0.2-1.9,0.7-2.9c0.5-1,1.1-1.8,1.8-2.4c0.7-0.6,1.5-1,2.4-1.1c0.9-0.1,1.8,0.1,2.7,0.5
		c0.7,0.3,1.2,0.7,1.6,1.2c0.4,0.5,0.7,1,0.8,1.5l2.7-5.5L15.9,45.1z M8.5,52.8c0.2-0.5,0.3-0.9,0.3-1.4c0-0.5-0.1-0.9-0.4-1.2
		c-0.2-0.4-0.6-0.7-1.1-0.9C6.9,49.1,6.4,49,6,49c-0.4,0-0.8,0.2-1.2,0.4c-0.4,0.3-0.6,0.6-0.9,1.1c-0.2,0.5-0.3,0.9-0.3,1.4
		c0,0.4,0.1,0.8,0.4,1.2c0.2,0.4,0.6,0.7,1,0.9c0.5,0.2,0.9,0.3,1.3,0.3s0.8-0.2,1.2-0.4C7.9,53.7,8.2,53.3,8.5,52.8z"/>
	<path class="st1" d="M4.4,39.4l-1.1,2.5l-1.6-0.7C1.3,41,1,40.9,0.8,40.9c-0.3,0-0.5,0-0.7,0.2c-0.2,0.1-0.5,0.3-0.8,0.6l-8.4,8.7
		l-3.1-1.3l10-9.6c0.8-0.8,1.6-1.3,2.4-1.5c0.8-0.2,1.6-0.1,2.4,0.3c0.4,0.2,0.7,0.3,1,0.5C3.9,39,4.1,39.2,4.4,39.4z M-4.7,52.3
		l0.8-9.5L-1,40l-0.6,13.7L-4.7,52.3z"/>
	<path class="st1" d="M-12.7,37.6l3,1.1l-5.6,14.8l-3-1.2l2.3-6c-0.5,0.3-1,0.5-1.6,0.5s-1.2-0.1-1.9-0.3c-1.2-0.4-1.9-1.1-2.3-2.1
		c-0.4-1-0.3-2.1,0.2-3.4l2.3-6.1l3,1.1l-2,5.3c-0.2,0.4-0.2,0.8-0.2,1.2c0,0.4,0.1,0.7,0.3,0.9c0.2,0.3,0.5,0.5,0.8,0.6
		c0.4,0.1,0.8,0.2,1.1,0.1c0.4-0.1,0.7-0.2,1-0.4c0.3-0.2,0.5-0.6,0.6-1L-12.7,37.6z"/>
	<path class="st1" d="M-26.6,32.4c1,0.3,1.8,0.8,2.4,1.5s1,1.5,1.2,2.5s0.1,1.9-0.2,2.9c-0.3,1-0.8,1.9-1.5,2.5
		c-0.7,0.7-1.5,1.1-2.4,1.3C-28,43.4-29,43.4-30,43c-1.1-0.3-1.9-0.8-2.5-1.5c-0.6-0.7-1-1.5-1.2-2.4c-0.2-0.9-0.1-1.9,0.3-3
		l0.3-0.8l8.6,2.7l-0.7,1.9l-5.5-1.8c-0.2,0.5-0.1,1,0.1,1.4c0.3,0.4,0.7,0.7,1.3,0.9c0.5,0.2,1,0.2,1.4,0.1s0.7-0.3,1-0.7
		c0.3-0.4,0.5-0.9,0.8-1.5c0.3-0.9,0.3-1.7,0.1-2.3c-0.2-0.6-0.8-1-1.6-1.2c-0.6-0.2-1.1-0.2-1.6-0.2c-0.5,0.1-0.8,0.3-1,0.6
		l-2.8-0.9c0.5-1,1.4-1.8,2.5-2.1C-29.2,32-28,32-26.6,32.4z"/>
	<path class="st1" d="M-36.9,29.4c1.1,0.3,1.8,0.8,2.3,1.6c0.5,0.8,0.6,1.6,0.3,2.6c-0.3,0.9-0.8,1.6-1.6,2
		c-0.8,0.4-1.8,0.5-3.1,0.2l-2.9-0.5l0,0.2c-0.1,0.3-0.1,0.6,0,0.9s0.2,0.5,0.4,0.7c0.2,0.2,0.5,0.3,0.9,0.4c0.7,0.2,1.2,0.2,1.6,0
		c0.4-0.1,0.7-0.5,0.8-0.9l2.6,0.7c-0.2,0.8-0.6,1.4-1.1,1.8c-0.5,0.5-1.2,0.7-2,0.9c-0.8,0.1-1.7,0-2.6-0.2c-1-0.3-1.8-0.7-2.4-1.2
		c-0.6-0.5-1-1.2-1.1-2c-0.2-0.8-0.1-1.6,0.1-2.6l1.6-5.9l2.8,0.7l-0.2,1.4c0.3-0.4,0.8-0.7,1.5-0.8C-38.3,29.1-37.6,29.1-36.9,29.4
		z M-38.6,31.4c-0.6-0.2-1.1-0.1-1.6,0c-0.5,0.2-0.8,0.6-0.9,1.2l-0.1,0.5l1.6,0.3c0.7,0.1,1.2,0.1,1.5,0.1s0.5-0.3,0.6-0.6
		c0.1-0.4,0.1-0.7-0.1-0.9C-37.8,31.7-38.1,31.5-38.6,31.4z"/>
	<path class="st1" d="M-50,26.1c1,0.2,1.8,0.6,2.4,1.2c0.6,0.6,1.1,1.3,1.3,2.2s0.2,1.9,0,3c-0.2,1.1-0.7,2-1.2,2.7
		c-0.6,0.7-1.3,1.3-2.2,1.6c-0.9,0.3-1.8,0.3-2.9,0.1c-0.6-0.1-1.2-0.4-1.7-0.7c-0.5-0.4-0.9-0.8-1.1-1.2l-1.3,6.2l-3.2-0.7
		l3.4-15.5l3,0.6l-0.1,1.3c0.4-0.4,0.9-0.7,1.6-0.9S-50.7,25.9-50,26.1z M-51.4,28.8c-0.5-0.1-0.9-0.1-1.4,0
		c-0.4,0.1-0.8,0.4-1.1,0.7c-0.3,0.3-0.5,0.8-0.6,1.3c-0.1,0.5-0.1,1,0,1.4c0.1,0.4,0.4,0.8,0.7,1.1c0.3,0.3,0.7,0.5,1.2,0.6
		c0.5,0.1,0.9,0.1,1.4,0s0.8-0.4,1-0.7c0.3-0.3,0.5-0.8,0.6-1.3c0.1-0.5,0.1-1,0-1.4c-0.1-0.4-0.3-0.8-0.7-1.1
		C-50.5,29.1-50.9,28.9-51.4,28.8z"/>
	<path class="st1" d="M-59.1,27.8l-3-0.5c0-0.4-0.1-0.7-0.3-0.9c-0.2-0.3-0.6-0.4-1.1-0.5c-0.5-0.1-0.9-0.1-1.1,0.1
		c-0.3,0.1-0.4,0.3-0.5,0.6c0,0.2,0,0.3,0.1,0.5c0.1,0.2,0.3,0.3,0.7,0.5l1.8,0.7c0.9,0.4,1.6,0.8,2,1.4c0.4,0.5,0.5,1.3,0.4,2.2
		c-0.1,0.7-0.4,1.3-0.9,1.7s-1,0.7-1.7,0.9c-0.7,0.2-1.5,0.2-2.3,0c-0.8-0.1-1.5-0.4-2-0.8c-0.6-0.4-1-0.9-1.2-1.5
		c-0.3-0.6-0.3-1.2-0.2-1.9l3,0.5c-0.1,0.4,0,0.7,0.2,0.9s0.4,0.4,0.8,0.5c0.4,0.1,0.7,0,0.9-0.1c0.2-0.1,0.4-0.3,0.4-0.6
		c0.1-0.4-0.2-0.8-1-1.1l-1.9-0.7c-0.8-0.3-1.4-0.7-1.8-1.3s-0.5-1.2-0.4-2c0.1-0.7,0.4-1.3,0.9-1.8c0.5-0.5,1.1-0.8,1.8-1
		c0.7-0.2,1.6-0.2,2.5,0c1.4,0.2,2.4,0.7,3.1,1.5C-59.2,25.9-59,26.8-59.1,27.8z"/>
</g>
<path class="st3" d="M217.9,218.7l-3-10.6c-1.9-6.6-6.1-11.1-13.7-13.7l-10.6-3l10.4-4c5.9-2.3,10.5-6.9,12.8-12.8l4-10.4l2.4,7.4
	c2.7,8.3,9.2,14.8,17.5,17.5l7.4,2.4l-11.4,4c-5.8,2-10.3,6.6-12.2,12.4L217.9,218.7z"/>
<path class="st4" d="M250.4,354.7l-2-7.1c-1.2-4.4-4.1-7.4-9.1-9.1l-7.1-2l7-2.7c3.9-1.5,7-4.6,8.6-8.6l2.7-7l1.6,4.9
	c1.8,5.5,6.2,9.9,11.7,11.7l4.9,1.6l-7.6,2.7c-3.9,1.3-6.9,4.4-8.2,8.3L250.4,354.7z"/>
<path class="st4" d="M245.2,109.9l-2-7.1c-1.2-4.4-4.1-7.4-9.1-9.1l-7.1-2l7-2.7c3.9-1.5,7-4.6,8.6-8.6l2.7-7l1.6,4.9
	c1.8,5.5,6.2,9.9,11.7,11.7l4.9,1.6l-7.6,2.7c-3.9,1.3-6.9,4.4-8.2,8.3L245.2,109.9z"/>
</svg>
