<?xml version="1.0" encoding="utf-8"?>
<!-- Generator: Adobe Illustrator 26.0.0, SVG Export Plug-In . SVG Version: 6.00 Build 0)  -->
<svg version="1.1" id="Layer_1" xmlns="http://www.w3.org/2000/svg" xmlns:xlink="http://www.w3.org/1999/xlink" x="0px" y="0px"
	 viewBox="0 0 550 661" style="enable-background:new 0 0 550 661;" xml:space="preserve">
<style type="text/css">
	.st0{opacity:0.5;}
	.st1{opacity:0.5;fill:none;stroke:url(#SVGID_1_);enable-background:new    ;}
	.st2{opacity:0.9;fill:none;stroke:url(#SVGID_00000084528844703788991140000010133956345074193315_);enable-background:new    ;}
</style>
<g class="st0">
	
		<linearGradient id="SVGID_1_" gradientUnits="userSpaceOnUse" x1="168.1806" y1="617.191" x2="518.8961" y2="64.0348" gradientTransform="matrix(1 0 0 -1 0 662)">
		<stop  offset="0" style="stop-color:#FFFFFF"/>
		<stop  offset="1" style="stop-color:#FFFFFF;stop-opacity:0"/>
	</linearGradient>
	<path class="st1" d="M453.1,251.9c64.3,66.2,110.2,134,132.5,190c11.1,28,16.3,53,15,73.4c-1.4,20.4-9.3,36.2-24.3,45.7
		c-15,9.5-35.8,12-60.7,8.2c-24.9-3.8-53.7-13.8-84.7-29.2c-62-30.8-132.5-82.9-196.8-149.2c-64.3-66.2-110.2-134-132.5-190
		c-11.1-28-16.3-53-15-73.4c1.4-20.4,9.3-36.2,24.3-45.7c15-9.5,35.8-12,60.7-8.2c24.9,3.8,53.7,13.8,84.7,29.2
		C318.3,133.5,388.8,185.7,453.1,251.9z"/>
	
		<linearGradient id="SVGID_00000150790709651084531890000007808423194532074408_" gradientUnits="userSpaceOnUse" x1="219.9955" y1="616.413" x2="520.0815" y2="46.242" gradientTransform="matrix(1 0 0 -1 0 662)">
		<stop  offset="0" style="stop-color:#FFFFFF"/>
		<stop  offset="1" style="stop-color:#FFFFFF;stop-opacity:0"/>
	</linearGradient>
	
		<path style="opacity:0.9;fill:none;stroke:url(#SVGID_00000150790709651084531890000007808423194532074408_);enable-background:new    ;" d="
		M511.5,256.2c56.9,70.5,92.4,142.7,104,202.4c11.6,59.7-0.9,106.8-39.8,127.3c-38.9,20.5-97.2,10.7-160.1-22
		c-62.9-32.7-130.2-88.2-187.1-158.7c-56.9-70.5-92.4-142.7-104-202.4c-11.6-59.7,0.9-106.8,39.8-127.3
		c38.9-20.5,97.2-10.7,160.1,22C387.3,130.2,454.7,185.7,511.5,256.2z"/>
</g>
</svg>
