<svg width="375" height="575" viewBox="0 0 375 575" fill="none" xmlns="http://www.w3.org/2000/svg">
<g filter="url(#filter0_f_675_3832)">
<circle cx="489.5" cy="546.5" r="246.5" fill="#C9B494"/>
</g>
<mask id="path-2-inside-1_675_3832" fill="white">
<path fill-rule="evenodd" clip-rule="evenodd" d="M284.72 493C284.207 504.531 293.131 514.301 304.665 514.828C304.665 514.828 304.665 514.828 304.665 514.828C293.123 514.301 283.339 523.231 282.812 534.772L282.811 534.797L282.811 534.797L282.812 534.772C283.336 523.296 274.511 513.558 263.063 512.93C274.512 513.347 284.183 504.466 284.719 493L284.719 493C284.72 493 284.72 493 284.72 493Z"/>
</mask>
<path d="M284.72 493L285.719 493.045L285.763 492.047L284.765 492.001L284.72 493ZM304.665 514.828H305.665L305.665 513.873L304.71 513.829L304.665 514.828ZM304.665 514.828L304.619 515.827L305.665 515.875L305.665 514.828H304.665ZM282.812 534.772L281.814 534.727L281.813 534.727L282.812 534.772ZM282.811 534.797L282.77 535.796L283.766 535.837L283.81 534.842L282.811 534.797ZM282.811 534.797L281.812 534.75L281.766 535.754L282.77 535.796L282.811 534.797ZM282.812 534.772L283.811 534.819L283.811 534.818L282.812 534.772ZM263.063 512.93L263.1 511.93L263.009 513.928L263.063 512.93ZM284.719 493L284.764 492.001L283.766 491.955L283.72 492.953L284.719 493ZM284.719 493L284.765 492.001L284.765 492.001L284.719 493ZM283.721 492.956C283.183 505.038 292.534 515.275 304.619 515.827L304.71 513.829C293.728 513.327 285.23 504.024 285.719 493.045L283.721 492.956ZM305.665 514.828C305.665 514.851 305.664 514.869 305.663 514.879C305.663 514.885 305.663 514.889 305.663 514.892C305.663 514.894 305.662 514.896 305.662 514.896L305.662 514.896C305.662 514.896 305.662 514.896 305.662 514.896C305.662 514.896 305.662 514.896 305.662 514.896C305.662 514.896 305.662 514.896 305.662 514.896C305.662 514.896 305.662 514.896 305.662 514.895C305.662 514.895 305.662 514.895 305.663 514.895C305.663 514.894 305.663 514.893 305.663 514.892C305.663 514.889 305.663 514.884 305.663 514.879C305.664 514.868 305.665 514.85 305.665 514.828H303.665C303.665 514.806 303.665 514.788 303.666 514.777C303.666 514.772 303.667 514.767 303.667 514.765C303.667 514.762 303.667 514.76 303.667 514.76C303.667 514.76 303.667 514.76 303.667 514.76C303.667 514.76 303.667 514.76 303.667 514.76C303.667 514.76 303.667 514.76 303.667 514.76C303.667 514.761 303.667 514.761 303.667 514.761C303.667 514.761 303.667 514.761 303.667 514.761C303.667 514.762 303.667 514.763 303.667 514.765C303.667 514.767 303.666 514.772 303.666 514.777C303.665 514.788 303.665 514.806 303.665 514.828H305.665ZM283.811 534.818C284.313 523.828 293.629 515.325 304.619 515.827L304.71 513.829C292.617 513.277 282.366 522.633 281.814 534.727L283.811 534.818ZM283.81 534.842L283.811 534.817L281.813 534.727L281.812 534.752L283.81 534.842ZM282.77 535.796L282.77 535.796L282.853 533.797L282.853 533.797L282.77 535.796ZM281.813 534.726L281.812 534.75L283.81 534.843L283.811 534.819L281.813 534.726ZM263.009 513.928C273.908 514.526 282.312 523.799 281.813 534.727L283.811 534.818C284.36 522.793 275.113 512.589 263.118 511.931L263.009 513.928ZM283.72 492.953C283.21 503.871 274.001 512.328 263.1 511.93L263.027 513.929C275.023 514.366 285.156 505.06 285.718 493.047L283.72 492.953ZM284.765 492.001L284.764 492.001L284.673 493.999L284.674 493.999L284.765 492.001ZM284.765 492.001C284.765 492.001 284.765 492.001 284.765 492.001L284.674 493.999C284.674 493.999 284.674 493.999 284.674 493.999L284.765 492.001Z" fill="white" mask="url(#path-2-inside-1_675_3832)"/>
<path fill-rule="evenodd" clip-rule="evenodd" d="M317.933 530.293C317.727 534.906 321.297 538.815 325.911 539.025C325.911 539.025 325.911 539.025 325.911 539.025C321.294 538.815 317.381 542.386 317.17 547.003L317.169 547.012L317.169 547.012L317.17 547.003C317.38 542.386 313.809 538.473 309.192 538.262L309.192 538.262L309.192 538.262C313.806 538.472 317.717 534.905 317.932 530.293L317.932 530.293C317.932 530.293 317.933 530.293 317.933 530.293Z" fill="white"/>
<g opacity="0.5">
<path opacity="0.5" d="M505.929 379.463C561.772 436.977 601.628 495.804 620.935 544.408C630.59 568.711 635.097 590.435 633.915 608.15C632.733 625.865 625.868 639.523 612.839 647.784C599.811 656.044 581.76 658.183 560.187 654.896C538.612 651.609 513.573 642.903 486.658 629.543C432.832 602.825 371.607 557.547 315.764 500.033C259.921 442.519 220.064 383.693 200.757 335.089C191.103 310.785 186.596 289.061 187.778 271.346C188.96 253.631 195.825 239.973 208.853 231.712C221.882 223.452 239.932 221.314 261.506 224.601C283.08 227.888 308.119 236.594 335.034 249.954C388.861 276.671 450.086 321.95 505.929 379.463Z" stroke="url(#paint0_linear_675_3832)"/>
<path opacity="0.9" d="M556.656 383.189C606.02 444.435 636.91 507.118 646.966 558.94C657.029 610.794 646.21 651.613 612.442 669.386C578.674 687.158 528.1 678.651 473.476 650.249C418.887 621.866 360.428 573.692 311.064 512.447C261.7 451.201 230.81 388.518 220.754 336.696C210.691 284.842 221.51 244.023 255.278 226.25C289.046 208.478 339.62 216.985 394.244 245.387C448.833 273.77 507.292 321.944 556.656 383.189Z" stroke="url(#paint1_linear_675_3832)"/>
</g>
<defs>
<filter id="filter0_f_675_3832" x="-57" y="0" width="1093" height="1093" filterUnits="userSpaceOnUse" color-interpolation-filters="sRGB">
<feFlood flood-opacity="0" result="BackgroundImageFix"/>
<feBlend mode="normal" in="SourceGraphic" in2="BackgroundImageFix" result="shape"/>
<feGaussianBlur stdDeviation="150" result="effect1_foregroundBlur_675_3832"/>
</filter>
<linearGradient id="paint0_linear_675_3832" x1="208.505" y1="231.354" x2="513.024" y2="711.649" gradientUnits="userSpaceOnUse">
<stop stop-color="white"/>
<stop offset="1" stop-color="white" stop-opacity="0"/>
</linearGradient>
<linearGradient id="paint1_linear_675_3832" x1="254.964" y1="225.861" x2="515.531" y2="720.945" gradientUnits="userSpaceOnUse">
<stop stop-color="white"/>
<stop offset="1" stop-color="white" stop-opacity="0"/>
</linearGradient>
</defs>
</svg>
