<svg width="1226" height="327" viewBox="0 0 1226 327" fill="none" xmlns="http://www.w3.org/2000/svg">
<g opacity="0.4">
<mask id="path-1-inside-1_779_3833" fill="white">
<path fill-rule="evenodd" clip-rule="evenodd" d="M1206.65 112.139C1206.65 112.139 1206.65 112.138 1206.65 112.138C1206.73 102.021 1198.6 93.7473 1188.48 93.6538C1188.48 93.6538 1188.48 93.6537 1188.48 93.6536V93.6536C1188.48 93.6535 1188.48 93.6534 1188.48 93.6534C1198.61 93.7461 1206.89 85.6125 1206.98 75.4863L1206.98 75.4676C1206.98 75.4675 1206.98 75.4674 1206.98 75.4674V75.4674C1206.98 75.4674 1206.98 75.4675 1206.98 75.4676L1206.98 75.488C1206.89 85.5585 1214.93 93.8075 1224.98 93.99C1214.94 93.9877 1206.75 102.077 1206.65 112.139C1206.65 112.139 1206.65 112.139 1206.65 112.139V112.139V112.139Z"/>
</mask>
<path d="M1206.98 75.4863L1207.98 75.4954L1207.98 75.4948L1206.98 75.4863ZM1206.98 75.488L1205.98 75.4782L1205.98 75.4788L1206.98 75.488ZM1224.98 93.99L1224.98 94.99L1225 92.9901L1224.98 93.99ZM1206.65 112.139L1207.65 112.149L1206.65 112.139ZM1206.98 75.4676L1205.98 75.459L1206.98 75.4676ZM1188.48 93.6534L1188.49 92.6535L1188.48 93.6534ZM1188.48 93.6538L1188.49 92.6539L1188.48 93.6538ZM1206.98 75.4676L1205.98 75.4578L1206.98 75.4676ZM1206.65 112.138L1205.65 112.13L1206.65 112.138ZM1207.65 112.146C1207.73 101.477 1199.16 92.7524 1188.49 92.6539L1188.47 94.6538C1198.04 94.7422 1205.72 102.565 1205.65 112.13L1207.65 112.146ZM1205.98 75.4771C1205.89 85.0511 1198.06 92.7411 1188.49 92.6535L1188.47 94.6534C1199.15 94.7511 1207.88 86.174 1207.98 75.4954L1205.98 75.4771ZM1205.98 75.459L1205.98 75.4777L1207.98 75.4948L1207.98 75.4762L1205.98 75.459ZM1207.98 75.4977L1207.98 75.4774L1205.98 75.4578L1205.98 75.4782L1207.98 75.4977ZM1225 92.9901C1215.5 92.8177 1207.9 85.0185 1207.98 75.4971L1205.98 75.4788C1205.89 86.0986 1214.37 94.7974 1224.96 94.9898L1225 92.9901ZM1207.65 112.149C1207.74 102.636 1215.49 94.9879 1224.98 94.99L1224.98 92.99C1214.39 92.9876 1205.75 101.518 1205.65 112.128L1207.65 112.149ZM1205.65 112.128C1205.65 111.584 1206.1 111.134 1206.66 111.139L1206.64 113.139C1207.2 113.144 1207.64 112.693 1207.65 112.149L1205.65 112.128ZM1207.98 75.4762C1207.98 76.03 1207.52 76.4745 1206.97 76.4673L1207 74.4675C1206.44 74.4603 1205.99 74.905 1205.98 75.459L1207.98 75.4762ZM1189.48 93.658C1189.48 94.2341 1189 94.6582 1188.47 94.6534L1188.49 92.6535C1187.96 92.6486 1187.48 93.0729 1187.48 93.6493L1189.48 93.658ZM1188.49 92.6539C1189.03 92.6589 1189.48 93.0977 1189.48 93.658L1187.48 93.6493C1187.48 94.2098 1187.93 94.6488 1188.47 94.6538L1188.49 92.6539ZM1206.97 76.4673C1206.42 76.4602 1205.98 76.0088 1205.98 75.4578L1207.98 75.4774C1207.99 74.9262 1207.55 74.4746 1207 74.4675L1206.97 76.4673ZM1205.65 112.13C1205.64 112.675 1206.08 113.134 1206.64 113.139L1206.66 111.139C1207.21 111.144 1207.65 111.602 1207.65 112.146L1205.65 112.13Z" fill="white" mask="url(#path-1-inside-1_779_3833)"/>
</g>
<g opacity="0.6">
<mask id="path-3-inside-2_779_3833" fill="white">
<path fill-rule="evenodd" clip-rule="evenodd" d="M1001.5 268.196C1001.5 268.196 1001.5 268.196 1001.5 268.195C1001.83 227.549 969.248 194.293 928.629 193.772C969.277 193.999 1002.48 161.305 1002.86 120.624L1002.86 120.547C1002.86 120.546 1002.86 120.546 1002.86 120.546C1002.86 120.546 1002.86 120.546 1002.86 120.547L1002.86 120.628C1002.49 161.246 1034.99 194.504 1075.54 195.126C1035.01 195.002 1001.92 227.614 1001.5 268.195C1001.5 268.196 1001.5 268.196 1001.5 268.196Z"/>
</mask>
<path d="M928.629 193.772L928.634 192.772L928.616 194.772L928.629 193.772ZM1002.86 120.624L1003.86 120.633L1003.86 120.633L1002.86 120.624ZM1002.86 120.628L1001.86 120.618L1001.86 120.619L1002.86 120.628ZM1075.54 195.126L1075.54 196.126L1075.56 194.126L1075.54 195.126ZM1001.5 268.195L1000.5 268.185L1001.5 268.195ZM1002.86 120.547L1003.86 120.557L1002.86 120.547ZM1002.86 120.547L1001.86 120.538L1002.86 120.547ZM1001.5 268.195L1000.5 268.187L1001.5 268.195ZM1002.5 268.203C1002.84 227.007 969.811 193.3 928.641 192.773L928.616 194.772C968.685 195.286 1000.83 228.092 1000.5 268.187L1002.5 268.203ZM1001.86 120.615C1001.49 160.745 968.732 192.996 928.634 192.772L928.623 194.772C969.822 195.002 1003.48 161.865 1003.86 120.633L1001.86 120.615ZM1001.86 120.538L1001.86 120.615L1003.86 120.633L1003.86 120.555L1001.86 120.538ZM1003.86 120.638L1003.86 120.557L1001.86 120.537L1001.86 120.618L1003.86 120.638ZM1075.56 194.126C1035.55 193.513 1003.49 160.705 1003.86 120.637L1001.86 120.619C1001.48 161.787 1034.42 195.496 1075.53 196.126L1075.56 194.126ZM1002.5 268.206C1002.91 228.174 1035.56 196.004 1075.54 196.126L1075.55 194.126C1034.46 194.001 1000.93 227.055 1000.5 268.185L1002.5 268.206ZM1000.5 268.185C1000.51 267.641 1000.95 267.191 1001.51 267.196L1001.49 269.196C1002.05 269.201 1002.5 268.75 1002.5 268.206L1000.5 268.185ZM1002.86 121.546C1002.3 121.544 1001.86 121.091 1001.86 120.537L1003.86 120.557C1003.87 120.002 1003.42 119.549 1002.86 119.546L1002.86 121.546ZM1003.86 120.555C1003.85 121.106 1003.41 121.549 1002.86 121.546L1002.86 119.546C1002.31 119.544 1001.86 119.987 1001.86 120.538L1003.86 120.555ZM1000.5 268.187C1000.5 268.732 1000.93 269.191 1001.49 269.196L1001.51 267.196C1002.07 267.201 1002.51 267.659 1002.5 268.203L1000.5 268.187Z" fill="white" mask="url(#path-3-inside-2_779_3833)"/>
</g>
<path fill-rule="evenodd" clip-rule="evenodd" d="M123.067 160.132C123.067 160.132 123.066 160.131 123.066 160.131C123.243 138.346 105.739 120.531 83.9501 120.33C83.9495 120.33 83.9491 120.33 83.9491 120.329V120.329C83.9491 120.328 83.9496 120.328 83.9501 120.328C105.754 120.527 123.591 103.014 123.792 81.21L123.792 81.1706C123.792 81.1703 123.792 81.17 123.793 81.17V81.17C123.793 81.17 123.793 81.1703 123.793 81.1706L123.793 81.2126C123.593 102.926 140.959 120.706 162.636 121.053C140.97 121.002 123.289 138.438 123.068 160.131C123.068 160.132 123.068 160.132 123.067 160.132V160.132V160.132Z" fill="white"/>
<g opacity="0.5" clip-path="url(#clip0_779_3833)">
<path opacity="0.5" d="M182.622 129.415C217.22 165.048 242.482 201.125 255.367 230.637C261.811 245.395 265.148 258.487 265.028 269.049C264.908 279.614 261.333 287.583 254.043 292.204C246.754 296.826 236.326 297.736 223.598 295.317C210.874 292.898 195.933 287.164 179.727 278.596C147.32 261.461 109.967 233.049 75.3689 197.416C40.7706 161.783 15.508 125.706 2.62306 96.1936C-3.8203 81.4356 -7.15767 68.3436 -7.03761 57.7816C-6.91752 47.2165 -3.34204 39.2482 3.94722 34.6266C11.2365 30.005 21.6648 29.0946 34.3922 31.514C47.116 33.9327 62.058 39.667 78.2636 48.2355C110.67 65.3701 148.023 93.7817 182.622 129.415Z" stroke="url(#paint0_linear_779_3833)"/>
<path opacity="0.9" d="M112.659 122.002C161.772 133.555 202.848 151.444 229.56 171.01C242.918 180.795 252.663 190.983 258.036 200.99C263.409 210.995 264.391 220.779 260.313 229.793C256.234 238.807 247.438 246.29 234.915 252.086C222.391 257.883 206.186 261.967 187.396 264.19C149.819 268.634 102.013 265.615 52.9002 254.063C3.78732 242.51 -37.289 224.621 -64.0013 205.054C-77.3586 195.27 -87.1042 185.081 -92.4773 175.075C-97.8498 165.069 -98.8324 155.286 -94.7536 146.272C-90.6748 137.258 -81.8787 129.775 -69.3559 123.979C-56.8317 118.182 -40.6271 114.098 -21.8369 111.875C15.7404 107.431 63.546 110.45 112.659 122.002Z" stroke="url(#paint1_linear_779_3833)"/>
</g>
<defs>
<linearGradient id="paint0_linear_779_3833" x1="3.59892" y1="34.2679" x2="192.318" y2="331.919" gradientUnits="userSpaceOnUse">
<stop stop-color="white"/>
<stop offset="1" stop-color="white" stop-opacity="0"/>
</linearGradient>
<linearGradient id="paint1_linear_779_3833" x1="-95.2403" y1="146.158" x2="231.742" y2="294.12" gradientUnits="userSpaceOnUse">
<stop stop-color="white"/>
<stop offset="1" stop-color="white" stop-opacity="0"/>
</linearGradient>
<clipPath id="clip0_779_3833">
<rect width="308" height="327" fill="white"/>
</clipPath>
</defs>
</svg>
