<svg width="306" height="407" viewBox="0 0 306 407" fill="none" xmlns="http://www.w3.org/2000/svg">
<g opacity="0.5" clip-path="url(#clip0_75_7051)">
<path opacity="0.5" d="M347.279 160.759C390.353 205.122 421.808 250.041 437.853 286.791C445.877 305.168 450.036 321.479 449.887 334.644C449.737 347.812 445.28 357.768 436.164 363.548C427.048 369.328 414.021 370.457 398.158 367.442C382.298 364.427 363.683 357.281 343.503 346.612C303.148 325.274 256.641 289.899 213.566 245.536C170.492 201.173 139.037 156.254 122.992 119.504C114.968 101.126 110.809 84.8159 110.958 71.6506C111.108 58.4824 115.565 48.5262 124.681 42.7464C133.796 36.9667 146.824 35.8375 162.687 38.853C178.547 41.8679 197.162 49.0132 217.342 59.683C257.697 81.0204 304.204 116.396 347.279 160.759Z" stroke="url(#paint0_linear_75_7051)"/>
<path opacity="0.9" d="M313.368 160.726C370.337 187.187 415.916 219.35 443.561 249.945C457.385 265.244 466.708 280.131 470.742 293.701C474.776 307.269 473.512 319.477 466.243 329.474C458.973 339.47 446.327 346.391 429.579 350.306C412.829 354.223 392.029 355.119 368.554 353.093C321.607 349.041 264.076 333.313 207.107 306.852C150.138 280.391 104.558 248.227 76.9133 217.633C63.0898 202.334 53.7672 187.447 49.733 173.877C45.6992 160.309 46.9629 148.101 54.2321 138.104C61.5013 128.108 74.1478 121.187 90.8958 117.271C107.645 113.355 128.446 112.459 151.921 114.485C198.868 118.536 256.399 134.265 313.368 160.726Z" stroke="url(#paint1_linear_75_7051)"/>
</g>
<defs>
<linearGradient id="paint0_linear_75_7051" x1="124.332" y1="42.3877" x2="359.245" y2="412.897" gradientUnits="userSpaceOnUse">
<stop stop-color="white"/>
<stop offset="1" stop-color="white" stop-opacity="0"/>
</linearGradient>
<linearGradient id="paint1_linear_75_7051" x1="53.7787" y1="137.894" x2="415.098" y2="400.64" gradientUnits="userSpaceOnUse">
<stop stop-color="white"/>
<stop offset="1" stop-color="white" stop-opacity="0"/>
</linearGradient>
<clipPath id="clip0_75_7051">
<rect width="306" height="407" fill="white"/>
</clipPath>
</defs>
</svg>
