<?xml version="1.0" encoding="utf-8"?>
<!-- Generator: Adobe Illustrator 26.0.0, SVG Export Plug-In . SVG Version: 6.00 Build 0)  -->
<svg version="1.1" id="Layer_1" xmlns="http://www.w3.org/2000/svg" xmlns:xlink="http://www.w3.org/1999/xlink" x="0px" y="0px"
	 viewBox="0 0 512 512" style="enable-background:new 0 0 512 512;" xml:space="preserve">
<style type="text/css">
	.st0{fill:#AF7B27;stroke:#000000;stroke-width:12;stroke-miterlimit:10;}
</style>
<path class="st0" d="M495.7,432.7c-2,10.5-7.4,18.7-15.9,25c-9.2,6.9-19.6,10.9-30.5,14c-14.7,4.2-29.8,6.4-45,7.8
	c-23.6,2.2-47.3,2.8-71,2.4c-15.9-0.3-31.7-1.6-47.6-2.7c-15-1.1-30-2.2-45-3.2c-15.1-1-30.2-2-45.3-2.1
	c-14.7-0.1-29.3,1.1-43.9,2.7c-23.2,2.6-46.3,5.7-69.7,5.3c-10.9-0.2-21.5-2.2-31.7-6.5c-20.1-8.6-32.5-23.8-37.7-44.9
	c-3.2-12.9-4-25.9-1.1-39c3.5-15.7,12.7-27.6,25.2-37.2c9.6-7.3,20.2-12.5,31.8-15.9c1.8-0.5,2.3-1.1,1.6-3
	c-3.1-9-5.4-18.2-5.7-27.8c-0.7-20.7,6.6-38.1,21.6-52.3c9.9-9.4,21.5-16.2,34.2-20.9c1.8-0.7,1.9-1.4,1.5-3
	c-3.1-12.1-4.8-24.5-3.7-37c2.1-23.8,13.5-41.7,33.8-54c9.5-5.8,19.7-9.5,30.6-11.8c0.3-0.1,0.5-0.1,1-0.2
	c-1.8-4.1-3.6-8.1-5.1-12.2c-4.9-13.8-3.4-26.6,5.7-38.3c2-2.6,3.8-5.3,6-7.7c10.6-11.6,11.4-24.7,6.4-38.9
	c-1.1-3.2-2.6-6.3-4.3-9.2c-0.8-1.4-0.9-2.7,0-4c0.9-1.3,2.3-1.7,3.8-1.4c34.8,6.5,67.6,17.6,94.8,41.4
	c23.4,20.4,37.1,46.1,41.3,76.9c0.7,4.9,1,9.9,1.1,14.9c0.1,3,2.6,5.7,5.6,5.7c7.6,0.2,14.9,1.5,21.8,4.9
	c11.7,5.7,18.9,15.3,23.3,27.2c3.2,8.6,4.7,17.7,5.1,26.8c0.3,6,0.4,12.1-0.4,18.1c-0.2,1.7,0.5,2.1,1.9,2.6
	c11,3.7,21.4,8.7,30.4,16.1c17.5,14.4,24.2,33.2,22.4,55.3c-0.9,11.2-4,21.8-8.7,32c-0.6,1.3-0.9,2,1.2,2.1
	c8.5,0.1,16.3,2.9,23.4,7.5c17.6,11.3,28.3,27.6,34.5,47.2C497.3,407.6,498.1,420,495.7,432.7z"/>
</svg>
