<?xml version="1.0" encoding="utf-8"?>
<!-- Generator: Adobe Illustrator 26.0.0, SVG Export Plug-In . SVG Version: 6.00 Build 0)  -->
<svg version="1.1" id="Layer_1" xmlns="http://www.w3.org/2000/svg" xmlns:xlink="http://www.w3.org/1999/xlink" x="0px" y="0px"
	 viewBox="0 0 471.58 389.07" style="enable-background:new 0 0 471.58 389.07;" xml:space="preserve">
<style type="text/css">
	.st0{fill:#0B0C0B;}
	.st1{fill:#F7AEA6;}
	.st2{fill:#EAC3DC;}
	.st3{fill:#AE8ABF;}
	.st4{fill:#628B3C;}
	.st5{fill:#F48277;}
	.st6{fill:#E9BE56;}
	.st7{fill:#FEFEFC;}
	.st8{fill:#252122;}
	.st9{fill:#080B0B;}
	.st10{fill:#B97E5B;}
	.st11{fill:#FEFEFE;}
	.st12{fill:#78C9F1;}
	.st13{fill:#262223;}
</style>
<g>
	<path class="st0" d="M363.77,319.96c-1.19-0.2-2.39-0.18-3.59-0.22c-0.2-0.04-0.39-0.1-0.59-0.11c-3.3-0.22-6.61-0.44-9.91-0.66
		c-0.08-0.01-0.16,0.03-0.24,0.04c-0.11-0.04-0.22-0.09-0.34-0.1c-2.03-0.15-4.05-0.29-6.08-0.42c-0.07,0-0.15,0.05-0.22,0.08
		c-0.15-0.05-0.29-0.14-0.44-0.15c-2.37-0.17-4.73-0.34-7.1-0.49c-0.44-0.03-0.88-0.01-1.32-0.01c-0.12-0.03-0.23-0.07-0.35-0.08
		c-3.93-0.24-7.86-0.47-11.8-0.7c-0.08,0-0.16,0.02-0.24,0.04c-1.34-0.27-2.7-0.21-4.06-0.28c-0.28-0.21-0.61-0.17-0.93-0.18
		c-1.57-0.03-3.14-0.09-4.7-0.09c-3.42,0-6.84,0.03-10.25,0.07c-0.47,0.01-0.97-0.08-1.41,0.2l0,0.05c-0.44,0-0.89-0.03-1.33,0.01
		c-2.97,0.25-5.95,0.5-8.92,0.79c-2.65,0.26-5.29,0.57-7.94,0.87c-2.45,0.27-4.89,0.57-7.34,0.82c-2.41,0.24-4.82,0.46-7.23,0.62
		c-2.13,0.15-4.27,0.21-6.41,0.32c-0.44,0.02-0.88,0.09-1.32,0.14c-0.2-0.02-0.4-0.05-0.6-0.04c-3.07,0.12-6.13-0.01-9.18-0.39
		c-0.76-0.1-1.52-0.19-2.28-0.29c-0.27-0.2-0.59-0.19-0.9-0.19c-0.26-0.18-0.55-0.25-0.86-0.21c-1.12-0.34-2.25-0.64-3.36-1.02
		c-3.7-1.25-7.14-3.01-10.2-5.46c-4.58-3.66-7.66-8.36-9.5-13.9c-0.48-1.45-0.85-2.94-1.27-4.42c-0.18-1.15-0.37-2.31-0.52-3.46
		c-0.53-3.94-0.58-7.89,0.03-11.83c0.05-0.32,0.06-0.64,0.1-0.96c0.22-0.27,0.18-0.61,0.26-0.92c1.17-4.93,3.49-9.24,6.91-12.97
		c2.6-2.84,5.6-5.21,8.89-7.21c0.34-0.21,0.67-0.44,1-0.66c1.6-0.79,3.19-1.58,4.79-2.36c0.14-0.06,0.28-0.12,0.42-0.19
		c0.14,0.02,0.25-0.04,0.33-0.16c1.18-0.43,2.37-0.85,3.55-1.28c0.26,0.03,0.47-0.08,0.67-0.22c0.5-0.11,1.15-0.09,1.42-0.52
		c0.28-0.45-0.16-0.97-0.31-1.46c-0.72-2.33-1.45-4.66-1.88-7.07c-0.04-0.23-0.12-0.46-0.18-0.69c-0.12-0.89-0.24-1.77-0.36-2.66
		c0.02-0.03,0.06-0.06,0.05-0.08c-0.02-0.06-0.06-0.11-0.09-0.17c-0.02-1.4-0.03-2.81-0.06-4.21c-0.03-1.65,0.25-3.27,0.41-4.91
		c0.52-2.48,1.16-4.92,2.23-7.23c0.05-0.1,0.05-0.23,0.07-0.35c0.51-0.96,1.01-1.92,1.52-2.89c0.66-0.97,1.31-1.95,1.97-2.92
		c0.2-0.25,0.4-0.5,0.6-0.74c0.14-0.03,0.21-0.11,0.22-0.26c0,0,0.01-0.01,0.01-0.01c0.13-0.03,0.2-0.11,0.2-0.24
		c0.71-0.79,1.41-1.58,2.12-2.37c0.15-0.13,0.32-0.24,0.46-0.38c3.17-3.1,6.74-5.64,10.67-7.67c0.32-0.17,0.63-0.35,0.95-0.52
		c-0.06-0.4-0.4-0.5-0.64-0.67c-2.91-2.12-5.58-4.51-8.05-7.14c-2.28-2.43-3.87-5.24-4.95-8.37c-0.5-1.45-0.91-2.92-1.24-4.42
		c-0.07-0.31-0.18-0.62-0.27-0.93c-0.17-1.19-0.33-2.39-0.5-3.58c-0.31-2.24-0.46-4.48-0.46-6.74c0-0.76-0.03-1.53-0.04-2.29
		c0.1-1.35,0.19-2.7,0.3-4.04c0.08-0.99,0.19-1.98,0.28-2.97c0.02-0.02,0.07-0.04,0.07-0.06c0-0.06-0.02-0.12-0.03-0.17
		c0.22-0.62,0.25-1.28,0.35-1.93c0.37-1.47,0.7-2.96,1.11-4.42c0.73-2.55,1.77-4.97,3.1-7.27c0.13-0.04,0.2-0.12,0.18-0.26
		c0,0,0.03-0.05,0.03-0.05c0.11-0.02,0.15-0.09,0.13-0.2c0.05-0.07,0.09-0.15,0.14-0.22c0.13-0.03,0.21-0.11,0.19-0.26
		c0,0,0.02-0.04,0.02-0.04c0.11-0.02,0.16-0.1,0.17-0.21c0.2-0.25,0.41-0.5,0.6-0.75c0.85-1.09,1.89-1.95,3.08-2.63
		c1.18-0.68,2.45-1.18,3.68-1.75c0.2,0.03,0.35-0.06,0.48-0.2c0.08,0.02,0.16,0,0.23-0.05c0.21,0.04,0.36-0.07,0.51-0.19
		c2.49-0.81,5-1.55,7.52-2.22c0.27,0.05,0.51-0.04,0.73-0.2c0.08-0.01,0.16-0.03,0.24-0.04c0.28,0.05,0.52-0.03,0.74-0.2
		c0.26,0,0.51,0,0.72-0.18c0.89-0.04,1.74-0.34,2.61-0.5c2.34-0.44,4.68-0.87,7.02-1.3c0.36-0.07,0.71-0.15,1.06-0.23
		c0.41,0.03,0.8,0,1.16-0.21c0.17-0.01,0.29-0.1,0.3-0.27c0.03-0.3,0.04-0.61,0.05-0.92c0.26-1.14,0.22-2.32,0.35-3.47
		c0.2-1.84,0.33-3.69,0.48-5.53c0.03-0.32,0.01-0.64,0.02-0.96c0.38-3.06,1.16-6,2.42-8.83c1.88-4.24,4.45-8.03,7.58-11.44
		c0.79-0.86,1.6-1.69,2.4-2.54c0.19-0.14,0.39-0.28,0.56-0.43c1.51-1.37,3.1-2.65,4.77-3.82c0.23-0.16,0.43-0.35,0.65-0.52
		c0.11-0.05,0.23-0.09,0.33-0.15c2.79-1.86,5.75-3.41,8.87-4.66c0.15-0.06,0.29-0.15,0.43-0.22c0.22-0.08,0.43-0.16,0.65-0.23
		c0.18,0.02,0.32-0.06,0.44-0.17c0,0,0.06-0.02,0.06-0.02c0.2,0.03,0.35-0.05,0.48-0.2c1.48-0.44,2.96-0.88,4.44-1.32
		c0.29-0.06,0.58-0.13,0.88-0.19c0.29,0.06,0.54-0.03,0.77-0.2c1.03-0.17,2.07-0.35,3.1-0.52c3.84-0.62,7.7-0.78,11.59-0.61
		c0.28,0.01,0.56-0.01,0.84-0.02c0.19,0.1,0.38,0.15,0.57,0.01c0.27,0.23,0.58,0.17,0.88,0.13c3.01,0.35,6,0.76,8.94,1.53
		c1.05,0.27,2.1,0.57,3.15,0.86c0.09,0.03,0.18,0.05,0.27,0.08c0.15,0.14,0.32,0.24,0.54,0.2c0.05,0.05,0.11,0.06,0.18,0.04
		c0.15,0.14,0.32,0.25,0.54,0.21c0.06,0.05,0.13,0.07,0.21,0.04c0.13,0.14,0.28,0.24,0.49,0.2c0,0,0.01,0.02,0.01,0.02
		c0.15,0.13,0.31,0.25,0.52,0.21c0.06,0.04,0.12,0.05,0.19,0.04c0.15,0.14,0.31,0.25,0.53,0.22c1.91,0.84,3.82,1.69,5.62,2.74
		c1.08,0.63,2.12,1.3,3.18,1.96c0.23,0.14,0.47,0.29,0.73,0.44c0.41-0.49,0.78-0.97,1.19-1.41c0.88-0.93,1.79-1.84,2.69-2.76
		c1.29-0.94,2.59-1.88,3.88-2.82c0.22-0.1,0.44-0.19,0.65-0.31c3.58-2.04,7.43-3.32,11.45-4.1c1.47-0.28,2.95-0.47,4.43-0.69
		c0.31-0.05,0.64-0.12,1.02,0.02c0.38,0.98,0.63,2.03,0.91,3.08c1.27,4.79,1.9,9.66,1.62,14.63c-0.15,2.55-0.61,5.05-1.35,7.49
		c-0.07,0.22-0.23,0.44-0.06,0.69c0.41-0.05,0.72-0.32,1.07-0.5c3.01-1.55,6.19-2.51,9.55-2.93c4.71-0.58,9.35-0.16,13.95,0.89
		c0.75,0.17,1.49,0.36,2.23,0.56c0.42,0.11,0.43,0.15,0.41,0.6c-0.12,1.94-0.32,3.86-0.63,5.78c-0.61,3.76-1.58,7.42-3.13,10.91
		c-0.43,0.96-0.9,1.89-1.35,2.84c-1.07,1.78-2.26,3.47-3.52,5.12c-0.18,0.16-0.36,0.31-0.52,0.48c-1.83,2.01-3.91,3.72-6.24,5.12
		c-0.17,0.1-0.34,0.21-0.5,0.31c0.03,0.35,0.3,0.35,0.5,0.43c1.47,0.54,2.92,1.14,4.32,1.86c1.65,0.84,3.01,2,4.09,3.5
		c1.09,1.51,1.98,3.13,2.73,4.83c0.14,0.33,0.2,0.7,0.47,0.97c-0.03,0.34,0.16,0.62,0.26,0.92c1.1,3.14,1.84,6.36,2.22,9.66
		c0.19,1.65,0.33,3.3,0.49,4.94c-0.01,0.36-0.03,0.72-0.03,1.08c0.01,1.89,0.03,3.78-0.11,5.66c-0.15,2.12-0.44,4.23-0.76,6.33
		c-0.28,1.23-0.56,2.46-0.84,3.69c-0.13,0.12-0.19,0.26-0.15,0.43c-0.81,2.58-1.83,5.06-3.25,7.37c-0.1,0.01-0.15,0.06-0.13,0.16
		c-0.06,0.03-0.09,0.07-0.09,0.14c-0.15,0.06-0.25,0.16-0.24,0.33c-1.24,1.41-2.45,2.85-3.8,4.15c-0.11,0.11-0.19,0.25-0.28,0.38
		c-0.07,0.04-0.16,0.06-0.21,0.11c-1.65,1.54-3.38,2.99-5.2,4.35c-0.09,0.07-0.21,0.15-0.11,0.3c0.02,0.02,0.04,0.07,0.07,0.08
		c0.33,0.15,0.66,0.3,0.99,0.45c3.56,1.56,6.92,3.46,9.93,5.95c5.63,4.66,9.19,10.51,10.32,17.78c0.12,0.79,0.24,1.59,0.36,2.38
		c0.01,0.36,0,0.73,0.02,1.09c0.1,2.3,0.03,4.6-0.29,6.89c-0.62,4.5-1.87,8.83-3.75,12.97c-0.12,0.26-0.23,0.52-0.32,0.78
		c-0.11,0.3,0,0.47,0.3,0.51c0.16,0.02,0.32,0.02,0.48,0.03c3.3,0.05,6.36,1,9.25,2.53c2.8,1.48,5.3,3.39,7.55,5.62
		c5.04,4.99,8.42,10.98,10.58,17.7c0.75,2.35,1.17,4.78,1.55,7.21c0,0.12-0.02,0.24-0.01,0.36c0.35,3.22,0.28,6.43-0.29,9.62
		c-0.1,0.55-0.33,1.08-0.27,1.66c-0.22,0.31-0.23,0.68-0.33,1.03c-0.7,2.61-1.99,4.9-3.79,6.91c-1.08,1.2-2.29,2.25-3.58,3.22
		c-0.29,0.21-0.56,0.45-0.84,0.68c-0.11,0.05-0.23,0.08-0.33,0.14c-1.65,1.1-3.4,2.01-5.21,2.82c-0.14,0.06-0.27,0.17-0.4,0.25
		l-0.06-0.02l-0.04,0.05c-0.18-0.03-0.33,0.02-0.42,0.19c-0.34,0.11-0.69,0.2-1.02,0.34c-1.56,0.62-3.15,1.19-4.76,1.65
		c-1.73,0.5-3.47,0.96-5.21,1.44c-0.32-0.04-0.63,0-0.89,0.21c-0.59,0.03-1.15,0.2-1.72,0.36c-0.12,0.01-0.24,0.02-0.36,0.04
		c-2.88,0.53-5.78,0.97-8.69,1.38c-0.87,0.12-1.77,0.07-2.61,0.4c-0.19-0.05-0.37-0.03-0.54,0.05c-0.53-0.02-1.06-0.11-1.55,0.18
		c-0.55-0.16-1.08,0.03-1.61,0.08c-0.5-0.04-1-0.07-1.48,0.14c-0.31-0.06-0.61-0.03-0.9,0.09c-0.4,0-0.81-0.02-1.21,0.01
		c-6.17,0.51-12.35,0.66-18.53,0.76c-0.24,0-0.48,0.05-0.71,0.08c-0.36-0.02-0.72-0.05-1.08-0.05c-2.63,0.02-5.25,0.1-7.88,0.06
		c-2.34-0.03-4.68-0.2-7.02-0.3C366.99,320.09,365.38,320.03,363.77,319.96z M417.97,255.89c-0.01-0.32,0.15-0.6,0.28-0.89
		c0.58-1.33,1.15-2.67,1.74-4c0.84-1.89,1.57-3.81,2.16-5.79c1.56-5.3,2.21-10.67,1.35-16.17c-0.67-4.28-2.29-8.15-4.95-11.57
		c-2.39-3.07-5.34-5.5-8.67-7.49c-2.89-1.73-5.97-3.04-9.14-4.15c-0.91-0.32-1.83-0.63-2.75-0.95c-0.44-0.16-0.48-0.23-0.44-0.72
		c0.01-0.16,0.04-0.32,0.05-0.48c0.66-5.49,0.62-10.97-0.36-16.43c-0.55-3.04-1.45-5.96-2.88-8.71c-0.88-1.7-1.94-3.26-3.25-4.66
		c-0.31-0.33-0.63-0.62-1.07-0.76c-2.77-0.87-5.58-1.65-8.42-2.26c-0.17-0.04-0.39-0.14-0.54,0.16c0.13,0.22,0.28,0.45,0.43,0.69
		c1.66,2.59,3.15,5.27,4.4,8.08c0.13,0.3,0.27,0.59,0.38,0.89c0.08,0.21,0.01,0.41-0.17,0.54c-0.18,0.13-0.4,0.13-0.56-0.01
		c-0.3-0.27-0.57-0.57-0.85-0.86c-3.21-3.48-6.64-6.73-10.33-9.72c-1.22-0.99-2.45-1.83-4.1-1.79c-0.04,0-0.08-0.02-0.12-0.02
		c-3.16-0.46-6.33-0.8-9.51-1.08c-2.82-0.25-5.64-0.48-8.47-0.58c-2.99-0.11-5.98-0.32-8.96-0.37c-6.87-0.12-13.75-0.11-20.61,0.2
		c-4.28,0.2-8.55,0.48-12.82,0.89c-3.58,0.34-7.15,0.8-10.71,1.31c-0.94,0.13-1.74,0.43-2.47,1.11c-2.54,2.32-5,4.72-7.33,7.25
		c-0.25,0.27-0.49,0.54-0.77,0.78c-0.12,0.1-0.3,0.11-0.46,0.04c-0.21-0.1-0.29-0.3-0.23-0.5c0.08-0.31,0.2-0.61,0.33-0.91
		c0.85-1.88,1.78-3.71,2.82-5.5c0.12-0.21,0.36-0.43,0.19-0.82c-1.67,0.41-3.31,0.79-4.95,1.22c-2.93,0.77-5.81,1.69-8.63,2.82
		c-0.49,0.2-0.82,0.45-0.97,0.98c-0.19,0.66-0.45,1.3-0.64,1.96c-1.58,5.46-1.62,11-0.86,16.58c0.39,2.81,1.02,5.56,1.77,8.29
		c0.14,0.51,0.25,1.02,0.37,1.53c0.04,0.18-0.03,0.32-0.19,0.39c-0.22,0.09-0.46,0.16-0.68,0.24c-1.29,0.47-2.59,0.91-3.86,1.42
		c-5.57,2.26-10.56,5.41-14.78,9.72c-5.65,5.77-8.47,12.69-8.44,20.77c0.01,3.17,0.47,6.29,1.33,9.33c0.65,2.29,1.4,4.56,2.1,6.83
		c0.21,0.67,0.19,0.67-0.37,1.09c-0.33,0.24-0.69,0.41-1.09,0.52c-0.58,0.16-1.17,0.32-1.75,0.5c-4.91,1.49-9.51,3.61-13.67,6.64
		c-2.83,2.06-5.37,4.42-7.44,7.25c-2.93,4.02-4.54,8.52-4.89,13.49c-0.14,2.02-0.14,4.04,0,6.06c0.23,3.45,0.88,6.81,1.99,10.08
		c2.14,6.29,5.97,11.23,11.71,14.63c4.2,2.48,8.77,3.88,13.6,4.47c2.66,0.32,5.32,0.33,7.99,0.28c3.44-0.06,6.87-0.28,10.3-0.52
		c3.03-0.21,6.04-0.54,9.05-0.88c2.29-0.26,4.57-0.57,6.86-0.81c2.81-0.3,5.63-0.55,8.45-0.84c2.78-0.28,5.56-0.5,8.34-0.61
		c8.05-0.31,16.09,0.03,24.12,0.55c3.31,0.21,6.62,0.42,9.92,0.65c2.7,0.18,5.4,0.38,8.11,0.57c2.82,0.21,5.64,0.43,8.47,0.63
		c2.9,0.2,5.81,0.4,8.71,0.58c3.55,0.22,7.1,0.44,10.65,0.61c2.87,0.14,5.74,0.14,8.61,0.11c7.52-0.09,15.04-0.2,22.54-0.78
		c4.55-0.35,9.1-0.73,13.62-1.43c3.72-0.58,7.41-1.25,11.04-2.24c3.4-0.93,6.72-2.06,9.89-3.61c2.71-1.32,5.2-2.95,7.31-5.13
		c1.57-1.62,2.76-3.48,3.42-5.65c0.74-2.45,1.12-4.96,1.19-7.52c0.08-2.52-0.17-5.01-0.66-7.47c-1.43-7.27-4.64-13.66-9.57-19.18
		c-2.53-2.83-5.47-5.15-8.89-6.83c-2.54-1.25-5.22-1.93-8.06-1.89c-1.13,0.01-2.26,0.01-3.4,0
		C418.55,256,418.26,256.06,417.97,255.89z M335.98,137.04c-6.8-0.01-13.58,0.25-20.37,0.62c-1.37,0.08-2.74,0.17-4.11,0.28
		c-3.18,0.28-6.36,0.55-9.54,0.88c-2.97,0.31-5.94,0.66-8.91,1.06c-3.76,0.51-7.51,1.12-11.24,1.86c-4.08,0.8-8.14,1.71-12.12,2.94
		c-2.12,0.66-4.21,1.41-6.21,2.4c-1.52,0.75-2.76,1.81-3.72,3.21c-1.15,1.68-2.05,3.48-2.76,5.38c-1.6,4.28-2.35,8.73-2.61,13.27
		c-0.25,4.37-0.09,8.73,0.69,13.05c0.44,2.43,1.04,4.81,1.94,7.12c0.89,2.28,2.12,4.34,3.78,6.16c2.79,3.07,5.9,5.75,9.33,8.08
		c0.13,0.09,0.27,0.18,0.4,0.27c0.22,0.14,0.43,0.16,0.68,0.06c0.82-0.34,1.66-0.64,2.48-0.98c0.37-0.15,0.45-0.59,0.14-0.86
		c-0.24-0.21-0.52-0.38-0.79-0.55c-2-1.3-3.92-2.72-5.68-4.34c-1.46-1.35-2.81-2.8-3.9-4.47c-0.73-1.12-1.33-2.31-1.7-3.6
		c-0.72-2.49-0.35-4.8,1.15-6.91c0.56-0.79,1.19-1.53,1.87-2.23c2.01-2.04,4.34-3.62,6.84-4.97c2.53-1.37,5.17-2.47,7.88-3.42
		c5.31-1.86,10.78-3.11,16.32-4.08c5.82-1.02,11.68-1.69,17.56-2.16c4.47-0.36,8.96-0.57,13.44-0.7c5.58-0.16,11.16-0.16,16.74-0.03
		c4.4,0.11,8.81,0.3,13.2,0.62c3.1,0.23,6.21,0.49,9.3,0.85c4.13,0.47,8.25,1.08,12.34,1.87c4.72,0.92,9.39,2.06,13.93,3.65
		c3.44,1.2,6.77,2.65,9.87,4.58c2.35,1.47,4.46,3.21,6.22,5.36c0.25,0.31,0.5,0.64,0.71,0.98c1.47,2.37,1.6,4.86,0.63,7.44
		c-0.59,1.57-1.48,2.96-2.52,4.26c-1.5,1.87-3.27,3.47-5.15,4.94c-0.48,0.37-1.1,0.67-1.37,1.16c-0.27,0.49-0.19,1.18-0.25,1.78
		c-0.1,1.07-0.19,0.97,0.86,1.37c0.43,0.16,0.69-0.03,0.99-0.24c3.17-2.2,6.05-4.72,8.67-7.55c1.78-1.93,3.1-4.12,4.02-6.57
		c0.78-2.09,1.32-4.23,1.74-6.42c0.5-2.63,0.81-5.27,0.87-7.94c0.06-2.42,0.04-4.85-0.2-7.27c-0.31-3.19-0.83-6.33-1.75-9.39
		c-0.78-2.6-1.83-5.09-3.36-7.36c-1.02-1.51-2.31-2.67-3.97-3.46c-1.54-0.73-3.11-1.35-4.72-1.89c-5.19-1.73-10.51-2.87-15.88-3.84
		c-4.57-0.83-9.17-1.48-13.79-2.03c-4.66-0.56-9.32-1.02-14-1.34c-4.31-0.3-8.64-0.51-12.96-0.67
		C343.34,137.11,339.66,137.1,335.98,137.04z M365.88,101.86c-0.89-0.76-1.83-1.3-2.77-1.85c-7.35-4.37-15.37-6.41-23.86-6.76
		c-3.68-0.15-7.35,0.07-10.99,0.67c-7.71,1.27-14.73,4.17-20.97,8.89c-4.86,3.68-8.85,8.14-11.8,13.49
		c-1.43,2.59-2.54,5.31-3.15,8.22c-0.15,0.7-0.31,1.4-0.3,2.11c0.28,0.06,0.43-0.09,0.59-0.21c2.18-1.63,4.55-2.92,7.04-4.01
		c5.97-2.6,12.25-4.03,18.67-4.93c2.76-0.39,5.53-0.67,8.32-0.82c0.92-0.05,1.84-0.13,2.75-0.19c0.1-0.34-0.09-0.57-0.2-0.82
		c-0.66-1.47-1.24-2.98-1.73-4.52c-0.29-0.9-0.44-0.79,0.43-1.35c1.67-1.07,3.39-2.04,5.2-2.85c2.9-1.29,5.9-2.18,9.09-2.37
		c4.61-0.28,8.79,0.92,12.56,3.57c2.48,1.74,4.49,3.93,6.16,6.45c0.19,0.28,0.3,0.65,0.72,0.84c0.29-2.41,0.65-4.76,1.36-7.04
		C363.69,106.09,364.7,103.95,365.88,101.86z M336.23,125.79c-0.05-0.08-0.1-0.2-0.18-0.28c-1.95-1.79-3.57-3.85-4.91-6.13
		c-0.21-0.36-0.47-0.53-0.88-0.49c-0.24,0.02-0.48,0.02-0.73,0.03c-4.16,0.16-8.3,0.55-12.42,1.18c-3.76,0.58-7.46,1.37-11.09,2.51
		c-3.63,1.14-7.14,2.58-10.36,4.63c-1.19,0.76-2.33,1.61-3.36,2.58c-0.4,0.38-0.63,0.79-0.67,1.36c-0.13,1.93-0.32,3.87-0.47,5.8
		c-0.05,0.64,0.02,0.7,0.66,0.65c0.16-0.01,0.32-0.03,0.48-0.05c1.92-0.25,3.85-0.49,5.77-0.74c4.65-0.6,9.32-1.01,13.99-1.34
		c3.83-0.27,7.66-0.52,11.5-0.6c1.45-0.03,1.45-0.05,2.41-1.21c2.71-3.3,5.91-5.96,9.88-7.63
		C335.98,126,336.16,125.99,336.23,125.79z M390.68,139.23c0.33,0.14,0.51,0.24,0.7,0.28c3.13,0.59,6.23,1.33,9.31,2.17
		c0.5,0.14,0.94,0.06,1.4-0.16c3.11-1.47,5.83-3.48,8.09-6.07c3.2-3.66,5.25-7.92,6.55-12.58c0.77-2.77,1.2-5.6,1.6-8.44
		c0.02-0.12,0.01-0.24,0.02-0.36c0.03-0.35-0.18-0.51-0.46-0.62c-0.11-0.04-0.23-0.07-0.35-0.09c-3.33-0.71-6.68-1.12-10.1-1.02
		c-2.11,0.06-4.19,0.35-6.22,0.87c-4.79,1.23-8.83,3.71-12.13,7.4c-0.1,0.12-0.18,0.25-0.33,0.46c0.25,0.22,0.5,0.43,0.73,0.65
		c0.78,0.76,1.57,1.51,2.33,2.3c1.06,1.09,1.16,2.38,0.57,3.7c-0.83,1.86-1.96,3.53-3.32,5.04c-0.77,0.86-0.78,0.86-0.48,2
		c0.02,0.08,0.05,0.15,0.07,0.23c0.21,0.75,0.25,0.77,0.85,0.36c1.3-0.89,2.61-1.77,3.88-2.71c4.33-3.19,8.44-6.65,12.56-10.1
		c1.27-1.06,2.57-2.09,3.86-3.12c0.28-0.23,0.59-0.44,0.91-0.6c0.55-0.28,1.19-0.16,1.56,0.25c0.36,0.41,0.39,1.08,0.06,1.58
		c-0.11,0.17-0.25,0.32-0.39,0.46c-0.22,0.24-0.45,0.46-0.68,0.69c-2.97,2.97-6.09,5.79-9.26,8.55c-2.56,2.23-5.17,4.39-7.91,6.41
		C393.01,137.57,391.93,138.34,390.68,139.23z M392.74,102.86c-0.05-1.21-0.04-2.43-0.16-3.63c-0.15-1.44-0.41-2.87-0.64-4.31
		c-0.23-1.4-0.6-2.76-0.97-4.12c-0.12-0.45-0.22-0.5-0.69-0.48c-0.16,0.01-0.33,0.01-0.48,0.04c-1.54,0.31-3.1,0.57-4.62,0.96
		c-3.94,1.02-7.65,2.57-10.95,5.01c-3.98,2.95-6.76,6.78-8.49,11.41c-0.92,2.48-1.4,5.05-1.68,7.67c-0.02,0.16-0.02,0.32-0.01,0.48
		c0.01,0.23,0.15,0.36,0.38,0.4c0.21,0.03,0.42,0.01,0.51-0.21c0.11-0.26,0.18-0.53,0.27-0.8c0.53-1.57,1.44-2.9,2.62-4.03
		c1.71-1.63,3.68-2.9,5.82-3.9c1.1-0.52,2.19-0.49,3.21,0.26c0.36,0.26,0.7,0.55,1.05,0.82c0.22,0.17,0.45,0.34,0.69,0.49
		c0.16,0.1,0.32,0.03,0.42-0.11c0.14-0.2,0.24-0.42,0.36-0.63c1.33-2.4,2.65-4.81,3.99-7.21c0.69-1.23,1.41-2.45,2.14-3.66
		c0.18-0.31,0.41-0.6,0.67-0.86c0.36-0.36,0.94-0.41,1.35-0.19c0.53,0.29,0.82,0.86,0.66,1.42c-0.12,0.43-0.28,0.85-0.46,1.25
		c-1.07,2.31-2.13,4.62-3.24,6.91c-0.86,1.78-1.79,3.53-2.71,5.28c-0.24,0.45-0.28,0.81,0.07,1.21c0.32,0.37,0.6,0.76,0.86,1.17
		c0.88,1.38,1.57,2.85,1.67,4.49c0.05,0.77,0.26,1.21,1.04,1.34c0.27,0.05,0.53,0.19,0.8,0.28c0.26,0.09,0.45,0.01,0.64-0.19
		c0.78-0.82,1.57-1.63,2.36-2.43c0.26-0.26,0.47-0.55,0.64-0.88c0.95-1.84,1.61-3.79,2.09-5.8
		C392.53,107.86,392.78,105.38,392.74,102.86z M366.32,135.96c-0.08-0.52-0.13-0.95-0.22-1.37c-0.12-0.56-0.15-1.13-0.06-1.69
		c0.18-1.11-0.11-2.11-0.81-2.94c-1.03-1.23-1.32-2.64-1.27-4.18c0.02-0.84,0.37-1.47,1.07-1.92c0.72-0.46,1.46-0.86,2.29-1.08
		c1.2-0.32,2.08-1.02,2.65-2.13c0.29-0.57,0.66-1.12,1.06-1.62c0.65-0.81,1.41-0.99,2.38-0.62c0.72,0.27,1.41,0.62,2,1.12
		c0.84,0.72,1.82,1.01,2.9,1.05c0.36,0.01,0.73,0.03,1.09,0.1c1.86,0.33,2.37,0.85,2.65,2.74c0.16,1.1,0.46,2.12,1.21,2.99
		c0.59,0.67,0.62,1.46,0.32,2.28c-0.24,0.65-0.56,1.25-0.97,1.81c-0.55,0.75-0.8,1.59-0.78,2.5c0.03,1.48-0.21,2.89-0.76,4.26
		c-0.16,0.39-0.08,0.52,0.31,0.58c1.16,0.18,2.32,0.35,3.47,0.53c0.44,0.07,0.87,0.15,1.32,0.21c0.24,0.03,0.38-0.11,0.38-0.35
		c0.01-1.43-0.22-2.82-0.76-4.14c-0.11-0.26-0.24-0.51-0.36-0.77c-0.11-0.24-0.11-0.47,0.12-0.65c0.13-0.1,0.25-0.21,0.38-0.3
		c1.85-1.4,3.05-3.31,4.13-5.31c0.31-0.58,0.25-1.06-0.21-1.54c-0.95-1-1.94-1.95-3.08-2.73c-1.3-0.88-2.69-1.48-4.3-1.42
		c-0.12,0-0.24,0-0.36-0.02c-0.33-0.03-0.45-0.15-0.42-0.45c0.04-0.32,0.11-0.64,0.17-0.95c0.18-0.89,0.15-1.76-0.09-2.64
		c-0.27-0.99-0.74-1.88-1.32-2.71c-1.33-1.92-3.05-3.44-4.87-4.87c-0.33-0.26-0.64-0.27-1.01-0.08c-1.7,0.86-3.33,1.84-4.74,3.13
		c-0.33,0.3-0.64,0.62-0.93,0.96c-1.31,1.52-1.92,3.25-1.62,5.27c0.06,0.43,0.15,0.87,0.04,1.28c-0.26,0.1-0.43-0.03-0.6-0.13
		c-0.49-0.28-0.98-0.57-1.48-0.84c-1.21-0.64-2.49-0.89-3.86-0.68c-0.93,0.15-1.81,0.44-2.64,0.86c-2.5,1.26-4.49,3.13-6.38,5.15
		c-0.31,0.33-0.36,0.71-0.21,1.12c0.07,0.19,0.17,0.37,0.26,0.54c0.69,1.28,1.43,2.54,2.3,3.7c1.56,2.07,3.34,3.84,5.95,4.54
		c0.3,0.08,0.49,0.27,0.44,0.62c-0.04,0.3,0.11,0.44,0.41,0.47c0.93,0.07,1.85,0.17,2.78,0.23
		C364.95,135.92,365.59,135.98,366.32,135.96z M368.52,132.64c-0.2,1.31,0.1,2.32,0.44,3.32c0.08,0.25,0.27,0.41,0.56,0.32
		c0.46-0.15,0.93-0.27,1.38-0.45c1.49-0.6,2.98-0.68,4.47-0.01c1,0.45,2.05,0.39,3.1,0.25c0.36-0.05,0.54-0.27,0.64-0.62
		c0.22-0.79,0.28-1.59,0.28-2.4c0.01-1.41,0.34-2.72,1.17-3.88c0.19-0.26,0.33-0.56,0.51-0.82c0.21-0.31,0.17-0.58-0.05-0.88
		c-0.61-0.82-1.03-1.74-1.2-2.75c-0.3-1.71-0.02-1.59-1.95-1.73c-1.45-0.11-2.77-0.54-3.89-1.49c-0.24-0.21-0.53-0.36-0.81-0.53
		c-0.24-0.14-0.47-0.12-0.63,0.13c-0.17,0.27-0.34,0.55-0.49,0.83c-0.83,1.59-2.12,2.61-3.83,3.13c-0.46,0.14-0.9,0.35-1.34,0.55
		c-0.33,0.14-0.46,0.4-0.46,0.77c0,0.8,0.27,1.48,0.77,2.11C368.18,129.75,368.63,131.23,368.52,132.64z M350.49,128.12
		c0.02-0.51-0.31-0.85-0.48-1.25c-0.55-1.33-0.57-2.6,0.44-3.73c0.56-0.64,1.15-1.24,1.74-1.86c0.54-0.57,0.54-0.64-0.22-0.98
		c-0.33-0.15-0.67-0.28-1.01-0.41c-2.18-0.85-4.39-1.61-6.62-2.33c-4.22-1.36-8.54-2.43-12.73-3.89c-0.04-0.01-0.08-0.03-0.12-0.03
		c-0.11,0.02-0.26,0.01-0.33,0.07c-0.06,0.06-0.06,0.23-0.02,0.32c1.09,2.48,2.36,4.87,4.05,7.01c2.1,2.64,4.63,4.72,7.8,5.96
		C345.4,127.95,347.88,128.34,350.49,128.12z M331.36,110.6c0.18,0.26,0.43,0.29,0.66,0.34c3.37,0.8,6.75,1.59,10.12,2.42
		c3.02,0.75,6.01,1.58,8.93,2.67c1.51,0.56,3.01,1.16,4.52,1.75c0.26,0.1,0.52,0.28,0.81,0.14c0.88-0.41,1.75-0.84,2.62-1.26
		c0.13-0.06,0.15-0.2,0.1-0.31c-0.1-0.22-0.22-0.43-0.35-0.63c-1.25-1.9-2.75-3.59-4.55-5c-1.96-1.53-4.11-2.72-6.56-3.28
		c-1.77-0.41-3.56-0.65-5.39-0.46c-1.13,0.11-2.24,0.23-3.35,0.48c-2.14,0.48-4.15,1.31-6.12,2.27
		C332.29,109.97,331.78,110.21,331.36,110.6z M395.68,175.21c0.19,0.4,0.24,0.55,0.32,0.69c2.64,4.51,3.9,9.43,4.44,14.58
		c0.2,1.89,0.27,3.78,0.29,5.68c0,0.12,0,0.24,0.01,0.36c0.01,0.16,0.22,0.27,0.34,0.17c0.38-0.3,0.75-0.61,1.11-0.93
		c1.48-1.31,2.87-2.72,3.99-4.36c0.73-1.07,1.34-2.2,1.64-3.48c0.39-1.62,0.17-3.12-0.84-4.48c-0.34-0.45-0.67-0.91-1.04-1.33
		c-1.23-1.41-2.65-2.59-4.2-3.63C399.91,177.25,397.97,176.2,395.68,175.21z M273,198.14c-0.17-1.03-0.34-2.06-0.5-3.09
		c-0.15-1-0.3-1.99-0.4-3c-0.1-1.04-0.17-2.09-0.21-3.14c-0.03-1.01-0.03-2.02,0.01-3.03c0.04-1.05,0.13-2.09,0.25-3.13
		c0.11-1,0.29-1.99,0.45-2.99c0.16-1.01,0.56-1.98,0.65-3.1c-0.25,0.1-0.4,0.15-0.54,0.22c-1.64,0.88-3.19,1.89-4.64,3.06
		c-1.16,0.94-2.2,2.01-3.11,3.21c-1.05,1.4-1.4,2.95-0.99,4.68c0.43,1.82,1.4,3.33,2.55,4.76c1.66,2.06,3.67,3.73,5.8,5.28
		C272.52,198.02,272.69,198.22,273,198.14z M328.56,134.68c4.98,0,9.86,0,14.74,0c0.33,0,0.63-0.07,0.95-0.15
		c2.21-0.62,4.43-1.17,6.69-1.6c0.81-0.15,1.67-0.11,2.47-0.55c-0.24-0.34-0.48-0.65-0.69-0.99c-0.38-0.61-0.87-0.83-1.61-0.8
		c-1.77,0.08-3.54,0.12-5.3-0.21c-1.95-0.37-3.83-0.97-5.58-1.9c-1.55-0.82-1.53-0.86-3.12-0.26c-0.19,0.07-0.37,0.16-0.56,0.24
		c-3.1,1.33-5.66,3.39-7.88,5.89C328.61,134.39,328.61,134.48,328.56,134.68z"/>
	<path class="st1" d="M417.97,255.89c0.3,0.17,0.58,0.11,0.86,0.11c1.13,0.01,2.26,0.01,3.4,0c2.85-0.03,5.52,0.64,8.06,1.89
		c3.42,1.68,6.36,4.01,8.89,6.83c4.93,5.51,8.13,11.91,9.57,19.18c0.49,2.47,0.73,4.96,0.66,7.47c-0.08,2.56-0.45,5.07-1.19,7.52
		c-0.66,2.17-1.85,4.03-3.42,5.65c-2.11,2.18-4.6,3.81-7.31,5.13c-3.17,1.54-6.49,2.68-9.89,3.61c-3.63,0.99-7.32,1.66-11.04,2.24
		c-4.52,0.71-9.07,1.09-13.62,1.43c-7.5,0.57-15.02,0.69-22.54,0.78c-2.87,0.03-5.74,0.04-8.61-0.11c-3.55-0.17-7.1-0.39-10.65-0.61
		c-2.91-0.18-5.81-0.37-8.71-0.58c-2.82-0.2-5.64-0.42-8.47-0.63c-2.7-0.2-5.4-0.39-8.11-0.57c-3.31-0.22-6.62-0.43-9.92-0.65
		c-8.03-0.52-16.07-0.86-24.12-0.55c-2.79,0.11-5.57,0.32-8.34,0.61c-2.81,0.29-5.63,0.54-8.45,0.84c-2.29,0.25-4.57,0.55-6.86,0.81
		c-3.01,0.35-6.02,0.68-9.05,0.88c-3.43,0.23-6.86,0.46-10.3,0.52c-2.67,0.05-5.33,0.04-7.99-0.28c-4.83-0.59-9.39-1.99-13.6-4.47
		c-5.75-3.4-9.58-8.34-11.71-14.63c-1.11-3.27-1.76-6.63-1.99-10.08c-0.14-2.02-0.14-4.04,0-6.06c0.35-4.96,1.96-9.46,4.89-13.49
		c2.07-2.84,4.61-5.19,7.44-7.25c4.16-3.03,8.77-5.14,13.67-6.64c0.58-0.18,1.16-0.34,1.75-0.5c0.4-0.11,0.76-0.27,1.09-0.52
		c0.56-0.41,0.58-0.42,0.37-1.09c-0.7-2.28-1.45-4.54-2.1-6.83c-0.86-3.05-1.32-6.16-1.33-9.33c-0.03-8.08,2.79-15,8.44-20.77
		c4.22-4.32,9.21-7.46,14.78-9.72c1.27-0.52,2.57-0.95,3.86-1.42c0.23-0.08,0.46-0.15,0.68-0.24c0.17-0.07,0.24-0.2,0.19-0.39
		c-0.12-0.51-0.23-1.02-0.37-1.53c-0.75-2.73-1.39-5.48-1.77-8.29c-0.77-5.58-0.73-11.12,0.86-16.58c0.19-0.66,0.46-1.3,0.64-1.96
		c0.15-0.52,0.48-0.78,0.97-0.98c2.82-1.12,5.7-2.05,8.63-2.82c1.63-0.43,3.28-0.81,4.95-1.22c0.17,0.39-0.06,0.6-0.19,0.82
		c-1.04,1.78-1.97,3.62-2.82,5.5c-0.13,0.29-0.25,0.6-0.33,0.91c-0.05,0.2,0.02,0.4,0.23,0.5c0.16,0.08,0.35,0.06,0.46-0.04
		c0.27-0.24,0.52-0.51,0.77-0.78c2.33-2.53,4.79-4.93,7.33-7.25c0.74-0.67,1.53-0.97,2.47-1.11c3.56-0.51,7.13-0.96,10.71-1.31
		c4.27-0.41,8.54-0.69,12.82-0.89c6.87-0.32,13.74-0.32,20.61-0.2c2.99,0.05,5.98,0.25,8.96,0.37c2.83,0.11,5.65,0.34,8.47,0.58
		c3.18,0.28,6.35,0.62,9.51,1.08c0.04,0.01,0.08,0.02,0.12,0.02c1.65-0.04,2.88,0.8,4.1,1.79c3.69,2.98,7.11,6.24,10.33,9.72
		c0.27,0.3,0.55,0.59,0.85,0.86c0.16,0.14,0.38,0.15,0.56,0.01c0.18-0.13,0.24-0.33,0.17-0.54c-0.11-0.3-0.25-0.6-0.38-0.89
		c-1.25-2.81-2.74-5.49-4.4-8.08c-0.15-0.23-0.29-0.47-0.43-0.69c0.15-0.31,0.37-0.2,0.54-0.16c2.84,0.61,5.65,1.38,8.42,2.26
		c0.44,0.14,0.77,0.43,1.07,0.76c1.31,1.4,2.37,2.96,3.25,4.66c1.43,2.75,2.33,5.68,2.88,8.71c0.98,5.45,1.03,10.93,0.36,16.43
		c-0.02,0.16-0.04,0.32-0.05,0.48c-0.03,0.48,0,0.56,0.44,0.72c0.91,0.33,1.83,0.63,2.75,0.95c3.17,1.11,6.25,2.42,9.14,4.15
		c3.32,1.99,6.28,4.42,8.67,7.49c2.66,3.42,4.28,7.29,4.95,11.57c0.86,5.5,0.21,10.87-1.35,16.17c-0.58,1.98-1.32,3.9-2.16,5.79
		c-0.59,1.33-1.17,2.66-1.74,4C418.12,255.28,417.96,255.57,417.97,255.89z M387.42,254.58c0.85-0.01,1.69-0.01,2.54-0.02
		c1.16-0.02,2.32,0,3.48-0.22c2.16-0.41,4.2-1,6.03-2.29c0.72-0.51,1.25-1.14,1.66-1.87c0.28-0.49,0.54-1.04,0.45-1.6
		c-0.22-1.35-0.81-2.48-1.99-3.3c-2.5-1.74-5.31-2.43-8.28-2.6c-1.97-0.11-3.94,0.01-5.87,0.48c-1.69,0.41-3.33,0.95-4.76,1.99
		c-0.92,0.68-1.65,1.52-2.01,2.65c-0.15,0.48-0.04,0.97-0.15,1.44c-0.19,0.06-0.38,0.13-0.58,0.17c-2.34,0.4-4.49,1.31-6.55,2.45
		c-0.28,0.16-0.57,0.32-0.81,0.53c-0.53,0.48-0.6,1.18-0.23,1.76c0.36,0.56,1.07,0.78,1.7,0.52c0.26-0.11,0.5-0.25,0.75-0.39
		c1.09-0.62,2.23-1.13,3.42-1.53c0.88-0.3,1.77-0.57,2.71-0.63c0.14-0.01,0.33-0.06,0.36,0.18c-0.05,0.27-0.28,0.39-0.46,0.54
		c-1.32,1.13-2.62,2.29-3.98,3.37c-11.04,8.76-23.51,13.83-37.65,14.7c-4.99,0.31-9.94,0.06-14.87-0.64
		c-4.85-0.68-9.6-1.81-14.26-3.33c-7.33-2.38-14.31-5.5-20.84-9.62c-0.17-0.11-0.34-0.23-0.52-0.31c-0.68-0.32-1.42-0.12-1.81,0.48
		c-0.4,0.62-0.29,1.34,0.31,1.84c0.28,0.23,0.6,0.41,0.9,0.61c1.71,1.08,3.44,2.12,5.26,3c0.94,0.45,1.46,1.06,1.81,2.07
		c2.42,7.01,5.9,13.45,10.66,19.17c5.08,6.09,11.18,10.84,18.49,13.98c7.41,3.18,15.12,4.29,23.12,3.2
		c5.97-0.82,11.49-2.89,16.57-6.13c5.97-3.82,10.67-8.86,14.35-14.88c3.49-5.71,5.79-11.89,7.25-18.4c0.37-1.65,0.67-3.33,1-4.99
		c0.13,0.01,0.27,0.01,0.4,0.02c0.35,1.8,0.35,3.61,0.17,5.43c-0.04,0.44-0.1,0.88-0.11,1.33c-0.02,0.88,0.45,1.46,1.2,1.55
		c0.79,0.09,1.36-0.34,1.55-1.19c0.05-0.24,0.09-0.48,0.11-0.72C388.21,260.41,388.27,257.46,387.42,254.58z M337.9,206.73
		c0,0.73-0.04,1.46,0.01,2.18c0.11,1.69,0.18,3.39,0.35,5.08c0.46,4.56,1.35,9.03,2.76,13.38c1.24,3.82,2.87,7.46,5.16,10.78
		c1.55,2.25,3.35,4.26,5.54,5.9c3.46,2.6,7.35,3.84,11.67,3.64c2.73-0.13,5.34-0.82,7.86-1.87c6.71-2.79,11.34-7.59,13.79-14.45
		c1.07-2.99,1.59-6.09,1.76-9.25c0.19-3.61-0.12-7.19-0.77-10.74c-0.85-4.59-2.23-9.01-4.1-13.28c-2.2-5.02-4.95-9.72-8.48-13.93
		c-2.11-2.52-4.46-4.79-7.2-6.64c-1.68-1.14-3.47-2.07-5.41-2.69c-2.39-0.76-4.82-0.97-7.29-0.45c-2.61,0.55-4.82,1.82-6.73,3.64
		c-1.39,1.32-2.52,2.83-3.5,4.48c-1.62,2.73-2.72,5.67-3.54,8.73C338.4,196.33,337.91,201.5,337.9,206.73z M335.7,206.97
		c-0.04-1.69-0.07-3.79-0.26-5.88c-0.31-3.35-0.87-6.65-1.78-9.88c-0.88-3.12-2.08-6.12-3.85-8.86c-1.19-1.85-2.59-3.51-4.36-4.84
		c-3.45-2.58-7.27-3.36-11.46-2.38c-2.64,0.62-4.99,1.85-7.18,3.4c-2.46,1.74-4.6,3.82-6.53,6.12c-4.28,5.1-7.45,10.83-9.8,17.04
		c-2.15,5.71-3.51,11.59-3.68,17.71c-0.1,3.45,0.16,6.86,1.04,10.21c1.18,4.51,3.28,8.51,6.67,11.76c3.41,3.27,7.48,5.31,12.05,6.4
		c2.34,0.56,4.72,0.68,7.1,0.35c3.63-0.51,6.76-2.1,9.49-4.51c2.3-2.02,4.12-4.43,5.65-7.07c1.67-2.88,2.94-5.93,3.93-9.1
		C334.79,220.92,335.7,214.22,335.7,206.97z M282.84,240.24c-2.88-0.1-4.77,0.36-6.52,0.98c-1.54,0.54-2.92,1.32-4.04,2.55
		c-1.12,1.24-1.2,2.91-0.38,4.23c0.74,1.2,1.86,1.92,3.05,2.49c2.23,1.08,4.64,1.56,7.12,1.63c1.17,0.03,2.32-0.05,3.49-0.19
		c1.58-0.2,3.08-0.6,4.54-1.18c1.13-0.45,2.11-1.14,2.99-2c1.51-1.48,1.56-4.01-0.27-5.56c-1.21-1.02-2.6-1.77-4.13-2.2
		c-1.87-0.52-3.76-0.9-5.72-0.75C282.92,240.24,282.88,240.24,282.84,240.24z M441.64,286.53c0.15-1.21-0.08-2.53-0.3-3.84
		c-0.53-3.12-1.54-6.09-3.24-8.8c-1.12-1.79-2.41-3.43-3.96-4.86c-0.21-0.19-0.44-0.36-0.69-0.49c-0.67-0.34-1.41-0.02-1.66,0.69
		c-0.17,0.49,0.02,0.86,0.36,1.19c0.87,0.84,1.73,1.69,2.47,2.66c0.99,1.28,1.87,2.64,2.55,4.1c0.57,1.24,1.05,2.53,1.39,3.86
		c0.31,1.21,0.57,2.44,0.64,3.68c0.13,2.34,0.1,4.68-0.44,6.98c-0.15,0.63-0.31,1.25-0.43,1.88c-0.12,0.58,0.3,1.23,0.88,1.42
		c0.5,0.16,1.14-0.16,1.37-0.72c0.13-0.3,0.23-0.61,0.29-0.92C441.29,291.16,441.74,288.94,441.64,286.53z M438.5,300.35
		c0-0.57-0.21-0.98-0.57-1.33c-0.36-0.35-0.9-0.42-1.33-0.13c-0.47,0.31-0.87,0.71-1.08,1.26c-0.19,0.5,0.03,1.31,0.45,1.63
		c0.44,0.34,0.95,0.38,1.45,0.03C437.93,301.43,438.44,301.02,438.5,300.35z"/>
	<path class="st2" d="M335.98,137.04c3.68,0.06,7.36,0.07,11.04,0.21c4.32,0.16,8.64,0.37,12.96,0.67c4.68,0.32,9.34,0.78,14,1.34
		c4.61,0.56,9.21,1.2,13.79,2.03c5.37,0.98,10.69,2.11,15.88,3.84c1.61,0.54,3.18,1.16,4.72,1.89c1.66,0.79,2.95,1.94,3.97,3.46
		c1.53,2.27,2.58,4.75,3.36,7.36c0.92,3.07,1.45,6.21,1.75,9.39c0.23,2.42,0.26,4.85,0.2,7.27c-0.06,2.67-0.37,5.31-0.87,7.94
		c-0.42,2.19-0.96,4.33-1.74,6.42c-0.92,2.45-2.24,4.64-4.02,6.57c-2.62,2.84-5.5,5.36-8.67,7.55c-0.3,0.21-0.56,0.4-0.99,0.24
		c-1.05-0.4-0.96-0.3-0.86-1.37c0.06-0.6-0.02-1.29,0.25-1.78c0.27-0.49,0.89-0.79,1.37-1.16c1.88-1.48,3.65-3.07,5.15-4.94
		c1.04-1.3,1.93-2.69,2.52-4.26c0.97-2.58,0.84-5.07-0.63-7.44c-0.21-0.34-0.46-0.67-0.71-0.98c-1.76-2.15-3.86-3.9-6.22-5.36
		c-3.1-1.93-6.43-3.38-9.87-4.58c-4.54-1.59-9.21-2.73-13.93-3.65c-4.09-0.79-8.21-1.4-12.34-1.87c-3.09-0.35-6.19-0.62-9.3-0.85
		c-4.4-0.32-8.8-0.52-13.2-0.62c-5.58-0.14-11.16-0.13-16.74,0.03c-4.49,0.13-8.97,0.34-13.44,0.7c-5.88,0.47-11.75,1.13-17.56,2.16
		c-5.53,0.97-11,2.22-16.32,4.08c-2.71,0.95-5.36,2.05-7.88,3.42c-2.5,1.36-4.83,2.94-6.84,4.97c-0.68,0.69-1.31,1.43-1.87,2.23
		c-1.5,2.12-1.87,4.42-1.15,6.91c0.37,1.3,0.97,2.48,1.7,3.6c1.09,1.67,2.43,3.12,3.9,4.47c1.76,1.62,3.67,3.04,5.68,4.34
		c0.27,0.18,0.55,0.34,0.79,0.55c0.31,0.27,0.23,0.72-0.14,0.86c-0.82,0.33-1.66,0.64-2.48,0.98c-0.25,0.1-0.47,0.08-0.68-0.06
		c-0.14-0.09-0.27-0.18-0.4-0.27c-3.42-2.33-6.54-5.01-9.33-8.08c-1.66-1.82-2.89-3.88-3.78-6.16c-0.9-2.3-1.5-4.69-1.94-7.12
		c-0.79-4.32-0.95-8.68-0.69-13.05c0.26-4.53,1.01-8.99,2.61-13.27c0.71-1.9,1.61-3.7,2.76-5.38c0.96-1.4,2.19-2.46,3.72-3.21
		c2-0.98,4.08-1.74,6.21-2.4c3.98-1.23,8.03-2.14,12.12-2.94c3.73-0.73,7.48-1.34,11.24-1.86c2.96-0.4,5.93-0.75,8.91-1.06
		c3.18-0.33,6.36-0.6,9.54-0.88c1.37-0.12,2.74-0.21,4.11-0.28C322.4,137.29,329.19,137.03,335.98,137.04z M412.31,166.58
		c-0.05-1.03,0.01-2.27-0.2-3.52c-0.21-1.27-0.45-2.53-0.72-3.78c-0.42-1.98-1.14-3.86-1.93-5.71c-0.32-0.74-0.7-1.45-1.08-2.17
		c-0.22-0.42-0.65-0.55-1.02-0.37c-0.65,0.31-0.91,1.05-0.6,1.71c0.09,0.18,0.18,0.36,0.27,0.54c0.62,1.18,1.18,2.38,1.63,3.64
		c1.16,3.24,1.93,6.55,1.95,10.02c0,0.24,0.03,0.48,0.1,0.72c0.16,0.6,0.17,1.19,0,1.79c-0.04,0.15-0.07,0.32-0.08,0.47
		c-0.01,0.25,0.09,0.48,0.32,0.61c0.24,0.13,0.47,0.07,0.67-0.09c0.43-0.34,0.72-0.73,0.69-1.33
		C412.29,168.33,412.31,167.57,412.31,166.58z M410.36,174.4c0,0.11,0,0.19,0,0.27c0.01,0.49,0.36,0.63,0.74,0.51
		c0.77-0.26,1.36-1.39,1.16-2.16c-0.09-0.36-0.56-0.57-0.87-0.34C410.81,173.11,410.24,173.57,410.36,174.4z"/>
	<path class="st2" d="M365.88,101.86c-1.18,2.08-2.18,4.23-2.89,6.51c-0.71,2.29-1.07,4.63-1.36,7.04c-0.42-0.2-0.54-0.56-0.72-0.84
		c-1.67-2.52-3.68-4.71-6.16-6.45c-3.77-2.66-7.95-3.85-12.56-3.57c-3.19,0.19-6.19,1.08-9.09,2.37c-1.81,0.81-3.53,1.78-5.2,2.85
		c-0.87,0.56-0.72,0.45-0.43,1.35c0.49,1.54,1.07,3.04,1.73,4.52c0.11,0.25,0.31,0.48,0.2,0.82c-0.91,0.06-1.83,0.14-2.75,0.19
		c-2.78,0.16-5.56,0.44-8.32,0.82c-6.42,0.9-12.7,2.33-18.67,4.93c-2.49,1.08-4.86,2.38-7.04,4.01c-0.16,0.12-0.3,0.27-0.59,0.21
		c-0.01-0.71,0.16-1.41,0.3-2.11c0.61-2.91,1.72-5.63,3.15-8.22c2.96-5.35,6.94-9.81,11.8-13.49c6.24-4.72,13.26-7.62,20.97-8.89
		c3.64-0.6,7.31-0.82,10.99-0.67c8.49,0.35,16.51,2.39,23.86,6.76C364.05,100.57,364.99,101.11,365.88,101.86z"/>
	<path class="st3" d="M336.23,125.79c-0.07,0.2-0.25,0.22-0.38,0.27c-3.97,1.67-7.17,4.33-9.88,7.63c-0.96,1.17-0.95,1.19-2.41,1.21
		c-3.84,0.07-7.67,0.32-11.5,0.6c-4.67,0.33-9.34,0.74-13.99,1.34c-1.92,0.25-3.85,0.49-5.77,0.74c-0.16,0.02-0.32,0.04-0.48,0.05
		c-0.64,0.04-0.71-0.02-0.66-0.65c0.15-1.93,0.34-3.86,0.47-5.8c0.04-0.57,0.27-0.98,0.67-1.36c1.04-0.97,2.17-1.82,3.36-2.58
		c3.23-2.06,6.73-3.5,10.36-4.63c3.63-1.14,7.33-1.93,11.09-2.51c4.12-0.63,8.26-1.03,12.42-1.18c0.24-0.01,0.49-0.01,0.73-0.03
		c0.41-0.03,0.66,0.13,0.88,0.49c1.34,2.28,2.96,4.33,4.91,6.13C336.13,125.58,336.18,125.7,336.23,125.79z"/>
	<path class="st4" d="M390.68,139.23c1.25-0.9,2.33-1.66,3.4-2.45c2.74-2.01,5.35-4.18,7.91-6.41c3.17-2.76,6.29-5.58,9.26-8.55
		c0.23-0.23,0.46-0.46,0.68-0.69c0.14-0.15,0.28-0.3,0.39-0.46c0.33-0.5,0.3-1.17-0.06-1.58c-0.36-0.41-1.01-0.53-1.56-0.25
		c-0.32,0.17-0.62,0.38-0.91,0.6c-1.29,1.03-2.59,2.06-3.86,3.12c-4.12,3.45-8.24,6.9-12.56,10.1c-1.27,0.94-2.58,1.82-3.88,2.71
		c-0.6,0.41-0.63,0.38-0.85-0.36c-0.02-0.08-0.05-0.15-0.07-0.23c-0.3-1.14-0.29-1.13,0.48-2c1.36-1.51,2.49-3.19,3.32-5.04
		c0.59-1.32,0.49-2.61-0.57-3.7c-0.76-0.78-1.55-1.54-2.33-2.3c-0.23-0.22-0.47-0.43-0.73-0.65c0.15-0.2,0.23-0.34,0.33-0.46
		c3.3-3.69,7.34-6.17,12.13-7.4c2.03-0.52,4.11-0.81,6.22-0.87c3.41-0.1,6.77,0.31,10.1,1.02c0.12,0.03,0.24,0.05,0.35,0.09
		c0.29,0.1,0.49,0.27,0.46,0.62c-0.01,0.12,0,0.24-0.02,0.36c-0.39,2.84-0.82,5.67-1.6,8.44c-1.3,4.66-3.35,8.92-6.55,12.58
		c-2.26,2.59-4.98,4.6-8.09,6.07c-0.46,0.22-0.9,0.29-1.4,0.16c-3.07-0.85-6.17-1.58-9.31-2.17
		C391.19,139.47,391.01,139.37,390.68,139.23z"/>
	<path class="st4" d="M392.74,102.86c0.04,2.52-0.21,5-0.8,7.45c-0.48,2.01-1.14,3.96-2.09,5.8c-0.17,0.33-0.38,0.62-0.64,0.88
		c-0.8,0.8-1.58,1.62-2.36,2.43c-0.19,0.2-0.38,0.29-0.64,0.19c-0.27-0.1-0.52-0.24-0.8-0.28c-0.78-0.13-0.99-0.57-1.04-1.34
		c-0.1-1.65-0.79-3.12-1.67-4.49c-0.26-0.41-0.54-0.81-0.86-1.17c-0.35-0.4-0.3-0.76-0.07-1.21c0.92-1.75,1.85-3.5,2.71-5.28
		c1.11-2.29,2.17-4.6,3.24-6.91c0.19-0.4,0.34-0.82,0.46-1.25c0.15-0.57-0.13-1.13-0.66-1.42c-0.41-0.22-0.98-0.17-1.35,0.19
		c-0.26,0.25-0.48,0.55-0.67,0.86c-0.73,1.21-1.45,2.43-2.14,3.66c-1.34,2.4-2.66,4.81-3.99,7.21c-0.12,0.21-0.23,0.43-0.36,0.63
		c-0.1,0.14-0.26,0.21-0.42,0.11c-0.24-0.15-0.46-0.32-0.69-0.49c-0.35-0.27-0.69-0.56-1.05-0.82c-1.01-0.75-2.11-0.77-3.21-0.26
		c-2.14,1-4.11,2.26-5.82,3.9c-1.18,1.13-2.09,2.46-2.62,4.03c-0.09,0.27-0.17,0.54-0.27,0.8c-0.09,0.22-0.29,0.25-0.51,0.21
		c-0.23-0.04-0.37-0.16-0.38-0.4c-0.01-0.16-0.01-0.32,0.01-0.48c0.29-2.62,0.76-5.19,1.68-7.67c1.72-4.62,4.5-8.46,8.49-11.41
		c3.3-2.45,7-4,10.95-5.01c1.52-0.39,3.08-0.65,4.62-0.96c0.16-0.03,0.32-0.04,0.48-0.04c0.46-0.02,0.56,0.04,0.69,0.48
		c0.37,1.36,0.74,2.73,0.97,4.12c0.23,1.43,0.49,2.87,0.64,4.31C392.7,100.43,392.69,101.65,392.74,102.86z"/>
	<path class="st5" d="M366.32,135.96c-0.73,0.02-1.37-0.04-2.01-0.09c-0.93-0.06-1.85-0.16-2.78-0.23c-0.3-0.02-0.45-0.17-0.41-0.47
		c0.05-0.35-0.14-0.54-0.44-0.62c-2.61-0.69-4.4-2.46-5.95-4.54c-0.88-1.17-1.62-2.42-2.3-3.7c-0.1-0.18-0.2-0.36-0.26-0.54
		c-0.15-0.41-0.1-0.79,0.21-1.12c1.88-2.02,3.88-3.89,6.38-5.15c0.83-0.42,1.71-0.71,2.64-0.86c1.37-0.22,2.65,0.03,3.86,0.68
		c0.5,0.26,0.98,0.56,1.48,0.84c0.17,0.1,0.34,0.23,0.6,0.13c0.11-0.42,0.02-0.85-0.04-1.28c-0.3-2.02,0.31-3.75,1.62-5.27
		c0.29-0.34,0.6-0.66,0.93-0.96c1.42-1.29,3.04-2.27,4.74-3.13c0.37-0.19,0.68-0.18,1.01,0.08c1.82,1.42,3.54,2.95,4.87,4.87
		c0.58,0.83,1.04,1.72,1.32,2.71c0.24,0.88,0.27,1.75,0.09,2.64c-0.06,0.32-0.13,0.63-0.17,0.95c-0.04,0.3,0.08,0.42,0.42,0.45
		c0.12,0.01,0.24,0.02,0.36,0.02c1.61-0.06,3,0.53,4.3,1.42c1.14,0.78,2.13,1.73,3.08,2.73c0.45,0.47,0.52,0.95,0.21,1.54
		c-1.08,2-2.29,3.91-4.13,5.31c-0.13,0.1-0.25,0.2-0.38,0.3c-0.23,0.18-0.23,0.41-0.12,0.65c0.12,0.26,0.26,0.51,0.36,0.77
		c0.54,1.33,0.77,2.71,0.76,4.14c0,0.24-0.14,0.38-0.38,0.35c-0.44-0.06-0.88-0.14-1.32-0.21c-1.16-0.18-2.32-0.35-3.47-0.53
		c-0.39-0.06-0.47-0.18-0.31-0.58c0.54-1.37,0.79-2.79,0.76-4.26c-0.02-0.91,0.23-1.75,0.78-2.5c0.41-0.56,0.73-1.16,0.97-1.81
		c0.3-0.81,0.27-1.6-0.32-2.28c-0.75-0.86-1.05-1.89-1.21-2.99c-0.28-1.89-0.79-2.41-2.65-2.74c-0.36-0.06-0.72-0.08-1.09-0.1
		c-1.08-0.04-2.06-0.33-2.9-1.05c-0.59-0.5-1.28-0.85-2-1.12c-0.97-0.37-1.73-0.19-2.38,0.62c-0.4,0.5-0.76,1.05-1.06,1.62
		c-0.57,1.12-1.45,1.81-2.65,2.13c-0.83,0.22-1.58,0.62-2.29,1.08c-0.7,0.45-1.04,1.08-1.07,1.92c-0.04,1.54,0.25,2.96,1.27,4.18
		c0.7,0.84,0.98,1.83,0.81,2.94c-0.09,0.56-0.05,1.13,0.06,1.69C366.19,135.01,366.24,135.44,366.32,135.96z"/>
	<path class="st6" d="M368.52,132.64c0.12-1.41-0.34-2.89-1.36-4.18c-0.5-0.63-0.77-1.31-0.77-2.11c0-0.37,0.13-0.63,0.46-0.77
		c0.44-0.19,0.88-0.41,1.34-0.55c1.71-0.51,3-1.54,3.83-3.13c0.15-0.29,0.32-0.56,0.49-0.83c0.16-0.25,0.39-0.27,0.63-0.13
		c0.28,0.16,0.57,0.32,0.81,0.53c1.13,0.95,2.44,1.39,3.89,1.49c1.93,0.14,1.65,0.02,1.95,1.73c0.17,1.01,0.59,1.93,1.2,2.75
		c0.23,0.3,0.26,0.57,0.05,0.88c-0.18,0.27-0.32,0.56-0.51,0.82c-0.83,1.16-1.16,2.48-1.17,3.88c0,0.81-0.06,1.61-0.28,2.4
		c-0.1,0.36-0.27,0.57-0.64,0.62c-1.05,0.15-2.09,0.21-3.1-0.25c-1.49-0.67-2.98-0.6-4.47,0.01c-0.45,0.18-0.92,0.31-1.38,0.45
		c-0.3,0.09-0.48-0.07-0.56-0.32C368.61,134.96,368.31,133.95,368.52,132.64z"/>
	<path class="st4" d="M350.49,128.12c-2.61,0.22-5.09-0.17-7.49-1.11c-3.17-1.24-5.7-3.32-7.8-5.96c-1.7-2.14-2.96-4.52-4.05-7.01
		c-0.04-0.09-0.04-0.26,0.02-0.32c0.06-0.07,0.21-0.06,0.33-0.07c0.04-0.01,0.08,0.01,0.12,0.03c4.2,1.45,8.51,2.52,12.73,3.89
		c2.23,0.72,4.44,1.48,6.62,2.33c0.34,0.13,0.68,0.26,1.01,0.41c0.75,0.34,0.76,0.41,0.22,0.98c-0.58,0.61-1.17,1.22-1.74,1.86
		c-1,1.14-0.99,2.41-0.44,3.73C350.18,127.27,350.51,127.61,350.49,128.12z"/>
	<path class="st4" d="M331.36,110.6c0.42-0.39,0.94-0.63,1.43-0.87c1.96-0.96,3.98-1.79,6.12-2.27c1.1-0.25,2.22-0.37,3.35-0.48
		c1.84-0.18,3.62,0.06,5.39,0.46c2.45,0.56,4.6,1.75,6.56,3.28c1.8,1.4,3.29,3.09,4.55,5c0.13,0.2,0.25,0.41,0.35,0.63
		c0.05,0.11,0.03,0.25-0.1,0.31c-0.87,0.42-1.74,0.85-2.62,1.26c-0.29,0.14-0.54-0.04-0.81-0.14c-1.5-0.59-3-1.19-4.52-1.75
		c-2.92-1.09-5.91-1.92-8.93-2.67c-3.37-0.83-6.74-1.62-10.12-2.42C331.78,110.88,331.54,110.86,331.36,110.6z"/>
	<path class="st3" d="M395.68,175.21c2.29,0.99,4.23,2.04,6.07,3.26c1.55,1.03,2.98,2.22,4.2,3.63c0.37,0.43,0.71,0.88,1.04,1.33
		c1.01,1.35,1.23,2.86,0.84,4.48c-0.31,1.28-0.91,2.41-1.64,3.48c-1.12,1.64-2.51,3.05-3.99,4.36c-0.36,0.32-0.74,0.63-1.11,0.93
		c-0.13,0.1-0.33-0.01-0.34-0.17c-0.01-0.12-0.01-0.24-0.01-0.36c-0.02-1.9-0.09-3.79-0.29-5.68c-0.54-5.15-1.81-10.07-4.44-14.58
		C395.93,175.76,395.87,175.61,395.68,175.21z"/>
	<path class="st3" d="M273,198.14c-0.31,0.09-0.48-0.11-0.66-0.25c-2.12-1.55-4.14-3.22-5.8-5.28c-1.14-1.42-2.11-2.94-2.55-4.76
		c-0.41-1.73-0.07-3.28,0.99-4.68c0.9-1.2,1.94-2.27,3.11-3.21c1.45-1.17,3-2.18,4.64-3.06c0.14-0.07,0.29-0.12,0.54-0.22
		c-0.09,1.12-0.49,2.08-0.65,3.1c-0.16,1-0.34,1.99-0.45,2.99c-0.12,1.04-0.2,2.09-0.25,3.13c-0.04,1.01-0.05,2.02-0.01,3.03
		c0.03,1.05,0.1,2.1,0.21,3.14c0.1,1,0.25,2,0.4,3C272.66,196.08,272.83,197.11,273,198.14z"/>
	<path class="st4" d="M328.56,134.68c0.06-0.2,0.06-0.29,0.1-0.34c2.23-2.5,4.79-4.56,7.88-5.89c0.19-0.08,0.37-0.16,0.56-0.24
		c1.59-0.6,1.57-0.57,3.12,0.26c1.75,0.93,3.63,1.53,5.58,1.9c1.76,0.34,3.53,0.29,5.3,0.21c0.74-0.03,1.24,0.19,1.61,0.8
		c0.21,0.34,0.45,0.65,0.69,0.99c-0.8,0.44-1.66,0.4-2.47,0.55c-2.26,0.43-4.48,0.98-6.69,1.6c-0.32,0.09-0.62,0.16-0.95,0.15
		C338.41,134.68,333.53,134.68,328.56,134.68z"/>
	<path class="st0" d="M384.66,256.94c-0.33,1.66-0.62,3.33-1,4.99c-1.46,6.51-3.77,12.69-7.25,18.4
		c-3.68,6.02-8.39,11.06-14.35,14.88c-5.08,3.25-10.6,5.32-16.57,6.13c-7.99,1.09-15.71-0.02-23.12-3.2
		c-7.31-3.14-13.41-7.89-18.49-13.98c-4.76-5.71-8.24-12.16-10.66-19.17c-0.35-1-0.87-1.61-1.81-2.07c-1.82-0.88-3.55-1.92-5.26-3
		c-0.31-0.19-0.63-0.38-0.9-0.61c-0.6-0.5-0.71-1.22-0.31-1.84c0.39-0.6,1.13-0.81,1.81-0.48c0.18,0.09,0.35,0.21,0.52,0.31
		c6.53,4.12,13.52,7.24,20.84,9.62c4.66,1.52,9.41,2.65,14.26,3.33c4.93,0.69,9.89,0.94,14.87,0.64
		c14.13-0.87,26.61-5.94,37.65-14.7c1.36-1.08,2.66-2.24,3.98-3.37c0.18-0.15,0.41-0.27,0.46-0.54c-0.03-0.24-0.22-0.19-0.36-0.18
		c-0.94,0.06-1.83,0.33-2.71,0.63c-1.19,0.4-2.33,0.92-3.42,1.53c-0.25,0.14-0.49,0.29-0.75,0.39c-0.63,0.26-1.34,0.03-1.7-0.52
		c-0.38-0.58-0.3-1.28,0.23-1.76c0.24-0.21,0.52-0.38,0.81-0.53c2.06-1.14,4.21-2.04,6.55-2.45c0.2-0.03,0.39-0.11,0.58-0.17
		c0.64,0,1.29-0.04,1.93-0.01c2.95,0.13,5.11,1.49,6.42,4.15c0.19,0.4,0.36,0.8,0.54,1.21c0.85,2.88,0.79,5.82,0.57,8.77
		c-0.02,0.24-0.06,0.48-0.11,0.72c-0.19,0.85-0.76,1.27-1.55,1.19c-0.75-0.08-1.22-0.67-1.2-1.55c0.01-0.44,0.06-0.89,0.11-1.33
		c0.18-1.82,0.18-3.63-0.17-5.43c0.05-0.34-0.05-0.61-0.4-0.97C384.66,256.41,384.66,256.68,384.66,256.94z M378.38,256.97
		c-0.22,0.17-0.45,0.34-0.67,0.52c-4.29,3.53-8.89,6.58-13.86,9.08c-8.3,4.18-17.1,6.54-26.36,7.1c-4.36,0.26-8.72,0.14-13.08-0.36
		c-4.26-0.5-8.46-1.29-12.6-2.39c-4.96-1.32-9.78-3.03-14.48-5.12c-0.26-0.12-0.53-0.39-0.92-0.21c0.49,1.43,1.12,2.78,1.71,4.15
		c0.26,0.61,0.61,1.09,1.2,1.44c0.73,0.43,1.38,0.98,2.09,1.46c4.42,3,9.01,5.7,13.96,7.74c2.85,1.18,5.76,2.11,8.84,2.45
		c0.36,0.04,0.73,0.05,1.08,0.11c0.68,0.12,1.14,0.7,1.12,1.38c-0.01,0.72-0.55,1.28-1.31,1.32c-0.28,0.02-0.57,0-0.85-0.02
		c-1.25-0.08-2.48-0.32-3.7-0.61c-3.24-0.77-6.31-1.99-9.3-3.42c-3.03-1.45-5.94-3.11-8.77-4.9c-0.16-0.1-0.33-0.41-0.62-0.15
		c0.05,0.11,0.09,0.23,0.15,0.33c3.94,6.14,8.84,11.34,15.02,15.26c8.03,5.09,16.75,7.47,26.29,6.61c3.93-0.36,7.72-1.3,11.35-2.84
		c6.87-2.9,12.44-7.46,16.87-13.42c5.3-7.11,8.29-15.19,9.91-23.84c0.02-0.11,0.12-0.31-0.18-0.39c-0.25,0.4-0.5,0.8-0.76,1.2
		c-4.85,7.69-11.14,13.92-19,18.53c-5.12,3-10.58,5.18-16.43,6.29c-0.43,0.08-0.88,0.14-1.32,0.14c-0.69,0-1.24-0.5-1.34-1.17
		c-0.09-0.63,0.33-1.31,0.97-1.5c0.27-0.08,0.56-0.1,0.83-0.16c1.1-0.24,2.22-0.44,3.31-0.73c8.1-2.2,15.24-6.17,21.43-11.83
		c3.78-3.46,7-7.39,9.61-11.8c0.31-0.39,0.31-0.39,0.29-0.72C378.69,256.62,378.47,256.72,378.38,256.97z"/>
	<path class="st0" d="M337.9,206.73c0.01-5.23,0.5-10.41,1.86-15.48c0.82-3.05,1.92-6,3.54-8.73c0.97-1.64,2.11-3.16,3.5-4.48
		c1.92-1.81,4.13-3.09,6.73-3.64c2.47-0.52,4.9-0.31,7.29,0.45c1.94,0.61,3.72,1.55,5.41,2.69c2.73,1.85,5.08,4.12,7.2,6.64
		c3.53,4.21,6.28,8.9,8.48,13.93c1.87,4.27,3.26,8.7,4.1,13.28c0.66,3.55,0.96,7.13,0.77,10.74c-0.16,3.16-0.69,6.26-1.76,9.25
		c-2.45,6.86-7.07,11.65-13.79,14.45c-2.52,1.05-5.13,1.74-7.86,1.87c-4.32,0.2-8.21-1.05-11.67-3.64c-2.19-1.64-3.99-3.65-5.54-5.9
		c-2.29-3.32-3.92-6.96-5.16-10.78c-1.42-4.36-2.3-8.82-2.76-13.38c-0.17-1.69-0.24-3.39-0.35-5.08
		C337.87,208.19,337.9,207.46,337.9,206.73z M340.67,206.67c-0.02,3.44,0.24,6.86,0.75,10.26c0.57,3.76,1.44,7.45,2.73,11.03
		c1.21,3.36,2.76,6.55,4.89,9.43c1.58,2.13,3.42,3.98,5.7,5.36c2.26,1.37,4.7,2.1,7.35,2.16c2.21,0.05,4.34-0.33,6.42-1.03
		c4.15-1.4,7.73-3.65,10.47-7.12c2.33-2.95,3.7-6.32,4.44-9.97c0.89-4.37,0.8-8.76,0.16-13.15c-0.62-4.21-1.75-8.29-3.31-12.25
		c-2.23-5.68-5.17-10.95-9.12-15.62c-1.75-2.08-3.69-3.96-5.9-5.55c-1.58-1.14-3.26-2.09-5.13-2.69c-4.4-1.41-8.28-0.54-11.61,2.7
		c-0.4,0.39-0.78,0.82-1.14,1.25c-0.88,1.06-1.62,2.22-2.26,3.44c-1.35,2.55-2.27,5.26-2.95,8.05
		C341.1,197.47,340.64,202.04,340.67,206.67z"/>
	<path class="st0" d="M335.7,206.97c0,7.25-0.92,13.94-2.96,20.48c-0.99,3.17-2.26,6.22-3.93,9.1c-1.53,2.64-3.35,5.05-5.65,7.07
		c-2.74,2.41-5.86,4-9.49,4.51c-2.38,0.34-4.76,0.21-7.1-0.35c-4.57-1.09-8.64-3.13-12.05-6.4c-3.39-3.25-5.49-7.25-6.67-11.76
		c-0.88-3.35-1.14-6.76-1.04-10.21c0.18-6.12,1.53-12,3.68-17.71c2.34-6.21,5.52-11.95,9.8-17.04c1.93-2.3,4.07-4.38,6.53-6.12
		c2.19-1.56,4.54-2.79,7.18-3.4c4.19-0.98,8.02-0.2,11.46,2.38c1.77,1.33,3.17,2.99,4.36,4.84c1.77,2.74,2.96,5.74,3.85,8.86
		c0.92,3.23,1.47,6.53,1.78,9.88C335.64,203.19,335.67,205.29,335.7,206.97z M332.93,209.64c0.1-6.04-0.31-10.9-1.42-15.69
		c-0.71-3.04-1.7-5.98-3.2-8.73c-0.88-1.6-1.91-3.1-3.22-4.38c-3.28-3.19-7.1-4.14-11.48-2.75c-2.39,0.75-4.47,2.04-6.41,3.59
		c-3.05,2.45-5.58,5.38-7.75,8.62c-5.42,8.1-8.8,16.94-9.74,26.68c-0.39,4.02-0.2,8,0.81,11.91c1.76,6.78,5.74,11.75,12.17,14.65
		c2.45,1.11,5,1.85,7.7,1.97c3.6,0.16,6.85-0.89,9.75-3.03c1.74-1.29,3.2-2.84,4.47-4.58c1.9-2.59,3.34-5.43,4.48-8.42
		C331.68,222.73,332.75,215.7,332.93,209.64z"/>
	<path class="st5" d="M282.84,240.24c0.04,0,0.08,0,0.12,0c1.96-0.14,3.85,0.23,5.72,0.75c1.53,0.43,2.92,1.18,4.13,2.2
		c1.84,1.55,1.78,4.08,0.27,5.56c-0.88,0.86-1.86,1.55-2.99,2c-1.46,0.58-2.96,0.98-4.54,1.18c-1.17,0.15-2.32,0.23-3.49,0.19
		c-2.48-0.07-4.89-0.55-7.12-1.63c-1.19-0.57-2.31-1.3-3.05-2.49c-0.82-1.33-0.74-2.99,0.38-4.23c1.12-1.24,2.5-2.01,4.04-2.55
		C278.06,240.6,279.95,240.13,282.84,240.24z"/>
	<path class="st5" d="M387.42,254.58c-0.18-0.4-0.34-0.81-0.54-1.21c-1.31-2.66-3.47-4.03-6.42-4.15c-0.64-0.03-1.28,0-1.93,0.01
		c0.11-0.47,0-0.96,0.15-1.44c0.36-1.12,1.08-1.97,2.01-2.65c1.42-1.04,3.06-1.58,4.76-1.99c1.93-0.47,3.9-0.59,5.87-0.48
		c2.97,0.17,5.78,0.86,8.28,2.6c1.18,0.82,1.76,1.96,1.99,3.3c0.09,0.57-0.17,1.12-0.45,1.6c-0.42,0.74-0.94,1.36-1.66,1.87
		c-1.82,1.29-3.87,1.89-6.03,2.29c-1.17,0.22-2.32,0.2-3.48,0.22C389.11,254.58,388.27,254.58,387.42,254.58z"/>
	<path class="st7" d="M441.64,286.53c0.1,2.41-0.35,4.62-0.76,6.84c-0.06,0.31-0.17,0.63-0.29,0.92c-0.24,0.56-0.88,0.89-1.37,0.72
		c-0.57-0.19-1-0.84-0.88-1.42c0.13-0.63,0.29-1.26,0.43-1.88c0.54-2.3,0.57-4.64,0.44-6.98c-0.07-1.24-0.33-2.47-0.64-3.68
		c-0.34-1.33-0.82-2.62-1.39-3.86c-0.67-1.47-1.56-2.82-2.55-4.1c-0.74-0.96-1.6-1.82-2.47-2.66c-0.34-0.33-0.54-0.7-0.36-1.19
		c0.25-0.71,0.99-1.03,1.66-0.69c0.25,0.13,0.48,0.3,0.69,0.49c1.56,1.43,2.84,3.07,3.96,4.86c1.7,2.71,2.71,5.67,3.24,8.8
		C441.57,284,441.79,285.33,441.64,286.53z"/>
	<path class="st7" d="M438.5,300.35c-0.06,0.67-0.57,1.08-1.09,1.45c-0.5,0.35-1.01,0.31-1.45-0.03c-0.42-0.32-0.64-1.14-0.45-1.63
		c0.21-0.55,0.61-0.94,1.08-1.26c0.42-0.28,0.96-0.22,1.33,0.13C438.29,299.37,438.51,299.79,438.5,300.35z"/>
	<path class="st3" d="M384.66,256.94c0-0.27,0-0.53,0-0.96c0.35,0.36,0.45,0.64,0.4,0.97C384.93,256.95,384.8,256.95,384.66,256.94z
		"/>
	<path class="st7" d="M412.31,166.58c0,0.98-0.03,1.75,0.01,2.52c0.03,0.6-0.26,0.99-0.69,1.33c-0.2,0.16-0.43,0.22-0.67,0.09
		c-0.24-0.13-0.33-0.35-0.32-0.61c0-0.16,0.03-0.32,0.08-0.47c0.17-0.6,0.16-1.19,0-1.79c-0.06-0.23-0.09-0.48-0.1-0.72
		c-0.03-3.46-0.8-6.78-1.95-10.02c-0.45-1.26-1.01-2.46-1.63-3.64c-0.09-0.18-0.19-0.36-0.27-0.54c-0.31-0.66-0.05-1.4,0.6-1.71
		c0.37-0.18,0.8-0.05,1.02,0.37c0.38,0.71,0.77,1.42,1.08,2.17c0.79,1.85,1.51,3.73,1.93,5.71c0.27,1.26,0.5,2.52,0.72,3.78
		C412.32,164.31,412.26,165.55,412.31,166.58z"/>
	<path class="st7" d="M410.36,174.4c-0.12-0.83,0.45-1.29,1.04-1.72c0.31-0.23,0.77-0.02,0.87,0.34c0.2,0.77-0.4,1.9-1.16,2.16
		c-0.38,0.13-0.73-0.01-0.74-0.51C410.36,174.59,410.36,174.51,410.36,174.4z"/>
	<path class="st7" d="M378.61,257.24c-2.61,4.41-5.82,8.35-9.61,11.8c-6.19,5.65-13.32,9.63-21.43,11.83
		c-1.09,0.3-2.21,0.49-3.31,0.73c-0.28,0.06-0.56,0.08-0.83,0.16c-0.64,0.19-1.07,0.87-0.97,1.5c0.1,0.66,0.65,1.17,1.34,1.17
		c0.44,0,0.89-0.06,1.32-0.14c5.85-1.11,11.3-3.28,16.43-6.29c7.86-4.61,14.15-10.83,19-18.53c0.25-0.4,0.51-0.81,0.76-1.2
		c0.3,0.08,0.2,0.28,0.18,0.39c-1.62,8.64-4.62,16.73-9.91,23.84c-4.44,5.96-10,10.52-16.87,13.42c-3.64,1.53-7.42,2.48-11.35,2.84
		c-9.54,0.86-18.26-1.52-26.29-6.61c-6.18-3.92-11.08-9.12-15.02-15.26c-0.06-0.1-0.1-0.22-0.15-0.33c0.28-0.26,0.45,0.05,0.62,0.15
		c2.83,1.8,5.74,3.45,8.77,4.9c2.99,1.43,6.06,2.65,9.3,3.42c1.22,0.29,2.45,0.52,3.7,0.61c0.28,0.02,0.57,0.04,0.85,0.02
		c0.75-0.05,1.29-0.6,1.31-1.32c0.01-0.67-0.45-1.26-1.12-1.38c-0.36-0.06-0.72-0.07-1.08-0.11c-3.08-0.34-5.99-1.27-8.84-2.45
		c-4.95-2.05-9.54-4.74-13.96-7.74c-0.7-0.48-1.36-1.03-2.09-1.46c-0.6-0.35-0.94-0.83-1.2-1.44c-0.59-1.36-1.21-2.71-1.71-4.15
		c0.39-0.19,0.65,0.09,0.92,0.21c4.69,2.08,9.51,3.8,14.48,5.12c4.14,1.1,8.34,1.9,12.6,2.39c4.35,0.51,8.71,0.63,13.08,0.36
		c9.26-0.56,18.06-2.92,26.36-7.1c4.97-2.5,9.57-5.55,13.86-9.08c0.22-0.18,0.44-0.35,0.66-0.52
		C378.46,257.06,378.53,257.15,378.61,257.24z"/>
	<path class="st3" d="M378.61,257.24c-0.08-0.09-0.15-0.17-0.23-0.26c0.09-0.25,0.31-0.35,0.52-0.46
		C378.91,256.84,378.91,256.84,378.61,257.24z"/>
	<path class="st7" d="M340.67,206.67c-0.03-4.63,0.43-9.2,1.51-13.7c0.67-2.8,1.6-5.5,2.95-8.05c0.64-1.22,1.38-2.38,2.26-3.44
		c0.36-0.43,0.74-0.86,1.14-1.25c3.32-3.24,7.21-4.1,11.61-2.7c1.86,0.6,3.54,1.55,5.13,2.69c2.21,1.59,4.15,3.48,5.9,5.55
		c3.95,4.68,6.89,9.94,9.12,15.62c1.56,3.96,2.69,8.04,3.31,12.25c0.65,4.39,0.73,8.77-0.16,13.15c-0.74,3.65-2.12,7.03-4.44,9.97
		c-2.74,3.47-6.32,5.72-10.47,7.12c-2.08,0.7-4.22,1.08-6.42,1.03c-2.65-0.06-5.09-0.79-7.35-2.16c-2.28-1.38-4.13-3.24-5.7-5.36
		c-2.13-2.88-3.68-6.07-4.89-9.43c-1.29-3.58-2.16-7.27-2.73-11.03C340.91,213.53,340.65,210.11,340.67,206.67z M343.15,209.14
		c0.21,1.61,0.41,3,0.72,4.38c0.99,4.38,2.63,8.47,5.17,12.19c1.31,1.91,2.82,3.64,4.65,5.07c1.25,0.98,2.59,1.8,4.09,2.31
		c3.68,1.25,6.92,0.54,9.69-2.21c1.01-1,1.78-2.19,2.41-3.46c1.29-2.61,1.92-5.39,2.13-8.27c0.24-3.36,0.02-6.7-0.71-10
		c-1-4.5-2.66-8.72-5.29-12.52c-1.32-1.91-2.84-3.63-4.67-5.05c-1.35-1.05-2.81-1.89-4.45-2.4c-1.13-0.35-2.29-0.47-3.47-0.39
		c-0.11,0.01-0.24-0.01-0.29,0.15c-0.04,0.14,0.04,0.23,0.11,0.31c1.07,1.23,1.58,2.7,1.86,4.28c0.34,1.93,0.28,3.86-0.06,5.79
		c-0.46,2.65-1.37,5.14-2.89,7.38c-0.69,1.01-1.48,1.92-2.45,2.66c-0.68,0.51-1.42,0.9-2.26,1.13c-1.17,0.31-2.24,0.1-3.23-0.56
		C343.91,209.73,343.63,209.5,343.15,209.14z"/>
	<path class="st7" d="M332.93,209.64c-0.18,6.06-1.25,13.09-3.83,19.85c-1.14,2.99-2.58,5.83-4.48,8.42
		c-1.28,1.74-2.74,3.29-4.47,4.58c-2.9,2.15-6.14,3.2-9.75,3.03c-2.69-0.12-5.25-0.86-7.7-1.97c-6.43-2.91-10.41-7.87-12.17-14.65
		c-1.02-3.91-1.2-7.89-0.81-11.91c0.94-9.74,4.32-18.58,9.74-26.68c2.17-3.24,4.7-6.18,7.75-8.62c1.93-1.55,4.02-2.84,6.41-3.59
		c4.38-1.39,8.2-0.44,11.48,2.75c1.32,1.28,2.35,2.77,3.22,4.38c1.5,2.75,2.49,5.69,3.2,8.73
		C332.62,198.74,333.03,203.6,332.93,209.64z M304.49,204c-0.06,0.1-0.13,0.18-0.16,0.28c-1.94,5.45-2.71,11.04-1.9,16.8
		c0.28,2,0.81,3.95,1.66,5.8c0.73,1.59,1.65,3.06,2.93,4.27c1.85,1.75,4.04,2.64,6.6,2.52c1.43-0.07,2.78-0.47,4.06-1.09
		c1.62-0.78,3.04-1.84,4.32-3.08c2.11-2.04,3.78-4.42,5.12-7.02c2.21-4.28,3.5-8.83,3.96-13.63c0.31-3.21,0.15-6.38-0.56-9.51
		c-0.54-2.38-1.44-4.62-2.91-6.6c-0.96-1.28-2.1-2.35-3.54-3.06c-2.33-1.16-4.72-1.2-7.13-0.35c-0.03,0.34,0.16,0.52,0.28,0.72
		c0.66,1.13,1,2.37,1.21,3.65c0.35,2.15,0.16,4.27-0.3,6.38c-0.6,2.71-1.66,5.23-3.42,7.41c-0.66,0.82-1.42,1.55-2.32,2.11
		c-2.56,1.59-5.1,0.93-6.56-1.72c-0.51-0.93-0.83-1.92-1.02-2.96C304.76,204.61,304.8,204.26,304.49,204z"/>
	<path class="st8" d="M343.15,209.14c0.48,0.36,0.75,0.59,1.05,0.78c0.99,0.66,2.06,0.87,3.23,0.56c0.84-0.22,1.58-0.61,2.26-1.13
		c0.98-0.74,1.77-1.65,2.45-2.66c1.52-2.24,2.43-4.73,2.89-7.38c0.34-1.92,0.4-3.85,0.06-5.79c-0.28-1.58-0.79-3.04-1.86-4.28
		c-0.07-0.09-0.16-0.17-0.11-0.31c0.05-0.16,0.18-0.14,0.29-0.15c1.18-0.08,2.33,0.04,3.47,0.39c1.64,0.51,3.1,1.35,4.45,2.4
		c1.83,1.43,3.35,3.15,4.67,5.05c2.63,3.81,4.29,8.02,5.29,12.52c0.73,3.3,0.96,6.63,0.71,10c-0.21,2.88-0.84,5.66-2.13,8.27
		c-0.63,1.28-1.4,2.46-2.41,3.46c-2.77,2.74-6.01,3.46-9.69,2.21c-1.51-0.51-2.85-1.33-4.09-2.31c-1.83-1.44-3.34-3.16-4.65-5.07
		c-2.54-3.71-4.18-7.81-5.17-12.19C343.57,212.14,343.36,210.75,343.15,209.14z M369.42,219.63c-0.01-0.61-0.01-1.21-0.29-1.78
		c-0.37-0.76-0.97-1.16-1.83-1.17c-0.58-0.01-1.12,0.15-1.63,0.39c-0.81,0.38-1.54,0.89-2.19,1.5c-1.74,1.63-3.02,3.56-3.85,5.8
		c-0.31,0.84-0.5,1.7-0.57,2.6c-0.05,0.61,0.01,1.22,0.23,1.79c0.32,0.83,0.91,1.31,1.84,1.33c0.58,0.01,1.13-0.12,1.64-0.35
		c0.82-0.37,1.54-0.88,2.2-1.49c1.81-1.68,3.13-3.68,3.95-6.02C369.21,221.39,369.41,220.53,369.42,219.63z"/>
	<path class="st8" d="M304.49,204c0.31,0.26,0.26,0.61,0.32,0.92c0.19,1.04,0.5,2.04,1.02,2.96c1.46,2.64,4.01,3.31,6.56,1.72
		c0.9-0.56,1.66-1.29,2.32-2.11c1.76-2.18,2.82-4.7,3.42-7.41c0.46-2.1,0.65-4.23,0.3-6.38c-0.21-1.29-0.55-2.52-1.21-3.65
		c-0.12-0.2-0.31-0.38-0.28-0.72c2.41-0.85,4.79-0.81,7.13,0.35c1.44,0.72,2.59,1.78,3.54,3.06c1.47,1.98,2.37,4.22,2.91,6.6
		c0.72,3.14,0.87,6.3,0.56,9.51c-0.46,4.8-1.75,9.35-3.96,13.63c-1.34,2.6-3,4.98-5.12,7.02c-1.29,1.24-2.7,2.3-4.32,3.08
		c-1.29,0.62-2.63,1.03-4.06,1.09c-2.56,0.12-4.75-0.78-6.6-2.52c-1.28-1.21-2.21-2.67-2.93-4.27c-0.85-1.85-1.38-3.8-1.66-5.8
		c-0.81-5.76-0.04-11.35,1.9-16.8C304.37,204.19,304.44,204.1,304.49,204z M314.53,227.59c0,0.01-0.01,0.3,0.03,0.57
		c0.22,1.68,1.39,2.43,3.03,1.96c0.67-0.19,1.28-0.49,1.83-0.91c2.94-2.24,4.81-5.16,5.46-8.82c0.13-0.72,0.07-1.45-0.17-2.15
		c-0.35-0.98-1.1-1.47-2.15-1.4c-0.53,0.04-1.03,0.19-1.5,0.42c-0.73,0.36-1.39,0.82-1.99,1.37c-1.88,1.72-3.24,3.79-4.06,6.2
		C314.73,225.64,314.52,226.46,314.53,227.59z"/>
	<path class="st7" d="M369.42,219.63c0,0.9-0.21,1.76-0.51,2.61c-0.82,2.33-2.14,4.34-3.95,6.02c-0.66,0.61-1.38,1.12-2.2,1.49
		c-0.52,0.24-1.06,0.37-1.64,0.35c-0.92-0.02-1.52-0.5-1.84-1.33c-0.22-0.57-0.28-1.18-0.23-1.79c0.07-0.89,0.26-1.75,0.57-2.6
		c0.83-2.24,2.11-4.17,3.85-5.8c0.65-0.61,1.37-1.13,2.19-1.5c0.52-0.24,1.05-0.4,1.63-0.39c0.86,0.01,1.45,0.4,1.83,1.17
		C369.4,218.42,369.41,219.03,369.42,219.63z"/>
	<path class="st7" d="M314.53,227.59c0-1.13,0.2-1.95,0.48-2.75c0.82-2.42,2.18-4.48,4.06-6.2c0.6-0.55,1.26-1.01,1.99-1.37
		c0.47-0.23,0.97-0.38,1.5-0.42c1.04-0.07,1.8,0.42,2.15,1.4c0.25,0.7,0.3,1.42,0.17,2.15c-0.65,3.66-2.52,6.58-5.46,8.82
		c-0.54,0.42-1.16,0.72-1.83,0.91c-1.63,0.46-2.8-0.29-3.03-1.96C314.52,227.89,314.53,227.6,314.53,227.59z"/>
</g>
<g>
	<path class="st9" d="M118.69,138.59c-0.3-0.67-0.53-1.2-0.77-1.73c-1.34-2.94-2.49-5.93-3.17-9.1c-1.22-5.65-0.39-10.96,2.73-15.86
		c1.76-2.76,3.77-5.34,5.86-7.86c1.32-1.58,2.43-3.3,3.21-5.21c1.31-3.21,1.52-6.54,1.06-9.93c-0.51-3.81-1.79-7.38-3.64-10.75
		c-0.16-0.3-0.34-0.59-0.47-0.91c-0.6-1.44,0.36-2.88,1.91-2.78c0.87,0.06,1.74,0.25,2.6,0.42c7.85,1.56,15.57,3.58,23.07,6.41
		c7.78,2.94,15.19,6.6,22.03,11.38c8.3,5.8,15.3,12.86,20.7,21.46c4.54,7.22,7.56,15.05,9.24,23.41c0.91,4.51,1.4,9.06,1.4,13.66
		c0,0.63,0.22,1.05,0.64,1.53c0.98,1.1,2.11,1.51,3.59,1.49c3.05-0.04,6.01,0.59,8.88,1.6c5.45,1.91,9.7,5.33,12.8,10.19
		c2.39,3.74,3.9,7.85,4.86,12.17c0.73,3.29,1.08,6.64,1.29,10c0.21,3.42,0.01,6.83-0.2,10.24c-0.06,0.91-0.08,0.92,0.82,1.23
		c2.26,0.78,4.49,1.63,6.66,2.62c4.7,2.13,9.04,4.81,12.84,8.32c5.47,5.06,9,11.23,10.43,18.56c0.78,4,0.89,8.04,0.5,12.1
		c-0.59,6.08-2.24,11.87-4.72,17.43c-0.1,0.22-0.2,0.44-0.3,0.67c-0.32,0.76-0.15,0.88,0.53,0.89c5.4,0.07,10.19,1.95,14.61,4.93
		c5.82,3.92,10.34,9.03,13.84,15.07c2.96,5.1,5.12,10.51,6.22,16.32c1.14,6.07,1.16,12.11-0.31,18.15
		c-1.06,4.38-3.34,7.97-6.65,10.96c-3,2.71-6.43,4.74-10.11,6.37c-5.06,2.23-10.32,3.81-15.72,4.98
		c-5.29,1.15-10.65,1.93-16.03,2.55c-2.71,0.31-5.44,0.48-8.17,0.69c-2.58,0.2-5.16,0.41-7.74,0.53
		c-7.17,0.32-14.34,0.44-21.51,0.57c-4.88,0.08-9.76-0.12-14.63-0.44c-2-0.13-4-0.21-5.99-0.34c-4.24-0.27-8.47-0.56-12.71-0.85
		c-3.31-0.22-6.62-0.45-9.93-0.69c-3.36-0.24-6.71-0.51-10.07-0.76c-2-0.14-3.99-0.26-5.99-0.38c-2.73-0.17-5.45-0.36-8.18-0.51
		c-3.22-0.18-6.43-0.31-9.65-0.48c-5.27-0.27-10.54-0.26-15.81-0.1c-3.51,0.11-7.02,0.33-10.51,0.7c-3.44,0.36-6.9,0.65-10.34,1.01
		c-2.67,0.28-5.33,0.63-7.99,0.94c-2.08,0.24-4.16,0.5-6.25,0.71c-4.37,0.44-8.75,0.73-13.14,0.92c-2.58,0.12-5.17,0.22-7.76,0.23
		c-5.44,0.02-10.8-0.61-16.02-2.24c-5.08-1.59-9.75-3.95-13.85-7.37c-5.32-4.44-8.86-10.07-10.99-16.62
		c-1.36-4.2-2.14-8.5-2.42-12.91c-0.18-2.89-0.16-5.76,0.15-8.63c0.76-7.09,3.48-13.36,8.1-18.79c3.58-4.21,7.87-7.57,12.63-10.33
		c3.94-2.28,8.11-4.02,12.45-5.38c1.48-0.46,1.63-0.13,1.03-1.95c-1.02-3.1-1.95-6.23-2.51-9.46c-1.39-8.03-0.81-15.84,2.46-23.37
		c1.89-4.35,4.59-8.15,7.88-11.54c4.82-4.97,10.46-8.74,16.75-11.58c1.51-0.68,3.06-1.26,4.6-1.88c0.76-0.31,0.82-0.38,0.6-1.19
		c-0.62-2.36-1.14-4.74-1.54-7.15c-1.06-6.36-1.26-12.73-0.06-19.08c1.86-9.83,6.89-17.72,14.85-23.75
		c4.76-3.6,10.09-6.07,15.74-7.89C114.44,139.54,116.48,139.06,118.69,138.59z M127.94,78.46c-0.07,0.31,0.11,0.56,0.22,0.82
		c1.29,2.86,2.21,5.84,2.66,8.95c0.37,2.57,0.42,5.15-0.04,7.72c-0.67,3.74-2.26,7.04-4.67,9.95c-2.08,2.52-4.12,5.08-5.88,7.84
		c-1.8,2.83-2.74,5.91-2.75,9.27c-0.01,2.47,0.55,4.84,1.29,7.17c0.97,3.03,2.35,5.88,3.74,8.74c1,2.07,1.18,1.58-1.07,2.55
		c-0.26,0.11-0.57,0.13-0.85,0.18c-2.45,0.43-4.88,0.98-7.25,1.75c-5.38,1.73-10.44,4.1-14.94,7.56
		c-5.51,4.24-9.57,9.57-11.89,16.15c-2.09,5.91-2.47,12.01-2.01,18.2c0.28,3.8,0.99,7.54,1.93,11.23c0.34,1.32,0.68,2.64,1.01,3.97
		c0.12,0.48,0.04,0.64-0.36,0.8c-0.23,0.09-0.46,0.16-0.69,0.23c-2.01,0.61-3.96,1.38-5.89,2.21c-6.29,2.73-11.94,6.4-16.72,11.36
		c-3.01,3.12-5.49,6.6-7.21,10.59c-2.95,6.85-3.42,13.96-2.21,21.24c0.51,3.04,1.39,5.98,2.33,8.91c0.4,1.25,0.82,2.5,1.21,3.76
		c0.21,0.66,0.12,0.78-0.44,1.23c-0.51,0.41-1.12,0.58-1.73,0.75c-2.68,0.74-5.31,1.64-7.88,2.72c-6.05,2.55-11.48,6.03-16.09,10.73
		c-3.61,3.69-6.3,7.93-7.83,12.89c-1.02,3.29-1.4,6.66-1.44,10.1c-0.07,5.61,0.67,11.1,2.46,16.42c2.47,7.33,6.81,13.22,13.42,17.35
		c5.88,3.67,12.34,5.52,19.21,6.06c2.92,0.23,5.85,0.29,8.78,0.11c3.26-0.2,6.53-0.25,9.8-0.47c2.82-0.19,5.64-0.49,8.45-0.78
		c3.01-0.31,6.01-0.67,9.02-1c3.2-0.35,6.4-0.73,9.6-1.05c2.62-0.26,5.25-0.46,7.87-0.7c2.92-0.26,5.84-0.45,8.77-0.48
		c5.37-0.07,10.74-0.12,16.1,0.21c2.82,0.18,5.65,0.27,8.48,0.42c1.8,0.09,3.61,0.2,5.41,0.32c3.5,0.24,7.01,0.5,10.51,0.75
		c3.46,0.24,6.91,0.46,10.37,0.71c4.57,0.33,9.14,0.72,13.72,1.02c4.92,0.33,9.84,0.65,14.76,0.87c3.9,0.18,7.8,0.4,11.71,0.29
		c1.37-0.04,2.73-0.07,4.1-0.09c5.91-0.07,11.81-0.23,17.71-0.46c0.44-0.02,0.88-0.05,1.32-0.08c2.19-0.15,4.38-0.3,6.57-0.47
		c2.68-0.21,5.36-0.38,8.02-0.68c4.36-0.5,8.7-1.13,13.02-1.96c5.57-1.07,11.02-2.54,16.28-4.69c3.77-1.55,7.32-3.47,10.4-6.17
		c2.62-2.3,4.62-5.01,5.62-8.4c0.71-2.4,1.14-4.85,1.3-7.33c0.26-4.02-0.1-7.99-0.98-11.92c-1.47-6.52-4.24-12.45-8.1-17.88
		c-3.18-4.47-7.09-8.18-11.8-11.02c-2.96-1.79-6.13-2.96-9.6-3.32c-1.81-0.19-3.61-0.1-5.41-0.14c-0.63-0.01-1.26,0-1.89,0
		c-0.08-0.46,0.07-0.76,0.2-1.07c0.41-0.94,0.81-1.88,1.22-2.82c1.28-2.9,2.55-5.8,3.46-8.85c1.97-6.63,2.81-13.35,1.63-20.24
		c-0.78-4.55-2.45-8.72-5.13-12.48c-2.79-3.91-6.34-7.01-10.39-9.55c-3.78-2.38-7.85-4.13-12.06-5.59c-0.97-0.34-1.94-0.65-2.91-1
		c-0.8-0.29-0.82-0.36-0.73-1.16c0.14-1.26,0.32-2.52,0.39-3.78c0.29-5.57,0.23-11.12-0.83-16.63c-0.74-3.86-1.91-7.56-3.82-11.02
		c-2.12-3.85-5.02-6.95-8.94-9.02c-2.48-1.32-5.14-2.1-7.91-2.53c-0.46-0.07-0.95-0.19-1.47,0c0.04,0.34,0.26,0.54,0.44,0.75
		c1.37,1.65,2.7,3.34,3.94,5.09c1.61,2.27,3.13,4.6,4.52,7.01c0.19,0.33,0.43,0.65,0.48,1.05c0.03,0.26-0.35,0.6-0.59,0.49
		c-0.22-0.1-0.43-0.23-0.61-0.39c-0.9-0.82-1.79-1.66-2.69-2.49c-2.94-2.72-5.98-5.33-9.21-7.7c-3.83-2.81-7.86-5.27-12.29-7.04
		c-2.75-1.1-5.59-1.71-8.57-1.54c-1.66,0.09-3.3,0.36-4.94,0.57c-3.75,0.49-7.37,1.44-10.84,2.92c-1.88,0.8-3.74,1.68-5.61,2.51
		c-0.4,0.18-0.8,0.37-1.21,0.51c-0.43,0.14-0.77-0.14-0.75-0.61c0.02-0.44,0.06-0.88,0.16-1.3c0.22-0.95,0.52-1.88,0.91-2.78
		c1.6-3.68,4.07-6.63,7.35-8.93c3.54-2.48,7.44-3.81,11.79-3.72c2.07,0.04,4.08,0.42,6.04,1.01c3.99,1.21,7.75,2.92,11.21,5.28
		c0.32,0.22,0.65,0.43,1,0.61c0.1,0.05,0.3,0,0.32-0.19c0.02-0.29,0.02-0.58,0.01-0.87c-0.14-4.31-0.84-8.54-1.86-12.72
		c-1.99-8.09-5.32-15.58-10.15-22.39c-4.97-7.01-11.06-12.86-18.11-17.73c-6.71-4.63-13.97-8.16-21.59-11
		c-6.69-2.49-13.57-4.3-20.55-5.77C128.52,78.38,128.23,78.28,127.94,78.46z"/>
	<path class="st10" d="M127.94,78.46c0.28-0.18,0.57-0.08,0.85-0.02c6.98,1.47,13.86,3.27,20.55,5.77c7.62,2.84,14.89,6.37,21.59,11
		c7.05,4.87,13.14,10.73,18.11,17.73c4.83,6.81,8.16,14.3,10.15,22.39c1.03,4.18,1.72,8.41,1.86,12.72
		c0.01,0.29,0.01,0.58-0.01,0.87c-0.01,0.19-0.21,0.24-0.32,0.19c-0.34-0.18-0.67-0.39-1-0.61c-3.46-2.35-7.22-4.07-11.21-5.28
		c-1.97-0.6-3.97-0.97-6.04-1.01c-4.36-0.09-8.26,1.24-11.79,3.72c-3.27,2.29-5.75,5.25-7.35,8.93c-0.39,0.9-0.69,1.82-0.91,2.78
		c-0.1,0.43-0.14,0.87-0.16,1.3c-0.02,0.47,0.32,0.75,0.75,0.61c0.41-0.14,0.81-0.33,1.21-0.51c1.87-0.84,3.72-1.71,5.61-2.51
		c3.47-1.48,7.1-2.43,10.84-2.92c1.64-0.21,3.28-0.48,4.94-0.57c2.98-0.17,5.82,0.45,8.57,1.54c4.43,1.77,8.46,4.23,12.29,7.04
		c3.23,2.37,6.26,4.98,9.21,7.7c0.9,0.83,1.78,1.67,2.69,2.49c0.18,0.16,0.39,0.29,0.61,0.39c0.24,0.11,0.62-0.23,0.59-0.49
		c-0.05-0.4-0.29-0.72-0.48-1.05c-1.39-2.41-2.91-4.74-4.52-7.01c-1.25-1.75-2.57-3.44-3.94-5.09c-0.18-0.22-0.4-0.42-0.44-0.75
		c0.52-0.2,1-0.08,1.47,0c2.77,0.43,5.43,1.21,7.91,2.53c3.92,2.08,6.81,5.17,8.94,9.02c1.9,3.45,3.07,7.16,3.82,11.02
		c1.06,5.5,1.12,11.06,0.83,16.63c-0.07,1.26-0.25,2.52-0.39,3.78c-0.09,0.81-0.07,0.87,0.73,1.16c0.96,0.35,1.94,0.66,2.91,1
		c4.21,1.46,8.28,3.21,12.06,5.59c4.05,2.55,7.6,5.64,10.39,9.55c2.68,3.76,4.35,7.93,5.13,12.48c1.18,6.89,0.34,13.6-1.63,20.24
		c-0.91,3.05-2.18,5.95-3.46,8.85c-0.41,0.94-0.81,1.88-1.22,2.82c-0.13,0.31-0.28,0.61-0.2,1.07c0.63,0,1.26-0.01,1.89,0
		c1.8,0.04,3.61-0.05,5.41,0.14c3.47,0.36,6.64,1.53,9.6,3.32c4.71,2.84,8.62,6.55,11.8,11.02c3.86,5.42,6.63,11.36,8.1,17.88
		c0.89,3.93,1.24,7.9,0.98,11.92c-0.16,2.49-0.59,4.94-1.3,7.33c-1,3.39-3,6.1-5.62,8.4c-3.09,2.7-6.63,4.62-10.4,6.17
		c-5.26,2.16-10.71,3.63-16.28,4.69c-4.31,0.83-8.66,1.46-13.02,1.96c-2.66,0.3-5.35,0.47-8.02,0.68c-2.19,0.17-4.38,0.31-6.57,0.47
		c-0.44,0.03-0.88,0.06-1.32,0.08c-5.9,0.23-11.8,0.38-17.71,0.46c-1.37,0.02-2.73,0.05-4.1,0.09c-3.91,0.11-7.81-0.11-11.71-0.29
		c-4.92-0.23-9.84-0.55-14.76-0.87c-4.58-0.31-9.15-0.69-13.72-1.02c-3.45-0.25-6.91-0.47-10.37-0.71
		c-3.5-0.24-7.01-0.51-10.51-0.75c-1.8-0.12-3.6-0.23-5.41-0.32c-2.83-0.15-5.66-0.24-8.48-0.42c-5.36-0.33-10.73-0.28-16.1-0.21
		c-2.93,0.04-5.85,0.23-8.77,0.48c-2.62,0.23-5.25,0.43-7.87,0.7c-3.2,0.32-6.4,0.7-9.6,1.05c-3.01,0.33-6.01,0.69-9.02,1
		c-2.81,0.29-5.63,0.59-8.45,0.78c-3.26,0.21-6.53,0.27-9.8,0.47c-2.93,0.18-5.86,0.12-8.78-0.11c-6.86-0.54-13.33-2.39-19.21-6.06
		c-6.61-4.13-10.96-10.02-13.42-17.35c-1.79-5.32-2.53-10.81-2.46-16.42c0.05-3.44,0.43-6.81,1.44-10.1
		c1.53-4.95,4.21-9.2,7.83-12.89c4.61-4.71,10.04-8.18,16.09-10.73c2.57-1.08,5.19-1.98,7.88-2.72c0.61-0.17,1.22-0.34,1.73-0.75
		c0.56-0.45,0.65-0.57,0.44-1.23c-0.39-1.26-0.81-2.51-1.21-3.76c-0.94-2.93-1.83-5.87-2.33-8.91c-1.21-7.28-0.74-14.39,2.21-21.24
		c1.72-3.99,4.2-7.48,7.21-10.59c4.78-4.96,10.44-8.63,16.72-11.36c1.92-0.84,3.87-1.61,5.89-2.21c0.23-0.07,0.47-0.14,0.69-0.23
		c0.4-0.16,0.48-0.32,0.36-0.8c-0.33-1.33-0.67-2.65-1.01-3.97c-0.95-3.69-1.65-7.43-1.93-11.23c-0.46-6.19-0.08-12.29,2.01-18.2
		c2.33-6.59,6.38-11.91,11.89-16.15c4.5-3.46,9.56-5.83,14.94-7.56c2.37-0.76,4.79-1.32,7.25-1.75c0.29-0.05,0.59-0.07,0.85-0.18
		c2.24-0.97,2.07-0.48,1.07-2.55c-1.38-2.86-2.76-5.71-3.74-8.74c-0.75-2.33-1.3-4.7-1.29-7.17c0.01-3.36,0.95-6.45,2.75-9.27
		c1.76-2.76,3.8-5.32,5.88-7.84c2.41-2.92,4-6.21,4.67-9.95c0.46-2.58,0.42-5.15,0.04-7.72c-0.45-3.11-1.36-6.09-2.66-8.95
		C128.05,79.02,127.88,78.77,127.94,78.46z M99.16,265.93c0.24,0.35,0.42,0.58,0.57,0.83c1.03,1.66,2.03,3.34,3.08,4.98
		c5.49,8.53,11.77,16.42,19.24,23.32c3.77,3.49,7.82,6.62,12.22,9.29c4.45,2.7,9.15,4.81,14.19,6.14
		c5.65,1.49,11.36,1.81,17.13,0.92c5.66-0.88,10.91-2.93,15.85-5.8c4.75-2.77,9-6.19,12.93-10.02c4.56-4.44,8.57-9.35,12.26-14.53
		c3.71-5.21,7.03-10.67,10.14-16.27c0.21-0.38,0.35-0.81,0.73-1.08c0.43,0.01,0.68,0.35,0.98,0.58c1.68,1.27,3.43,2.42,5.31,3.37
		c0.3,0.16,0.61,0.33,0.93,0.43c0.72,0.22,1.51-0.13,1.87-0.8c0.36-0.67,0.23-1.51-0.36-2c-0.3-0.24-0.66-0.42-1-0.6
		c-1.33-0.72-2.63-1.5-3.86-2.38c-1.59-1.15-3.06-2.44-4.19-4.05c-0.85-1.21-1.55-2.49-1.58-4.02c0-0.14-0.02-0.29-0.06-0.43
		c-0.21-0.76-0.85-1.23-1.62-1.22c-0.75,0.01-1.4,0.53-1.55,1.3c-0.06,0.33-0.06,0.68-0.03,1.02c0.14,1.75,0.86,3.29,1.78,4.75
		c0.21,0.33,0.43,0.65,0.65,0.97c0.15,0.23,0.15,0.46-0.04,0.67c-0.26,0.29-0.53,0.58-0.8,0.86c-1.56,1.62-3.2,3.16-4.89,4.63
		c-6.05,5.26-12.74,9.49-20.15,12.59c-8.14,3.41-16.64,5.25-25.43,5.76c-5.52,0.32-11.03,0.12-16.51-0.6
		c-5.09-0.67-10.1-1.71-15.02-3.16c-6.01-1.78-11.8-4.08-17.3-7.09c-3.17-1.74-6.2-3.7-8.94-6.09c-1.4-1.23-2.68-2.56-3.69-4.14
		c-0.33-0.51-0.44-0.94-0.02-1.46c0.24-0.3,0.42-0.66,0.61-1c0.64-1.17,1.1-2.39,1.24-3.72c0.04-0.44,0.06-0.88-0.07-1.3
		c-0.21-0.66-0.88-1.16-1.54-1.16c-0.68,0.01-1.35,0.48-1.57,1.13c-0.06,0.18-0.09,0.38-0.09,0.57c-0.01,1.33-0.57,2.46-1.26,3.53
		c-0.77,1.2-1.72,2.24-2.81,3.17c-1.64,1.4-3.43,2.58-5.33,3.59c-0.39,0.21-0.79,0.4-1.13,0.67c-0.67,0.51-0.84,1.4-0.44,2.09
		c0.41,0.71,1.21,1.01,2.01,0.72c0.32-0.12,0.62-0.28,0.92-0.44c2.06-1.12,4.04-2.37,5.85-3.88
		C98.56,266.37,98.8,266.2,99.16,265.93z M159.1,208.22c0.01,2,0.09,4,0.23,5.99c0.34,4.93,1.14,9.78,2.41,14.55
		c1.31,4.92,3.15,9.64,5.82,14c2.11,3.44,4.67,6.49,8,8.83c3.19,2.24,6.71,3.52,10.62,3.72c3.57,0.18,6.99-0.51,10.3-1.78
		c8.29-3.19,13.93-8.95,16.79-17.38c1.51-4.44,2.02-9.03,1.92-13.7c-0.08-3.37-0.46-6.72-1.16-10.02
		c-1.99-9.47-5.68-18.22-11.2-26.18c-2.43-3.5-5.2-6.7-8.48-9.45c-2.03-1.7-4.22-3.15-6.63-4.26c-2.47-1.14-5.06-1.79-7.79-1.74
		c-3.54,0.06-6.67,1.28-9.43,3.49c-2.05,1.64-3.65,3.65-5.01,5.87c-1.85,3.02-3.12,6.29-4.06,9.68
		C159.77,195.86,159.1,202,159.1,208.22z M156.42,215.94c0-1.37,0.03-2.73-0.01-4.1c-0.02-0.83-0.15-1.65-0.22-2.48
		c-0.36-4.05-1.17-8.01-2.39-11.88c-1.21-3.83-2.83-7.48-5.16-10.78c-1.59-2.25-3.45-4.23-5.78-5.75c-1.99-1.3-4.15-2.19-6.53-2.39
		c-3.25-0.28-6.42,0.14-9.48,1.33c-3.42,1.32-6.38,3.35-9.01,5.88c-2.94,2.83-5.31,6.11-7.26,9.68c-3.55,6.5-5.71,13.44-6.58,20.79
		c-0.59,4.93-0.55,9.83,0.35,14.72c0.62,3.38,1.65,6.63,3.3,9.65c3.05,5.62,7.57,9.48,13.74,11.32c3.12,0.93,6.31,1.21,9.56,1.02
		c6.97-0.4,12.65-3.34,17.08-8.7c3.06-3.71,5.04-7.99,6.38-12.57C155.88,226.55,156.57,221.29,156.42,215.94z M142.97,160.37
		c-0.13-0.72-0.36-1.52-0.7-2.27c-2.91-6.33-7.99-9.49-14.82-9.98c-2.68-0.19-5.24,0.46-7.65,1.59c-4.89,2.3-9.27,5.37-13.17,9.12
		c-3.5,3.36-6.46,7.17-9.15,11.18c-1.52,2.27-2.92,4.61-4.14,7.06c-0.17,0.34-0.42,0.66-0.42,1.08c0,0.22,0.1,0.38,0.29,0.46
		c0.12,0.05,0.32,0.08,0.41,0.02c0.35-0.26,0.68-0.54,0.99-0.85c3.51-3.46,7.2-6.72,11.17-9.65c3.45-2.56,7.05-4.89,10.97-6.69
		c1.97-0.9,4.01-1.49,6.17-1.69c1.65-0.15,3.29-0.36,4.95-0.48c2.34-0.17,4.67-0.21,7,0.17c1.98,0.33,3.89,0.88,5.83,1.36
		c0.47,0.12,0.94,0.27,1.41,0.37C142.61,161.27,142.99,160.95,142.97,160.37z M162.92,322.66c2.5,0.02,6.76-0.7,10.94-2
		c4.74-1.48,9.15-3.63,13.21-6.5c0.48-0.34,0.96-0.69,1.35-1.12c0.57-0.62,0.53-1.51-0.02-2.13c-0.52-0.58-1.3-0.72-1.99-0.34
		c-0.25,0.14-0.48,0.34-0.72,0.51c-5.76,4.15-12.13,6.82-19.17,7.86c-4.69,0.69-9.34,0.47-13.95-0.6
		c-4.66-1.09-8.95-3.02-12.98-5.58c-0.49-0.31-0.97-0.66-1.49-0.93c-0.7-0.36-1.5-0.17-1.98,0.42c-0.53,0.66-0.53,1.51,0.06,2.13
		c0.23,0.25,0.52,0.43,0.81,0.63c1.46,0.99,2.97,1.87,4.53,2.69C147.63,320.88,154.11,322.64,162.92,322.66z M285.95,301.17
		c0-3.31-0.01-4.08-0.66-7.06c-1.22-5.57-3.85-10.39-7.93-14.4c-0.35-0.34-0.71-0.68-1.11-0.94c-0.69-0.46-1.45-0.3-1.94,0.34
		c-0.45,0.58-0.4,1.25,0.14,1.86c0.1,0.11,0.21,0.2,0.32,0.3c0.91,0.75,1.68,1.63,2.42,2.54c3.33,4.09,5.24,8.77,5.76,14
		c0.33,3.32,0.1,6.63-0.68,9.88c-0.11,0.47-0.24,0.95-0.3,1.43c-0.08,0.66,0.34,1.28,0.96,1.47c0.7,0.22,1.41-0.05,1.73-0.72
		c0.17-0.35,0.26-0.73,0.35-1.11C285.62,306.14,286.01,303.49,285.95,301.17z M282.15,316.71c-0.02-0.6-0.38-1.13-1.03-1.47
		c-0.62-0.32-1.14-0.03-1.59,0.33c-0.29,0.24-0.56,0.54-0.76,0.86c-0.37,0.63-0.35,1.29,0,1.93c0.28,0.5,0.71,0.78,1.31,0.74
		C281.13,319.03,282.17,317.91,282.15,316.71z"/>
	<path class="st9" d="M99.16,265.93c-0.36,0.28-0.6,0.44-0.82,0.63c-1.81,1.51-3.78,2.76-5.85,3.88c-0.3,0.16-0.6,0.32-0.92,0.44
		c-0.8,0.29-1.61-0.01-2.01-0.72c-0.4-0.7-0.23-1.58,0.44-2.09c0.35-0.26,0.75-0.46,1.13-0.67c1.9-1.02,3.69-2.19,5.33-3.59
		c1.08-0.93,2.03-1.97,2.81-3.17c0.69-1.08,1.25-2.21,1.26-3.53c0-0.19,0.03-0.39,0.09-0.57c0.22-0.65,0.89-1.12,1.57-1.13
		c0.66-0.01,1.33,0.49,1.54,1.16c0.14,0.43,0.12,0.86,0.07,1.3c-0.13,1.34-0.6,2.56-1.24,3.72c-0.19,0.34-0.36,0.7-0.61,1
		c-0.41,0.51-0.3,0.95,0.02,1.46c1.02,1.57,2.29,2.91,3.69,4.14c2.73,2.39,5.76,4.35,8.94,6.09c5.5,3.02,11.29,5.32,17.3,7.09
		c4.92,1.45,9.93,2.49,15.02,3.16c5.48,0.72,11,0.92,16.51,0.6c8.79-0.51,17.29-2.35,25.43-5.76c7.4-3.1,14.1-7.33,20.15-12.59
		c1.69-1.47,3.33-3.01,4.89-4.63c0.27-0.28,0.54-0.57,0.8-0.86c0.18-0.21,0.19-0.44,0.04-0.67c-0.22-0.33-0.44-0.64-0.65-0.97
		c-0.92-1.46-1.64-3-1.78-4.75c-0.03-0.34-0.03-0.69,0.03-1.02c0.15-0.77,0.8-1.29,1.55-1.3c0.78-0.01,1.41,0.46,1.62,1.22
		c0.04,0.14,0.06,0.29,0.06,0.43c0.03,1.54,0.73,2.82,1.58,4.02c1.14,1.61,2.6,2.9,4.19,4.05c1.23,0.89,2.53,1.66,3.86,2.38
		c0.34,0.18,0.7,0.36,1,0.6c0.59,0.48,0.72,1.33,0.36,2c-0.36,0.67-1.14,1.02-1.87,0.8c-0.32-0.1-0.63-0.27-0.93-0.43
		c-1.87-0.96-3.63-2.1-5.31-3.37c-0.3-0.23-0.55-0.57-0.98-0.58c-0.37,0.28-0.51,0.7-0.73,1.08c-3.11,5.59-6.42,11.05-10.14,16.27
		c-3.69,5.18-7.7,10.08-12.26,14.53c-3.93,3.83-8.18,7.25-12.93,10.02c-4.94,2.87-10.19,4.92-15.85,5.8
		c-5.76,0.89-11.48,0.57-17.13-0.92c-5.04-1.33-9.74-3.44-14.19-6.14c-4.4-2.67-8.45-5.8-12.22-9.29
		c-7.47-6.9-13.75-14.79-19.24-23.32c-1.06-1.64-2.05-3.32-3.08-4.98C99.57,266.51,99.4,266.28,99.16,265.93z M109.32,274.55
		l0.02,0.01c-0.2-0.34-0.51-0.5-0.9-0.55c0,0.35,0.19,0.54,0.41,0.72c2.56,3.75,5.44,7.25,8.38,10.7c1.33,1.56,2.87,2.71,4.71,3.59
		c10.16,4.89,20.9,7.38,32.14,7.81c6.55,0.25,13.05-0.35,19.48-1.67c8.55-1.75,16.65-4.75,24.37-8.79c0.49-0.25,0.9-0.55,1.25-0.98
		c3.72-4.59,7.11-9.41,10.15-14.47c0.28-0.23,0.46-0.52,0.46-0.93c-0.41,0.21-0.75,0.42-0.95,0.79c-0.43,0.32-0.86,0.64-1.28,0.96
		c-13.12,10.2-28.08,15.44-44.6,16.29c-6.45,0.33-12.87-0.04-19.26-1.07c-5.84-0.94-11.55-2.36-17.13-4.28
		c-5.82-2.01-11.38-4.59-16.65-7.78C109.78,274.68,109.59,274.56,109.32,274.55z M191.02,293.23c-2.98,1.22-6,2.3-9.08,3.23
		c-5.43,1.63-10.98,2.71-16.61,3.3c-3.99,0.42-7.99,0.46-11.99,0.33c-3.91-0.13-7.78-0.58-11.63-1.28
		c-4.56-0.82-9.04-1.99-13.4-3.57c-0.27-0.1-0.54-0.25-0.84-0.11c0,0.05-0.01,0.1,0,0.13c0.18,0.37,0.53,0.56,0.83,0.8
		c2.42,1.98,4.96,3.79,7.64,5.41c6.22,3.74,12.83,6.33,20.13,6.97c3.53,0.31,7.02,0.08,10.48-0.6c4.59-0.9,8.87-2.62,12.91-4.94
		c4.56-2.61,8.64-5.85,12.4-9.5c0.39-0.1,0.59-0.34,0.67-0.84C191.92,292.79,191.42,292.88,191.02,293.23z"/>
	<path class="st9" d="M159.1,208.22c0-6.22,0.67-12.36,2.34-18.37c0.95-3.4,2.22-6.66,4.06-9.68c1.36-2.22,2.96-4.23,5.01-5.87
		c2.76-2.21,5.89-3.42,9.43-3.49c2.73-0.05,5.31,0.6,7.79,1.74c2.41,1.11,4.6,2.56,6.63,4.26c3.28,2.75,6.05,5.95,8.48,9.45
		c5.52,7.96,9.21,16.71,11.2,26.18c0.69,3.3,1.08,6.65,1.16,10.02c0.11,4.66-0.41,9.26-1.92,13.7c-2.87,8.43-8.5,14.19-16.79,17.38
		c-3.31,1.28-6.73,1.97-10.3,1.78c-3.91-0.2-7.43-1.48-10.62-3.72c-3.33-2.34-5.89-5.39-8-8.83c-2.67-4.36-4.5-9.08-5.82-14
		c-1.27-4.77-2.08-9.62-2.41-14.55C159.19,212.22,159.11,210.22,159.1,208.22z M162.41,208.61c0.09,3.22,0.26,6.73,0.74,10.21
		c0.69,4.99,1.81,9.87,3.58,14.59c1.47,3.9,3.34,7.58,5.95,10.85c1.78,2.23,3.84,4.15,6.34,5.56c3.02,1.7,6.26,2.41,9.7,2.13
		c2.4-0.2,4.7-0.8,6.93-1.69c6.96-2.78,11.77-7.65,14.31-14.72c1.09-3.05,1.66-6.21,1.83-9.44c0.31-5.85-0.47-11.58-2.03-17.21
		c-2.28-8.21-5.85-15.79-11.01-22.6c-2.28-3.01-4.84-5.74-7.87-8.02c-1.92-1.44-3.98-2.64-6.26-3.41c-2.16-0.73-4.37-0.97-6.63-0.55
		c-2.58,0.48-4.72,1.77-6.57,3.58c-1.55,1.52-2.76,3.28-3.78,5.18c-1.3,2.41-2.25,4.97-2.99,7.6
		C163.03,196.44,162.47,202.35,162.41,208.61z"/>
	<path class="st9" d="M156.42,215.94c0.15,5.35-0.54,10.61-2.04,15.75c-1.34,4.59-3.32,8.86-6.38,12.57
		c-4.43,5.37-10.11,8.3-17.08,8.7c-3.24,0.18-6.44-0.1-9.56-1.02c-6.17-1.83-10.69-5.7-13.74-11.32c-1.64-3.03-2.67-6.27-3.3-9.65
		c-0.9-4.89-0.93-9.79-0.35-14.72c0.88-7.35,3.03-14.3,6.58-20.79c1.95-3.57,4.32-6.85,7.26-9.68c2.63-2.53,5.58-4.56,9.01-5.88
		c3.06-1.18,6.23-1.61,9.48-1.33c2.38,0.21,4.54,1.09,6.53,2.39c2.32,1.51,4.19,3.5,5.78,5.75c2.33,3.3,3.95,6.95,5.16,10.78
		c1.23,3.87,2.03,7.83,2.39,11.88c0.07,0.83,0.2,1.65,0.22,2.48C156.45,213.2,156.42,214.57,156.42,215.94z M153.22,215.84
		c0.02-1.71-0.1-3.41-0.23-5.12c-0.37-4.59-1.25-9.08-2.75-13.43c-1.08-3.15-2.49-6.14-4.44-8.86c-1.15-1.59-2.45-3.04-4.03-4.21
		c-2.22-1.65-4.69-2.53-7.49-2.47c-3.45,0.07-6.61,1.07-9.55,2.83c-2.32,1.39-4.33,3.15-6.13,5.16c-2.59,2.89-4.65,6.13-6.32,9.63
		c-2.76,5.77-4.44,11.84-5.08,18.21c-0.47,4.69-0.35,9.35,0.67,13.97c0.73,3.31,1.92,6.44,3.81,9.28c2.41,3.61,5.64,6.17,9.74,7.59
		c1.76,0.61,3.58,0.94,5.43,1.13c2.75,0.28,5.45,0.09,8.13-0.6c4.52-1.17,8.1-3.75,10.93-7.4c2.11-2.73,3.61-5.78,4.73-9.03
		C152.47,227.12,153.17,221.53,153.22,215.84z"/>
	<path class="st9" d="M142.97,160.37c0.02,0.59-0.36,0.91-0.87,0.8c-0.48-0.1-0.94-0.25-1.41-0.37c-1.94-0.48-3.86-1.03-5.83-1.36
		c-2.33-0.39-4.66-0.34-7-0.17c-1.65,0.12-3.3,0.33-4.95,0.48c-2.16,0.2-4.21,0.78-6.17,1.69c-3.92,1.8-7.51,4.13-10.97,6.69
		c-3.96,2.94-7.66,6.19-11.17,9.65c-0.31,0.31-0.65,0.59-0.99,0.85c-0.09,0.06-0.28,0.03-0.41-0.02c-0.19-0.08-0.3-0.24-0.29-0.46
		c0.01-0.41,0.25-0.73,0.42-1.08c1.22-2.45,2.61-4.79,4.14-7.06c2.7-4.02,5.66-7.82,9.15-11.18c3.9-3.75,8.27-6.81,13.17-9.12
		c2.41-1.14,4.98-1.78,7.65-1.59c6.83,0.49,11.91,3.64,14.82,9.98C142.61,158.85,142.84,159.65,142.97,160.37z"/>
	<path class="st9" d="M162.92,322.66c-8.81-0.02-15.29-1.78-21.4-4.97c-1.56-0.81-3.07-1.7-4.53-2.69
		c-0.28-0.19-0.58-0.38-0.81-0.63c-0.59-0.62-0.59-1.47-0.06-2.13c0.48-0.59,1.28-0.79,1.98-0.42c0.52,0.27,1,0.61,1.49,0.93
		c4.02,2.56,8.32,4.5,12.98,5.58c4.61,1.08,9.26,1.3,13.95,0.6c7.04-1.04,13.41-3.71,19.17-7.86c0.24-0.17,0.46-0.37,0.72-0.51
		c0.7-0.38,1.48-0.24,1.99,0.34c0.55,0.62,0.59,1.51,0.02,2.13c-0.39,0.43-0.87,0.78-1.35,1.12c-4.05,2.87-8.47,5.02-13.21,6.5
		C169.68,321.97,165.42,322.68,162.92,322.66z"/>
	<path class="st11" d="M285.95,301.17c0.06,2.32-0.33,4.96-0.94,7.58c-0.09,0.38-0.19,0.76-0.35,1.11
		c-0.32,0.67-1.03,0.94-1.73,0.72c-0.61-0.2-1.04-0.81-0.96-1.47c0.06-0.48,0.19-0.96,0.3-1.43c0.78-3.26,1.01-6.57,0.68-9.88
		c-0.52-5.22-2.43-9.91-5.76-14c-0.74-0.91-1.51-1.79-2.42-2.54c-0.11-0.09-0.23-0.19-0.32-0.3c-0.54-0.61-0.59-1.28-0.14-1.86
		c0.49-0.64,1.25-0.79,1.94-0.34c0.4,0.27,0.77,0.6,1.11,0.94c4.08,4.01,6.71,8.83,7.93,14.4
		C285.94,297.09,285.95,297.86,285.95,301.17z"/>
	<path class="st11" d="M282.15,316.71c0.02,1.2-1.02,2.32-2.07,2.39c-0.6,0.04-1.03-0.23-1.31-0.74c-0.36-0.64-0.37-1.31,0-1.93
		c0.19-0.32,0.46-0.62,0.76-0.86c0.46-0.37,0.98-0.66,1.59-0.33C281.77,315.58,282.13,316.11,282.15,316.71z"/>
	<path class="st11" d="M109.91,274.91c5.27,3.19,10.83,5.77,16.65,7.78c5.59,1.93,11.3,3.34,17.13,4.28
		c6.39,1.03,12.81,1.41,19.26,1.07c16.53-0.85,31.48-6.09,44.6-16.29c0.42-0.33,0.86-0.64,1.28-0.96c0.16,0.04,0.33,0.09,0.49,0.13
		c-3.04,5.06-6.44,9.88-10.15,14.47c-0.35,0.43-0.76,0.73-1.25,0.98c-7.72,4.04-15.82,7.04-24.37,8.79
		c-6.43,1.32-12.92,1.92-19.48,1.67c-11.23-0.43-21.98-2.92-32.14-7.81c-1.84-0.88-3.38-2.04-4.71-3.59
		c-2.94-3.45-5.82-6.96-8.38-10.7c0.16-0.05,0.32-0.11,0.48-0.16c0,0-0.02-0.01-0.02-0.01
		C109.45,274.79,109.62,274.94,109.91,274.91z"/>
	<path class="st11" d="M191.85,293.39c-3.76,3.65-7.84,6.89-12.4,9.5c-4.05,2.32-8.32,4.04-12.91,4.94
		c-3.47,0.68-6.96,0.91-10.48,0.6c-7.3-0.65-13.91-3.23-20.13-6.97c-2.68-1.61-5.22-3.43-7.64-5.41c-0.3-0.24-0.65-0.43-0.83-0.8
		c-0.02-0.03,0-0.08,0-0.13c0.3-0.14,0.57,0.01,0.84,0.11c4.36,1.58,8.84,2.75,13.4,3.57c3.85,0.69,7.72,1.15,11.63,1.28
		c4,0.13,8.01,0.09,11.99-0.33c5.64-0.59,11.18-1.67,16.61-3.3c3.08-0.92,6.11-2,9.08-3.22
		C191.29,293.28,191.63,293.03,191.85,293.39z"/>
	<path class="st10" d="M191.85,293.39c-0.22-0.36-0.56-0.11-0.83-0.16c0.4-0.35,0.91-0.45,1.5-0.68
		C192.44,293.05,192.24,293.3,191.85,293.39z"/>
	<path class="st12" d="M209.32,270.92c-0.16-0.04-0.33-0.09-0.49-0.13c0.21-0.37,0.54-0.59,0.95-0.79
		C209.79,270.4,209.61,270.69,209.32,270.92z"/>
	<path class="st12" d="M109.34,274.56c-0.16,0.05-0.32,0.11-0.48,0.16c-0.22-0.17-0.41-0.36-0.41-0.72
		C108.83,274.06,109.13,274.22,109.34,274.56z"/>
	<path class="st12" d="M109.91,274.91c-0.29,0.03-0.46-0.12-0.59-0.36C109.59,274.56,109.78,274.68,109.91,274.91z"/>
	<path class="st11" d="M162.41,208.61c0.06-6.26,0.62-12.17,2.25-17.94c0.74-2.63,1.69-5.19,2.99-7.6c1.02-1.9,2.23-3.66,3.78-5.18
		c1.85-1.82,3.99-3.1,6.57-3.58c2.26-0.42,4.47-0.18,6.63,0.55c2.29,0.77,4.34,1.97,6.26,3.41c3.02,2.28,5.59,5.01,7.87,8.02
		c5.15,6.81,8.73,14.39,11.01,22.6c1.56,5.63,2.34,11.36,2.03,17.21c-0.17,3.23-0.74,6.39-1.83,9.44
		c-2.54,7.07-7.35,11.94-14.31,14.72c-2.23,0.89-4.54,1.5-6.93,1.69c-3.45,0.28-6.69-0.43-9.7-2.13c-2.5-1.41-4.56-3.33-6.34-5.56
		c-2.61-3.27-4.49-6.95-5.95-10.85c-1.77-4.72-2.89-9.6-3.58-14.59C162.67,215.34,162.5,211.83,162.41,208.61z M183.7,226.06
		c0-2.56-0.45-5.03-1.44-7.4c-0.41-0.99-0.94-1.92-1.6-2.77c-0.48-0.62-1.05-1.16-1.73-1.55c-1.33-0.77-2.78-0.59-3.89,0.47
		c-1.02,0.98-1.54,2.24-1.88,3.57c-0.78,3.04-0.61,6.07,0.17,9.09c0.4,1.57,1.01,3.05,1.9,4.4c0.54,0.82,1.18,1.55,2.02,2.08
		c1.48,0.94,3.02,0.76,4.23-0.51c0.61-0.64,1.03-1.41,1.34-2.24C183.45,229.55,183.72,227.83,183.7,226.06z"/>
	<path class="st11" d="M153.22,215.84c-0.05,5.69-0.75,11.28-2.61,16.69c-1.12,3.25-2.61,6.3-4.73,9.03
		c-2.83,3.66-6.41,6.24-10.93,7.4c-2.67,0.69-5.38,0.88-8.13,0.6c-1.85-0.19-3.67-0.52-5.43-1.13c-4.1-1.43-7.34-3.98-9.74-7.59
		c-1.89-2.84-3.08-5.97-3.81-9.28c-1.02-4.62-1.14-9.28-0.67-13.97c0.64-6.37,2.32-12.44,5.08-18.21c1.67-3.49,3.73-6.74,6.32-9.63
		c1.8-2.01,3.81-3.77,6.13-5.16c2.94-1.77,6.1-2.76,9.55-2.83c2.8-0.06,5.27,0.82,7.49,2.47c1.58,1.17,2.89,2.62,4.03,4.21
		c1.95,2.71,3.36,5.71,4.44,8.86c1.49,4.36,2.38,8.84,2.75,13.43C153.12,212.42,153.24,214.12,153.22,215.84z M135.05,227.68
		c0,1.71,0.19,3.11,0.62,4.31c0.28,0.79,0.64,1.52,1.22,2.14c0.97,1.04,2.28,1.33,3.59,0.78c0.59-0.24,1.11-0.61,1.58-1.03
		c0.73-0.66,1.32-1.43,1.84-2.26c0.85-1.38,1.47-2.86,1.88-4.41c0.72-2.66,1.01-5.35,0.43-8.09c-0.25-1.2-0.66-2.34-1.49-3.28
		c-0.99-1.12-2.33-1.4-3.71-0.81c-0.73,0.31-1.33,0.8-1.88,1.36c-0.83,0.84-1.47,1.81-2.01,2.86
		C135.78,221.9,135.1,224.72,135.05,227.68z"/>
	<path class="st13" d="M183.7,226.06c0.02,1.77-0.25,3.49-0.88,5.15c-0.31,0.83-0.73,1.59-1.34,2.24c-1.2,1.27-2.74,1.45-4.23,0.51
		c-0.84-0.53-1.48-1.26-2.02-2.08c-0.89-1.35-1.5-2.83-1.9-4.4c-0.78-3.02-0.95-6.05-0.17-9.09c0.34-1.33,0.86-2.59,1.88-3.57
		c1.11-1.07,2.56-1.24,3.89-0.47c0.68,0.4,1.24,0.93,1.73,1.55c0.66,0.85,1.19,1.78,1.6,2.77
		C183.25,221.03,183.7,223.5,183.7,226.06z"/>
	<path class="st13" d="M135.05,227.68c0.05-2.96,0.73-5.78,2.07-8.43c0.53-1.05,1.18-2.02,2.01-2.86c0.55-0.56,1.15-1.05,1.88-1.36
		c1.38-0.59,2.72-0.31,3.71,0.81c0.83,0.94,1.24,2.08,1.49,3.28c0.58,2.73,0.29,5.42-0.43,8.09c-0.42,1.56-1.04,3.04-1.88,4.41
		c-0.51,0.83-1.11,1.6-1.84,2.26c-0.47,0.43-0.99,0.79-1.58,1.03c-1.32,0.54-2.62,0.26-3.59-0.78c-0.58-0.62-0.94-1.36-1.22-2.14
		C135.24,230.79,135.05,229.39,135.05,227.68z"/>
</g>
</svg>
