<?xml version="1.0" encoding="utf-8"?>
<!-- Generator: Adobe Illustrator 26.0.0, SVG Export Plug-In . SVG Version: 6.00 Build 0)  -->
<svg version="1.1" id="Layer_1" xmlns="http://www.w3.org/2000/svg" xmlns:xlink="http://www.w3.org/1999/xlink" x="0px" y="0px"
	 viewBox="0 0 2375.57 547.82" style="enable-background:new 0 0 2375.57 547.82;" xml:space="preserve">
<style type="text/css">
	.st0{fill:#FDBC4C;stroke:#000000;stroke-width:15.1583;stroke-linecap:round;stroke-miterlimit:10;}
	.st1{stroke:#000000;stroke-width:15.5577;stroke-miterlimit:10;}
	.st2{fill:#FDBC4C;stroke:#000000;stroke-width:15.5577;stroke-miterlimit:10;}
	.st3{fill:#A75D48;stroke:#000000;stroke-width:16.709;stroke-miterlimit:10;}
	.st4{fill:#FDBC4C;stroke:#000000;stroke-width:15.4856;stroke-linecap:round;stroke-miterlimit:10;}
	.st5{fill:none;stroke:#FFFFFF;stroke-width:13;stroke-linecap:round;stroke-miterlimit:10;}
	.st6{fill:#FFFFFF;stroke:#FFFFFF;stroke-width:13;stroke-linecap:round;stroke-miterlimit:10;}
	.st7{stroke:#000000;stroke-width:16.4768;stroke-miterlimit:10;}
	.st8{fill:#A75D48;stroke:#000000;stroke-width:15.2999;stroke-miterlimit:10;}
	.st9{fill:none;stroke:#000000;stroke-width:21.1844;stroke-linecap:round;stroke-miterlimit:10;}
	.st10{fill:#A75D48;}
</style>
<line class="st0" x1="133.79" y1="100.66" x2="84.66" y2="131.77"/>
<line class="st0" x1="205.5" y1="423.24" x2="155.08" y2="455.21"/>
<line class="st0" x1="429.39" y1="447.84" x2="507.18" y2="399.53"/>
<line class="st0" x1="301.65" y1="157.16" x2="379.44" y2="108.85"/>
<line class="st0" x1="516.18" y1="163.71" x2="603.8" y2="108.85"/>
<line class="st0" x1="695.51" y1="155.52" x2="783.12" y2="100.66"/>
<line class="st0" x1="887.93" y1="157.16" x2="975.54" y2="102.3"/>
<line class="st0" x1="1005.84" y1="157.16" x2="1093.46" y2="102.3"/>
<line class="st0" x1="1271.48" y1="157.16" x2="1359.1" y2="102.3"/>
<line class="st0" x1="1626.85" y1="156.34" x2="1714.47" y2="101.48"/>
<line class="st0" x1="2055.59" y1="164.53" x2="2143.21" y2="109.66"/>
<line class="st0" x1="2202.49" y1="444.56" x2="2258.17" y2="408.54"/>
<line class="st0" x1="1986.32" y1="447.02" x2="2046.91" y2="409.36"/>
<line class="st0" x1="1814.86" y1="455.21" x2="1902.47" y2="400.35"/>
<line class="st0" x1="1685.48" y1="455.21" x2="1773.1" y2="400.35"/>
<line class="st0" x1="1591.32" y1="455.21" x2="1678.93" y2="400.35"/>
<line class="st0" x1="1384.16" y1="455.21" x2="1471.77" y2="400.35"/>
<line class="st0" x1="1267.06" y1="454.39" x2="1354.68" y2="399.53"/>
<line class="st0" x1="1382.83" y1="156.39" x2="1470.45" y2="101.53"/>
<line class="st0" x1="1197.83" y1="134.39" x2="1246.1" y2="103.31"/>
<line class="st0" x1="808.18" y1="453.57" x2="856.81" y2="422.46"/>
<line class="st0" x1="431.52" y1="447.02" x2="519.13" y2="392.16"/>
<line class="st0" x1="197.66" y1="320.1" x2="275.45" y2="271.79"/>
<line class="st0" x1="199.79" y1="319.28" x2="287.41" y2="264.42"/>
<line class="st0" x1="847.81" y1="320.92" x2="925.6" y2="272.61"/>
<line class="st0" x1="849.94" y1="320.1" x2="937.55" y2="265.24"/>
<line class="st0" x1="2186.11" y1="256.23" x2="2263.9" y2="207.92"/>
<line class="st0" x1="2188.24" y1="255.42" x2="2275.86" y2="200.55"/>
<line class="st0" x1="1805.36" y1="157.16" x2="1883.15" y2="108.85"/>
<line class="st0" x1="1807.49" y1="156.34" x2="1895.1" y2="101.48"/>
<line class="st0" x1="653.75" y1="447.84" x2="731.53" y2="399.53"/>
<path class="st1" d="M1392.69,376.36c0,21.48,0.02,42.97-0.01,64.45c-0.01,9.36-4.67,14.71-14.56,15.29
	c-14.8,0.87-29.65,1.23-44.48,1.44c-5.16,0.07-10.45-0.46-15.47-1.55c-7.93-1.72-12.51-4.74-11.96-13.52
	c1.02-16.08,2.01-32.17,3.01-48.25c0.06-0.96,0.1-1.93,0.1-2.89c0.05-17.38,0.1-34.76,0.12-52.14c0.01-6.39-1.63-12.21-8.55-15.01
	c-3.51-1.42-7.59-2.64-11.3-2.42c-13.37,0.8-19.66,3.3-20.55,17.56c-0.73,11.79-0.32,23.65-0.05,35.48
	c0.24,10.58,0.8,21.17,1.55,31.73c0.73,10.3,1.92,20.58,2.83,30.87c0.19,2.16,0.26,4.36,0.07,6.51c-0.55,6.22-5.73,11.65-12.4,12.18
	c-17.63,1.38-35.26,3.03-52.96,0.4c-4.83-0.72-9.82,0.09-14.48-2.27c-5.26-2.67-8.18-5.99-8.15-11.96
	c0.23-42.48-0.61-84.99,0.61-127.45c0.56-19.51,0.54-39.03,1.21-58.54c0.47-13.48,0.9-26.95,1.6-40.42c0.9-17.3,2-34.58,3.1-51.87
	c0.4-6.24,0.98-12.47,1.59-18.69c0.92-9.39,5.54-13.79,15.58-15.16c16.61-2.26,33.25-2.11,49.8,0.08
	c9.59,1.27,13.63,5.78,13.12,13.32c-1.07,15.6-2.03,31.2-2.97,46.8c-0.2,3.37-0.17,6.75-0.18,10.13c-0.05,14-0.17,28-0.07,42
	c0.08,11.06,5.91,16.37,17.81,16.53c2.87,0.04,5.76,0.15,8.61-0.11c7.93-0.73,12.75-4.13,14.03-11.4
	c1.21-6.83,1.35-13.87,1.39-20.82c0.03-5.75-0.99-11.5-1.15-17.25c-0.24-8.2,0.16-16.42-0.21-24.62
	c-0.62-13.69-1.56-27.37-2.54-41.04c-0.45-6.34,4.08-12.24,11.43-13.52c5.09-0.89,10.3-1.42,15.48-1.56
	c8.87-0.24,17.76-0.35,26.62,0.07c4.86,0.23,9.75,1.35,14.46,2.6c6.59,1.74,9.55,6.38,9.93,12.48c0.63,10.09,1.06,20.19,1.76,30.27
	c0.84,12.23,1.87,24.45,2.82,36.67c0.07,0.96,0.13,1.93,0.15,2.89c0.58,26.99,1.09,53.98,1.74,80.97
	c0.66,27.23,1.46,54.46,2.19,81.69C1393.11,376.35,1392.9,376.35,1392.69,376.36z"/>
<path class="st1" d="M1832.79,409.89c0-8.69-0.6-17.42,0.11-26.06c2.24-27.22,0.84-54.48,1.48-81.71
	c0.38-16.13,0.97-32.26,1.54-48.39c0.47-13.47,1-26.95,1.58-40.42c0.44-10.1,0.91-20.19,1.57-30.28
	c0.91-13.92,1.96-27.82,3.07-41.73c0.54-6.81,4.66-10.54,12.91-11.1c10.89-0.75,21.82-1.21,32.74-1.49
	c9.39-0.24,18.79-0.14,28.19-0.05c26.14,0.25,49.53,7.29,69.85,23.08c12.02,9.34,21.08,20.66,28.47,33.13
	c13.18,22.23,20.26,46.28,24.08,71.34c3.39,22.24,5.37,44.54,4.27,66.93c-1.37,27.93-4.27,55.69-16.6,81.81
	c-13.18,27.91-35.62,45.07-67.9,51.25c-21.67,4.15-43.59,2.87-65.45,2.74c-8.31-0.05-16.61-0.76-24.92-1.26
	c-7.52-0.45-15.06-0.8-22.55-1.58c-7.18-0.75-12.32-6.45-12.43-13.63c-0.17-10.86-0.04-21.72-0.04-32.59
	C1832.76,409.89,1832.77,409.89,1832.79,409.89z M1911.3,282.97c-0.15,0-0.31,0.01-0.46,0.01c0.64,24.05,1.31,48.11,1.87,72.16
	c0.09,3.79,1.03,7.17,4.06,9.81c1.11,0.97,2.45,2.22,3.8,2.36c8.64,0.93,17.3,1.18,24.57-4.33c6.34-4.81,11.78-10.52,13.93-17.93
	c2.28-7.85,4.65-15.91,5.01-23.96c0.88-19.46,0.8-38.95-2.92-58.27c-2.57-13.33-5.75-26.52-13.92-37.98
	c-5.86-8.22-12.89-15.29-25.36-13.53c-5.51,0.78-8.71,3.12-9.05,8.15c-0.64,9.35-1.28,18.7-1.48,28.06
	C1911.11,259.34,1911.3,271.16,1911.3,282.97z"/>
<path class="st1" d="M484.02,307.86c-0.69,13.23-0.71,26.52-2.24,39.66c-2.31,19.87-5.65,39.67-14.29,58.22
	c-8.9,19.1-21.74,35.17-42.75,44.25c-9.71,4.2-19.96,7.04-30.75,7.76c-7.78,0.52-15.61,1.65-23.33,1.22
	c-17.5-0.97-34.47-3.87-49.92-12.59c-16.04-9.05-26.8-22.03-34.16-37.48c-8.34-17.53-12.55-36.08-14.96-55.13
	c-2.64-20.89-3.76-41.82-2.65-62.75c1.66-31.28,5.14-62.41,16.65-92.22c7.17-18.58,16.78-35.89,32.45-49.7
	c13.2-11.63,28.72-18.48,47.05-20.88c17.24-2.25,33.12,0.35,48.49,7.23c17.53,7.85,30.09,20.55,39.62,35.86
	c14.68,23.55,21.79,49.38,25.78,76.09C482.01,267.46,483.94,287.57,484.02,307.86z M348.85,303.82c-0.01,0-0.03,0-0.04,0
	c0,7-0.13,14,0.03,21c0.24,10.65,2.13,21.02,5.8,31.17c1.75,4.85,4.79,8.64,8.94,11.58c9.61,6.82,22.55,5.89,29.48-3.73
	c3.12-4.33,5.38-9.35,7.09-14.34c3.82-11.1,4.18-22.77,4.63-34.26c0.43-11.03-0.95-22.11-1.21-33.17
	c-0.34-14.51-2.59-28.76-6.61-42.76c-2.15-7.49-5.28-14.72-11.19-20.44c-6.47-6.26-14.5-5.93-20.04,1.03
	c-3.05,3.83-5.66,8.16-7.46,12.61c-6.37,15.71-8.08,32.28-9.32,48.85C348.39,288.82,348.85,296.33,348.85,303.82z"/>
<path class="st1" d="M707.66,304.39c0,10.39,0.25,17.88-0.05,25.35c-1.06,26.34-4.65,52.25-15.78,76.84
	c-12.9,28.5-35.56,45.81-68.61,50.93c-19.23,2.98-38.4,2.17-57.2-2.82c-20.13-5.34-35.71-16.41-47.01-32.69
	c-11.2-16.13-16.22-34.21-20.17-52.77c-6.52-30.58-5.47-61.5-4.04-92.22c1.41-30.3,7.13-60.24,20.03-88.57
	c8.77-19.27,21.17-36.04,39.91-48.07c13.81-8.87,29.55-13.3,46.38-13.08c18.67,0.24,35.77,5.19,50.91,15.83
	c11.48,8.07,19.91,18.3,26.87,29.67c13.41,21.9,20.06,45.77,24.3,70.48C706.85,264.56,708.27,285.85,707.66,304.39z M629.84,304.84
	c-0.05-18.88-1.54-37.57-5.57-56.05c-2.23-10.21-5.3-20.25-12.37-28.63c-5.31-6.3-13.05-7.84-19.42-1.81
	c-3.92,3.72-6.74,7.83-8.76,12.65c-8.13,19.42-9.55,39.9-10.54,60.28c-0.72,14.87,0.24,29.87,1.51,44.73
	c0.77,9.02,3.01,17.87,8.03,26.16c7.6,12.55,29.19,13.59,37.74-1.44c3.95-6.95,6.15-14.38,6.95-22.05
	C628.59,327.43,629.06,316.13,629.84,304.84z"/>
<path class="st1" d="M1715.8,128.67c7.05,0,14.1-0.2,21.14,0.06c7.01,0.25,14.07,0.54,20.97,1.57c6.17,0.92,10.55,3.82,12.51,10.26
	c10.03,32.94,17.63,66.39,24.41,99.98c5.05,25.03,9.06,50.25,13.05,75.45c3.04,19.24,5.49,38.57,7.86,57.9
	c1.84,15.03,3.27,30.11,4.65,45.19c0.77,8.38,1.32,16.79,1.53,25.2c0.17,6.91-4.28,11.5-11.69,11.87
	c-14.55,0.72-29.12,1.21-43.69,1.4c-5.68,0.08-11.41-0.71-17.06-1.44c-7.57-0.97-12.08-6.75-11.22-13.92
	c0.03-0.24,0.15-0.47,0.16-0.71c0.59-14.19,1.4-28.38,1.66-42.58c0.1-5.73-0.76-11.52-1.6-17.23c-1.29-8.79-9.21-15.11-18.75-15.32
	c-2.35-0.05-4.73,0.2-7.04-0.05c-11.76-1.31-19.72,7.75-20.61,17.53c-1,11.02-1.57,22.1-1.55,33.16c0.02,8.14,1,16.32,2.09,24.42
	c1.01,7.45-3.75,14.21-12.02,14.67c-15.06,0.84-30.16,1.22-45.26,1.45c-5.16,0.08-10.35-0.78-15.5-1.38
	c-6.96-0.81-11.48-5.13-11.16-11.63c0.62-12.48,1.74-24.93,2.75-37.39c0.51-6.23,1.12-12.46,1.88-18.67
	c1.96-16.23,3.82-32.47,6.11-48.66c3.06-21.68,5.97-43.39,9.89-64.94c4.32-23.7,9.5-47.28,14.7-70.84
	c3.49-15.79,7.61-31.47,11.6-47.17c1.37-5.39,2.99-10.74,4.84-16c2.64-7.48,7.04-10.4,15.57-10.83c13.25-0.67,26.5-1.33,39.75-2
	C1715.78,128.25,1715.79,128.46,1715.8,128.67z M1713.42,216.43c-0.89,2.45-2.19,4.81-2.58,7.3c-1.76,11.15-3.41,22.32-4.81,33.52
	c-0.93,7.39-1.41,14.83-2.02,22.25c-0.94,11.48-2.13,22.96-2.59,34.46c-0.28,6.94,3.43,9.91,11.05,10.31
	c1.82,0.09,3.65,0.09,5.47,0.01c7.93-0.36,11.36-3.4,11.26-10.89c-0.08-6.71-0.76-13.42-1.38-20.11
	c-1.55-16.73-3.05-33.47-4.92-50.18c-0.75-6.67-2.2-13.29-3.73-19.85C1718.56,220.65,1718.13,217.42,1713.42,216.43z"/>
<path class="st1" d="M1503.74,457.68c-16.71,0-33.43,0.17-50.13-0.06c-10.66-0.15-21.32-0.77-31.97-1.44
	c-7.54-0.47-13.42-5.79-13.37-12.78c0.09-14.45,0.78-28.89,1.22-43.34c0.07-2.17,0.1-4.34,0.1-6.52c0.05-23.91-0.09-47.82,0.2-71.72
	c0.26-21.21,0.94-42.41,1.56-63.62c0.38-13,0.9-26,1.54-38.99c0.97-19.71,2.05-39.43,3.17-59.13c0.33-5.76,1.1-11.49,1.44-17.25
	c0.47-7.87,3.71-11.68,12.11-12.53c8.52-0.87,17.12-1.48,25.69-1.53c27.94-0.2,55.88-0.22,83.82-0.03
	c10.92,0.07,21.85,0.75,32.75,1.43c8.3,0.52,13.11,5.34,13.38,13.36c0.68,20.24,1.12,40.48,1.76,60.72
	c0.12,3.83,0.93,7.65,1.01,11.48c0.07,3.57,0.17,7.28-0.76,10.7c-1.79,6.65-7.24,8.78-13.77,5.46c-2.9-1.47-5.34-3.82-7.75-5.99
	c-8.74-7.89-18.77-13.8-30.46-17.14c-9.34-2.67-19.01-3.27-28.48-1.32c-16.29,3.34-21.7,17.08-19.69,30.23
	c2.27,14.81,12.67,19,28.15,19.67c9.02,0.39,18.13-1.12,27.21-1.76c4.4-0.31,8.81-0.8,13.21-0.86c5.28-0.07,9.05,2.35,10.51,7.1
	c0.91,2.98,1.65,6.11,1.72,9.19c0.22,9.41,0.19,18.84,0.01,28.25c-0.05,2.85-0.55,5.79-1.5,8.49c-2.32,6.65-7.91,8.28-13.97,4.1
	c-3.96-2.73-7.38-6.16-11.47-8.69c-9.84-6.08-20.39-9.12-32.54-6.74c-10.16,1.98-16.12,7.58-18.88,16.3
	c-3.41,10.77-3.79,21.87-2.25,32.94c1.13,8.11,2.71,16.05,8.15,23.08c4.27,5.52,9.95,9.09,16.54,10.12
	c12.66,1.98,25.33,1.68,37.12-4.48c9.2-4.81,15.37-12.08,20.66-20.2c1.75-2.68,3.47-5.38,5.16-8.1c2.3-3.69,6-5.74,10.3-5.35
	c4.45,0.4,7.42,3.28,8.38,7.55c0.26,1.18,0.83,2.32,0.93,3.5c0.61,7.19,1.36,14.39,1.63,21.59c0.7,18.79,1.15,37.58,1.78,56.37
	c0.06,1.91,0.78,3.79,0.89,5.7c0.18,3.11,0.59,6.32,0.04,9.34c-1.37,7.45-6.35,11.25-14.63,11.48c-26.84,0.74-53.68,1.39-80.52,2.07
	C1503.75,458.11,1503.74,457.89,1503.74,457.68z"/>
<path class="st1" d="M720.06,411.28c0-8.21-0.57-16.46,0.1-24.62c2.34-28.19,0.06-56.47,1.77-84.61
	c1.02-16.89,0.62-33.73,1.25-50.59c0.53-13.96,1.01-27.92,1.61-41.88c0.41-9.38,0.88-18.75,1.53-28.12
	c0.94-13.68,1.92-27.36,3.17-41.01c0.59-6.43,5.96-10.89,13.85-11.63c8.28-0.77,16.6-1.44,24.91-1.53
	c21.41-0.23,42.84-0.64,64.22,0.02c17.64,0.54,34.52,4.72,49.53,13.85c17.06,10.38,26.66,25.45,30.77,43.57
	c1.7,7.49,3.3,15.29,2.89,22.85c-0.93,17.06-3.29,33.94-10.48,50.06c-11.42,25.63-30.53,44.65-56.53,57.8
	c-11.94,6.04-25.12,9.27-38.48,11.67c-7.79,1.4-11.06,4.14-11.39,11.45c-0.35,7.66,0.33,15.38,0.85,23.06
	c0.4,5.99,0.97,12,1.95,17.93c2.13,12.83,4.54,25.63,6.89,38.43c1.27,6.87,2.67,13.72,3.99,20.59c0.14,0.71,0.11,1.44,0.15,2.17
	c0.59,10.02-3.19,14.48-13.93,15.5c-8.27,0.79-16.61,1.43-24.91,1.36c-13.27-0.1-26.54-0.67-39.79-1.38
	c-8.53-0.46-13.79-5.8-13.93-13.77c-0.17-10.38-0.04-20.77-0.04-31.15C720.03,411.28,720.04,411.28,720.06,411.28z M798.41,238.6
	c0.58,12.43,1.08,22.98,1.57,33.52c0.07,1.44-0.07,2.9,0.06,4.33c0.41,4.53,2.13,5.67,7.17,4.77c9.68-1.72,17.25-6.71,23.14-13.7
	c9.71-11.51,11.68-24.92,9.83-38.97c-0.4-3.04-1.5-6.16-3.03-8.88c-5.5-9.75-20.92-15.53-32.27-12.36c-3.1,0.87-4.65,2.89-4.84,5.86
	C799.47,222.27,798.88,231.37,798.41,238.6z"/>
<path class="st1" d="M71.38,389.12c0-15.21-0.19-30.42,0.04-45.63c0.36-23.14,0.95-46.27,1.57-69.4
	c0.39-14.44,0.97-28.88,1.53-43.32c0.48-12.27,0.92-24.54,1.61-36.8c0.91-16.33,2.05-32.65,3.07-48.98
	c0.7-11.18,6.19-15.6,18.21-16.44c28.66-2,57.36-2,86-1.18c23.52,0.68,45.1,7.56,61.93,23.82c10.82,10.46,16.32,23.42,18.79,37.47
	c4.42,25.15,0.98,49.56-10.08,72.79c-10.94,22.98-28.49,40.72-52.52,52.73c-11.79,5.9-24.31,9.8-37.53,11.99
	c-12.77,2.12-13.9,3.93-14.3,15.73c-0.75,22.06,2.58,43.68,7.17,65.22c2.46,11.56,4.61,23.17,6.73,34.78
	c1.21,6.65-4.51,13.42-12.33,14.22c-22.33,2.3-44.74,2.83-67.02-0.05c-11.06-1.43-13.22-6.58-13.1-14.09
	c0.3-17.62,0.1-35.25,0.1-52.87C71.29,389.12,71.34,389.12,71.38,389.12z M149.88,244.93c0,9.62-0.09,19.25,0.03,28.87
	c0.09,7.52,2.54,9.19,9.97,6.98c13.81-4.11,22.98-12.9,28.17-25.1c2.06-4.85,3.38-10.23,3.61-15.42
	c0.53-11.88-1.38-23.06-13.93-30.06c-5.48-3.06-11.27-3.28-17.27-3.18c-8.68,0.14-10.44,1.65-10.55,9.77
	C149.77,226.17,149.87,235.55,149.88,244.93z"/>
<path class="st1" d="M2050.45,389.49c0-11.35-0.15-22.69,0.1-34.04c0.07-3.03,0.8-6.27,2.18-9c2.52-4.99,7.35-6.2,12.32-3.05
	c3.17,2.01,5.96,4.71,8.38,7.5c13.58,15.58,30.96,23.9,52.71,24.07c6.49,0.05,13,0.49,19.04-2.76c13.33-7.18,17.93-20,13.76-34.43
	c-3.04-10.53-11.01-18.01-19.9-24.45c-11.88-8.61-24.19-16.72-36.39-24.96c-14.04-9.49-26.11-20.68-35.06-34.55
	c-6.23-9.66-9.13-20.28-11.03-31.35c-2.3-13.43-0.42-26.44,3.51-39.18c5.63-18.28,16.78-32.9,34.94-42.72
	c13.11-7.09,27.09-11,42.12-12c7.52-0.5,15.06-1.51,22.55-1.23c18.26,0.68,36.24,3.46,53.61,8.83c5.55,1.72,11.73,3.34,14.08,9.37
	c0.87,2.23,1.77,4.6,1.84,6.92c0.65,21.92,1.15,43.84,1.58,65.77c0.05,2.61-0.48,5.25-0.91,7.85c-0.63,3.78-3.17,6.07-7.16,6.72
	c-3.67,0.6-6.76-0.83-8.84-3.56c-6.26-8.25-15.29-13.05-24.94-16.82c-11.58-4.52-23.8-5.98-35.87-2.26
	c-5.23,1.61-10.54,4.59-14.33,8.26c-7.31,7.06-6.94,16.2-3.02,24.39c2.63,5.51,7.13,10.88,12.23,14.64
	c15.66,11.55,31.97,22.35,48.13,33.32c15.34,10.41,28.14,22.89,37.22,38.44c4.38,7.49,6.76,15.68,8.33,23.99
	c3.09,16.44,1.11,32.59-4.44,48.37c-10.78,30.67-34.18,48.09-67.72,54.6c-10.96,2.13-22.07,3.55-33.33,2.93
	c-23.48-1.29-46.54-4.68-68.79-11.98c-2.93-0.96-5.67-2.46-8.48-3.72c-3.54-1.59-5.79-4.29-6.48-7.74
	c-0.9-4.48-1.65-9.04-1.75-13.58c-0.25-10.86-0.08-21.72-0.08-32.59C2050.53,389.49,2050.49,389.49,2050.45,389.49z"/>
<path class="st1" d="M1022.48,458.19c-10.68-0.65-21.32-1.29-31.97-1.95c-1.03-0.06-2.08-0.19-3.08-0.44
	c-8.28-2.09-13.17-6.39-11.98-15.84c1.8-14.31,3.02-28.69,4.7-43.02c1.18-10.03,2.78-20.01,4.11-30.02
	c1.24-9.3,2.36-18.62,3.58-27.92c0.88-6.67,1.75-13.35,2.77-20.01c0.78-5.03,0.09-7.32-4.39-8.82c-16.1-5.4-25.47-17.03-33.23-30.17
	c-11.77-19.91-18.13-41.55-22.95-63.56c-3.46-15.78-6.14-31.71-6.55-47.9c-0.2-7.93-1.22-15.84-1.37-23.77
	c-0.16-8.09,3.94-12.8,12.4-14.27c5.86-1.02,11.87-1.78,17.81-1.73c12.22,0.1,24.45,0.66,36.66,1.34
	c9.67,0.54,13.21,3.58,15.24,12.51c0.64,2.8,0.91,5.71,0.95,8.58c0.15,12.07-0.52,24.18,0.33,36.21
	c1.43,20.13,2.28,40.37,7.69,60.07c1.08,3.94,2.67,7.83,4.67,11.45c2.05,3.72,5.12,3.76,7.9,0.45c1.1-1.31,2.13-2.86,2.52-4.45
	c2.3-9.37,5.01-18.71,6.45-28.21c2.31-15.25,3.54-30.6,3.5-46.05c-0.04-11.78,0.9-23.57,1.28-35.36
	c0.27-8.44,4.01-13.14,12.86-14.89c4.81-0.95,9.79-1.71,14.69-1.65c13.27,0.17,26.54,0.64,39.79,1.36
	c9.45,0.51,14.39,5.83,14.48,14.61c0.17,15.69-2.3,31.15-4.42,46.66c-2.59,18.93-6.77,37.52-12.9,55.71
	c-5.2,15.45-11.36,30.61-21.94,43.75c-5.95,7.39-12.99,13.79-21.92,18.24c-6.16,3.07-6.83,4.9-5.95,11.06
	c1.61,11.19,2.94,22.41,4.46,33.61c1.36,10.01,2.98,19.99,4.21,30.01c1.35,10.98,2.4,22,3.55,33.01c0.75,7.18,1.04,14.42,2.24,21.53
	c1.8,10.68-2.86,17.01-14.24,17.88C1043.81,457.02,1033.16,457.54,1022.48,458.19z"/>
<path class="st2" d="M1439.7,346.32c0,21.48,0.02,42.97-0.01,64.45c-0.01,9.36-4.67,14.71-14.56,15.29
	c-14.8,0.87-29.65,1.23-44.48,1.44c-5.16,0.07-10.45-0.46-15.47-1.55c-7.93-1.72-12.51-4.74-11.96-13.52
	c1.02-16.08,2.01-32.17,3.01-48.25c0.06-0.96,0.1-1.93,0.1-2.89c0.05-17.38,0.1-34.76,0.12-52.14c0.01-6.39-1.63-12.21-8.55-15.01
	c-3.51-1.42-7.59-2.64-11.3-2.42c-13.37,0.8-19.66,3.3-20.55,17.56c-0.73,11.79-0.32,23.65-0.05,35.48
	c0.24,10.58,0.8,21.17,1.55,31.73c0.73,10.3,1.92,20.58,2.83,30.87c0.19,2.16,0.26,4.36,0.07,6.51c-0.55,6.22-5.73,11.65-12.4,12.18
	c-17.63,1.38-35.26,3.03-52.96,0.4c-4.83-0.72-9.82,0.09-14.48-2.27c-5.26-2.67-8.18-5.99-8.15-11.96
	c0.23-42.48-0.61-84.99,0.61-127.45c0.56-19.51,0.54-39.03,1.21-58.54c0.47-13.48,0.9-26.95,1.6-40.42c0.9-17.3,2-34.58,3.1-51.87
	c0.4-6.24,0.98-12.47,1.59-18.69c0.92-9.39,5.54-13.79,15.58-15.16c16.61-2.26,33.25-2.11,49.8,0.08
	c9.59,1.27,13.63,5.78,13.12,13.32c-1.07,15.6-2.03,31.2-2.97,46.8c-0.2,3.37-0.17,6.75-0.18,10.13c-0.05,14-0.17,28-0.07,42
	c0.08,11.06,5.91,16.37,17.81,16.53c2.87,0.04,5.76,0.15,8.61-0.11c7.93-0.73,12.75-4.13,14.03-11.4
	c1.21-6.83,1.35-13.87,1.39-20.82c0.03-5.75-0.99-11.5-1.15-17.25c-0.24-8.2,0.16-16.42-0.21-24.62
	c-0.62-13.69-1.56-27.37-2.54-41.04c-0.45-6.34,4.08-12.24,11.43-13.52c5.09-0.89,10.3-1.42,15.48-1.56
	c8.87-0.24,17.76-0.35,26.62,0.07c4.86,0.23,9.75,1.35,14.46,2.6c6.59,1.74,9.55,6.38,9.93,12.48c0.63,10.09,1.06,20.19,1.76,30.27
	c0.84,12.23,1.87,24.45,2.82,36.67c0.07,0.96,0.13,1.93,0.15,2.89c0.58,26.99,1.09,53.98,1.74,80.97
	c0.66,27.23,1.46,54.46,2.19,81.69C1440.12,346.31,1439.91,346.31,1439.7,346.32z"/>
<path class="st2" d="M1879.79,379.85c0-8.69-0.6-17.42,0.11-26.06c2.24-27.22,0.84-54.48,1.48-81.71
	c0.38-16.13,0.97-32.26,1.54-48.39c0.47-13.47,1-26.95,1.58-40.42c0.44-10.1,0.91-20.19,1.57-30.28
	c0.91-13.92,1.96-27.82,3.07-41.73c0.54-6.81,4.66-10.54,12.91-11.1c10.89-0.75,21.82-1.21,32.74-1.49
	c9.39-0.24,18.79-0.14,28.19-0.05c26.14,0.25,49.53,7.29,69.85,23.08c12.02,9.34,21.08,20.66,28.47,33.13
	c13.18,22.23,20.26,46.28,24.08,71.34c3.39,22.24,5.37,44.54,4.27,66.93c-1.37,27.93-4.27,55.69-16.6,81.81
	c-13.18,27.91-35.62,45.07-67.9,51.25c-21.67,4.15-43.59,2.87-65.45,2.74c-8.31-0.05-16.61-0.76-24.92-1.26
	c-7.52-0.45-15.06-0.8-22.55-1.58c-7.18-0.75-12.32-6.45-12.43-13.63c-0.17-10.86-0.04-21.72-0.04-32.59
	C1879.77,379.85,1879.78,379.85,1879.79,379.85z M1957.6,249.32c-0.15,0,0.4,3.62,0.25,3.62c0.64,24.05,1.31,48.11,1.87,72.16
	c0.09,3.79,1.03,7.17,4.06,9.81c1.11,0.97,2.45,2.22,3.8,2.36c8.64,0.93,17.3,1.18,24.57-4.33c6.34-4.81,11.78-10.52,13.93-17.93
	c2.28-7.85,4.65-15.91,5.01-23.96c0.88-19.46,0.8-38.95-2.92-58.27c-2.57-13.33-5.75-26.52-13.92-37.98
	c-5.86-8.22-12.89-15.29-25.36-13.53c-5.51,0.78-8.71,3.12-9.05,8.15c-0.64,9.35-1.28,18.7-1.48,28.06
	C1958.12,229.31,1957.6,237.51,1957.6,249.32z"/>
<path class="st2" d="M531.03,277.82c-0.69,13.23-0.71,26.52-2.24,39.66c-2.31,19.87-5.65,39.67-14.29,58.22
	c-8.9,19.1-21.74,35.17-42.75,44.25c-9.71,4.2-19.96,7.04-30.75,7.76c-7.78,0.52-15.61,1.65-23.33,1.22
	c-17.5-0.97-34.47-3.87-49.92-12.59c-16.04-9.05-26.8-22.03-34.16-37.48c-8.34-17.53-12.55-36.08-14.96-55.13
	c-2.64-20.89-3.76-41.82-2.65-62.75c1.66-31.28,5.14-62.41,16.65-92.22c7.17-18.58,16.78-35.89,32.45-49.7
	c13.2-11.63,28.72-18.48,47.05-20.88c17.24-2.25,33.12,0.35,48.49,7.23c17.53,7.85,30.09,20.55,39.62,35.86
	c14.68,23.55,21.79,49.38,25.78,76.09C529.01,237.43,530.95,257.53,531.03,277.82z M395.86,273.78c-0.01,0-0.03,0-0.04,0
	c0,7-0.13,14,0.03,21c0.24,10.65,2.13,21.02,5.8,31.17c1.75,4.85,4.79,8.64,8.94,11.58c9.61,6.82,22.55,5.89,29.48-3.73
	c3.12-4.33,5.38-9.35,7.09-14.34c3.82-11.1,4.18-22.77,4.63-34.26c0.43-11.03-0.95-22.11-1.21-33.17
	c-0.34-14.51-2.59-28.76-6.61-42.76c-2.15-7.49-5.28-14.72-11.19-20.44c-6.47-6.26-14.5-5.93-20.04,1.03
	c-3.05,3.83-5.66,8.16-7.46,12.61c-6.37,15.71-8.08,32.28-9.32,48.85C395.4,258.78,395.86,266.3,395.86,273.78z"/>
<path class="st2" d="M754.67,274.36c0,10.39,0.25,17.88-0.05,25.35c-1.06,26.34-4.65,52.25-15.78,76.84
	c-12.9,28.5-35.56,45.81-68.61,50.93c-19.23,2.98-38.4,2.17-57.2-2.82c-20.13-5.34-35.71-16.41-47.01-32.69
	c-11.2-16.13-16.22-34.21-20.17-52.77c-6.52-30.58-5.47-61.5-4.04-92.22c1.41-30.3,7.13-60.24,20.03-88.57
	c8.77-19.27,21.17-36.04,39.91-48.07c13.81-8.87,29.55-13.3,46.38-13.08c18.67,0.24,35.77,5.19,50.91,15.83
	c11.48,8.07,19.91,18.3,26.87,29.67c13.41,21.9,20.06,45.77,24.3,70.48C753.86,234.52,755.28,255.81,754.67,274.36z M676.84,274.81
	c-0.05-18.88-1.54-37.57-5.57-56.05c-2.23-10.21-5.3-20.25-12.37-28.63c-5.31-6.3-13.05-7.84-19.42-1.81
	c-3.92,3.72-6.74,7.83-8.76,12.65c-8.13,19.42-9.55,39.9-10.54,60.28c-0.72,14.87,0.24,29.87,1.51,44.73
	c0.77,9.02,3.01,17.87,8.03,26.16c7.6,12.55,29.19,13.59,37.74-1.44c3.95-6.95,6.15-14.38,6.95-22.05
	C675.59,297.4,676.07,286.09,676.84,274.81z"/>
<path class="st2" d="M1769.27,98.22c7.05,0,7.64,0.22,14.68,0.47c7.01,0.25,14.07,0.54,20.97,1.57c6.17,0.92,10.55,3.82,12.51,10.26
	c10.03,32.94,17.63,66.39,24.41,99.98c5.05,25.03,9.06,50.25,13.05,75.45c3.04,19.24,5.49,38.57,7.86,57.9
	c1.84,15.03,3.27,30.11,4.65,45.19c0.77,8.38,1.32,16.79,1.53,25.2c0.17,6.91-4.28,11.5-11.69,11.87
	c-14.55,0.72-29.12,1.21-43.69,1.4c-5.68,0.08-11.41-0.71-17.06-1.44c-7.57-0.97-12.08-6.75-11.22-13.92
	c0.03-0.24,0.15-0.47,0.16-0.71c0.59-14.19,1.4-28.38,1.66-42.58c0.1-5.73-0.76-11.52-1.6-17.23c-1.29-8.79-9.21-15.11-18.75-15.32
	c-2.35-0.05-4.73,0.2-7.04-0.05c-11.76-1.31-19.73,7.75-20.61,17.53c-1,11.02-1.57,22.1-1.55,33.16c0.02,8.14,1,16.32,2.09,24.42
	c1.01,7.45-3.75,14.21-12.02,14.67c-15.06,0.84-30.16,1.22-45.26,1.45c-5.16,0.08-10.35-0.78-15.5-1.38
	c-6.96-0.81-11.48-5.13-11.16-11.63c0.62-12.48,1.74-24.93,2.75-37.39c0.51-6.23,1.12-12.46,1.88-18.67
	c1.96-16.23,3.82-32.47,6.11-48.66c3.06-21.68,5.97-43.39,9.89-64.94c4.32-23.7,9.5-47.28,14.7-70.84
	c3.49-15.79,7.61-31.47,11.6-47.17c1.37-5.39,2.99-10.74,4.84-16c2.64-7.48,7.04-10.4,15.57-10.83c13.25-0.67,24.89-0.84,38.13-1.51
	C1761.17,98.71,1769.26,98.01,1769.27,98.22z M1760.43,186.39c-0.89,2.45-2.19,4.81-2.58,7.3c-1.76,11.15-3.41,22.32-4.81,33.52
	c-0.93,7.39-1.41,14.83-2.02,22.25c-0.94,11.48-2.13,22.96-2.59,34.46c-0.28,6.94,3.43,9.91,11.05,10.31
	c1.82,0.09,3.65,0.09,5.47,0.01c7.93-0.36,11.36-3.4,11.26-10.89c-0.08-6.71-0.76-13.42-1.38-20.11
	c-1.55-16.73-3.05-33.47-4.92-50.18c-0.75-6.67-2.2-13.29-3.73-19.85C1765.57,190.61,1762.04,184.58,1760.43,186.39z"/>
<path class="st2" d="M1550.75,427.64c-16.71,0-33.43,0.17-50.13-0.06c-10.66-0.15-21.32-0.77-31.97-1.44
	c-7.54-0.47-13.42-5.79-13.37-12.78c0.09-14.45,0.78-28.89,1.22-43.34c0.07-2.17,0.1-4.34,0.1-6.52c0.05-23.91-0.09-47.82,0.2-71.72
	c0.26-21.21,0.94-42.41,1.56-63.62c0.38-13,0.9-26,1.54-38.99c0.97-19.71,2.05-39.43,3.17-59.13c0.33-5.76,1.1-11.49,1.44-17.25
	c0.47-7.87,3.71-11.68,12.11-12.53c8.52-0.87,17.12-1.48,25.69-1.53c27.94-0.2,55.88-0.22,83.82-0.03
	c10.92,0.07,21.85,0.75,32.75,1.43c8.3,0.52,13.11,5.34,13.38,13.36c0.68,20.24,1.12,40.48,1.76,60.72
	c0.12,3.83,0.93,7.65,1.01,11.48c0.07,3.57,0.17,7.28-0.76,10.7c-1.79,6.65-7.24,8.78-13.77,5.46c-2.9-1.47-5.34-3.82-7.75-5.99
	c-8.74-7.89-18.77-13.8-30.46-17.14c-9.34-2.67-19.01-3.27-28.48-1.32c-16.29,3.34-21.7,17.08-19.69,30.23
	c2.27,14.81,12.67,19,28.15,19.67c9.02,0.39,18.13-1.12,27.21-1.76c4.4-0.31,8.81-0.8,13.21-0.86c5.28-0.07,9.05,2.35,10.51,7.1
	c0.91,2.98,1.65,6.11,1.72,9.19c0.22,9.41,0.19,18.84,0.01,28.25c-0.05,2.85-0.55,5.79-1.5,8.49c-2.32,6.65-7.91,8.28-13.97,4.1
	c-3.96-2.73-7.38-6.16-11.47-8.69c-9.84-6.08-20.39-9.12-32.54-6.74c-10.16,1.98-16.12,7.58-18.88,16.3
	c-3.41,10.77-3.79,21.87-2.25,32.94c1.13,8.11,2.71,16.05,8.15,23.08c4.27,5.52,9.95,9.09,16.54,10.12
	c12.66,1.98,25.33,1.68,37.12-4.48c9.2-4.81,15.37-12.08,20.66-20.2c1.75-2.68,3.47-5.38,5.16-8.1c2.3-3.69,6-5.74,10.3-5.35
	c4.45,0.4,7.42,3.28,8.38,7.55c0.26,1.18,0.83,2.32,0.93,3.5c0.61,7.19,1.36,14.39,1.63,21.59c0.7,18.79,1.15,37.58,1.78,56.37
	c0.06,1.91,0.78,3.79,0.89,5.7c0.18,3.11,0.59,6.32,0.04,9.34c-1.37,7.45-6.35,11.25-14.63,11.48c-26.84,0.74-53.68,1.39-80.52,2.07
	C1550.76,428.08,1550.75,427.86,1550.75,427.64z"/>
<path class="st2" d="M767.06,381.24c0-8.21-0.57-16.46,0.1-24.62c2.34-28.19,0.06-56.47,1.77-84.61
	c1.02-16.89,0.62-33.73,1.25-50.59c0.53-13.96,1.01-27.92,1.61-41.88c0.41-9.38,0.88-18.75,1.53-28.12
	c0.94-13.68,1.92-27.36,3.17-41.01c0.59-6.43,5.96-10.89,13.85-11.63c8.28-0.77,16.6-1.44,24.91-1.53
	c21.41-0.23,42.84-0.64,64.22,0.02c17.64,0.54,34.52,4.72,49.53,13.85c17.06,10.38,26.66,25.45,30.77,43.57
	c1.7,7.49,3.3,15.29,2.89,22.85c-0.93,17.06-3.29,33.94-10.48,50.06c-11.42,25.63-30.53,44.65-56.53,57.8
	c-11.94,6.04-25.12,9.27-38.48,11.67c-7.79,1.4-11.06,4.14-11.39,11.45c-0.35,7.66,0.33,15.38,0.85,23.06
	c0.4,5.99,0.97,12,1.95,17.93c2.13,12.83,4.54,25.63,6.89,38.43c1.27,6.87,2.67,13.72,3.99,20.59c0.14,0.71,0.11,1.44,0.15,2.17
	c0.59,10.02-3.19,14.48-13.93,15.5c-8.27,0.79-16.61,1.43-24.91,1.36c-13.27-0.1-26.54-0.67-39.79-1.38
	c-8.53-0.46-13.79-5.8-13.93-13.77c-0.17-10.38-0.04-20.77-0.04-31.15C767.04,381.24,767.05,381.24,767.06,381.24z M845.42,208.56
	c0.58,12.43,1.08,22.98,1.57,33.52c0.07,1.44-0.07,2.9,0.06,4.33c0.41,4.53,2.13,5.67,7.17,4.77c9.68-1.72,17.25-6.71,23.14-13.7
	c9.71-11.51,11.68-24.92,9.83-38.97c-0.4-3.04-1.5-6.16-3.03-8.88c-5.5-9.75-20.92-15.53-32.27-12.36c-3.1,0.87-4.65,2.89-4.84,5.86
	C846.48,192.23,845.89,201.33,845.42,208.56z"/>
<path class="st2" d="M118.39,359.09c0-15.21-0.19-30.42,0.04-45.63c0.36-23.14,0.95-46.27,1.57-69.4
	c0.39-14.44,0.97-28.88,1.53-43.32c0.48-12.27,0.92-24.54,1.61-36.8c0.91-16.33,2.05-32.65,3.07-48.98
	c0.7-11.18,6.19-15.6,18.21-16.44c28.66-2,57.36-2,86-1.18c23.52,0.68,45.1,7.56,61.93,23.82c10.82,10.46,16.33,23.42,18.79,37.47
	c4.42,25.15,0.98,49.56-10.08,72.79c-10.94,22.98-28.49,40.72-52.52,52.73c-11.79,5.9-24.31,9.8-37.53,11.99
	c-12.77,2.12-13.9,3.93-14.3,15.73c-0.75,22.06,2.58,43.68,7.17,65.22c2.46,11.56,4.61,23.17,6.73,34.78
	c1.21,6.65-4.51,13.42-12.33,14.22c-22.33,2.3-44.74,2.83-67.02-0.05c-11.06-1.43-13.22-6.58-13.1-14.09
	c0.3-17.62,0.1-35.25,0.1-52.87C118.3,359.09,118.35,359.09,118.39,359.09z M196.89,214.9c0,9.62-0.09,19.25,0.03,28.87
	c0.09,7.52,2.54,9.19,9.97,6.98c13.81-4.11,22.98-12.9,28.17-25.1c2.06-4.85,3.38-10.23,3.61-15.42
	c0.53-11.88-1.38-23.06-13.93-30.06c-5.48-3.06-11.27-3.28-17.27-3.18c-8.68,0.14-10.44,1.65-10.55,9.77
	C196.78,196.13,196.88,205.51,196.89,214.9z"/>
<path class="st2" d="M2097.46,359.46c0-11.35-0.15-22.69,0.1-34.04c0.07-3.03,0.8-6.27,2.18-9c2.52-4.99,7.35-6.2,12.32-3.05
	c3.17,2.01,5.96,4.71,8.38,7.5c13.58,15.58,30.96,23.9,52.71,24.07c6.49,0.05,13,0.49,19.04-2.76c13.33-7.18,17.93-20,13.77-34.43
	c-3.04-10.53-11.01-18.01-19.9-24.45c-11.88-8.61-24.19-16.72-36.39-24.96c-14.04-9.49-26.11-20.68-35.06-34.55
	c-6.23-9.66-9.13-20.28-11.03-31.35c-2.3-13.43-0.42-26.44,3.51-39.18c5.63-18.28,16.78-32.9,34.94-42.72
	c13.11-7.09,27.09-11,42.12-12c7.52-0.5,15.06-1.51,22.55-1.23c18.26,0.68,36.24,3.46,53.61,8.83c5.55,1.72,11.73,3.34,14.08,9.37
	c0.87,2.23,1.77,4.6,1.84,6.92c0.65,21.92,1.15,43.84,1.58,65.77c0.05,2.61-0.48,5.25-0.91,7.85c-0.63,3.78-3.17,6.07-7.16,6.72
	c-3.67,0.6-6.76-0.83-8.84-3.56c-6.26-8.25-15.29-13.05-24.94-16.82c-11.58-4.52-23.8-5.98-35.87-2.26
	c-5.23,1.61-10.54,4.59-14.33,8.26c-7.31,7.06-6.94,16.2-3.02,24.39c2.63,5.51,7.13,10.88,12.23,14.64
	c15.66,11.55,31.97,22.35,48.13,33.32c15.34,10.41,28.14,22.89,37.22,38.44c4.38,7.49,6.76,15.68,8.33,23.99
	c3.09,16.44,1.11,32.59-4.44,48.37c-10.78,30.67-34.18,48.09-67.72,54.6c-10.96,2.13-22.07,3.55-33.33,2.93
	c-23.48-1.29-46.54-4.68-68.79-11.98c-2.93-0.96-5.67-2.46-8.48-3.72c-3.54-1.59-5.79-4.29-6.48-7.74
	c-0.9-4.48-1.65-9.04-1.75-13.58c-0.25-10.86-0.08-21.72-0.08-32.59C2097.54,359.46,2097.5,359.46,2097.46,359.46z"/>
<path class="st2" d="M1101.22,290.14c1.61,11.19,2.94,22.41,4.46,33.61c1.36,10.01,2.98,19.99,4.21,30.01
	c1.35,10.98,2.4,22,3.55,33.01c0.75,7.18,1.04,14.42,2.24,21.53c1.8,10.68-2.86,17.01-14.24,17.88
	c-10.63,0.81-21.28,1.33-31.96,1.98c-10.68-0.65-21.32-1.29-31.97-1.95c-1.03-0.06-2.08-0.19-3.08-0.44
	c-8.28-2.09-13.17-6.39-11.98-15.84c1.8-14.31,3.02-28.69,4.7-43.02c1.18-10.03,2.78-20.01,4.11-30.02
	c1.24-9.3,2.36-18.62,3.58-27.92c0.88-6.67,1.75-13.35,2.77-20c0.78-5.03,0.09-7.32-4.39-8.82c-16.1-5.4-25.47-17.03-33.23-30.17
	c-11.77-19.91-18.13-41.55-22.95-63.56c-3.46-15.78-6.14-31.71-6.55-47.9c-0.2-7.93-1.22-15.84-1.37-23.77
	c-0.16-8.09,3.94-12.8,12.4-14.27c5.86-1.02,11.87-1.78,17.81-1.73c12.22,0.1,24.45,0.66,36.66,1.34
	c9.67,0.54,13.21,3.58,15.24,12.51c0.64,2.8,0.91,5.71,0.95,8.58c0.15,12.07-0.52,24.18,0.33,36.21
	c1.43,20.13,2.28,40.37,7.69,60.07c1.08,3.94,2.67,7.83,4.67,11.45c2.05,3.72,5.12,3.76,7.9,0.45c1.1-1.31,2.13-2.86,2.52-4.45
	c2.3-9.37,5.01-18.71,6.45-28.21c2.31-15.25,3.54-30.6,3.5-46.05c-0.04-11.78,0.9-23.57,1.28-35.36
	c0.27-8.44,4.01-13.14,12.86-14.89c4.81-0.95,9.79-1.71,14.69-1.65c13.27,0.17,26.54,0.64,39.79,1.36
	c9.45,0.51,14.39,5.83,14.48,14.61c0.17,15.69-2.3,31.15-4.42,46.66c-2.59,18.93-6.77,37.52-12.9,55.71
	c-5.2,15.45-11.36,30.61-21.94,43.75"/>
<path class="st3" d="M958.48,354.14"/>
<line class="st4" x1="1138.18" y1="211.87" x2="1168.1" y2="186.31"/>
<g>
	<g>
		<path d="M168.33,433.44c0.74-0.58,0.15-0.12-0.03,0.01c-0.22,0.16-0.44,0.31-0.66,0.46c-0.42,0.27-0.85,0.53-1.28,0.77
			c-1.6,0.89-2.26,3.23-1.26,4.79c1.07,1.66,3.05,2.16,4.79,1.26c1.06-0.55,2.12-1.1,3.18-1.65c1.63-0.84,2.24-3.26,1.26-4.79
			c-1.07-1.66-3.05-2.16-4.79-1.26c-1.06,0.55-2.12,1.1-3.18,1.65c1.18,2.01,2.36,4.03,3.53,6.04c1.21-0.67,2.3-1.47,3.39-2.33
			c0.66-0.52,1.03-1.68,1.03-2.47c0-0.86-0.38-1.88-1.03-2.47c-0.67-0.61-1.54-1.07-2.47-1.03
			C169.82,432.46,169.1,432.84,168.33,433.44L168.33,433.44z"/>
	</g>
</g>
<g>
	<g>
		<path d="M820.13,432.44c-1.01,1-2.01,1.99-3.02,2.99c-1,0.99-1.26,2.54-0.72,3.82c0.54,1.29,1.79,2.13,3.2,2.15
			c1.18,0.02,2.41-0.16,3.5-0.6c0.88-0.36,1.59-0.76,2.09-1.61c0.44-0.75,0.62-1.86,0.35-2.7c-0.27-0.85-0.8-1.66-1.61-2.09
			c-0.78-0.41-1.84-0.7-2.7-0.35c-0.48,0.2-0.96,0.33-1.48,0.42c0.31-0.04,0.62-0.08,0.93-0.13c-0.37,0.05-0.73,0.07-1.1,0.06
			c0.82,1.99,1.65,3.98,2.47,5.97c1.01-1,2.01-1.99,3.02-2.99c1.3-1.29,1.39-3.68,0-4.95C823.68,431.15,821.52,431.06,820.13,432.44
			L820.13,432.44z"/>
	</g>
</g>
<g>
	<g>
		<path d="M956.48,120.17c-0.17,2.08,0.76,4.28,2.26,5.69c1.34,1.25,3.64,1.42,4.95,0c1.25-1.36,1.43-3.61,0-4.95
			c-0.1-0.09-0.19-0.18-0.28-0.28c0.33,0.46,0.39,0.54,0.19,0.24c-0.07-0.11-0.14-0.23-0.2-0.34c0.2,0.51,0.25,0.63,0.16,0.38
			c-0.06-0.2-0.09-0.49-0.17-0.67c0.07,0.6,0.1,0.72,0.08,0.34c0-0.13,0.01-0.26,0.02-0.4c0.15-1.83-1.72-3.58-3.5-3.5
			C957.96,116.77,956.64,118.21,956.48,120.17L956.48,120.17z"/>
	</g>
</g>
<g>
	<g>
		<path d="M1155.6,205.39c-0.04,1.09-0.08,2.18-0.11,3.27c-0.02,0.51-0.36,2.25-0.12,2.66c0.06,0.1,4.17,0.06,3.82,0.43
			c-0.03,0.03,0.27-0.84,0.33-1.08c0.37-1.41,0.47-2.69,0.09-4.12c-1.14-4.36-7.89-2.51-6.75,1.86c0.09-0.27,0.08-0.24-0.02,0.11
			c-0.07,0.29-0.16,0.58-0.25,0.86c-0.13,0.48-0.24,0.93-0.3,1.43c-0.13,1.01-0.07,2.01,0.25,2.98c0.79,2.41,3.25,3.92,5.77,3.3
			c5.01-1.24,4.16-7.8,4.3-11.71C1162.75,200.88,1155.75,200.89,1155.6,205.39L1155.6,205.39z"/>
	</g>
</g>
<g>
	<g>
		<path d="M1347.21,120.81c0.03-0.03,0.07-0.07,0.1-0.1c-1.41,0.18-2.83,0.36-4.24,0.55c0.05,0.03,0.1,0.05,0.16,0.08
			c-0.42-0.42-0.84-0.84-1.26-1.26c-0.2-1.01-0.29-1.25-0.28-0.72c0,0.21,0,0.43,0,0.64c0,0.43,0,0.85,0,1.28c0,0.85,0,1.7,0,2.55
			c0,1.83,1.61,3.58,3.5,3.5c1.9-0.09,3.5-1.54,3.5-3.5c0-1.35,0-2.7,0.01-4.04c0-1.79-0.28-3.69-2.09-4.58
			c-1.42-0.7-3.08-0.6-4.24,0.55c-0.03,0.03-0.07,0.07-0.1,0.1c-1.31,1.29-1.39,3.68,0,4.95
			C1343.67,122.1,1345.82,122.18,1347.21,120.81L1347.21,120.81z"/>
	</g>
</g>
<g>
	<g>
		<path d="M1451.36,119.7c-0.43,1.77-0.86,3.55-1.29,5.32c-0.34,1.38,0.12,2.8,1.25,3.68c1.04,0.8,2.74,1.07,3.89,0.27
			c2.56-1.78,4.31-4.06,5.41-6.96c0.65-1.72-0.72-3.91-2.44-4.31c-1.99-0.45-3.61,0.61-4.31,2.44c-0.15,0.39-0.16,0.41-0.03,0.08
			c-0.1,0.2-0.2,0.39-0.31,0.59c-0.06,0.11-0.77,1.17-0.38,0.66c-0.27,0.35-0.58,0.67-0.9,0.97c-0.16,0.15-0.32,0.3-0.49,0.44
			c0.28-0.21,0.25-0.19-0.09,0.05c1.71,1.32,3.43,2.64,5.14,3.95c0.43-1.77,0.86-3.55,1.29-5.32c0.43-1.78-0.56-3.88-2.44-4.31
			C1453.86,116.85,1451.82,117.8,1451.36,119.7L1451.36,119.7z"/>
	</g>
</g>
<g>
	<g>
		<path d="M1699.79,432.82c-1.7,1.55-3.41,3.1-5.11,4.65c-2.89,2.63,0.99,7.86,4.24,5.5c2.86-2.07,5.64-4.26,8.32-6.56
			c1.43-1.23,1.27-3.68,0-4.95c-1.42-1.42-3.51-1.24-4.95,0c-2.23,1.92-4.52,3.74-6.9,5.47c1.41,1.83,2.83,3.66,4.24,5.5
			c1.7-1.55,3.41-3.1,5.11-4.65c1.4-1.27,1.29-3.66,0-4.95C1703.35,431.43,1701.2,431.55,1699.79,432.82L1699.79,432.82z"/>
	</g>
</g>
<g>
	<g>
		<path d="M1878.5,119.48c0.01-0.27-0.02-0.19-0.09,0.25c-0.06,0.26-0.14,0.52-0.23,0.77c-0.14,0.41-0.18,0.5-0.11,0.27
			c-0.12,0.24-0.25,0.48-0.38,0.7c-0.46,0.76-1.01,1.3-1.85,1.96c-1.49,1.17-1.22,3.73,0,4.95c1.47,1.47,3.46,1.17,4.95,0
			c2.82-2.21,4.24-5.44,4.7-8.91c0.25-1.88-1.79-3.5-3.5-3.5C1879.9,115.98,1878.75,117.6,1878.5,119.48L1878.5,119.48z"/>
	</g>
</g>
<g>
	<g>
		<path d="M1646.14,151.04c-3.4,5.96-4.93,12.42-4.39,19.27c0.35,4.44,6.94,4.56,7,0c0.07-4.97,0.13-9.94,0.2-14.9
			c0.04-3.32-4.98-4.97-6.52-1.77c-1.49,3.1-2.99,6.2-4.48,9.29c2.17,0.59,4.35,1.18,6.52,1.77c0.03-2.65,0.06-5.29,0.09-7.94
			c-2.29,0.31-4.58,0.62-6.88,0.93c1.37,6.77,2.04,13.55,2.09,20.45c2.33,0,4.67,0,7,0c-0.21-1.98-0.08-3.36,0.89-5.15
			c-2.13-0.28-4.26-0.56-6.4-0.84c2.28,8.36,5.39,18.35-0.43,25.85c-2.4,3.1-5.24,5.92-8.13,8.55c-1.89,1.72-3.63,3.87-6.42,3.8
			c-1.58-0.04-3.52-0.91-5.03-1.39c-3.72-1.19-7.31-2.83-9.89-5.86c-2.3-2.71-3.66-6.08-6.06-8.75c-4.39-4.88-10.83-7.23-17.32-6.74
			c-3.13,0.23-4.48,3.61-2.47,5.97c4.16,4.91,8.9,9.06,14.25,12.63c3.59,2.4,6.49-2.62,4.24-5.5c-2.32-2.96-6.14-5.41-10.07-5.23
			c-3.66,0.17-5.89,2.94-5.1,6.52c1.71,7.73,10.53,11.71,17.51,13.02c2.61,0.49,6-2.47,3.95-5.14c-5.18-6.75-12.93-10.56-21.52-9.52
			c-1.98,0.24-4.32,2.08-3.37,4.43c4.87,12.09,18.13,12.18,28.71,8.06c2.6-1.01,3.72-4.86,0.84-6.4c-5.44-2.89-18.68-5.83-21.96,1.9
			c-3.86,9.1,12.76,9.69,17.6,9.09c4.38-0.55,4.61-6.72,0-7c-5.35-0.32-10.7-0.42-16.06-0.3c-3.16,0.07-4.45,3.71-2.47,5.97
			c2.15,2.46,4.9,2.96,8.03,3.21c5.22,0.42,10.49,0.52,15.72,0.77c0-2.33,0-4.67,0-7c-6.66,0.02-13.31,0.04-19.97,0.05
			c-4.62,0.01-4.36,6.49,0,7c11.08,1.29,22.08,0.87,33.06-1.05c4.03-0.7,2.85-6.72-0.93-6.87c-5.13-0.2-10.26-0.41-15.39-0.61
			c-3.26-0.13-4.31,3.81-2.47,5.97c4.08,4.81,9.35,7.3,15.56,8c2.51,0.28,3.67-2.45,3.38-4.43c-0.69-4.58-6.9-9.12-11.58-7.96
			c-6.16,1.52-5.02,10.55-2.7,14.59c1.98,3.45,7.42,1.14,6.4-2.7c-0.49-1.84-1.17-3.44-2.15-5.09c-2.01,1.18-4.03,2.36-6.04,3.53
			c3.28,4.59,6.92,8.76,11.13,12.52c1.89,1.69,5.18,1.14,5.85-1.54c0.81-3.27,0.83-6.2,0.15-9.5c-0.93-4.46-7.48-2.51-6.75,1.86
			c0.38,2.27,0.08,4.11-0.63,6.25c1.95-0.51,3.9-1.03,5.85-1.54c-3.56-3.81-7.12-7.61-10.69-11.42c-3.09-3.3-7.98,1.63-4.95,4.95
			c3.1,3.4,4.87,7.21,5.71,11.71c1.95-1.14,3.9-2.27,5.85-3.41c-1.54-1.62-3.08-3.24-4.62-4.86c-1.97-2.07-6.26-0.6-5.97,2.47
			c0.22,2.43,0.45,4.86,0.67,7.29c1.99-0.82,3.98-1.65,5.97-2.47c-1.46-1.89-2.49-3.8-3.34-6.03c-1.32-3.48-6.97-3.28-6.88,0.93
			c0.11,4.62,1.83,8.55,5.45,11.49c1.59,1.29,4.44,1.52,5.5-0.71c2.87-6.05,5.46-12.21,7.78-18.49c-2.13,0.28-4.26,0.56-6.4,0.84
			c2.28,3.91,3.52,7.85,3.79,12.38c2.29-0.31,4.58-0.62,6.87-0.93c-0.63-4.13-0.6-8.17-0.15-12.31c-2.29,0.31-4.58,0.62-6.88,0.93
			c1.16,3.5,0.9,6.55-1.02,9.75c2.17,0.59,4.35,1.18,6.52,1.77c0.04-5.31,1.12-10.22,3.42-15.01c-2.13-0.9-4.26-1.8-6.4-2.7
			c-0.58,2.83-1.53,4.97-3.46,7.13c1.95,0.51,3.9,1.03,5.85,1.54c-0.57-3.36,0.79-6.06,3.27-8.2c-1.99-0.82-3.98-1.65-5.97-2.47
			c0.01,3.83-0.96,7.03-3.03,10.26c2.13,0.9,4.26,1.8,6.4,2.7c0.79-3.27,1.93-6.21,3.6-9.12c-2.17-0.59-4.35-1.18-6.52-1.77
			c-0.08,9.1-1.9,17.73-5.38,26.13c2.25,0,4.5,0,6.75,0c-1.62-5.46-2.14-10.85-1.66-16.51c-2.33,0-4.67,0-7,0
			c0.25,6.34,0.05,12.63-0.6,18.95c2.29-0.31,4.58-0.62,6.88-0.93c-2.32-8.04-4.64-16.07-6.96-24.11c-0.89-3.07-6.19-3.59-6.75,0
			c-1.11,7.09-0.08,13.72,2.27,20.46c1.04,2.99,4.61,3.3,6.4,0.84c0.43-0.59,0.85-1.18,1.28-1.76c-2.01,0-4.03,0-6.04,0
			c2.17,3.62,2.83,7.29,1.87,11.43c2.29,0.31,4.58,0.62,6.88,0.93c-0.28-3.83-0.38-7.64-0.27-11.48c-2.33,0-4.67,0-7,0
			c0.3,5.84,0.3,11.66,0,17.5c-0.24,4.61,6.43,4.33,7,0c0.46-3.53,0.92-7.06,1.39-10.58c-2.29,0.31-4.58,0.62-6.88,0.93
			c1.15,7.06,0.61,13.97-1.37,20.82c2.25,0,4.5,0,6.75,0c-0.46-1.41-0.36-2.76,0.28-4.04c-2.29-0.31-4.58-0.62-6.88-0.93
			c0.75,12.3-7.4,22.81-9.04,34.75c-0.59,4.32,5.73,6.38,6.75,1.86c0.35-1.56,0.71-3.12,1.06-4.69c-2.29-0.31-4.58-0.62-6.88-0.93
			c0.2,3.06-0.24,5.65-1.66,8.38c2.17,0.59,4.35,1.18,6.52,1.77c0.4-4.57,0.79-9.14,1.19-13.72c0.33-3.84-4.69-4.23-6.52-1.77
			c-1.91,2.57-1.99,5.99-3.74,8.48c-2.42,3.43-1.87-2.15-3.13-4.1c-1.01-1.56-3.12-2.28-4.79-1.26c-2.74,1.68-4.15,3.54-5.26,6.54
			c-0.7,1.9,0.81,3.67,2.44,4.31c7.07,2.74,10.99-4.23,11.87-10.1c0.35-2.35-0.91-4.25-3.38-4.43c-3.28-0.23-5.89,0.85-8.28,3.05
			c-1.27,1.17-1.45,3.81,0,4.95c6.83,5.36,16.01,5.25,22.43-0.8c2.06-1.94,0.6-6.31-2.47-5.97c-7.82,0.84-15.61,1.93-23.36,3.27
			c-3.35,0.58-3.33,6.15,0,6.75c9.24,1.68,18.35,1.25,27.34-1.51c2.03-0.62,3.41-3.21,2.09-5.14c-2.89-4.25-7.13-5.65-12.05-6.37
			c-7.08-1.03-14.18-1.22-21.32-0.7c-3.97,0.29-4.71,5.54-0.93,6.87c9.39,3.33,19.04,4.06,28.87,2.55c2.26-0.35,3.15-3.38,2.09-5.14
			c-2.59-4.32-7.41-4.46-11.98-4.88c-6.98-0.65-13.98-0.77-20.99-0.51c-3.14,0.12-5.18,5.06-1.77,6.52
			c8.87,3.79,18.04,3.75,27.52,3.21c3.71-0.21,5.03-6.13,0.93-6.87c-10.26-1.87-20.6-2.77-31.02-2.63c-4.61,0.06-4.37,6.5,0,7
			c5.04,0.57,21.37,2.22,19.05-7.36c-1.9-7.86-15.58-7.19-21.55-6.6c-3.61,0.36-5.12,6.06-0.93,6.87
			c7.47,1.46,14.97,2.06,22.57,1.69c3.21-0.16,5.1-4.91,1.77-6.52c-4.83-2.34-9.78-4.06-15.05-5.1c-4.4-0.86-6.28,5.88-1.86,6.75
			c4.67,0.92,9.08,2.31,13.37,4.39c0.59-2.17,1.18-4.35,1.77-6.52c-6.99,0.34-13.84-0.1-20.71-1.44c-0.31,2.29-0.62,4.58-0.93,6.87
			c2.37-0.23,4.72-0.37,7.09-0.21c1.92,0.13,5.09,1.55,6.84,1.22c1.2,0.53,1.08,0.23-0.35-0.9c-1.23,0.13-2.46,0.21-3.7,0.25
			c-2.48,0.07-4.93-0.11-7.4-0.39c0,2.33,0,4.67,0,7c9.81-0.14,19.51,0.62,29.16,2.38c0.31-2.29,0.62-4.58,0.93-6.88
			c-8.04,0.46-16.41,0.98-23.99-2.25c-0.59,2.17-1.18,4.35-1.77,6.52c4.46-0.16,8.91-0.19,13.37,0c2.86,0.12,12.04-0.59,13.56,1.93
			c0.7-1.71,1.39-3.43,2.09-5.14c-8.57,1.32-17,0.34-25.15-2.55c-0.31,2.29-0.62,4.58-0.93,6.87c4.86-0.35,9.72-0.41,14.58-0.05
			c3.65,0.28,10.35,0.14,12.74,3.65c0.7-1.71,1.39-3.43,2.09-5.14c-7.76,2.38-15.62,2.96-23.62,1.51c0,2.25,0,4.5,0,6.75
			c7.14-1.24,14.3-2.25,21.5-3.02c-0.82-1.99-1.65-3.98-2.47-5.97c-3.38,3.19-8.77,3.75-12.53,0.8c0,1.65,0,3.3,0,4.95
			c0.93-0.99,2.05-1.33,3.33-1c-1.12-1.48-2.25-2.95-3.38-4.43c-0.18,1.19-0.56,6.26-3.26,5.21c0.81,1.44,1.63,2.87,2.44,4.31
			c0.68-0.79,1.36-1.57,2.05-2.36c-1.6-0.42-3.19-0.84-4.79-1.26c1.44,2.23-0.1,5.18,2.13,7.45c1.78,1.82,4.52,2.35,6.94,1.82
			c6.8-1.48,6.5-9.07,9.9-13.65c-2.17-0.59-4.35-1.18-6.52-1.77c-0.4,4.57-0.79,9.14-1.19,13.72c-0.3,3.47,4.97,4.75,6.52,1.77
			c1.97-3.78,2.89-7.65,2.62-11.91c-0.24-3.74-5.96-4.99-6.88-0.93c-0.35,1.56-0.71,3.12-1.06,4.69c2.25,0.62,4.5,1.24,6.75,1.86
			c1.74-12.63,10.09-23.53,9.29-36.61c-0.24-3.96-5.59-4.73-6.88-0.93c-0.9,2.67-0.92,5.02-0.28,7.76c0.81,3.44,5.82,3.22,6.75,0
			c2.35-8.12,2.72-16.21,1.37-24.54c-0.69-4.27-6.41-2.58-6.88,0.93c-0.46,3.53-0.92,7.06-1.39,10.58c2.33,0,4.67,0,7,0
			c0.3-5.84,0.3-11.66,0-17.5c-0.23-4.48-6.88-4.53-7,0c-0.1,3.84-0.01,7.65,0.27,11.48c0.28,3.73,5.93,5,6.88,0.93
			c1.38-5.95,0.57-11.57-2.58-16.82c-1.45-2.41-4.53-2.09-6.04,0c-0.43,0.59-0.85,1.18-1.28,1.76c2.13,0.28,4.26,0.56,6.4,0.84
			c-1.89-5.43-3.17-10.98-2.27-16.74c-2.25,0-4.5,0-6.75,0c2.32,8.04,4.64,16.07,6.96,24.11c1.15,3.99,6.49,2.86,6.88-0.93
			c0.64-6.31,0.84-12.61,0.6-18.95c-0.18-4.55-6.62-4.45-7,0c-0.53,6.26,0.12,12.35,1.91,18.37c1.06,3.58,5.49,3.04,6.75,0
			c3.71-8.94,5.55-18.31,5.63-27.99c0.03-3.46-4.8-4.77-6.52-1.77c-1.97,3.44-3.38,6.94-4.31,10.79c-0.93,3.89,4.24,6.06,6.4,2.7
			c2.71-4.23,4-8.77,3.99-13.79c-0.01-3.2-3.74-4.4-5.97-2.47c-4.51,3.9-6.05,9.23-5.07,15.01c0.44,2.57,4.2,3.4,5.85,1.54
			c2.69-3.02,4.44-6.25,5.26-10.22c0.75-3.65-4.57-6.48-6.4-2.7c-2.85,5.91-4.33,11.97-4.38,18.54c-0.03,3.51,4.76,4.71,6.52,1.77
			c2.82-4.7,3.45-9.93,1.72-15.15c-1.3-3.91-6.45-2.93-6.88,0.93c-0.53,4.8-0.33,9.41,0.4,14.17c0.59,3.89,7.11,2.99,6.88-0.93
			c-0.34-5.74-1.85-10.94-4.74-15.91c-1.61-2.77-5.39-1.89-6.4,0.84c-2.11,5.72-4.46,11.31-7.07,16.82c1.83-0.24,3.66-0.47,5.5-0.71
			c-2.22-1.8-3.33-3.63-3.4-6.54c-2.29,0.31-4.58,0.62-6.87,0.93c1.29,3.41,2.91,6.24,5.14,9.11c1.82,2.36,6.24,0.41,5.97-2.47
			c-0.22-2.43-0.45-4.86-0.67-7.29c-1.99,0.82-3.98,1.65-5.97,2.47c1.54,1.62,3.08,3.24,4.62,4.86c2.58,2.71,6.46-0.17,5.85-3.41
			c-1.07-5.68-3.63-10.55-7.51-14.8c-1.65,1.65-3.3,3.3-4.95,4.95c3.56,3.81,7.12,7.61,10.69,11.42c1.89,2.01,5.06,0.85,5.85-1.54
			c1.13-3.42,1.22-6.45,0.63-9.98c-2.25,0.62-4.5,1.24-6.75,1.86c0.45,2.17,0.39,3.63-0.15,5.78c1.95-0.51,3.9-1.03,5.85-1.54
			c-3.76-3.36-7.11-6.99-10.04-11.1c-2.57-3.6-8.4-0.41-6.04,3.53c0.75,1.02,1.23,2.16,1.44,3.41c2.13-0.9,4.26-1.8,6.4-2.7
			c-0.92-1.61-0.14-4.59-2.02-4.14c1.35-0.32,3.34,1.86,3.5,2.91c1.12-1.48,2.25-2.95,3.38-4.43c-4.41-0.5-7.79-2.62-10.61-5.95
			c-0.82,1.99-1.65,3.98-2.47,5.97c5.13,0.2,10.26,0.41,15.39,0.61c-0.31-2.29-0.62-4.58-0.93-6.87c-10.35,1.81-20.77,2.01-31.2,0.8
			c0,2.33,0,4.67,0,7c6.66-0.02,13.31-0.04,19.97-0.05c4.53-0.01,4.48-6.78,0-7c-3.27-0.16-6.55-0.32-9.82-0.48
			c-2.52-0.12-7.16,0.63-8.97-1.45c-0.82,1.99-1.65,3.98-2.47,5.97c5.36-0.12,10.71-0.03,16.06,0.3c0-2.33,0-4.67,0-7
			c-2.38,0.3-10.24,1.24-11.53-1.52c0.12,0.9,0.24,1.8,0.35,2.7c0.52-3.29,10.86,0.27,12.01,0.88c0.28-2.13,0.56-4.26,0.84-6.4
			c-6.19,2.41-16.8,5.03-20.1-3.17c-1.12,1.48-2.25,2.95-3.38,4.43c5.95-0.72,11.74,1.17,15.48,6.05c1.32-1.71,2.64-3.43,3.95-5.14
			c-2.62-0.49-5.18-1.15-7.52-2.47c-1.35-0.76-5.6-3.51-4.8-5.52c-0.81,0.81-1.63,1.63-2.44,2.44c2.5-0.65,4.31,1.27,5.61,2.94
			c1.41-1.83,2.83-3.66,4.24-5.5c-4.86-3.24-9.06-7.08-12.83-11.53c-0.82,1.99-1.65,3.98-2.47,5.97c4.87-0.36,9.41,1.14,12.57,4.98
			c2.92,3.55,4.52,7.72,8.18,10.7c2.94,2.4,6.37,3.98,9.95,5.19c3.29,1.11,8.12,3.12,11.55,1.76c3.94-1.56,7.61-5.79,10.52-8.72
			c2.96-2.99,6.05-6.22,8.1-9.93c4.68-8.47,1.54-19.58-0.84-28.31c-0.77-2.84-4.95-3.51-6.4-0.84c-1.52,2.81-2.19,5.48-1.85,8.68
			c0.46,4.38,7.03,4.61,7,0c-0.05-7.52-0.85-14.94-2.34-22.31c-0.8-3.95-6.83-2.93-6.87,0.93c-0.03,2.65-0.06,5.29-0.09,7.94
			c-0.04,3.32,4.98,4.97,6.52,1.77c1.49-3.1,2.99-6.2,4.48-9.29c-2.17-0.59-4.35-1.18-6.52-1.77c-0.07,4.97-0.13,9.94-0.2,14.9
			c2.33,0,4.67,0,7,0c-0.44-5.67,0.62-10.8,3.44-15.74C1654.42,150.65,1648.37,147.12,1646.14,151.04L1646.14,151.04z"/>
	</g>
</g>
<g>
	<g>
		<path d="M1610.62,304.06c-4.04,7.08-8.9,13.43-14.69,19.18c1.83,1.41,3.66,2.83,5.5,4.24c2.42-4.07,5.28-7.62,8.71-10.88
			c-1.95-1.14-3.9-2.27-5.85-3.41c-1.73,6.38-4.36,12.61-10.17,16.26c1.6,1.6,3.19,3.19,4.79,4.79c2.26-5.03,5.33-9.22,9.47-12.87
			c-1.99-0.82-3.98-1.65-5.97-2.47c0.01,3.43-1.24,5.9-3.81,8.1c1.83,1.41,3.66,2.83,5.5,4.24c3.01-5.94,6.01-11.89,9.02-17.83
			c-2.17-0.59-4.35-1.18-6.52-1.77c-0.17,1.95-0.48,3.68-0.94,5.57c-0.9,3.67,4.75,6.48,6.4,2.7c1.44-3.3,3.2-6.13,5.67-8.78
			c-1.95-1.14-3.9-2.27-5.85-3.41c-1.4,7.21-5.66,17-13.68,18.65c1.44,1.44,2.87,2.87,4.31,4.31c1.11-3.04,4.33-5.8,6.42-8.24
			c2.02-2.35,4.04-4.7,6.06-7.05c-1.99-0.82-3.98-1.65-5.97-2.47c-0.5,4.68-5.44,8.25-9.19,10.39c-2.04,1.17-4.19,2.07-6.45,2.71
			c-0.94,0.26-5.49,0.87-5.13,1.42c0.12,0.9,0.24,1.8,0.35,2.7c0.76-4.41,9.13-7.67,12.76-8.76c-1.48-1.12-2.95-2.25-4.43-3.37
			c0.94,7.29-9.1,13.61-15.27,14.69c1.32,1.71,2.64,3.43,3.95,5.14c3.08-4.52,7.32-7.65,12.51-9.33c-1.44-1.44-2.87-2.87-4.31-4.31
			c-1.3,4.32-12.28,5.7-15.94,6.34c0.62,2.25,1.24,4.5,1.86,6.75c4.81-1.7,9.62-3.41,14.42-5.11c-1.14-1.95-2.27-3.9-3.41-5.85
			c-2.48,2.42-5.06,4.66-7.87,6.71c-3.62,2.64-0.58,8.03,3.53,6.04c3.55-1.72,7.17-2.72,11.11-3.05c-0.82-1.99-1.65-3.98-2.47-5.97
			c-3.41,3.06-7.25,4.75-11.74,5.53c1.14,1.95,2.27,3.9,3.41,5.85c4.22-4.34,10.22-5.22,15.95-6.08c4.07-0.61,2.81-6.68-0.93-6.88
			c-2.94-0.15,1.26-6.48,1.91-7.48c1.66-2.55,3.39-4.85,5.97-6.54c-1.6-1.6-3.19-3.19-4.79-4.79c-4.11,7.27-10.82,11.63-19.05,12.77
			c1.48,1.12,2.95,2.25,4.43,3.38c-0.01-6.07,11.93-10.52,16.53-11.97c-1.14-1.95-2.27-3.9-3.41-5.85
			c-4.25,4.1-10.44,5.3-16.06,6.39c-3.16,0.61-6.35,1.04-9.56,1.29c-1.6,0.13-3.2,0.22-4.81,0.26c-1.5,0.04-4.43-1-3.94,1.4
			c-0.3,1.14-0.6,2.27-0.9,3.41c-1.24,0.49-0.85,0.41,1.17-0.25c1.22-0.33,2.44-0.64,3.67-0.91c2.46-0.55,4.94-0.99,7.44-1.35
			c5.32-0.77,10.69-1.15,16.05-1.56c3.63-0.28,5.1-6.26,0.93-6.87c-9.86-1.45-19.7-1.33-29.64-1c0,2.33,0,4.67,0,7
			c10.68-1.21,21.34-2.63,31.97-4.26c4.19-0.64,2.67-6.51-0.93-6.87c-8.69-0.88-17.24-0.52-25.86,0.9c-4.27,0.7-2.58,6.41,0.93,6.87
			c11.16,1.47,22.32,1.46,33.48-0.02c3.73-0.5,4.97-5.6,0.93-6.87c-5.26-1.66-10.73-1.58-16.2-1.63
			c-6.48-0.07-12.97-0.07-19.46-0.04c0,2.33,0,4.67,0,7c10.13-0.45,20.22-1.3,30.28-2.56c3.52-0.44,5.2-6.1,0.93-6.87
			c-9.93-1.81-20.53-0.39-30.57-0.03c0,2.33,0,4.67,0,7c6.44-0.72,12.88-1.45,19.33-2.17c3.53-0.4,5.19-6.25,0.93-6.87
			c-7.72-1.13-15.42-1.18-23.2-1.05c0,2.33,0,4.67,0,7c6.65-0.75,13.29-1.5,19.94-2.26c4.4-0.5,4.6-6.77,0-7
			c-7.26-0.36-14.47-0.2-21.7,0.46c-4.41,0.41-4.58,6.95,0,7c6.67,0.07,13.24-0.48,19.83-1.53c3.3-0.53,2.98-4.84,0.84-6.4
			c-2.61-1.89-5.49-1.82-8.59-1.82c-4.38,0-8.77,0.04-13.15,0.06c0,2.33,0,4.67,0,7c7.13-0.26,14.23-0.76,21.32-1.51
			c3.55-0.37,5.17-6.26,0.93-6.88c-5.37-0.78-10.51-1.32-15.82,0.1c-3.86,1.03-3,6.78,0.93,6.88c6.24,0.15,12.48,0.29,18.71,0.44
			c-0.59-2.17-1.18-4.35-1.77-6.52c-3.52,2.02-7.09,3.54-10.99,4.68c-3.87,1.13-2.97,6.65,0.93,6.87c4.18,0.24,8.08-0.2,12.11-1.32
			c1.32-0.36,2.77-1.88,2.57-3.37c-0.51-3.85-2.84-4.94-6.51-5.39c-5.77-0.71-11.66-0.75-17.46-0.64c0.31,2.29,0.62,4.58,0.93,6.87
			c4.6-1.54,9.27-2.67,14.09-3.23c4.45-0.52,4.55-6.58,0-7c-5.46-0.5-10.9-0.57-16.37-0.22c0.31,2.29,0.62,4.58,0.93,6.87
			c4.24-0.69,8.35-1.67,12.44-2.98c3.84-1.22,3-6.6-0.93-6.87c-3.76-0.26-7.5-0.33-11.27-0.22c0.31,2.29,0.62,4.58,0.93,6.87
			c3.28-0.82,6.56-1.64,9.85-2.46c2.72-0.68,3.18-3.93,1.54-5.85c-2.51-2.94-5.64-3.67-9.34-3.15c-4.05,0.58-2.83,6.73,0.93,6.87
			c1.63,0.06,3.09-0.13,4.66-0.57c3.26-0.93,3.4-5.89,0-6.75c-1.7-0.43-3.4-0.86-5.1-1.29c0.51,1.95,1.03,3.9,1.54,5.85
			c2.19-2.09,4.52-3.12,7.45-3.63c2.26-0.39,3.15-3.35,2.09-5.14c-3.27-5.52-10.43-4.93-16.02-4.65c-3.18,0.16-4.42,3.64-2.47,5.97
			c3.04,3.65,7.17,4.76,11.75,3.99c-1.44-1.44-2.87-2.87-4.31-4.31c-2.64,6.5-3.87,13.51-3.29,20.53c0.21,2.49,1.89,7.3,0.37,9.08
			c-1.78,2.1-7.54,2.67-10.05,3.18c-3.23,0.65-3.45,6.28,0,6.75c5.34,0.72,10.68,1.31,16.05,1.7c0-2.33,0-4.67,0-7
			c-8.27-0.16-16.53-0.31-24.8-0.47c-3.31-0.06-4.25,3.75-2.47,5.97c2.9,3.63,10.43,4.3,10.14-2.07c-0.26-5.72-8.44-8.75-13.05-8.09
			c1.44,0.81,2.87,1.63,4.31,2.44c-0.32-1.65-0.24-3.28,0.25-4.89c-2.25,0-4.5,0-6.75,0c1.29,3.84,3.77,6.33,7.67,7.49
			c2.21,0.66,4.4-1.15,4.43-3.37c0.05-4.2-2.71-9.82-7.91-7.56c-4.33,1.88-6.27,9.69-7.35,13.73c1.95-0.51,3.9-1.03,5.85-1.54
			c-0.92-0.55-1.61-1.31-2.07-2.29c-1.72-2.95-6.6-1.74-6.52,1.77c0.06,2.49,0.37,4.85,0.94,7.27c0.75,3.16,6.27,3.51,6.75,0
			c0.37-2.71,0.35-4.99-0.41-7.66c-2.25,0.62-4.5,1.24-6.75,1.86c1.92,5.49,4.09,10.86,6.49,16.15c1.47,3.25,6.58,1.52,6.52-1.77
			c-0.02-1.23-0.04-2.46-0.06-3.69c-0.07-4.5-6.99-4.52-7,0c0,1.64,0,3.28-0.01,4.92c2.17-0.59,4.35-1.18,6.52-1.77
			c-0.84-1.65-1.68-3.3-2.51-4.96c-1.95-3.84-6.93-0.91-6.4,2.7c0.12,1.17,0.34,2.32,0.67,3.45c1.95-1.14,3.9-2.27,5.85-3.41
			c-0.51-0.61-1.03-1.22-1.54-1.83c-2.2-2.61-5.63-0.18-5.97,2.47c-0.53,4.13,2.58,9.66,7.47,7.03c4.69-2.53,3.12-11.11,2-15.22
			c-1.19-4.34-7.88-2.51-6.75,1.86c0.87,3.37,1.75,6.74,2.62,10.12c0.83,3.2,4.69,3.09,6.4,0.84c2.51-3.3,4.11-6.86,4.98-10.9
			c-2.29-0.31-4.58-0.62-6.88-0.93c-0.27,2.34-0.89,4.49-1.72,6.69c2.25,0,4.5,0,6.75,0c-0.48-1.9-0.95-3.8-1.43-5.7
			c-0.92-3.66-5.55-2.96-6.75,0c-1.28,3.17-1.75,8.39,1.61,10.55c3.83,2.46,8.39-2.07,11.4-4.04c-1.76-1.01-3.51-2.01-5.27-3.02
			c-0.13,2.36-0.84,3.97-2.17,5.86c-2.09,2.97,1.92,6.45,4.79,4.79c4.57-2.66,7.52-6.31,9.5-11.17c0.65-1.6-0.72-4.07-2.44-4.31
			c-5.19-0.71-7.84,2.46-12.59,3.62c1.32,1.71,2.64,3.43,3.95,5.14c1.33-2.36,2.76-4.57,4.45-6.69c-1.65-1.65-3.3-3.3-4.95-4.95
			c-1.56,1.98-3.12,3.96-4.68,5.94c-2.77,3.52,1.44,7.89,4.95,4.95c1.62-1.35,3.23-2.7,4.85-4.05c1.14-0.95,3.62-3.9,5.09-4.07
			c-0.82-0.34-1.65-0.68-2.47-1.03c-0.14-0.53-0.27-1.06-0.41-1.59c0.81-0.81,1.63-1.63,2.44-2.44c-0.19,0.07-0.38,0.13-0.57,0.2
			c-4.23,1.47-2.41,8.23,1.86,6.75c3.83-1.33,4.7-6.88,0.5-8.59c-2.45-0.99-4.67,0.33-6.54,1.76c-3.33,2.55-6.48,5.42-9.69,8.11
			c1.65,1.65,3.3,3.3,4.95,4.95c1.56-1.98,3.12-3.96,4.68-5.94c2.75-3.49-2.13-8.48-4.95-4.95c-2.07,2.58-3.92,5.22-5.55,8.11
			c-1.52,2.7,0.99,5.87,3.95,5.14c2.46-0.6,6.49-3.95,8.86-3.62c-0.81-1.44-1.63-2.87-2.44-4.31c-1.28,3.14-3.41,5.32-6.29,6.99
			c1.6,1.6,3.19,3.19,4.79,4.79c2.07-2.93,2.93-5.83,3.13-9.39c0.14-2.6-3.1-4.44-5.27-3.02c-1.28,0.84-4.69,3.79-5.74,3.83
			c0.82,0.34,1.65,0.68,2.47,1.03c-0.26-1.24-0.08-2.39,0.55-3.46c-2.25,0-4.5,0-6.75,0c0.48,1.9,0.95,3.8,1.43,5.7
			c0.9,3.6,5.61,3.03,6.75,0c1.06-2.81,1.63-5.58,1.97-8.55c0.45-3.92-6.05-4.76-6.88-0.93c-0.75,3.5-2.11,6.38-4.28,9.23
			c2.13,0.28,4.26,0.56,6.4,0.84c-0.87-3.37-1.75-6.74-2.62-10.12c-2.25,0.62-4.5,1.24-6.75,1.86c0.42,1.28,0.68,2.58,0.78,3.93
			c-0.5,2.16,0.67,2.97,3.49,2.4c-1.99,0.82-3.98,1.65-5.97,2.47c0.51,0.61,1.03,1.22,1.54,1.83c2.38,2.81,6.62-0.24,5.85-3.41
			c-0.33-1.13-0.55-2.28-0.67-3.45c-2.13,0.9-4.26,1.8-6.4,2.7c0.84,1.65,1.68,3.3,2.51,4.96c1.61,3.17,6.52,1.57,6.52-1.77
			c0-1.64,0-3.28,0.01-4.92c-2.33,0-4.67,0-7,0c0.02,1.23,0.04,2.46,0.06,3.69c2.17-0.59,4.35-1.18,6.52-1.77
			c-2.15-4.74-4.07-9.56-5.78-14.48c-1.47-4.2-8.01-2.52-6.75,1.86c0.5,1.26,0.64,2.57,0.41,3.93c2.25,0,4.5,0,6.75,0
			c-0.43-1.82-0.65-3.53-0.69-5.4c-2.17,0.59-4.35,1.18-6.52,1.77c0.88,1.5,1.79,2.63,3.16,3.71c1.98,1.55,5.11,1.24,5.85-1.54
			c0.79-2.99,1.92-7.84,4.42-9.92c-0.82,0.34-1.65,0.68-2.47,1.03c-0.15,0.29-0.29,0.57-0.44,0.86c1.48-1.12,2.95-2.25,4.43-3.37
			c-1.48-0.28-2.4-1.15-2.78-2.6c-1.04-3.09-5.94-3.56-6.75,0c-0.68,2.97-0.71,5.6-0.25,8.61c0.31,2.03,2.62,2.69,4.31,2.44
			c1.35-0.19,4.01,1.34,4.37,2.74c0.12-0.9,0.24-1.8,0.35-2.7c0.42-0.52,0.84-1.05,1.27-1.57c-0.83,1.99-1.65,3.98-2.47,5.97
			c8.27,0.16,16.53,0.31,24.8,0.47c4.55,0.09,4.45-6.67,0-7c-4.75-0.35-9.48-0.82-14.19-1.45c0,2.25,0,4.5,0,6.75
			c5.12-1.03,15.76-2.97,16.4-9.69c0.18-1.91-0.78-4.1-1.13-5.94c-0.48-2.55-0.66-5.14-0.6-7.74c0.11-4.99,1.31-9.71,3.18-14.31
			c1.11-2.74-2.01-4.69-4.31-4.31c-2.15,0.36-3.65-0.64-4.94-2.19c-0.82,1.99-1.65,3.98-2.47,5.97c2.22-0.11,8.6-1.14,9.97,1.18
			c0.7-1.71,1.39-3.43,2.09-5.14c-4.12,0.71-7.54,2.56-10.54,5.43c-1.89,1.8-0.98,5.21,1.54,5.85c1.7,0.43,3.4,0.86,5.1,1.29
			c0-2.25,0-4.5,0-6.75c-0.91,0.37-1.84,0.47-2.8,0.32c0.31,2.29,0.62,4.58,0.93,6.88c0.84,0.45,1.69,0.9,2.53,1.34
			c0.51-1.95,1.03-3.9,1.54-5.85c-3.28,0.82-6.56,1.64-9.85,2.46c-3.8,0.95-3.04,7,0.93,6.87c3.77-0.11,7.51-0.04,11.27,0.22
			c-0.31-2.29-0.62-4.58-0.93-6.88c-4.09,1.3-8.2,2.29-12.44,2.98c-3.88,0.63-2.99,7.13,0.93,6.88c5.48-0.36,10.91-0.29,16.37,0.22
			c0-2.33,0-4.67,0-7c-5.46,0.64-10.73,1.73-15.95,3.48c-3.62,1.21-3.18,6.95,0.93,6.88c3.07-0.06,6.13-0.05,9.2,0.07
			c2.57,0.1,7.24-0.45,9.39,1.1c-0.58-1.01-1.16-2.01-1.73-3.02c0.04,0.29,0.08,0.59,0.12,0.88c0.86-1.12,1.71-2.25,2.57-3.37
			c-3.43,0.95-6.71,1.27-10.25,1.07c0.31,2.29,0.62,4.58,0.93,6.88c4.44-1.3,8.64-3.09,12.66-5.39c3.07-1.76,1.65-6.44-1.77-6.52
			c-6.24-0.15-12.48-0.29-18.71-0.44c0.31,2.29,0.62,4.58,0.93,6.87c4.05-1.08,7.99-0.7,12.1-0.1c0.31-2.29,0.62-4.58,0.93-6.87
			c-7.09,0.74-14.19,1.24-21.32,1.51c-4.49,0.17-4.53,7.02,0,7c3.13-0.01,6.26-0.03,9.39-0.04c2.69-0.01,6.51-0.82,8.82,0.85
			c0.28-2.13,0.56-4.26,0.84-6.4c-5.96,0.95-11.93,1.34-17.96,1.28c0,2.33,0,4.67,0,7c7.23-0.67,14.45-0.82,21.7-0.46
			c0-2.33,0-4.67,0-7c-6.65,0.75-13.29,1.5-19.94,2.26c-4.36,0.49-4.62,7.08,0,7c7.13-0.12,14.27-0.23,21.34,0.8
			c0.31-2.29,0.62-4.58,0.93-6.88c-6.44,0.72-12.88,1.45-19.33,2.17c-4.36,0.49-4.6,7.16,0,7c9.26-0.33,19.56-1.89,28.71-0.22
			c0.31-2.29,0.62-4.58,0.93-6.87c-10.06,1.26-20.15,2.11-30.28,2.56c-4.48,0.2-4.53,7.03,0,7c5.84-0.03,11.67-0.03,17.51,0.02
			c5.45,0.05,11.03-0.26,16.28,1.4c0.31-2.29,0.62-4.58,0.93-6.87c-11.16,1.48-22.32,1.49-33.48,0.02c0.31,2.29,0.62,4.58,0.93,6.88
			c7.98-1.31,15.96-1.46,24-0.65c-0.31-2.29-0.62-4.58-0.93-6.87c-10.01,1.54-20.04,2.87-30.11,4.01c-4.36,0.49-4.61,7.15,0,7
			c9.27-0.31,18.57-0.6,27.78,0.75c0.31-2.29,0.62-4.58,0.93-6.87c-9.1,0.69-18.3,1.38-27.19,3.6c-2.18,0.54-5.44,0.95-6.64,3.24
			c-1.07,2.05-0.22,4.44,1.69,5.59c2.87,1.73,7.41,0.93,10.57,0.77c4.16-0.2,8.31-0.68,12.41-1.38c7.52-1.3,15.39-3.1,21.04-8.54
			c2.47-2.38-0.05-6.91-3.41-5.85c-8.16,2.58-21.69,8.56-21.67,18.72c0,2.51,2.22,3.68,4.43,3.37c9.89-1.37,18.34-7.32,23.24-15.98
			c1.65-2.93-1.76-6.77-4.79-4.79c-5.15,3.37-10.31,9.78-11.9,15.81c-1.46,5.54,1.65,10.95,7.55,11.25
			c-0.31-2.29-0.62-4.58-0.93-6.87c-7.06,1.06-13.9,2.6-19.04,7.88c-2.59,2.66,0.09,6.42,3.41,5.85c5.68-0.98,10.55-3.5,14.83-7.33
			c2.17-1.94,0.53-6.23-2.47-5.97c-5.2,0.44-9.94,1.73-14.64,4c1.18,2.01,2.36,4.03,3.53,6.04c3.28-2.4,6.37-4.96,9.28-7.81
			c2.4-2.34-0.03-7.04-3.41-5.85c-4.81,1.7-9.62,3.41-14.42,5.11c-4.28,1.52-2.57,7.52,1.86,6.75c7.02-1.22,18.43-3.29,20.83-11.23
			c0.75-2.49-1.78-5.12-4.31-4.31c-7.03,2.28-12.54,6.44-16.69,12.55c-1.89,2.77,1.22,5.62,3.95,5.14
			c9.07-1.58,21.74-11.11,20.41-21.44c-0.28-2.16-2.02-4.1-4.43-3.37c-6.05,1.81-13.13,5.45-16.58,11.03
			c-2.69,4.36,0.24,8.42,5.15,8.34c11.5-0.18,26.64-8.75,27.94-21.07c0.31-2.97-4.08-4.68-5.97-2.47
			c-4.75,5.53-11.75,11.44-14.28,18.38c-0.98,2.69,1.91,4.8,4.31,4.31c10.4-2.14,16.7-13.95,18.56-23.53
			c0.62-3.21-3.3-6.14-5.85-3.41c-2.85,3.06-5.1,6.36-6.77,10.2c2.13,0.9,4.26,1.8,6.4,2.7c0.6-2.46,0.97-4.91,1.19-7.43
			c0.29-3.45-5-4.79-6.52-1.77c-3.01,5.94-6.01,11.89-9.02,17.83c-1.82,3.61,2.46,6.85,5.5,4.24c3.94-3.38,5.88-7.87,5.86-13.05
			c-0.01-3.17-3.75-4.44-5.97-2.47c-4.54,4-8.08,8.76-10.56,14.28c-1.33,2.94,1.55,6.82,4.79,4.79
			c7.39-4.65,11.16-12.23,13.38-20.44c0.93-3.43-3.34-5.79-5.85-3.41c-3.85,3.66-7.09,7.74-9.81,12.3c-2.04,3.42,2.67,7.04,5.5,4.24
			c6.19-6.14,11.46-13.02,15.79-20.59C1618.9,303.68,1612.86,300.14,1610.62,304.06L1610.62,304.06z"/>
	</g>
</g>
<g>
	<g>
		<path d="M1574.83,317.86c-1.73,4.19-4.61,11.41,1.77,13.12c5.05,1.35,10.01-1.83,12.79-5.75c0.84-1.18,0.54-3.29-0.55-4.24
			c-6.32-5.5-13.4,3.44-15.36,9c-0.84,2.37,1.87,5.27,4.31,4.31c4.79-1.9,7.9-5.01,9.68-9.87c0.75-2.04-1.22-4.6-3.37-4.43
			c-3.17,0.25-5.25,1.12-7.72,3.11c1.95,1.14,3.9,2.27,5.85,3.41c3.32-10.95-14.8-7.8-18.97-2.77c-1.42,1.71-1.38,4.28,0.71,5.5
			c4.67,2.73,11.89-0.11,13.66-5.4c1.77-5.29-4.18-9.47-8.93-8.04c-4.74,1.43-9.65,8.06-6.44,12.84c3.76,5.61,13.27,3.04,17.69-0.01
			c3.1-2.14,1.31-7.62-2.7-6.4c-4.36,1.33-12.93,5.1-12.93,10.67c-0.01,6.61,10.2,5.06,14.13,4.09c3.73-0.92,3.06-7.31-0.93-6.87
			c-4.46,0.49-8.87,1.15-13.27,2.04c-3.97,0.8-2.9,6.78,0.93,6.87c5.22,0.13,10.35-0.29,15.5-1.16c-0.62-2.25-1.24-4.5-1.86-6.75
			c-4.87,1.44-9.8,2.54-14.85,3.18c-3.82,0.48-4.87,5.51-0.93,6.87c3.36,1.17,6.68,1.79,10.23,2.04c4.57,0.33,4.35-6.45,0-7
			c-4.58-0.58-9.09-0.79-13.7-0.65c-2.82,0.09-4.89,3.9-2.47,5.97c4.04,3.47,8.38,4.63,13.62,3.88c2.48-0.35,2.88-3.34,2.09-5.14
			c-1.08-2.47-3.23-3.58-5.7-4.35c-4.37-1.36-8.96-2.2-13.4-3.28c-0.31,2.29-0.62,4.58-0.93,6.87c2.66-0.23,5.33-0.46,7.99-0.69
			c3.79-0.33,4.92-5.73,0.93-6.87c-3.43-0.98-6.84-1.56-10.39-1.84c-2.57-0.21-4.46,3.16-3.02,5.27c2.01,2.94,4.37,4.75,7.86,5.63
			c2.79,0.7,5.73-2.51,3.95-5.14c-3.24-4.8-9.06-7.5-11.54-12.75c-1.28-2.72-5.75-1.98-6.4,0.84c-0.31,1.37-0.63,2.75-0.94,4.12
			c2.25,0,4.5,0,6.75,0c-1.97-7.05,0.21-13.95,5.68-18.75c-1.99-0.82-3.98-1.65-5.97-2.47c-0.18,0.8-0.37,1.6-0.55,2.4
			c1.99,0.82,3.98,1.65,5.97,2.47c0.2-2.09,0.91-3.88,2.22-5.52c2.79-3.48-2.13-8.47-4.95-4.95c-2.57,3.2-3.88,6.39-4.28,10.47
			c-0.28,2.88,4.13,4.81,5.97,2.47c1.83-2.32,2.73-4.35,2.6-7.35c-0.14-3.13-3.68-4.49-5.97-2.47c-7.28,6.4-10.08,16.26-7.48,25.56
			c0.9,3.22,5.96,3.44,6.75,0c0.31-1.37,0.63-2.75,0.94-4.12c-2.13,0.28-4.26,0.56-6.4,0.84c2.58,5.48,8.25,7.89,11.54,12.75
			c1.32-1.71,2.64-3.43,3.95-5.14c-1.6-0.19-2.83-1-3.67-2.41c-1.01,1.76-2.01,3.51-3.02,5.27c2.93,0.23,5.71,0.78,8.53,1.59
			c0.31-2.29,0.62-4.58,0.93-6.87c-2.66,0.23-5.32,0.46-7.99,0.69c-3.71,0.32-5.01,5.88-0.93,6.88c2.76,0.67,5.52,1.34,8.28,2.02
			c1.61,0.39,5.86,0.61,6.64,2.4c0.7-1.71,1.39-3.43,2.09-5.14c-2.56,0.37-4.86-0.41-6.81-2.08c-0.82,1.99-1.65,3.98-2.47,5.97
			c4.61-0.14,9.13,0.07,13.7,0.65c0-2.33,0-4.67,0-7c-2.92-0.21-5.62-0.84-8.37-1.79c-0.31,2.29-0.62,4.58-0.93,6.87
			c5.68-0.72,11.22-1.81,16.71-3.43c4.4-1.3,2.51-7.49-1.86-6.75c-4.55,0.77-9.03,1.03-13.64,0.91c0.31,2.29,0.62,4.58,0.93,6.87
			c3.78-0.76,7.57-1.37,11.41-1.79c-0.31-2.29-0.62-4.58-0.93-6.87c-1.35,0.42-2.73,0.63-4.15,0.62c-2.46-0.63-3.18-0.62-2.15,0.03
			c0.34,0.82,0.68,1.65,1.03,2.47c0.01-1.61,6.74-4.06,7.8-4.38c-0.9-2.13-1.8-4.26-2.7-6.4c-1.15,0.79-6.47,3.88-7.82,2.13
			c0.59-0.85,1.17-1.71,1.72-2.59c-0.73,0.99-1.66,1.35-2.82,1.06c0.24,1.83,0.47,3.66,0.71,5.5c1.68-2.02,6.65-1.99,7.27-4.04
			c-1.1,3.64,3.33,5.44,5.85,3.41c0.92-0.35,1.84-0.71,2.77-1.06c-1.12-1.48-2.25-2.95-3.38-4.43c-0.86,2.35-2.45,4.05-4.79,4.98
			c1.44,1.44,2.87,2.87,4.31,4.31c0.52-1.47,1.23-2.78,2.33-3.9c1-1.01,2.46-1.03,1.33-2.01c-0.18-1.41-0.36-2.83-0.55-4.24
			c-0.71,1.1-1.68,1.85-2.92,2.24c-1.77,0-2.13,0.16-1.08,0.49c0.14,0.69,1.99-4.11,2.24-4.7
			C1583.29,315.56,1576.53,313.75,1574.83,317.86L1574.83,317.86z"/>
	</g>
</g>
<g>
	<g>
		<path d="M2095.78,298.25c-0.01,0.14-0.01,0.29-0.02,0.43c-0.04,1.13,0.68,2.54,1.73,3.02c0.15,0.07,0.3,0.14,0.46,0.21
			c1.41,0.65,3.09,0.64,4.24-0.55c1.45-1.49,2.23-3.32,3.17-5.16c2.05-3.99-3.9-7.52-6.04-3.53c-2.11,3.91-4.7,7.21-7.99,10.2
			c1.83,1.41,3.66,2.83,5.5,4.24c1.53-3.01,3.27-5.78,5.43-8.38c-1.95-1.14-3.9-2.27-5.85-3.41c-0.16,1.19-0.33,2.38-0.49,3.57
			c2.25,0,4.5,0,6.75,0c-0.45-2.82-0.36-5.46,0.18-8.26c-2.25,0-4.5,0-6.75,0c1.46,3.89,1.58,7.31,0.28,11.29
			c-1.19,3.62,3.38,5.44,5.85,3.41c1.47-1.21,3.23-2.57,5.18-2.91c-1.14-0.3-2.27-0.6-3.41-0.9c0.19,0.19,0.38,0.38,0.57,0.57
			c-0.34-0.82-0.68-1.65-1.02-2.47c0.11,2.12-2.65,4.32-4.05,5.59c-2.9,2.65,0.91,7.71,4.24,5.5c3.43-2.27,6.39-4.87,8.97-8.08
			c-1.83-1.41-3.66-2.83-5.5-4.24c-1.38,2.14-6.61,1.26-8.94,1.78c-2.29,0.51-4.36,1.49-6.32,2.75c-2.71,1.75-1.92,5.29,0.84,6.4
			c2.85,1.14,5.64,1.05,8.54,0.06c1.97-0.67,6.01-4.19,7.88-4.01c-1.01-0.58-2.01-1.16-3.02-1.73c1.59,2.22,2.03,4.07,5.08,4.66
			c3.54,0.68,7.76-0.58,11.29-1.03c4.33-0.56,4.65-6.91,0-7c-3.46-0.07-6.81-0.38-10.22-1.01c-3.43-0.63-5.83,3.15-3.41,5.85
			c4.4,4.91,11.71,7.87,17.31,11.2c0.9-2.13,1.8-4.26,2.7-6.4c-3.29-0.8-6.15-2.07-8.79-4.21c-3.5-2.83-7.86,1.45-4.95,4.95
			c4.33,5.2,9.33,9.59,14.97,13.33c2.33,1.55,5.14-0.53,5.27-3.02c0.23-4.56-2.02-8.48-6.14-10.48c-2.94-1.43-6.81,1.63-4.79,4.79
			c2.94,4.61,6.64,8.25,11.32,11.09c3.19,1.93,6.22-1.8,4.79-4.79c-2-4.16-5.66-6.94-10.24-7.62c-2.56-0.38-6.05,2.41-3.95,5.14
			c4.67,6.08,10.71,10.19,18.26,11.78c2.7,0.57,5.87-2.47,3.95-5.14c-1.98-2.76-4.18-4.1-7.63-4.14c-2.84-0.04-4.1,2.95-3.02,5.27
			c1.73,3.7,4.81,6.1,8.77,7.04c0-2.25,0-4.5,0-6.75c-2.36,0.6-4.57,0.81-6.99,0.74c0.31,2.29,0.62,4.58,0.93,6.88
			c1.13-0.22,2.25-0.43,3.38-0.65c4.42-0.85,2.55-7.6-1.86-6.75c-1.13,0.22-2.25,0.43-3.38,0.65c-3.99,0.77-2.88,6.76,0.93,6.87
			c3.04,0.09,5.91-0.24,8.85-0.99c3.3-0.83,3.37-5.95,0-6.75c-2.34-0.56-3.58-1.69-4.59-3.83c-1.01,1.76-2.01,3.51-3.02,5.27
			c0.53,0.23,1.06,0.45,1.59,0.68c1.32-1.71,2.64-3.43,3.95-5.14c-5.63-1.19-10.53-3.95-14.08-8.56c-1.32,1.71-2.64,3.43-3.95,5.14
			c2.97,0.44,4.77,1.72,6.06,4.41c1.6-1.6,3.19-3.19,4.79-4.79c-3.69-2.24-6.49-4.94-8.81-8.58c-1.6,1.6-3.19,3.19-4.79,4.79
			c1.99,0.97,2.79,2.22,2.68,4.44c1.76-1.01,3.51-2.01,5.27-3.02c-5.16-3.42-9.6-7.49-13.56-12.23c-1.65,1.65-3.3,3.3-4.95,4.95
			c3.6,2.9,7.38,4.91,11.88,6.01c3.82,0.93,6.17-4.33,2.7-6.4c-5.01-2.98-11.97-5.74-15.89-10.1c-1.14,1.95-2.27,3.9-3.41,5.85
			c4.01,0.74,7.99,1.17,12.08,1.26c0-2.33,0-4.67,0-7c-2.09,0.27-7.75,2.05-9.71,1.19c0.86,0.38-0.29-0.97-0.61-1.35
			c-0.68-0.79-1.07-1.26-2.09-1.61c-5.6-1.92-9.45,6.49-15.49,4.08c0.28,2.13,0.56,4.26,0.84,6.4c5.88-3.79,13.51-0.44,17.77-7.04
			c2.12-3.28-2.98-7.37-5.5-4.24c-2.21,2.74-4.6,5.03-7.55,6.99c1.41,1.83,2.83,3.66,4.24,5.5c2.97-2.71,8.22-8.33,5.34-12.67
			c-3.19-4.82-9.63,0.51-12.52,2.89c1.95,1.14,3.9,2.27,5.85,3.41c1.65-5.02,1.59-10.05-0.28-15.01c-1.1-2.92-6.03-3.71-6.75,0
			c-0.79,4.07-0.83,7.89-0.18,11.98c0.52,3.31,6.28,3.37,6.75,0c0.16-1.19,0.33-2.38,0.49-3.57c0.41-3-3.32-6.45-5.85-3.41
			c-2.54,3.06-4.72,6.25-6.52,9.8c-1.8,3.54,2.5,6.96,5.5,4.24c3.7-3.36,6.71-7.21,9.08-11.61c-2.01-1.18-4.03-2.36-6.04-3.53
			c-0.57,1.1-1.2,2.84-2.07,3.74c1.41-0.18,2.83-0.36,4.24-0.55c-0.15-0.07-0.3-0.14-0.46-0.21c0.58,1.01,1.16,2.01,1.73,3.02
			c0.01-0.14,0.01-0.29,0.02-0.43C2102.95,293.74,2095.95,293.75,2095.78,298.25L2095.78,298.25z"/>
	</g>
</g>
<line class="st5" x1="1263.76" y1="146.68" x2="1258.4" y2="244.4"/>
<g>
	<g>
		<path d="M2085.98,352.45c0.68,1.77,0.65,3.22-0.05,4.98c2.29,0.31,4.58,0.62,6.88,0.93c0.04-1.64,0.71-3.01,2.08-4.24
			c1.41-1.26,1.29-3.66,0-4.95c-1.4-1.4-3.54-1.27-4.95,0c-2.62,2.35-4.04,5.7-4.13,9.19c-0.04,1.72,1.36,3.24,3.03,3.44
			c1.85,0.22,3.17-0.84,3.84-2.51c1.1-2.74,1.11-5.95,0.05-8.7c-0.68-1.76-2.36-2.98-4.31-2.44
			C2086.73,348.61,2085.3,350.68,2085.98,352.45L2085.98,352.45z"/>
	</g>
</g>
<g>
	<g>
		<path d="M2230.89,206.34c0.43,3.4,1.64,7.37,5.7,7.72c4.47,0.38,10-4.41,13.39-6.87c-1.71-1.32-3.43-2.64-5.14-3.95
			c-1.39,4.1-3.82,7.29-7.41,9.71c1.41,1.83,2.83,3.66,4.24,5.5c2.55-2.88,5.28-5.17,8.6-7.14c-1.41-1.83-2.83-3.66-4.24-5.5
			c-3.51,3.01-7.46,4.66-12.01,5.39c1.14,1.95,2.27,3.9,3.41,5.85c3.04-3.33,5.73-6.51,10.09-7.81c2.62-0.78,5.08-1.6,6.38-4.24
			c3.67-7.45-8.09-10.7-12.78-13.02c-4.05-2-7.28,3.52-3.53,6.04c1.6,1.07,3.09,2.21,4.54,3.47c1.65-1.65,3.3-3.3,4.95-4.95
			c-2.34-2-4.68-3.38-7.52-4.55c-1.75-0.72-3.86,0.8-4.31,2.44c-1.17,4.32,0.16,13.18,5.8,13.87c5.56,0.67,7.17-5.38,5.81-9.58
			c-0.63-1.96-3.22-3.49-5.14-2.09c-3.11,2.26-5.16,5.03-5.72,8.9c-0.33,2.26,0.88,4.36,3.38,4.43c2.77,0.08,5.39-0.25,7.98-1.28
			c1.06-0.42,1.97-0.9,2.98-1.44c-0.37-0.17-0.74-0.34-1.12-0.51c0.21,0.68,0.56,1.28,1.05,1.8c1.91,2.52,5.21,2.07,6.4-0.84
			c0.44-0.32,0.88-0.64,1.32-0.96c3.57-1.64,1.03-7.77-2.7-6.4c-16.74,6.15-35.7,5.84-50.67,16.49c1.71,1.32,3.43,2.64,5.14,3.95
			c0.72-2.84,2.02-5.08,4.41-6.83c-1.71-0.7-3.43-1.39-5.14-2.09c0.43,1.28,0.33,2.48-0.33,3.6c-1.63,4.2,5.13,6.02,6.75,1.86
			c0.97-2.49,0.99-4.74,0.33-7.32c-0.52-2.01-3.31-3.44-5.14-2.09c-3.87,2.85-6.43,6.32-7.63,11.02c-0.7,2.74,2.53,5.81,5.14,3.95
			c14.4-10.24,32.87-9.86,49-15.79c-0.9-2.13-1.8-4.26-2.7-6.4c-2.39,1.09-3.56,2.77-4.53,5.14c2.13-0.28,4.26-0.56,6.4-0.84
			c-1.64-2.16-2.16-4.66-5.31-5.02c-1.62-0.19-2.84,0.53-4.21,1.22c-2.54,1.28-4.55,1.85-7.43,1.77c1.12,1.48,2.25,2.95,3.38,4.43
			c0.29-1.98,0.76-3.45,2.5-4.71c-1.71-0.7-3.43-1.39-5.14-2.09c2.54,1.63,3.3,1.56,2.27-0.23c-0.65-1.26-0.78-2.61-0.39-4.05
			c-1.44,0.81-2.87,1.63-4.31,2.44c1.67,0.69,3.06,1.59,4.43,2.75c3.41,2.9,8.37-1.99,4.95-4.95c-1.91-1.65-3.87-3.15-5.96-4.56
			c-1.18,2.01-2.36,4.03-3.53,6.04c2.37,1.17,4.74,2.34,7.11,3.51c0.79,0.39,1.58,0.78,2.37,1.17c-0.08-0.17-0.16-0.34-0.24-0.51
			c-0.43,0.64-2.95,0.63-3.67,0.86c-4.22,1.36-7.76,5.83-10.68,9.03c-2.49,2.73,0.02,6.39,3.41,5.85c5.75-0.93,10.69-3.41,15.1-7.19
			c3.05-2.62-0.88-7.49-4.24-5.5c-3.77,2.24-7.1,4.95-10.01,8.23c-2.49,2.81,0.77,7.84,4.24,5.5c5.15-3.47,8.63-8.02,10.62-13.9
			c0.94-2.76-2.67-5.74-5.14-3.95c-0.47,0.34-8.53,5.39-8.56,5.19C2237.33,201.93,2230.32,201.88,2230.89,206.34L2230.89,206.34z"/>
	</g>
</g>
<g>
	<g>
		<path d="M1077.79,118.3c-0.55,0.54-1.11,1.07-1.7,1.57c-0.29,0.25-0.59,0.49-0.89,0.73c0.66-0.51-0.33,0.23-0.45,0.31
			c1.76,1.01,3.51,2.01,5.27,3.02c-0.22,0.56-0.44,1.13-0.65,1.69c0.06-0.07,0.12-0.14,0.18-0.21c0.13-0.13,0.24-0.28,0.36-0.42
			c0.27-0.31,0.54-0.62,0.81-0.94c0.63-0.75,1.24-1.53,1.73-2.38c-2.13-0.9-4.26-1.8-6.4-2.7c0.11-0.51,0.35-0.89,0.75-1.15
			c0.26-0.19,0.24-0.18-0.05,0.03c-0.24,0.16-0.47,0.32-0.71,0.48c-0.48,0.31-0.97,0.6-1.46,0.89c-1.59,0.91-2.27,3.21-1.26,4.79
			c1.04,1.61,3.09,2.23,4.79,1.26c1.93-1.1,3.91-2.24,4.7-4.43c0.59-1.64-0.53-3.5-2.03-4.13c-1.59-0.67-3.48-0.08-4.37,1.43
			c-0.14,0.24-0.29,0.46-0.44,0.69c-0.22,0.33-0.08,0.18,0.06-0.05c-0.23,0.42-0.66,0.79-0.97,1.15c-1,1.15-2.13,2.36-2.02,3.99
			c0.08,1.26,0.61,2.37,1.73,3.02c1.01,0.59,2.54,0.71,3.53,0c1.58-1.12,3.09-2.34,4.46-3.71c1.3-1.29,1.39-3.67,0-4.95
			C1081.34,117.01,1079.18,116.92,1077.79,118.3L1077.79,118.3z"/>
	</g>
</g>
<g>
	<g>
		<path d="M766.05,117.86c-0.1,0.53-0.22,1.04-0.38,1.55c-0.07,0.22-0.15,0.43-0.23,0.65c-0.14,0.35-0.11,0.28,0.09-0.2
			c-0.06,0.14-0.13,0.28-0.2,0.41c1.83-0.24,3.66-0.47,5.5-0.71c0.27,0.66,0.55,1.33,0.82,1.99c0-0.08-0.01-0.15-0.01-0.23
			c0.02-0.19-0.01-0.39-0.01-0.58c0-0.35,0.03-0.7,0.06-1.04c-2.33,0-4.67,0-7,0c0.1-0.43,0.21-0.85,0.31-1.28
			c-1.02,1.52-0.35,3.94,1.26,4.79c1.76,0.93,3.7,0.37,4.79-1.26c0.47-0.7,0.59-1.44,0.65-2.26c0.14-1.83-1.71-3.58-3.5-3.5
			c-2.04,0.09-3.32,1.54-3.5,3.5c-0.15,1.65-0.15,3.63,1.19,4.82c0.85,0.76,1.8,1.12,2.94,0.96c1.01-0.14,2.09-0.7,2.56-1.67
			c0.63-1.31,1.16-2.65,1.42-4.08c0.18-0.94,0.14-1.85-0.35-2.7c-0.42-0.73-1.26-1.42-2.09-1.61
			C768.64,115.02,766.41,115.94,766.05,117.86L766.05,117.86z"/>
	</g>
</g>
<path class="st6" d="M151.24,148.59c0,0-11.17,113.59-6.25,207.73"/>
<line class="st6" x1="145.88" y1="375.26" x2="146.33" y2="384.21"/>
<path class="st6" d="M801.58,148.59c0,0-11.17,113.59-6.25,207.73"/>
<line class="st6" x1="796.22" y1="376.26" x2="796.67" y2="385.21"/>
<path class="st5" d="M374.5,148.25c-35.33,35.78-37.72,138.7-26.39,193.86"/>
<path class="st5" d="M353.8,358.18c0,0,1.12,6.04,3.35,8.94"/>
<path class="st5" d="M600.34,148.25c-35.33,35.78-37.72,138.7-26.39,193.86"/>
<path class="st5" d="M578.63,358.18c0,0,1.12,6.04,3.35,8.94"/>
<path class="st5" d="M997.19,144.86c5.52,56.5,14.7,77.17,25.14,94.61"/>
<line class="st5" x1="1035.17" y1="254.38" x2="1040.64" y2="259.68"/>
<path class="st5" d="M1487.04,143.55c0,0-6.19,191.05-5.3,206.39"/>
<line class="st5" x1="1481.89" y1="370.21" x2="1481.6" y2="382.73"/>
<path class="st5" d="M1726.58,143.33c-29.81,90.63-40.26,210.63-40.26,210.63"/>
<line class="st5" x1="1683.94" y1="376.47" x2="1683.05" y2="384.52"/>
<path class="st5" d="M1913.12,143.63c0,0-2.42,107.4-4.2,207.88"/>
<line class="st5" x1="1907.46" y1="374.68" x2="1907.16" y2="382.73"/>
<path class="st5" d="M2220.84,294.03c21.01,28.18-2.86,82.24-49.87,72.01"/>
<line class="st5" x1="2150.29" y1="361.15" x2="2142.75" y2="358.99"/>
<g>
	<path class="st7" d="M1063.32,391.98c-0.81-2.58-1.68-5.08-2.37-7.63c-1.34-4.92-1.92-9.95-1.49-15.05
		c0.69-8.07,3.88-15.07,9.37-21c6.17-6.66,13.78-11.05,22.29-13.99c0.22-0.08,0.45-0.15,0.76-0.24c-0.23-0.87-0.45-1.71-0.66-2.56
		c-1.41-5.48-2.29-11.04-2.21-16.72c0.12-8.66,1.99-16.82,7.5-23.65c4.49-5.57,14.23-12.26,20.78-14.98
		c3.98-1.65,3.56-3.05,7.83-3.69c-0.34-1.01,1.07,3.21,1.22,3.14c-0.14-0.28-0.26-0.56-0.4-0.82c-1.7-3.4-3.22-6.87-4.13-10.58
		c-1.31-5.37-0.56-10.42,2.45-15.02c1.68-2.57,3.58-5.02,5.55-7.38c3.81-4.56,5.17-9.75,4.42-15.57
		c-0.55-4.28,2.11-11.08,3.44-13.19c0,0,0,0,0,0c-0.14-0.25,5.29-1.32,5.58-1.27c1.07,0.2-3.14,1.14-2.14,1.35
		c9.53,1.91,11.22,5.83,20.1,9.83c9.08,4.08,17.37,9.34,24.48,16.37c9.92,9.81,16.19,21.59,18.79,35.31
		c0.86,4.55,1.24,9.14,1.12,13.76c-0.02,0.93-0.1,1.85-0.16,2.89c0.71-0.04,1.36-0.07,2.02-0.11c4.56-0.24,9.03,0.22,13.28,2
		c5.77,2.41,9.66,6.72,12.24,12.3c1.98,4.3,2.99,8.85,3.49,13.53c0.46,4.29,0.46,8.59,0.12,12.89c-0.07,0.85-0.18,1.71-0.27,2.6
		c1.48,0.51,2.94,0.99,4.39,1.54c5.59,2.1,10.82,4.83,15.33,8.79c6.37,5.6,10.02,12.6,10.86,21.06c0.7,7.06-0.5,13.86-2.83,20.49
		c-0.88,2.49-2.05,4.88-3.08,7.32c-0.07,0.17-0.14,0.34-0.17,0.4c1.02,0,2.04-0.01,3.06,0c5.05,0.04,9.54,1.81,13.65,4.6
		c6.96,4.73,11.82,11.2,15.29,18.77c1.94,4.23,3.22,8.67,3.83,13.29c0.69,5.2,0.43,10.34-1.03,15.4c-1.06,3.68-3.25,6.62-6.11,9.09
		c-3.8,3.29-8.24,5.41-12.91,7.11c-5.9,2.15-12,3.51-18.19,4.47c-3.2,0.49-6.42,0.97-9.65,1.26c-5.32,0.47-10.66,0.92-16,1.12
		c-7.31,0.28-14.63,0.43-21.94,0.45c-4.3,0.01-8.6-0.28-12.9-0.51c-4.73-0.25-9.45-0.57-14.17-0.9c-5.63-0.39-11.25-0.83-16.88-1.23
		c-4.48-0.32-8.96-0.64-13.45-0.9c-5.89-0.34-11.79-0.74-17.69-0.89c-5.04-0.13-10.09-0.1-15.12,0.17
		c-5.48,0.3-10.95,0.91-16.42,1.46c-3.9,0.39-7.78,0.94-11.67,1.35c-3.35,0.35-6.7,0.7-10.06,0.9c-4.55,0.27-9.11,0.56-13.66,0.53
		c-7.43-0.05-14.62-1.43-21.27-4.95c-8.45-4.47-13.84-11.41-16.55-20.54c-1.68-5.67-2.26-11.46-1.93-17.32
		c0.51-8.97,4.29-16.46,10.86-22.53c6.59-6.08,14.43-9.85,23.02-12.17c0.09-0.02,0.19-0.04,0.28-0.07
		C1063.27,392.03,1063.3,391.99,1063.32,391.98z"/>
	<path class="st8" d="M1101.39,364.04c-0.81-2.58-1.68-5.08-2.37-7.63c-1.34-4.92-1.92-9.95-1.49-15.05
		c0.69-8.07,3.88-15.07,9.37-21c6.17-6.66,13.78-11.05,22.29-13.99c0.22-0.08,0.45-0.15,0.76-0.24c-0.23-0.87-0.45-1.71-0.66-2.56
		c-1.41-5.48-2.29-11.04-2.21-16.72c0.12-8.66,2.39-16.61,7.9-23.44c4.49-5.57,10.25-9.4,16.8-12.12c3.98-1.65,8.09-2.86,12.35-3.5
		c0.07-0.01,0.13-0.05,0.27-0.12c-0.14-0.28-0.26-0.56-0.4-0.82c-1.7-3.4-3.22-6.87-4.13-10.58c-1.31-5.37-0.56-10.42,2.45-15.03
		c1.68-2.57,3.58-5.02,5.55-7.38c3.81-4.56-4.24-16.07-4.99-21.89c-0.55-4.28,7.37-1.91,5.24-5.64c0,0,0,0,0,0
		c-0.14-0.25,0.07-0.55,0.36-0.5c1.07,0.2,2.08,0.38,3.08,0.58c9.53,1.91,18.82,4.61,27.7,8.6c9.08,4.08,17.37,9.34,24.48,16.37
		c9.92,9.81,16.19,21.59,18.79,35.31c0.86,4.55,1.24,9.14,1.12,13.76c-0.02,0.93-0.1,1.85-0.16,2.89c0.71-0.04,1.36-0.07,2.02-0.11
		c4.56-0.24,9.03,0.22,13.28,2c5.77,2.41,9.66,6.72,12.24,12.3c1.98,4.3,2.99,8.85,3.49,13.53c0.46,4.29,0.46,8.59,0.12,12.89
		c-0.07,0.85-0.18,1.71-0.27,2.6c1.48,0.51,2.94,0.99,4.39,1.54c5.59,2.1,10.82,4.83,15.33,8.79c6.37,5.6,10.02,12.6,10.86,21.06
		c0.7,7.06-0.5,13.86-2.83,20.49c-0.88,2.49-2.05,4.88-3.08,7.32c-0.07,0.17-0.14,0.34-0.17,0.4c1.02,0,2.04-0.01,3.06,0
		c5.05,0.04,9.54,1.81,13.65,4.6c6.96,4.73,11.82,11.2,15.29,18.77c1.94,4.23,3.22,8.67,3.83,13.29c0.69,5.2,0.43,10.34-1.03,15.4
		c-1.06,3.68-3.25,6.62-6.11,9.09c-3.8,3.29-8.24,5.41-12.91,7.11c-5.9,2.15-12,3.51-18.19,4.47c-3.2,0.49-6.42,0.97-9.65,1.26
		c-5.32,0.47-10.66,0.92-16,1.12c-7.31,0.28-14.63,0.43-21.94,0.45c-4.3,0.01-8.6-0.28-12.9-0.51c-4.73-0.25-9.45-0.57-14.17-0.9
		c-5.63-0.39-11.25-0.83-16.88-1.23c-4.48-0.32-8.96-0.64-13.45-0.9c-5.89-0.34-11.79-0.74-17.69-0.89
		c-5.04-0.13-10.09-0.1-15.12,0.17c-5.48,0.3-10.95,0.91-16.42,1.46c-3.9,0.39-7.78,0.94-11.67,1.35c-3.35,0.35-6.7,0.7-10.06,0.9
		c-4.55,0.27-9.11,0.56-13.66,0.53c-7.43-0.05-14.62-1.43-21.27-4.95c-8.45-4.47-13.84-11.41-16.55-20.54
		c-1.68-5.67-2.26-11.46-1.93-17.32c0.51-8.97,4.29-16.46,10.86-22.53c6.59-6.08,14.43-9.85,23.02-12.17
		c0.09-0.02,0.19-0.04,0.28-0.07C1101.34,364.09,1101.37,364.05,1101.39,364.04z"/>
	<path class="st9" d="M1100.72,357.91c4.11,2.91,77.83,51.12,200.33,10.13"/>
	<g>
		<path d="M1202.5,332.37c-39.81,0-62.67-14.01-74.96-22.53c-1.63-1.13-3.63-2.51-4.53-3.03c-5.44-1.78-8.71-7.46-7.39-13.14
			c1.39-6.02,7.4-9.76,13.42-8.37c3.54,0.82,6.44,2.83,11.24,6.16c17.21,11.93,57.5,39.86,128.39,6.58c5.59-2.63,11.11,0.41,13.73,6
			c2.62,5.59,1.36,11.62-4.23,14.24C1250.11,331.46,1223,332.37,1202.5,332.37z M1123.97,307.09c0,0,0.01,0,0.01,0
			C1123.98,307.09,1123.98,307.09,1123.97,307.09z"/>
	</g>
	<g>
		<path d="M1214.01,282.64c-18.37,0-32.98-5.37-45.68-13.7c-17.06-11.19-22.04-25.79-22.55-27.41l21.33-6.71l-0.05-0.15
			c0.54,1.55,9.25,38.63,80.29,19.79c5.97-1.58,1.62,5.86,3.2,11.83c1.58,5.97,13.29,7.36,7.32,8.94
			C1242.26,279.37,1226.95,282.64,1214.01,282.64z"/>
	</g>
	<g>
		<g>
			<path class="st10" d="M1169.66,199.16c1.7,5.49,1.17,10.44-1.08,15.7c-1.53,3.57-3.02,7-3.12,10.95
				c-0.2,7.54,3.61,14.23,9.56,18.63c3.66,2.7,7.18-3.42,3.56-6.1c-7.2-5.32-6.76-13.27-3.59-20.63c2.9-6.74,3.68-13.33,1.48-20.43
				C1175.13,192.95,1168.31,194.8,1169.66,199.16L1169.66,199.16z"/>
		</g>
	</g>
	<g>
		<g>
			<path class="st10" d="M1175.75,210.01c-0.51,3.17-0.68,6.69-1.65,9.75c0.54-0.7,1.08-1.41,1.62-2.11
				c-0.11,0.08-0.21,0.15-0.32,0.23c0.59-0.16,1.19-0.32,1.78-0.48c0.04-0.01,0.07-0.03,0.11-0.04c0.52,0.3,1.04,0.61,1.56,0.91
				c0.04,0.03,0.09,0.53,0.04,0.57c-0.06,0.04,0.31-0.79,0.4-0.92c0.46-0.73,1.27-1.29,1.89-1.88c1.55-1.45,2.77-3.04,3.41-5.1
				c1.34-4.35-5.47-6.21-6.81-1.88c-0.32,1.03-1.31,1.71-2.07,2.42c-0.97,0.91-1.91,1.84-2.59,3c-1.46,2.47-1.84,5.8,0.12,8.12
				c2.03,2.42,6.04,2.58,7.5-0.55c0.65-1.39,0.7-3.2,0.94-4.7c0.29-1.82,0.59-3.65,0.88-5.47c0.3-1.88-0.49-3.8-2.47-4.34
				C1178.41,207.08,1176.06,208.12,1175.75,210.01L1175.75,210.01z"/>
		</g>
	</g>
	<g>
		<g>
			<path class="st10" d="M1168.16,195.67c-3.39,4.87-3.49,13.29-4.14,19.03c-0.75,6.63,0.97,13,5.05,18.3c1.63,2.12,4.51,2.4,6.1,0
				c0.13-0.2,0.26-0.4,0.39-0.59c2.51-3.8-3.6-7.34-6.1-3.56c-0.13,0.2-0.26,0.4-0.39,0.59c2.03,0,4.06,0,6.1,0
				c-3.51-4.55-4.76-9.36-4.03-15.05c0.56-4.39,0.55-11.45,3.12-15.15C1176.85,195.49,1170.73,191.96,1168.16,195.67L1168.16,195.67
				z"/>
		</g>
	</g>
	<g>
		<g>
			<path class="st10" d="M1165.29,212.49c-0.11,3.13,0.33,6.91-0.35,9.96c2.15-0.28,4.3-0.56,6.45-0.84
				c-0.04-0.06-0.08-0.13-0.13-0.19c-2-2.98-6.31-1.74-6.58,1.78c-0.77,10.18,7.07,21.62,15.14,27.03c3.79,2.54,7.32-3.58,3.56-6.1
				c-6.1-4.09-12.22-13.26-11.64-20.93c-2.19,0.59-4.39,1.19-6.58,1.78c0.04,0.06,0.08,0.13,0.13,0.19
				c1.58,2.36,5.76,2.31,6.45-0.84c0.83-3.74,0.46-8.01,0.6-11.83C1172.52,207.94,1165.45,207.95,1165.29,212.49L1165.29,212.49z"/>
		</g>
	</g>
</g>
<path class="st5" d="M2149.28,231.21c-29.18-22.7-36.22-74.57,1.12-96.6"/>
<line class="st5" x1="2169.14" y1="127" x2="2176.84" y2="125.47"/>
</svg>
