<svg width="81" height="58" viewBox="0 0 81 58" fill="none" xmlns="http://www.w3.org/2000/svg">
<path d="M6.92925 52.099V40.4375H5.01465V52.099H6.92925Z" fill="white"/>
<path d="M8.10101 48.212C8.10101 50.5944 9.70177 52.2872 12.1342 52.2872C14.5667 52.2872 16.1674 50.5944 16.1674 48.212C16.1674 45.8295 14.5667 44.1367 12.1342 44.1367C9.70177 44.1367 8.10101 45.8295 8.10101 48.212ZM10.0313 48.212C10.0313 46.817 10.8631 45.8452 12.1342 45.8452C13.4054 45.8452 14.2371 46.817 14.2371 48.212C14.2371 49.5912 13.4054 50.5787 12.1342 50.5787C10.8631 50.5787 10.0313 49.5912 10.0313 48.212Z" fill="white"/>
<path d="M16.8115 48.0553C16.8115 50.3125 18.271 51.9426 20.4524 51.9426C21.5823 51.9426 22.5553 51.488 23.0418 50.7357V52.0523C23.0418 53.3218 22.2414 54.1683 20.9075 54.1683C19.7148 54.1683 18.8987 53.5883 18.7889 52.5695H16.8586C17.1097 54.5915 18.6633 55.9081 20.7976 55.9081C23.3086 55.9081 24.9093 54.2623 24.9093 51.7074V44.3563H23.2144L23.1046 45.4064C22.6338 44.5914 21.6608 44.1055 20.5151 44.1055C18.3024 44.1055 16.8115 45.7826 16.8115 48.0553ZM18.7575 48.0083C18.7575 46.723 19.5736 45.7826 20.782 45.7826C22.1002 45.7826 22.979 46.7387 22.979 48.0083C22.979 49.2936 22.1002 50.2811 20.782 50.2811C19.5892 50.2811 18.7575 49.3093 18.7575 48.0083Z" fill="white"/>
<path d="M25.8567 48.212C25.8567 50.5944 27.4574 52.2872 29.8899 52.2872C32.3223 52.2872 33.9231 50.5944 33.9231 48.212C33.9231 45.8295 32.3223 44.1367 29.8899 44.1367C27.4574 44.1367 25.8567 45.8295 25.8567 48.212ZM27.787 48.212C27.787 46.8169 28.6187 45.8452 29.8899 45.8452C31.161 45.8452 31.9928 46.8169 31.9928 48.212C31.9928 49.5912 31.161 50.5787 29.8899 50.5787C28.6187 50.5787 27.787 49.5912 27.787 48.212Z" fill="white"/>
<path d="M35.9952 42.7727C36.6229 42.7727 37.1408 42.2711 37.1408 41.6285C37.1408 41.0015 36.6229 40.5 35.9952 40.5C35.3518 40.5 34.8652 41.0015 34.8652 41.6285C34.8652 42.2711 35.3518 42.7727 35.9952 42.7727ZM35.0379 52.0988H36.9525V44.3558H35.0379V52.0988Z" fill="white"/>
<path d="M38.6299 55.6885H40.4973V51.0334C40.9839 51.8327 42.0353 52.3029 43.1966 52.3029C45.4879 52.3029 46.8532 50.5475 46.8218 48.1336C46.7747 45.7042 45.378 44.1211 43.1809 44.1211C42.004 44.1211 40.9368 44.6383 40.466 45.5318L40.3561 44.3562H38.6299V55.6885ZM40.5758 48.2277C40.5758 46.8327 41.4233 45.8609 42.7572 45.8609C44.0912 45.8609 44.8915 46.8484 44.8915 48.2277C44.8915 49.607 44.0912 50.5788 42.7572 50.5788C41.4233 50.5788 40.5758 49.6227 40.5758 48.2277Z" fill="white"/>
<path d="M47.3079 49.7794C47.3707 51.3155 48.5634 52.3029 50.4152 52.3029C52.2356 52.3029 53.4754 51.3312 53.4754 49.8265C53.4754 48.7136 52.7849 47.9612 51.5137 47.6478L50.1484 47.3186C49.5677 47.1619 49.1754 46.9581 49.1754 46.4566C49.1754 45.9236 49.5991 45.5475 50.2896 45.5475C51.0115 45.5475 51.4823 45.9549 51.4823 46.629H53.2243C53.1615 45.0929 52.0159 44.1211 50.3367 44.1211C48.6732 44.1211 47.4334 45.0929 47.4334 46.5663C47.4334 47.5694 48.0141 48.4001 49.505 48.792L50.8546 49.1368C51.3568 49.2779 51.6707 49.513 51.6707 49.9518C51.6707 50.5632 51.09 50.8453 50.3838 50.8453C49.5364 50.8453 49.0498 50.4534 49.0498 49.7794H47.3079Z" fill="white"/>
<path d="M57.4467 52.3022C58.4982 52.3022 59.5026 51.8163 59.9576 51.0953L60.0832 52.0984H61.8723V44.3555H59.9576V48.415C59.9576 49.81 59.4241 50.5937 58.1687 50.5937C57.1957 50.5937 56.5208 50.1235 56.5208 48.5247V44.3555H54.6062V49.1988C54.6062 51.0482 55.6106 52.3022 57.4467 52.3022Z" fill="white"/>
<path d="M65.4768 52.0992V47.6478C65.4768 46.3938 66.2144 45.7982 67.1246 45.7982C68.0348 45.7982 68.6312 46.3781 68.6312 47.4754V52.0992H70.4987V47.6634C70.4987 46.3938 71.2206 45.7982 72.1308 45.7982C73.0567 45.7982 73.6531 46.3781 73.6531 47.4754V52.0992H75.5049V47.0365C75.5049 45.2496 74.5162 44.1211 72.633 44.1211C71.456 44.1211 70.5301 44.6854 70.1535 45.5945C69.7298 44.6854 68.8823 44.1211 67.5955 44.1211C66.6852 44.1211 65.8691 44.5443 65.4141 45.2339L65.3199 44.3562H63.5623V52.0992H65.4768Z" fill="white"/>
<path d="M35.602 29.8811C33.0797 34.4138 27.9441 36.5702 22.7512 36.5702H1.91626C23.6055 33.8629 38.7106 23.0337 40.6471 7.9502C42.5836 23.0337 57.6887 33.8629 79.3779 36.5702H58.543C53.3501 36.5702 48.2145 34.4138 45.6922 29.8811C42.9621 24.9753 41.2228 19.4241 40.6471 13.3648C40.0714 19.4241 38.3321 24.9753 35.602 29.8811Z" fill="white"/>
<path d="M23.6869 28.2788C22.4702 28.9628 21.1904 29.6053 19.8503 30.2038C19.0891 27.578 18.809 24.8231 19.0324 22.0789C19.3279 18.4484 20.4954 14.9483 22.4317 11.8888C24.368 8.82932 27.0131 6.30472 30.1328 4.5387C33.2525 2.77269 36.7505 1.81974 40.3169 1.76429C43.8833 1.70883 47.408 2.55257 50.5789 4.22077C53.7498 5.88896 56.469 8.3301 58.4954 11.328C60.522 14.3259 61.7934 17.788 62.197 21.4076C62.5271 24.3682 62.2684 27.3596 61.4438 30.2038C60.1037 29.6053 58.8239 28.9628 57.6072 28.2787C58.1201 26.1994 58.2639 24.0362 58.0249 21.8929C57.6994 18.9741 56.6742 16.1822 55.04 13.7647C53.4058 11.3473 51.2131 9.37867 48.6561 8.03345C46.0991 6.68821 43.2567 6.00783 40.3808 6.05255C37.5048 6.09726 34.684 6.86572 32.1684 8.2898C29.6527 9.71392 27.5196 11.7497 25.9582 14.2169C24.3968 16.6841 23.4553 19.5065 23.217 22.4342C23.0568 24.402 23.2176 26.3767 23.6869 28.2788Z" fill="white"/>
</svg>
