<svg width="126" height="54" viewBox="0 0 126 54" fill="none" xmlns="http://www.w3.org/2000/svg">
<path d="M63.2457 17.8072C63.7632 17.8 64.2032 17.7032 64.196 17.1713V17.0915C64.2032 16.5619 63.7632 16.4652 63.2457 16.458C62.7259 16.4652 62.2858 16.5619 62.2931 17.0915V17.1713C62.2858 17.7032 62.7259 17.8 63.2457 17.8072Z" fill="white"/>
<path d="M44.3275 16.739C44.3275 16.5842 44.2043 16.4609 44.0495 16.4609H42.5044V17.0146H44.0495C44.1269 17.0146 44.1921 16.988 44.2453 16.9348C44.3009 16.8792 44.3275 16.814 44.3275 16.739Z" fill="white"/>
<path d="M53.025 16.4541L53.47 17.4141H52.5777L53.025 16.4541Z" fill="white"/>
<path d="M72.8763 16.4541L73.3214 17.4141H72.429L72.8763 16.4541Z" fill="white"/>
<path d="M41.2681 36.668L40.6105 35.249L39.9492 36.668H41.2681Z" fill="white"/>
<path d="M56.788 36.2601C56.788 36.7427 56.5128 37.1394 56.0267 37.1394H53.975V35.3809H56.0267C56.5128 35.3809 56.788 35.774 56.788 36.2601Z" fill="white"/>
<path d="M61.985 35.249L62.6427 36.668H61.3237L61.985 35.249Z" fill="white"/>
<path d="M69.9776 35.2598C70.2064 35.2598 70.3886 35.4421 70.3886 35.6708C70.3886 35.7816 70.3493 35.8782 70.2672 35.9604C70.1885 36.039 70.092 36.0783 69.9776 36.0783H67.6936V35.2598H69.9776Z" fill="white"/>
<path d="M77.5339 36.2601C77.5339 36.7427 77.2582 37.1394 76.772 37.1394H74.72V35.3809H76.772C77.2582 35.3809 77.5339 35.774 77.5339 36.2601Z" fill="white"/>
<path d="M32.5839 27.3035L30.2001 21.7998H26.1104V30.9726H29.09V26.0182L31.2401 30.9726H33.9043L36.0778 26.0182V30.9726H39.0458V21.7998H35.0845L32.5839 27.3035Z" fill="white"/>
<path d="M51.2066 30.9726V28.694H44.6278V27.5021H50.9379V25.2703H44.6278V24.0901H51.1248V21.7998H41.543V30.9726H51.2066Z" fill="white"/>
<path d="M53.7204 29.3489C54.6318 30.5291 56.256 31.1134 58.2075 31.1134C59.6729 31.1134 60.7471 30.8157 61.4955 30.3437C61.6242 30.2625 61.7434 30.176 61.8532 30.0851L61.9351 30.9731H64.4473V25.5395H58.3477V27.5144H61.6079C61.5935 27.6078 61.5437 27.7546 61.472 27.8944C61.4273 27.9817 61.3741 28.0663 61.3157 28.1336C60.9769 28.5309 60.0771 28.8815 58.9086 28.8815C57.6933 28.8815 56.9104 28.566 56.4897 28.0752C56.2093 27.713 56.0457 27.1988 56.0457 26.4276C56.0457 25.6214 56.2093 25.0721 56.5248 24.7099C56.9805 24.1958 57.7517 23.9737 58.8852 23.9737C59.9019 23.9737 60.603 24.2074 60.9301 24.4996C61.1405 24.6748 61.3041 24.9203 61.3391 25.0839H64.3656C64.3613 24.976 64.3458 24.8442 64.3198 24.7039C64.2752 24.4641 64.2 24.1991 64.0968 23.9855C63.3723 22.5131 61.6896 21.6367 58.8268 21.6367C56.3379 21.6367 54.6669 22.3962 53.7438 23.5414C53.1362 24.3243 52.8557 25.3058 52.8557 26.4042C52.8557 27.6195 53.1829 28.6595 53.7204 29.3489Z" fill="white"/>
<path d="M56.4258 26.4274C56.4258 25.6649 56.5817 25.2239 56.8104 24.9605C57.1545 24.5733 57.7822 24.3535 58.8853 24.3535C59.8662 24.3535 60.4531 24.5828 60.6771 24.7828L60.682 24.7871L60.6869 24.7913C60.764 24.8555 60.8344 24.9346 60.8877 25.0117C60.9403 25.0879 60.9614 25.1408 60.9666 25.1593H57.9678V27.8941H61.0204C60.9111 28.0177 60.6764 28.1718 60.3036 28.2957C59.9325 28.419 59.4563 28.5012 58.9087 28.5012C57.754 28.5012 57.1046 28.2024 56.7845 27.8348C56.5753 27.5605 56.4258 27.1399 56.4258 26.4274Z" fill="white"/>
<path d="M72.386 25.1797L71.5154 26.8418H73.2085L72.386 25.1797Z" fill="white"/>
<path fill-rule="evenodd" clip-rule="evenodd" d="M74.8134 29.2783L75.6198 30.9726H78.9969L74.3691 21.7998H70.5951L65.699 30.9726H69.0059L69.8589 29.2783H74.8134ZM70.8871 27.2217L72.044 25.0132L72.3946 24.1719L72.7217 25.0015L73.8204 27.2217H70.8871Z" fill="white"/>
<path fill-rule="evenodd" clip-rule="evenodd" d="M99.1965 46.8565H99.1913C99.1263 46.8565 99.0612 46.8561 98.9961 46.8554V46.8565H27.5227C21.2157 46.8565 15.5898 43.94 11.9202 39.3822H22.4508V38.0475H10.9335C9.21533 35.5101 8.06402 32.5577 7.66134 29.3719H22.4508V28.0372H7.53764C7.5141 27.6398 7.5022 27.2392 7.5022 26.8359C7.5022 24.1937 8.01403 21.671 8.94405 19.3616H22.4508V18.0269H9.53935C10.9542 15.1439 13.0419 12.6509 15.5978 10.7528H87.2708C88.1645 10.0892 89.1156 9.49827 90.1146 8.98875C89.845 9.12606 89.5796 9.26919 89.3176 9.41806H17.6443C20.5591 7.76145 23.9304 6.81543 27.5226 6.81543H98.9961V6.81637C99.0629 6.81571 99.1297 6.81543 99.1965 6.81543C110.253 6.81543 119.217 15.7789 119.217 26.8359C119.217 37.8929 110.253 46.8565 99.1965 46.8565ZM106.641 36.2258C107.537 33.5253 108.072 30.3178 108.072 26.8359C108.072 23.5901 107.606 20.5825 106.818 18.0018C106.721 17.6867 106.62 17.378 106.515 17.076C106.338 16.573 106.149 16.0887 105.949 15.6245C105.678 14.9977 105.387 14.4077 105.078 13.8585C103.618 11.267 101.952 9.87125 100.397 9.40137V15.6245H104.486C104.832 16.3625 105.148 17.1661 105.427 18.0269H100.397V25.6346H106.715C106.73 26.0306 106.737 26.4311 106.737 26.8359C106.737 27.2408 106.73 27.6413 106.715 28.0371H100.397V35.6449H105.426C105.148 36.5058 104.832 37.3094 104.486 38.0474H100.397V44.2706C101.952 43.8008 103.618 42.405 105.078 39.8134C105.387 39.2642 105.679 38.6742 105.949 38.0474C106.198 37.4704 106.429 36.8622 106.641 36.2258ZM109.327 18.0269C109.968 20.346 110.364 22.9174 110.454 25.6346H116.774C116.588 22.8765 115.767 20.2923 114.457 18.0269H109.327ZM112.787 15.6245H108.542C107.772 13.6056 106.799 11.8495 105.676 10.4478C108.467 11.552 110.907 13.3481 112.787 15.6245ZM97.9954 9.40111V15.6245H92.4431C92.7136 14.9977 93.0047 14.4077 93.3145 13.8585C94.7741 11.2665 96.4408 9.87066 97.9954 9.40111ZM92.7162 10.4477C91.593 11.8494 90.6214 13.6055 89.851 15.6245H85.6049C87.4848 13.348 89.9263 11.5519 92.7162 10.4477ZM89.0651 18.0269H81.3777V19.3616H83.2379C82.3338 21.2878 81.7685 23.4043 81.6183 25.6346H87.9377C88.0284 22.9174 88.4239 20.346 89.0651 18.0269ZM97.9954 18.0269H91.5673C90.8808 20.2802 90.4416 22.8578 90.3423 25.6346H97.9954V18.0269ZM110.454 28.0371C110.364 30.7544 109.968 33.3258 109.327 35.6449H114.457C115.767 33.3796 116.588 30.7953 116.774 28.0371H110.454ZM91.5673 35.6449C90.8808 33.3917 90.4416 30.814 90.3423 28.0371H97.9954V35.6449H91.5673ZM89.0651 35.6449C88.4239 33.3258 88.0284 30.7544 87.9377 28.0371H81.6183C81.8041 30.7953 82.6247 33.3796 83.9351 35.6449H89.0651ZM108.542 38.0474C107.772 40.0663 106.799 41.8223 105.677 43.224C108.467 42.1198 110.907 40.3237 112.787 38.0474H108.542ZM92.4431 38.0474H97.9954V44.2709C96.4408 43.8013 94.7741 42.4054 93.3145 39.8134C93.0047 39.2642 92.7136 38.6742 92.4431 38.0474ZM89.851 38.0474L81.3777 38.0475V39.3821H86.8274C88.4984 41.0297 90.4964 42.3459 92.7162 43.2242C91.593 41.8225 90.6214 40.0664 89.851 38.0474ZM63.2456 15.4291C62.0221 15.4315 61.0211 15.7845 61.026 17.0152V17.2522C61.0211 18.4805 62.0221 18.836 63.2456 18.8384C64.4667 18.836 65.4677 18.4805 65.4629 17.2522V17.0152C65.4629 15.7869 64.4691 15.4291 63.2456 15.4291ZM25.2353 15.5089V18.7586H26.5023V15.5089H25.2353ZM30.3444 17.2305L28.9178 15.5089H27.1745V18.7586H28.4415V16.7735L30.1873 18.7586H31.6139V15.5089H30.3444V17.2305ZM34.8273 16.5437V18.7635H33.5604V16.5437H32.054V15.5137H36.3337V16.5437H34.8273ZM36.7593 18.7635H40.5628V17.9293H38.0263V17.5134H40.5628V16.7613H38.0263V16.3455H40.5628V15.5137H36.7593V18.7635ZM41.2373 18.761V15.5113H44.3686C45.0384 15.5041 45.6066 16.0674 45.5969 16.7396C45.5969 16.9838 45.5316 17.2062 45.4011 17.4046C45.2729 17.6004 45.1013 17.7503 44.8885 17.8495L45.5969 18.761H44.2477L43.636 17.9679H42.5044V18.761H41.2373ZM49.161 17.2305L47.7344 15.5089H45.9911V18.7586H47.2581V16.7735L49.0039 18.7586H50.4305V15.5089H49.161V17.2305ZM51.9538 18.7635H50.5272L52.2705 15.5137H53.7769L55.5203 18.7635H54.0937L53.8374 18.2073H52.2101L51.9538 18.7635ZM57.4546 18.7635V16.5437H58.961V15.5137H54.6813V16.5437H56.1877V18.7635H57.4546ZM59.3865 18.7586V15.5089H60.6536V18.7586H59.3865ZM67.5859 15.5089L69.0125 17.2305V15.5089H70.2819V18.7586H68.8553L67.1096 16.7735V18.7586H65.8425V15.5089H67.5859ZM70.3787 18.7635H71.8052L72.0616 18.2073H73.6887L73.9455 18.7635H75.3716L73.6287 15.5137H72.122L70.3787 18.7635ZM75.4709 18.7586V15.5089H76.7379V17.7285H79.2744V18.7586H75.4709ZM28.5182 34.9667C27.9356 34.9667 27.2207 35.0526 27.2207 35.435C27.2207 35.6459 27.8033 35.6745 28.5575 35.7102L28.5658 35.7106C29.9057 35.7785 31.7816 35.8735 31.7781 37.0756C31.7781 38.4482 30.2053 38.7735 28.5182 38.7735C26.8347 38.7699 25.4371 38.5661 25.2584 37.0756H27.2207C27.4352 37.4474 27.932 37.5438 28.5182 37.5438C29.1009 37.5438 29.8158 37.4474 29.8158 37.0756C29.8158 36.8647 29.2331 36.8325 28.4789 36.7969L28.4706 36.7964C27.1307 36.7285 25.2548 36.6335 25.2584 35.435C25.2584 34.0625 26.8311 33.7336 28.5182 33.7336C30.2017 33.7443 31.5993 33.9337 31.7781 35.435H29.8158C29.6012 35.0561 29.1045 34.9667 28.5182 34.9667ZM35.9351 35.3814V38.6626H34.0621V35.3814H31.8353V33.8587H38.1619V35.3814H35.9351ZM36.918 38.6626H39.0268L39.4057 37.8405H41.8113L42.1902 38.6626H44.2991L41.722 33.8587H39.4951L36.918 38.6626ZM47.0228 33.8515L49.1317 36.3965V33.8515H51.0082V38.6555H48.8993L46.3186 35.721V38.6555H44.4456V33.8515H47.0228ZM52.1019 33.8587V38.6626H56.3769C57.6958 38.6805 58.6753 37.5653 58.6645 36.2606C58.6753 34.9489 57.6958 33.8408 56.3769 33.8587H52.1019ZM60.4016 38.6626H58.2928L60.8699 33.8587H63.0967L65.6738 38.6626H63.5649L63.186 37.8405H60.7805L60.4016 38.6626ZM65.8204 33.8551V38.6591H67.6934V37.4867H69.3662L70.2704 38.6591H72.265L71.2177 37.3115C71.5323 37.165 71.786 36.9434 71.9754 36.6538C72.1685 36.3608 72.265 36.0319 72.265 35.6709C72.2793 34.6772 71.4393 33.8444 70.4492 33.8551H65.8204ZM72.8476 38.6626V33.8587H77.1223C78.4414 33.8408 79.4208 34.9489 79.4105 36.2606C79.4208 37.5653 78.4414 38.6805 77.1223 38.6626H72.8476ZM39.4256 31.3535H35.6976V27.8312L34.1524 31.3535H30.9906L29.4698 27.8492V31.3535H25.7302V21.4207H30.4495L32.592 26.3674L34.8396 21.4207H39.4256V31.3535ZM51.5868 31.3535H41.1632V21.4207H51.5051V24.4709H45.0081V24.8912H51.3181V27.883H45.0081V28.3149H51.5868V31.3535ZM64.8273 31.3535H61.5884L61.534 30.7638C60.7221 31.2249 59.6229 31.4937 58.2074 31.4937C56.1938 31.4937 54.4317 30.8915 53.4201 29.5823C52.8183 28.8101 52.4757 27.6812 52.4757 26.4046C52.4757 25.2415 52.7732 24.1723 53.4435 23.3088L53.4456 23.3059L53.4479 23.3033C54.4661 22.0401 56.2653 21.2571 58.8268 21.2571C61.7544 21.2571 63.6203 22.1568 64.4377 23.818L64.4383 23.8193L64.4389 23.8206C64.629 24.2142 64.7318 24.7342 64.7452 25.069L64.7488 25.1599H64.8273V31.3535ZM70.0931 29.6591L69.2401 31.3535H65.0655L70.3672 21.4207H74.6038L79.6142 31.3535H75.3793L74.5738 29.6591H70.0931ZM25.187 43.5864H79.5757V42.2517H25.187V43.5864Z" fill="white"/>
<path fill-rule="evenodd" clip-rule="evenodd" d="M27.5227 2.00977H99.1964C112.907 2.00977 124.022 13.1245 124.022 26.8352C124.022 40.546 112.907 51.6607 99.1964 51.6607H27.5227C13.812 51.6607 2.69727 40.546 2.69727 26.8352C2.69727 13.1245 13.812 2.00977 27.5227 2.00977ZM27.5227 4.41227C15.1388 4.41227 5.09977 14.4513 5.09977 26.8352C5.09977 39.2191 15.1388 49.2582 27.5227 49.2582H99.1964C111.58 49.2582 121.619 39.2191 121.619 26.8352C121.619 14.4513 111.58 4.41227 99.1964 4.41227H27.5227Z" fill="white"/>
</svg>
