<svg width="151" height="152" viewBox="0 0 151 152" fill="none" xmlns="http://www.w3.org/2000/svg">
<path fill-rule="evenodd" clip-rule="evenodd" d="M75.7387 0.967441C75.7375 0.967446 75.7366 0.968398 75.7366 0.969554C75.8633 42.3947 42.4079 76.1018 0.972663 76.2751C0.972436 76.2751 0.97225 76.2753 0.972253 76.2755V76.2755C0.972255 76.2758 0.972454 76.276 0.972695 76.276C42.4362 76.1048 76.1883 109.578 76.3604 151.042L76.3606 151.121C76.3606 151.122 76.3612 151.122 76.3618 151.122V151.122V151.122C76.3622 151.122 76.3626 151.122 76.3626 151.122L76.3622 151.038C76.1908 109.733 109.408 76.0797 150.653 75.6526C109.434 75.5677 75.9552 42.2358 75.7396 0.968351C75.7396 0.967849 75.7392 0.967439 75.7387 0.967441V0.967441V0.967441Z" fill="#272730"/>
</svg>
