<svg width="359" height="661" viewBox="0 0 359 661" fill="none" xmlns="http://www.w3.org/2000/svg">
<g opacity="0.5">
<path opacity="0.5" d="M-94.1054 251.556C-158.423 317.798 -204.33 385.554 -226.569 441.539C-237.69 469.533 -242.883 494.561 -241.521 514.974C-240.159 535.387 -232.248 551.138 -217.219 560.667C-202.191 570.195 -181.376 572.657 -156.517 568.869C-131.657 565.082 -102.81 555.051 -71.8077 539.662C-9.80648 508.887 60.7117 456.735 125.029 390.493C189.346 324.252 235.253 256.496 257.493 200.511C268.613 172.516 273.807 147.489 272.445 127.075C271.083 106.663 263.171 90.9117 248.143 81.3833C233.114 71.8548 212.3 69.3928 187.44 73.1804C162.58 76.9681 133.733 86.9992 102.731 102.388C40.73 133.163 -29.7881 185.315 -94.1054 251.556Z" stroke="url(#paint0_linear_71_5290)"/>
<path opacity="0.9" d="M-152.53 255.853C-209.385 326.394 -244.967 398.594 -256.551 458.287C-268.141 518.014 -255.687 565.06 -216.757 585.549C-177.828 606.038 -119.544 596.222 -56.6275 563.509C6.2535 530.814 73.588 475.326 130.444 404.784C187.3 334.243 222.881 262.043 234.465 202.35C246.055 142.623 233.601 95.577 194.672 75.0881C155.742 54.5992 97.4581 64.4149 34.5418 97.1283C-28.3391 129.823 -95.6736 185.311 -152.53 255.853Z" stroke="url(#paint1_linear_71_5290)"/>
</g>
<defs>
<linearGradient id="paint0_linear_71_5290" x1="248.491" y1="81.0245" x2="-102.213" y2="634.163" gradientUnits="userSpaceOnUse">
<stop stop-color="white"/>
<stop offset="1" stop-color="white" stop-opacity="0"/>
</linearGradient>
<linearGradient id="paint1_linear_71_5290" x1="194.985" y1="74.6988" x2="-105.101" y2="644.869" gradientUnits="userSpaceOnUse">
<stop stop-color="white"/>
<stop offset="1" stop-color="white" stop-opacity="0"/>
</linearGradient>
</defs>
</svg>
