<svg width="56" height="56" viewBox="0 0 56 56" fill="none" xmlns="http://www.w3.org/2000/svg">
<path d="M30.8891 44.5254C30.9386 39.4661 29.6559 35.352 28.0244 35.336C26.3927 35.3201 25.0299 39.4085 24.9805 44.4676C24.931 49.5269 26.2137 53.6412 27.8452 53.657C29.4769 53.673 30.8397 49.5846 30.8891 44.5254Z" fill="white"/>
<path d="M21.4265 43.3766C24.2036 39.1473 25.3491 34.9928 23.9852 34.0972C22.6212 33.2016 19.2642 35.904 16.4873 40.1333C13.7102 44.3625 12.5647 48.517 13.9286 49.4127C15.2926 50.3082 18.6494 47.6058 21.4265 43.3766Z" fill="white"/>
<path d="M14.0758 37.3083C18.6987 35.2521 21.9085 32.3766 21.2453 30.8857C20.5822 29.3948 16.2972 29.8532 11.6744 31.9095C7.05161 33.9657 3.84171 36.8412 4.50486 38.3321C5.168 39.823 9.45308 39.3646 14.0758 37.3083Z" fill="white"/>
<path d="M20.6905 26.7052C20.9388 25.0925 17.0862 23.1612 12.0857 22.3915C7.08511 21.6218 2.83013 22.3053 2.58191 23.918C2.33369 25.5307 6.18623 27.4618 11.1868 28.2315C16.1873 29.0012 20.4424 28.3178 20.6905 26.7052Z" fill="white"/>
<path d="M22.4859 22.8632C23.5665 21.6406 21.3692 17.9334 17.5781 14.5828C13.7871 11.2323 9.83783 9.50733 8.75728 10.73C7.67672 11.9526 9.87403 15.6599 13.6651 19.0104C17.4562 22.3609 21.4054 24.0859 22.4859 22.8632Z" fill="white"/>
<path d="M26.0614 20.6171C27.6314 20.1728 27.7874 15.8661 26.4099 10.9978C25.0323 6.1295 22.6427 2.54312 21.0727 2.9874C19.5027 3.43168 19.3467 7.73836 20.7242 12.6067C22.1018 17.4749 24.4914 21.0614 26.0614 20.6171Z" fill="white"/>
<path d="M35.7704 12.7589C37.2437 7.91865 37.1728 3.60971 35.6118 3.13456C34.0507 2.65941 31.591 6.19796 30.1176 11.0382C28.6443 15.8783 28.7153 20.1873 30.2763 20.6624C31.8373 21.1376 34.2971 17.5991 35.7704 12.7589Z" fill="white"/>
<path d="M42.7076 19.2987C46.5635 16.023 48.8329 12.3593 47.7763 11.1159C46.7199 9.87235 42.7377 11.5199 38.8819 14.7955C35.0261 18.0713 32.7568 21.7349 33.8132 22.9785C34.8696 24.222 38.8518 22.5745 42.7076 19.2987Z" fill="white"/>
<path d="M45.0016 28.5546C50.0164 27.8836 53.9062 26.0287 53.6898 24.4114C53.4735 22.7942 49.2328 22.027 44.218 22.6978C39.2033 23.3688 35.3133 25.2237 35.5297 26.841C35.7461 28.4582 39.9867 29.2255 45.0016 28.5546Z" fill="white"/>
<path d="M51.4705 38.7945C52.163 37.317 49.0104 34.3788 44.4291 32.2318C39.8478 30.0847 35.5726 29.542 34.8802 31.0195C34.1877 32.497 37.3403 35.4352 41.9216 37.5823C46.5029 39.7292 50.7781 40.272 51.4705 38.7945Z" fill="white"/>
<path d="M41.8339 49.6955C43.2152 48.827 42.1518 44.6506 39.4588 40.3675C36.7657 36.0843 33.4627 33.3163 32.0814 34.1848C30.7001 35.0532 31.7634 39.2296 34.4565 43.5127C37.1495 47.7959 40.4526 50.564 41.8339 49.6955Z" fill="white"/>
</svg>
