<svg width="111" height="29" viewBox="0 0 111 29" fill="none" xmlns="http://www.w3.org/2000/svg">
<path d="M3.58032 26.2162H27.1137V2.65234H3.58032V26.2162ZM22.5841 12.167H17.6114V7.18781H22.5841V12.167ZM8.10901 7.18781H13.0845V16.7015H22.5841V21.6807H8.10901V7.18781ZM42.4384 2.65234C40.1111 2.65234 37.8361 3.34335 35.9012 4.63796C33.9661 5.93258 32.458 7.77266 31.5674 9.92553C30.6768 12.0784 30.4438 14.4473 30.8978 16.7328C31.3518 19.0182 32.4725 21.1176 34.118 22.7653C35.7636 24.4131 37.8603 25.5352 40.1428 25.9898C42.4254 26.4444 44.7912 26.2111 46.9413 25.3194C49.0914 24.4276 50.929 22.9175 52.2221 20.98C53.515 19.0424 54.2051 16.7645 54.2051 14.4343C54.2014 11.3106 52.9605 8.31597 50.7546 6.10723C48.5487 3.89847 45.558 2.65599 42.4384 2.65234ZM42.4384 21.6807C41.007 21.6807 39.6078 21.2557 38.4176 20.4594C37.2276 19.6632 36.2999 18.5315 35.7522 17.2074C35.2044 15.8833 35.0611 14.4263 35.3403 13.0205C35.6196 11.6149 36.3089 10.3237 37.321 9.31025C38.3331 8.29682 39.6227 7.60666 41.0265 7.32705C42.4303 7.04745 43.8855 7.19095 45.2079 7.73942C46.5303 8.28788 47.6606 9.21668 48.4558 10.4084C49.2511 11.6 49.6755 13.0011 49.6755 14.4343C49.6726 16.3553 48.9091 18.1968 47.5525 19.5551C46.1959 20.9135 44.3569 21.6778 42.4384 21.6807ZM96.312 2.65234C93.9843 2.65217 91.7096 3.34301 89.7744 4.63751C87.8393 5.93202 86.331 7.77204 85.4403 9.92489C84.5496 12.0777 84.3164 14.4468 84.7703 16.7322C85.2242 19.0178 86.3448 21.1172 87.9904 22.765C89.6359 24.4128 91.7325 25.5351 94.0155 25.9897C96.2973 26.4444 98.6635 26.2111 100.814 25.3195C102.964 24.4277 104.801 22.9176 106.094 20.9801C107.388 19.0425 108.078 16.7646 108.078 14.4343C108.074 11.3108 106.834 8.31627 104.628 6.10755C102.422 3.89882 99.4314 2.65624 96.312 2.65234ZM96.312 21.6807C94.8807 21.6809 93.4815 21.256 92.291 20.4599C91.1008 19.6638 90.173 18.5321 89.6251 17.208C89.0772 15.8839 88.9338 14.4268 89.2129 13.0211C89.492 11.6154 90.1813 10.3241 91.1933 9.31058C92.2054 8.29705 93.4953 7.6068 94.899 7.32712C96.3028 7.04744 97.7579 7.19089 99.08 7.73933C100.403 8.28777 101.533 9.21656 102.329 10.4083C103.123 11.6 103.548 13.0011 103.548 14.4343C103.545 16.3551 102.782 18.1964 101.425 19.5547C100.069 20.9131 98.2304 21.6776 96.312 21.6807ZM69.3747 2.65234C67.0474 2.65234 64.7725 3.34335 62.8375 4.63796C60.9024 5.93258 59.3943 7.77266 58.5037 9.92553C57.6131 12.0784 57.3801 14.4473 57.8341 16.7328C58.2882 19.0182 59.4088 21.1176 61.0544 22.7653C62.7 24.4131 64.7966 25.5352 67.0791 25.9898C69.3616 26.4444 71.7275 26.2111 73.8776 25.3194C76.0277 24.4276 77.8654 22.9175 79.1584 20.98C80.4513 19.0424 81.1414 16.7645 81.1414 14.4343C81.1377 11.3106 79.8969 8.31597 77.691 6.10723C75.4851 3.89847 72.4943 2.65599 69.3747 2.65234ZM69.3747 21.6807C68.0411 21.6814 66.7333 21.3131 65.5955 20.6164C64.4578 19.9198 63.5344 18.9221 62.9273 17.7331C62.3203 16.5442 62.053 15.2104 62.1553 13.879C62.2575 12.5476 62.725 11.2704 63.5064 10.1883C64.2878 9.10623 65.3527 8.26137 66.5833 7.74701C67.814 7.23264 69.1627 7.06877 70.4805 7.27347C71.7983 7.47817 73.034 8.04349 74.0512 8.90702C75.0684 9.77055 75.8275 10.8988 76.2448 12.167H69.3747V16.7015H76.2448C75.7669 18.1487 74.8461 19.4086 73.6129 20.3023C72.3798 21.196 70.897 21.6782 69.3747 21.6807Z" fill="white"/>
</svg>
