<svg width="94" height="45" viewBox="0 0 94 45" fill="none" xmlns="http://www.w3.org/2000/svg">
<path d="M84.7362 3.24435C85.6075 4.54559 86.4438 6.15083 86.0325 7.87109C84.6132 7.05931 83.4716 5.73392 82.5663 4.42548C81.6547 3.10825 80.7082 1.70754 80.3838 0.0839844C82.1741 0.541564 83.7769 1.81177 84.7362 3.24435Z" fill="white"/>
<path d="M7.78573 7.86841C7.37551 6.14789 8.21355 4.54335 9.08646 3.2429C10.0474 1.81122 11.6506 0.542228 13.4412 0.0859375C13.1158 1.70912 12.1678 3.10924 11.2552 4.42557C10.3488 5.73333 9.2056 7.05783 7.78573 7.86841Z" fill="white"/>
<path d="M6.53659 11.1689C6.85681 9.80635 6.84971 8.31469 6.54486 7.03667C6.27678 5.91351 5.8867 4.32578 4.60283 3.79004C3.6696 5.28583 3.29447 7.32276 3.83836 8.84906C4.23162 9.95305 4.93885 11.4127 6.40557 11.6386C7.75146 11.9487 9.11239 11.2313 10.1872 10.639C11.3824 9.98049 12.5531 8.93284 13.2643 7.68734C11.9596 7.02926 10.4736 7.5633 9.35577 8.07511C8.15076 8.62684 7.0438 9.81059 6.53659 11.1689Z" fill="white"/>
<path d="M32.6562 12.4775V5.63672H30.3188V8.12908H26.8129V5.63672H24.4756V12.4775H26.8129V9.99397H30.3188V12.4775H32.6562Z" fill="white"/>
<path d="M40.4065 5.63672H42.988L39.3251 10.2205V12.4775H36.9791V10.2292L33.3599 5.63672H36.0197L38.1827 8.37301L40.4065 5.63672Z" fill="white"/>
<path fill-rule="evenodd" clip-rule="evenodd" d="M51.1281 6.22054C51.5904 6.58659 51.852 7.20536 51.852 8.10291C51.852 8.83491 51.6688 9.38389 51.32 9.76741C50.849 10.3077 50.0729 10.5516 49.0612 10.5604C48.7472 10.5691 46.0611 10.5604 46.0611 10.5604V12.4775H43.7151V5.63672H49.0263C49.9681 5.63672 50.6833 5.82843 51.1281 6.22054ZM49.3926 8.63452C49.4624 8.5125 49.4973 8.35563 49.4973 8.13776C49.4973 7.9112 49.4536 7.71949 49.3752 7.61495C49.2269 7.39707 48.9478 7.29243 48.4943 7.29243H46.0437V8.96561H48.4768C48.9653 8.96561 49.2531 8.85239 49.3926 8.63452Z" fill="white"/>
<path d="M59.9978 10.7782V12.4775H52.7856V5.63672H59.9374V7.34475H55.088V8.22493H59.7975V9.88933H55.088V10.7782H59.9978Z" fill="white"/>
<path fill-rule="evenodd" clip-rule="evenodd" d="M68.7544 6.33387C69.0692 6.65628 69.2165 7.10072 69.2165 7.71949C69.2165 8.25109 69.0861 8.70421 68.8678 9.00925C68.624 9.34035 68.2487 9.61923 67.7866 9.68893L69.8536 12.4775H67.2545L65.5542 10.0637H63.4353V12.4775H61.1064V5.63672H66.557C67.6382 5.63672 68.3452 5.89812 68.7544 6.33387ZM66.8707 8.29463C66.9322 8.19008 66.9492 8.05059 66.9492 7.93736C66.9492 7.80666 66.9322 7.66716 66.8707 7.57999C66.7488 7.35344 66.505 7.29243 66.1383 7.29243H63.4437V8.53866H66.1817C66.557 8.53866 66.7838 8.46897 66.8707 8.29463Z" fill="white"/>
<path d="M58.7491 21.058C58.7491 19.4943 57.7549 18.6725 55.4361 18.4214C55.0591 18.3757 53.9511 18.2616 53.2543 18.2045C51.4609 18.0104 50.9241 17.9078 50.9241 17.4512C50.9241 17.0403 51.3467 16.8463 52.9573 16.8463C54.0996 16.8463 54.7393 17.0631 54.9906 17.3941C55.1163 17.5539 55.162 17.6794 55.1734 17.8051H58.4632C58.4289 17.5311 58.3147 17.143 58.1319 16.8007C57.538 15.6592 56.11 14.7461 53.0373 14.7461C49.5761 14.7461 47.6799 15.9674 47.6799 17.5654C47.6799 19.1062 48.7536 20.0079 51.6551 20.2705C51.9831 20.2985 52.6877 20.3651 53.2646 20.4195L53.3002 20.4229L53.3066 20.4235L53.3092 20.4237L53.6199 20.4531C55.1391 20.6129 55.5503 20.7155 55.5503 21.195C55.5503 21.6401 55.1505 21.8798 53.4714 21.8798C52.1692 21.8798 51.4038 21.6857 51.1296 21.3547C51.0154 21.2178 50.9354 21.0123 50.9126 20.8754H47.6228C47.657 21.1036 47.7142 21.4689 47.8398 21.7657C48.3996 23.0212 49.8617 23.98 53.2543 23.98C56.8982 23.98 58.7491 22.9527 58.7491 21.058Z" fill="white"/>
<path fill-rule="evenodd" clip-rule="evenodd" d="M35.4271 22.9295C35.7698 22.53 35.9411 21.925 35.9411 21.3087C35.9411 20.7837 35.804 20.2814 35.5185 19.9504C35.1758 19.5053 34.5703 19.1857 33.9307 19.1059C34.3647 19.0488 34.7759 18.8206 35.0158 18.5238C35.3128 18.1699 35.4499 17.6906 35.4499 17.1085C35.4499 16.5264 35.2786 16.0128 34.8902 15.6247C34.4561 15.1796 33.6679 14.8828 32.4343 14.8828H24.6895V23.8425H32.6512C33.9192 23.8425 34.9016 23.5685 35.4271 22.9295ZM32.2743 17.6449C32.2743 17.8618 32.2057 18.0444 32.0916 18.1699C31.9316 18.3183 31.6346 18.3754 31.2462 18.3754H27.6823V16.9144H31.1663C31.6004 16.9144 31.8974 16.9715 32.0572 17.1199C32.2057 17.2454 32.2743 17.428 32.2743 17.6449ZM32.617 21.5712C32.4343 21.7424 32.1144 21.8109 31.5775 21.8109H27.6823V20.3157H31.6118C32.1144 20.3157 32.4114 20.3842 32.5827 20.5325C32.7198 20.6695 32.7769 20.8407 32.7769 21.069C32.7769 21.2859 32.7312 21.4571 32.617 21.5712Z" fill="white"/>
<path d="M46.6967 21.6169V23.8425H37.25V14.8828H46.6168V17.1199H40.2656V18.2727H46.4341V20.4527H40.2656V21.6169H46.6967Z" fill="white"/>
<path d="M69.8642 17.1313V14.8828H59.1614V17.1313H62.9424V23.8425H66.0715V17.1313H69.8642Z" fill="white"/>
<path d="M69.5928 31.774H69.0893L69.0533 31.2893C68.8996 31.5346 68.5741 31.8291 67.8873 31.8291C66.7266 31.8291 66.187 31.1297 66.187 29.3438C66.187 27.9632 66.5305 26.8525 67.9477 26.8525C69.1762 26.8525 69.5504 27.6565 69.5684 28.5217H68.9547C68.9367 27.9571 68.6844 27.4355 67.9604 27.4355C67.0891 27.4355 66.8368 27.9571 66.8368 29.3624C66.8368 30.829 67.1506 31.2893 67.9731 31.2893C68.5498 31.2893 68.8868 30.9702 68.9981 30.5897V29.6753H67.7579V29.1168H69.5864V30.5283C69.5864 30.95 69.5907 31.4001 69.5917 31.6264L69.5928 31.734V31.774Z" fill="white"/>
<path fill-rule="evenodd" clip-rule="evenodd" d="M24.8053 30.5537H26.5239L26.8798 31.7751H27.5305L26.1065 26.9141H25.3147L23.7925 31.7751H24.437L24.8053 30.5537ZM26.3704 30.0075H24.971C24.971 30.0075 25.5786 28.0434 25.5909 28.0005C25.597 27.9697 25.6953 27.534 25.6953 27.534L25.7632 27.8563L25.7934 28.0005C25.7996 28.0311 26.3704 30.0075 26.3704 30.0075Z" fill="white"/>
<path d="M32.189 26.9141H32.7783L31.6305 31.7751H30.9001C30.9001 31.7751 30.0838 27.9943 30.0838 27.8347C30.0776 27.9943 29.2429 31.7751 29.2429 31.7751H28.5125L27.3647 26.9141H28.0276C28.0276 26.9141 28.9175 30.7624 28.9175 30.9159C28.9175 30.7624 29.734 26.9141 29.734 26.9141H30.4643C30.4643 26.9141 31.2806 30.7686 31.2806 30.9159C31.2806 30.7686 32.189 26.9141 32.189 26.9141Z" fill="white"/>
<path fill-rule="evenodd" clip-rule="evenodd" d="M35.2987 30.5537H33.5801L33.2119 31.7751H32.5674L34.0896 26.9141H34.8814L36.3054 31.7751H35.6548L35.2987 30.5537ZM33.7459 30.0075H35.1453C35.1453 30.0075 34.5745 28.0311 34.5684 28.0005L34.5219 27.7792L34.4701 27.534C34.4701 27.534 34.3719 27.9697 34.3658 28.0005C34.3535 28.0434 33.7459 30.0075 33.7459 30.0075Z" fill="white"/>
<path fill-rule="evenodd" clip-rule="evenodd" d="M38.6708 26.9141C39.4196 26.9141 39.8247 27.2639 39.8247 28.2827C39.8247 29.1482 39.4994 29.4367 39.1618 29.5348L40.0948 31.7751H39.4196L38.5542 29.6577H37.3758V31.7751H36.762V26.9141H38.6708ZM38.5788 29.1052C39.0637 29.1052 39.1803 28.8535 39.1803 28.3012C39.1803 27.6751 38.9961 27.4849 38.5481 27.4849H37.3819V29.1052H38.5788Z" fill="white"/>
<path fill-rule="evenodd" clip-rule="evenodd" d="M43.9112 29.2648C43.9112 30.4126 43.8253 30.879 43.5798 31.2289C43.3343 31.5665 42.9476 31.7751 42.3215 31.7751H40.6521V26.9141H42.2786C42.8924 26.9141 43.3711 27.0982 43.5921 27.4296C43.8376 27.7856 43.9112 28.2275 43.9112 29.2648ZM42.1927 31.1982C42.5671 31.1982 42.8801 31.1 43.0397 30.8852C43.2116 30.652 43.2607 30.1793 43.2607 29.2648C43.2607 28.4976 43.2176 28.0863 43.0397 27.8224C42.874 27.5953 42.5548 27.4971 42.1804 27.4971H41.272V31.1982H42.1927Z" fill="white"/>
<path d="M50.3865 26.9141H50.9758L49.828 31.7751H49.0976C49.0976 31.7751 48.2813 27.9943 48.2813 27.8347C48.2751 27.9943 47.4404 31.7751 47.4404 31.7751H46.71L45.5623 26.9141H46.2251C46.2251 26.9141 47.1151 30.7624 47.1151 30.9159C47.1151 30.7624 47.9314 26.9141 47.9314 26.9141H48.6618C48.6618 26.9141 49.4781 30.7686 49.4781 30.9159C49.4781 30.7686 50.3865 26.9141 50.3865 26.9141Z" fill="white"/>
<path d="M52.0612 26.9141V31.7751H51.4229V26.9141H52.0612Z" fill="white"/>
<path d="M56.057 26.9141V31.7751H55.3512L53.5405 28.0065V31.7751H52.9451V26.9141H53.6878L55.4555 30.6274V26.9141H56.057Z" fill="white"/>
<path d="M60.037 26.9141V31.7751H59.3311L57.5207 28.0065V31.7751H56.9253V26.9141H57.668L59.436 30.6274V26.9141H60.037Z" fill="white"/>
<path d="M61.5431 26.9141V31.7751H60.905V26.9141H61.5431Z" fill="white"/>
<path d="M65.5394 26.9141V31.7751H64.8335L63.023 28.0065V31.7751H62.4272V26.9141H63.1703L64.9384 30.6274V26.9141H65.5394Z" fill="white"/>
<path d="M31.7152 41.3455L31.0119 39.1816L30.3085 41.3455H28.0325L29.8738 42.6828L29.1705 44.8467L31.0119 43.5093L32.8533 44.8467L32.1499 42.6828L33.9914 41.3455H31.7152Z" fill="white"/>
<path d="M39.8491 41.3451L39.1314 39.1816L38.4136 41.3451H36.0911L37.9701 42.682L37.2524 44.8455L39.1314 43.5085L41.0104 44.8455L40.2927 42.682L42.1717 41.3451H39.8491Z" fill="white"/>
<path d="M47.9052 41.3451L47.1875 39.1816L46.4698 41.3451H44.1472L46.0262 42.682L45.3085 44.8455L47.1875 43.5085L49.0665 44.8455L48.3487 42.682L50.2278 41.3451H47.9052Z" fill="white"/>
<path d="M55.9609 41.3451L55.2432 39.1816L54.5255 41.3451H52.2029L54.0818 42.682L53.3641 44.8455L55.2432 43.5085L57.1221 44.8455L56.4044 42.682L58.2835 41.3451H55.9609Z" fill="white"/>
<path d="M64.0662 41.3451L63.3635 39.1816L62.6596 41.3451H60.3838L62.225 42.682L61.5222 44.8455L63.3635 43.5085L65.2047 44.8455L64.5008 42.682L66.3431 41.3451H64.0662Z" fill="white"/>
<path d="M2.39217 14.8442C3.05404 15.8532 4.07821 17.117 5.57155 17.081C6.92952 17.1487 8.10273 16.2227 9.02662 15.4498C10.0216 14.6174 10.9198 13.4002 11.299 12.0841C9.91003 11.6804 8.58026 12.4284 7.58863 13.1339C6.55311 13.8707 5.75673 15.2193 5.58564 16.6039C5.57282 15.2167 5.19705 13.784 4.59125 12.6298C4.0374 11.5747 3.26562 10.1484 1.88867 9.86328C1.34616 11.5051 1.51926 13.5139 2.39217 14.8442Z" fill="white"/>
<path d="M6.01344 22.5158C4.62748 22.7479 3.27556 21.8994 2.39756 20.9014C1.26717 19.6164 0.594593 17.8927 0.731757 16.167C2.15555 16.2031 3.2339 17.4329 4.03091 18.3628C4.8893 19.3643 5.59262 20.682 5.93001 22.0413C5.78161 20.6867 6.23678 19.2239 7.08171 18.32C7.89728 17.4475 9.03975 16.4966 10.4612 16.6492C10.4306 18.0228 9.74147 19.3315 9.03074 20.3116C8.36824 21.225 7.34766 22.3548 6.01344 22.5158Z" fill="white"/>
<path d="M3.45317 27.0808C4.72962 27.9112 6.27775 28.7331 7.90475 28.111C9.2395 27.6392 10.0881 26.2967 10.6101 25.0644C11.163 23.7588 11.5323 22.2533 11.2766 20.8242C9.80989 20.9543 8.59364 22.0029 7.94768 23.2829C7.27235 24.6211 7.14282 26.2138 7.66158 27.6168C6.89509 26.1735 5.77414 25.0056 4.58673 23.9266C3.50733 22.9456 1.95252 21.9123 0.386475 22.1067C0.684441 24.0413 1.86592 26.0483 3.45317 27.0808Z" fill="white"/>
<path d="M11.1925 33.3402C12.4486 32.5899 12.9541 31.0111 13.1607 29.6582C13.3834 28.1992 13.3739 26.5902 12.7674 25.2061C11.3101 25.6128 10.3098 26.9234 9.97952 28.3589C9.63056 29.8755 9.92503 31.4919 10.7739 32.7832C9.64551 31.4896 8.14507 30.4216 6.70718 29.6726C5.31826 28.9492 3.61431 28.0767 1.94629 28.6036C2.75062 30.5651 4.47121 32.3913 6.37816 33.1467C7.85495 33.7316 9.65155 34.31 11.1925 33.3402Z" fill="white"/>
<path d="M17.1475 33.8489C17.3318 35.2572 17.3267 37.0434 16.2324 38.1273C14.865 39.5259 12.7488 39.256 11.1166 38.9483C8.92538 38.5349 6.45875 37.0416 5.13672 35.0532C6.75132 34.1648 8.726 34.7331 10.3245 35.1931L10.4157 35.2192C12.2001 35.7322 14.1015 36.5584 15.6917 37.6872C14.4227 36.5414 13.498 34.8596 13.4528 33.1645C13.4121 31.6484 14.0706 30.0264 15.4879 29.3037C16.4773 30.6013 16.9406 32.2673 17.1475 33.8489Z" fill="white"/>
<path d="M23.498 42.1156C24.3039 40.5828 23.5055 38.7838 22.8692 37.4542C22.1171 35.8823 21.0894 34.2804 19.6186 33.1299C18.2064 34.3461 18.3407 36.0862 18.7606 37.5986C19.2598 39.3968 20.9907 40.9297 22.7831 41.8032C20.7073 41.0297 18.4402 40.5654 16.2834 40.4284L16.0649 40.4143C14.3321 40.3015 12.0763 40.1547 10.6956 41.4218C12.7832 43.1952 15.7486 44.2184 18.3621 44.1653C20.1136 44.1297 22.5166 43.9226 23.498 42.1156Z" fill="white"/>
<path d="M87.2788 11.1727C86.7732 9.81353 85.6666 8.62834 84.4624 8.07557C83.3441 7.56294 81.8591 7.02796 80.5542 7.68485C81.2644 8.93084 82.4336 9.97929 83.6282 10.6387C84.702 11.2316 86.062 11.95 87.4082 11.6412C88.8752 11.4167 89.5843 9.95737 89.9787 8.85341C90.5246 7.32791 90.1514 5.29063 89.2197 3.79395C87.935 4.32892 87.5428 5.91617 87.2746 7.03919C86.9683 8.31748 86.9598 9.80961 87.2788 11.1727Z" fill="white"/>
<path d="M86.2243 13.1381C87.2589 13.8753 88.0528 15.2232 88.2235 16.6069C88.2383 15.2204 88.6157 13.789 89.222 12.6359C89.7764 11.581 90.5502 10.1553 91.9271 9.87109C92.4677 11.5135 92.2928 13.5224 91.4183 14.852C90.7569 15.8592 89.7329 17.1205 88.2426 17.0867C86.8826 17.156 85.7081 16.2277 84.7838 15.4532C83.7895 14.6199 82.8927 13.4019 82.5154 12.0856C83.904 11.6827 85.2332 12.4318 86.2243 13.1381Z" fill="white"/>
<path d="M87.8738 22.0516C88.0254 20.6955 87.5717 19.2293 86.7258 18.3234C85.9117 17.4501 84.7701 16.4981 83.3486 16.6497C83.3773 18.0236 84.0652 19.3332 84.7754 20.3141C85.4368 21.2278 86.4555 22.3578 87.789 22.5206C89.1755 22.7553 90.5291 21.9071 91.4089 20.9089C92.5399 19.6246 93.2141 17.901 93.0795 16.1748C91.6548 16.21 90.5757 17.4391 89.7775 18.3685C88.9168 19.3709 88.2119 20.6904 87.8738 22.0516Z" fill="white"/>
<path d="M85.8555 23.2855C86.5297 24.6245 86.6579 26.2176 86.1375 27.6203C86.9049 26.1771 88.0275 25.0099 89.2157 23.9315C90.2959 22.9513 91.8519 21.9193 93.4176 22.1148C93.1187 24.0493 91.9346 26.0556 90.3467 27.0868C89.0705 27.9151 87.524 28.7354 85.899 28.1159C84.5623 27.6448 83.7132 26.2995 83.1917 25.0651C82.6395 23.759 82.2716 22.2532 82.5292 20.8242C83.9952 20.9555 85.211 22.005 85.8555 23.2855Z" fill="white"/>
<path d="M83.022 32.7807C83.87 31.4906 84.1657 29.8758 83.8191 28.36C83.4905 26.9242 82.4909 25.6129 81.0334 25.2051C80.4261 26.5885 80.4155 28.1975 80.6359 29.6568C80.8416 31.007 81.344 32.5826 82.5927 33.3357C84.135 34.3131 85.936 33.735 87.4147 33.1503C89.3227 32.3963 91.0452 30.5714 91.8508 28.6104C90.1834 28.0824 88.4789 28.9536 87.0892 29.676C85.6519 30.4234 84.1509 31.4892 83.022 32.7807Z" fill="white"/>
<path d="M76.6452 33.8448C76.4597 35.2528 76.4629 37.0388 77.5568 38.1237C78.9221 39.5233 81.0389 39.2549 82.6714 38.9483C84.8634 38.5366 87.3311 37.0449 88.6551 35.0577C87.0417 34.1683 85.0659 34.7348 83.4674 35.1936L83.3752 35.2198C81.5912 35.7312 79.6896 36.5556 78.0985 37.6828C79.3684 36.538 80.2938 34.8576 80.3404 33.1631C80.3828 31.6472 79.7256 30.0246 78.3094 29.3008C77.3183 30.5976 76.8541 32.2634 76.6452 33.8448Z" fill="white"/>
<path d="M75.4208 44.1597C73.6697 44.1228 71.2666 43.914 70.2872 42.1062L70.2734 42.0814C69.4911 40.5534 70.2861 38.7674 70.92 37.4457C71.6737 35.8744 72.7029 34.2732 74.1742 33.124C75.5861 34.3411 75.4494 36.0811 75.0286 37.593C74.5272 39.3908 72.7952 40.9226 71.0016 41.7946C73.0782 41.0227 75.3455 40.5601 77.5026 40.4246L77.722 40.4106C79.4552 40.2992 81.7108 40.1543 83.0899 41.4221C81.0006 43.1937 78.0348 44.2148 75.4208 44.1597Z" fill="white"/>
</svg>
