<svg width="305" height="550" viewBox="0 0 305 550" fill="none" xmlns="http://www.w3.org/2000/svg">
<g opacity="0.7">
<mask id="path-1-inside-1_75_7065" fill="white">
<path fill-rule="evenodd" clip-rule="evenodd" d="M257.929 76C257.929 76 257.929 76.0002 257.929 76.0004C258.262 83.4753 252.477 89.8088 245 90.1505C245 90.1505 245 90.1507 245 90.1509C245 90.1512 245 90.1513 245 90.1513C252.482 89.8103 258.823 95.5984 259.165 103.08L259.165 103.093C259.165 103.094 259.166 103.094 259.166 103.094C259.166 103.094 259.166 103.094 259.166 103.094L259.165 103.079C258.826 95.6385 264.548 89.3255 271.969 88.9194C264.546 89.1909 258.276 83.4332 257.929 76.0002C257.929 76.0001 257.929 76 257.929 76Z"/>
</mask>
<path d="M259.165 103.08L260.164 103.034L260.164 103.035L259.165 103.08ZM259.165 103.079L258.166 103.125L258.166 103.124L259.165 103.079ZM271.969 88.9194L271.932 87.92L272.023 89.9179L271.969 88.9194ZM257.929 76.0002L256.93 76.0468L257.929 76.0002ZM259.165 103.093L258.166 103.138L259.165 103.093ZM245 90.1513L244.955 89.1524L245 90.1513ZM259.166 103.094L258.167 103.14L259.166 103.094ZM245 90.1505L245.046 91.1495L245 90.1505ZM257.929 76.0004L258.928 75.9559L257.929 76.0004ZM258.928 75.9559C259.285 83.982 253.074 90.7825 245.046 91.1495L244.955 89.1516C251.88 88.835 257.238 82.9685 256.93 76.0449L258.928 75.9559ZM258.166 103.125C257.85 96.1957 251.976 90.8344 245.046 91.1503L244.955 89.1524C252.988 88.7862 259.797 95.0011 260.164 103.034L258.166 103.125ZM258.166 103.138L258.166 103.125L260.164 103.035L260.164 103.048L258.166 103.138ZM260.164 103.032L260.165 103.048L258.167 103.14L258.166 103.125L260.164 103.032ZM272.023 89.9179C265.15 90.2941 259.85 96.1416 260.164 103.033L258.166 103.124C257.802 95.1355 263.946 88.357 271.914 87.9209L272.023 89.9179ZM258.928 75.9535C259.25 82.8383 265.057 88.1715 271.932 87.92L272.005 89.9187C264.035 90.2102 257.303 84.028 256.93 76.0468L258.928 75.9535ZM256.93 76.0468C256.956 76.5904 257.416 77.0244 257.975 76.999L257.884 75.001C258.442 74.9756 258.903 75.4097 258.928 75.9535L256.93 76.0468ZM260.164 103.048C260.14 102.496 259.672 102.069 259.12 102.095L259.212 104.093C258.66 104.118 258.191 103.691 258.166 103.138L260.164 103.048ZM245.999 90.1078C245.975 89.5508 245.503 89.1274 244.955 89.1524L245.046 91.1503C244.498 91.1753 244.025 90.7515 244.001 90.1941L245.999 90.1078ZM259.133 102.094C258.576 102.113 258.141 102.583 258.167 103.14L260.165 103.048C260.191 103.605 259.756 104.075 259.199 104.093L259.133 102.094ZM245.046 91.1495C245.591 91.1246 246.023 90.6641 245.999 90.1078L244.001 90.1941C243.977 89.6374 244.409 89.1765 244.955 89.1516L245.046 91.1495ZM256.93 76.0449C256.905 75.5011 257.324 75.0265 257.884 75.001L257.975 76.999C258.533 76.9735 258.952 76.4993 258.928 75.9559L256.93 76.0449Z" fill="white" mask="url(#path-1-inside-1_75_7065)"/>
</g>
<g opacity="0.7">
<mask id="path-3-inside-2_75_7065" fill="white">
<path fill-rule="evenodd" clip-rule="evenodd" d="M284.176 320C284.176 320 284.176 320 284.176 320.001C284.67 331.087 276.089 340.481 265 340.988C265 340.988 265 340.988 265 340.989C265 340.989 265 340.989 265 340.989C276.097 340.483 285.503 349.068 286.009 360.165L286.01 360.185C286.01 360.185 286.011 360.185 286.011 360.185C286.011 360.185 286.011 360.185 286.011 360.185L286.01 360.162C285.507 349.133 293.985 339.773 304.985 339.162C293.983 339.557 284.691 331.02 284.177 320C284.177 320 284.176 320 284.176 320Z"/>
</mask>
<path d="M286.009 360.165L287.008 360.119L287.008 360.12L286.009 360.165ZM286.01 360.162L285.011 360.209L285.011 360.208L286.01 360.162ZM304.985 339.162L304.949 338.163L305.04 340.161L304.985 339.162ZM284.177 320L285.176 319.954L284.177 320ZM286.01 360.185L287.009 360.14L286.01 360.185ZM265 340.989L264.955 339.99L265 340.989ZM286.011 360.185L287.01 360.139L286.011 360.185ZM265 340.988L264.955 339.989L265 340.988ZM284.176 320.001L283.177 320.045L284.176 320.001ZM285.175 319.956C285.693 331.594 276.686 341.455 265.046 341.987L264.955 339.989C275.492 339.508 283.646 330.581 283.177 320.045L285.175 319.956ZM285.01 360.21C284.529 349.665 275.591 341.507 265.046 341.988L264.955 339.99C276.603 339.459 286.477 348.471 287.008 360.119L285.01 360.21ZM285.011 360.23L285.01 360.21L287.008 360.12L287.009 360.14L285.011 360.23ZM287.009 360.116L287.01 360.139L285.012 360.231L285.011 360.209L287.009 360.116ZM305.04 340.161C294.588 340.741 286.531 349.635 287.009 360.117L285.011 360.208C284.483 348.63 293.383 338.805 304.929 338.164L305.04 340.161ZM285.176 319.954C285.665 330.425 294.494 338.538 304.949 338.163L305.021 340.162C293.471 340.576 283.718 331.614 283.178 320.047L285.176 319.954ZM283.178 320.047C283.203 320.59 283.663 321.024 284.222 320.999L284.131 319.001C284.69 318.976 285.15 319.41 285.176 319.954L283.178 320.047ZM287.009 360.14C286.984 359.588 286.517 359.161 285.965 359.187L286.057 361.184C285.504 361.21 285.036 360.782 285.011 360.23L287.009 360.14ZM265.999 340.946C265.975 340.379 265.492 339.966 264.955 339.99L265.046 341.988C264.508 342.013 264.025 341.599 264.001 341.031L265.999 340.946ZM285.974 359.186C285.418 359.207 284.987 359.676 285.012 360.231L287.01 360.139C287.036 360.694 286.604 361.164 286.048 361.185L285.974 359.186ZM265.046 341.987C265.589 341.962 266.023 341.503 265.999 340.946L264.001 341.031C263.977 340.473 264.411 340.014 264.955 339.989L265.046 341.987ZM283.177 320.045C283.152 319.502 283.571 319.027 284.131 319.001L284.222 320.999C284.781 320.973 285.199 320.499 285.175 319.956L283.177 320.045Z" fill="white" mask="url(#path-3-inside-2_75_7065)"/>
</g>
<g opacity="0.9">
<mask id="path-5-inside-3_75_7065" fill="white">
<path fill-rule="evenodd" clip-rule="evenodd" d="M215.739 159.999C215.739 159.999 215.738 159.999 215.738 160C216.48 176.617 203.62 190.697 186.999 191.456C186.999 191.456 186.999 191.456 186.999 191.457C186.999 191.457 186.999 191.457 186.999 191.457C203.63 190.698 217.728 203.565 218.487 220.196L218.488 220.225C218.488 220.226 218.489 220.226 218.489 220.226C218.489 220.226 218.489 220.226 218.489 220.226L218.488 220.193C217.732 203.653 230.455 189.618 246.954 188.719C230.452 189.325 216.511 176.525 215.74 160C215.74 159.999 215.739 159.999 215.739 159.999Z"/>
</mask>
<path d="M218.487 220.196L219.486 220.15L219.486 220.151L218.487 220.196ZM218.488 220.193L217.489 220.239L217.489 220.239L218.488 220.193ZM246.954 188.719L246.917 187.719L247.009 189.717L246.954 188.719ZM215.74 160L214.741 160.046L215.74 160ZM218.488 220.225L219.487 220.18L218.488 220.225ZM186.999 191.457L187.045 192.456L186.999 191.457ZM218.489 220.226L219.488 220.179L218.489 220.226ZM186.999 191.456L186.954 190.457L186.999 191.456ZM215.738 160L216.737 159.955L215.738 160ZM216.737 159.955C217.504 177.124 204.217 191.671 187.045 192.455L186.954 190.457C203.023 189.723 215.456 176.11 214.739 160.044L216.737 159.955ZM217.488 220.241C216.754 204.162 203.124 191.722 187.045 192.456L186.954 190.458C204.136 189.674 218.701 202.967 219.486 220.15L217.488 220.241ZM217.489 220.27L217.488 220.241L219.486 220.151L219.487 220.18L217.489 220.27ZM219.487 220.147L219.488 220.179L217.49 220.272L217.489 220.239L219.487 220.147ZM247.009 189.717C231.057 190.587 218.756 204.156 219.487 220.148L217.489 220.239C216.708 203.15 229.853 188.65 246.9 187.72L247.009 189.717ZM216.739 159.953C217.484 175.93 230.963 188.306 246.917 187.719L246.991 189.718C229.941 190.345 215.537 177.12 214.741 160.046L216.739 159.953ZM214.741 160.046C214.766 160.589 215.226 161.023 215.784 160.998L215.694 159C216.253 158.975 216.713 159.409 216.739 159.953L214.741 160.046ZM219.487 220.18C219.462 219.628 218.994 219.201 218.442 219.227L218.536 221.225C217.983 221.251 217.514 220.823 217.489 220.27L219.487 220.18ZM187.998 191.41C187.972 190.858 187.505 190.433 186.954 190.458L187.045 192.456C186.494 192.481 186.026 192.055 186 191.503L187.998 191.41ZM218.441 219.227C217.89 219.254 217.465 219.721 217.49 220.272L219.488 220.179C219.513 220.73 219.088 221.198 218.537 221.225L218.441 219.227ZM187.045 192.455C187.586 192.431 188.024 191.973 187.998 191.41L186 191.503C185.974 190.94 186.413 190.482 186.954 190.457L187.045 192.455ZM214.739 160.044C214.715 159.501 215.134 159.026 215.694 159L215.785 160.998C216.344 160.972 216.762 160.498 216.737 159.955L214.739 160.044Z" fill="white" mask="url(#path-5-inside-3_75_7065)"/>
</g>
<g clip-path="url(#clip0_75_7065)">
<g opacity="0.4">
<path d="M2.8474 508.182C3.43741 507.862 4.04539 507.655 4.67134 507.56C5.30238 507.448 5.91703 507.439 6.5153 507.532C7.11357 507.625 7.66111 507.811 8.15791 508.089C8.6598 508.349 9.08265 508.704 9.42646 509.151C9.5152 509.262 9.56052 509.345 9.56243 509.402C9.55829 509.447 9.52028 509.497 9.4484 509.55L7.94982 510.493C7.88907 510.541 7.8385 510.554 7.79811 510.532C7.75771 510.511 7.70826 510.473 7.64973 510.418C7.14244 509.829 6.54021 509.45 5.84302 509.28C5.14584 509.111 4.43544 509.223 3.71184 509.616C2.65427 510.19 2.05359 511.035 1.90979 512.15C1.77712 513.26 2.15795 514.639 3.05229 516.286C3.93454 517.912 4.87152 518.974 5.86322 519.473C6.86605 519.967 7.92965 519.908 9.05401 519.298C9.79988 518.893 10.3266 518.377 10.6342 517.748C10.9469 517.103 11.041 516.281 10.9167 515.282C10.9078 515.186 10.9762 515.113 11.1219 515.062L12.4615 514.703C12.501 514.696 12.5465 514.7 12.598 514.715C12.6495 514.73 12.6944 514.8 12.7325 514.923C12.8117 515.255 12.8468 515.625 12.8379 516.033C12.829 516.442 12.7725 516.869 12.6685 517.314C12.5585 517.749 12.3832 518.183 12.1427 518.616C11.9023 519.049 11.5875 519.465 11.1985 519.863C10.8146 520.245 10.3499 520.583 9.80443 520.88C8.68006 521.49 7.56954 521.754 6.47287 521.672C5.38733 521.584 4.36764 521.179 3.41379 520.457C2.45995 519.735 1.62953 518.723 0.922516 517.421C0.209464 516.107 -0.1868 514.859 -0.266278 513.678C-0.345756 512.496 -0.120694 511.437 0.408907 510.501C0.932466 509.553 1.7453 508.781 2.8474 508.182Z" fill="white"/>
<path d="M23.7227 512.664C22.6373 513.341 21.5548 513.688 20.4753 513.704C19.3891 513.71 18.3548 513.392 17.3725 512.751C16.3835 512.099 15.4867 511.128 14.6821 509.839C13.8708 508.539 13.3918 507.292 13.2451 506.1C13.0984 504.907 13.2664 503.825 13.7492 502.852C14.2253 501.868 15.0007 501.041 16.0753 500.37C17.1393 499.706 18.2123 499.38 19.2945 499.392C20.3807 499.386 21.4217 499.715 22.4174 500.377C23.4172 501.023 24.3227 501.995 25.134 503.296C25.9385 504.585 26.4162 505.818 26.567 506.993C26.711 508.157 26.5417 509.225 26.0589 510.198C25.5761 511.171 24.7973 511.993 23.7227 512.664ZM22.8437 511.219C23.9184 510.549 24.4823 509.682 24.5356 508.618C24.5928 507.537 24.1186 506.191 23.1129 504.579C22.0938 502.946 21.0742 501.91 20.0541 501.471C19.0448 501.026 18.0135 501.132 16.9604 501.789C15.8857 502.459 15.3244 503.354 15.2765 504.474C15.2219 505.583 15.7008 506.949 16.7132 508.572C17.7122 510.173 18.7151 511.182 19.7217 511.599C20.7284 512.016 21.769 511.889 22.8437 511.219Z" fill="white"/>
<path d="M25.3111 494.84C25.2027 494.684 25.2213 494.555 25.3669 494.454L26.8336 493.435C26.9688 493.341 27.0907 493.372 27.1991 493.528L33.9754 503.28C34.0549 503.394 34.1467 503.415 34.2507 503.343L39.5245 499.678C39.6701 499.577 39.7863 499.589 39.873 499.714L40.5886 500.743C40.6319 500.806 40.6473 500.872 40.6346 500.943C40.6251 500.996 40.5839 501.047 40.5111 501.098L33.4586 505.999C33.3546 506.071 33.2673 506.101 33.1968 506.088C33.1367 506.068 33.0777 506.017 33.0199 505.933L25.3111 494.84Z" fill="white"/>
<path d="M33.0806 489.265C32.9665 489.113 32.9804 488.983 33.1222 488.877L34.5505 487.805C34.6822 487.706 34.8051 487.732 34.9192 487.884L42.0483 497.381C42.132 497.493 42.2244 497.51 42.3257 497.434L47.4617 493.579C47.6035 493.472 47.72 493.48 47.8113 493.602L48.5641 494.604C48.6097 494.665 48.6275 494.731 48.6174 494.802C48.6098 494.855 48.5706 494.908 48.4997 494.962L41.6315 500.117C41.5302 500.194 41.4441 500.227 41.3732 500.216C41.3123 500.199 41.2515 500.149 41.1907 500.068L33.0806 489.265Z" fill="white"/>
<path d="M40.5429 483.53C40.4215 483.384 40.4289 483.254 40.5653 483.141L47.3746 477.482C47.4915 477.385 47.6026 477.399 47.7078 477.526L48.4583 478.459C48.5797 478.605 48.5674 478.739 48.4213 478.86L43.4531 482.989C43.307 483.111 43.2866 483.235 43.3918 483.361L45.8936 486.371C45.9988 486.498 46.1148 486.509 46.2414 486.403L49.8068 483.44C49.9334 483.335 50.0453 483.341 50.1424 483.458L50.9561 484.437C50.9966 484.485 51.0144 484.537 51.0094 484.59C51.0142 484.635 50.9777 484.691 50.8997 484.755L47.3198 487.731C47.2029 487.828 47.189 487.93 47.278 488.037L49.9012 491.193C49.9902 491.301 50.0835 491.314 50.1809 491.233L55.4267 486.873C55.563 486.76 55.6798 486.761 55.777 486.878L56.5785 487.843C56.6271 487.901 56.6529 487.962 56.6561 488.025C56.6512 488.079 56.6097 488.138 56.5318 488.203L49.6202 493.947C49.4546 494.084 49.3071 494.075 49.1775 493.92L40.5429 483.53Z" fill="white"/>
<path d="M56.6094 468.806C57.0988 468.347 57.6342 467.992 58.2156 467.741C58.7975 467.473 59.3897 467.308 59.992 467.246C60.5944 467.184 61.1711 467.225 61.7222 467.368C62.2738 467.493 62.7727 467.728 63.2189 468.074C63.3327 468.158 63.3977 468.227 63.4139 468.281C63.4215 468.326 63.3973 468.384 63.3413 468.454L62.1312 469.746C62.0844 469.808 62.0388 469.833 61.9943 469.823C61.9499 469.812 61.8924 469.788 61.8219 469.75C61.1816 469.309 60.5028 469.095 59.7855 469.108C59.0682 469.121 58.4095 469.41 57.8092 469.973C56.932 470.797 56.5654 471.767 56.7095 472.882C56.8628 473.989 57.581 475.226 58.8642 476.593C60.1301 477.941 61.306 478.731 62.392 478.962C63.4872 479.185 64.5011 478.858 65.4338 477.983C66.0525 477.402 66.4309 476.769 66.5689 476.083C66.7076 475.379 66.59 474.56 66.2162 473.625C66.1832 473.535 66.2308 473.447 66.359 473.361L67.5635 472.673C67.5999 472.656 67.6449 472.649 67.6986 472.651C67.7523 472.652 67.8133 472.708 67.8816 472.818C68.0423 473.118 68.1702 473.467 68.2653 473.865C68.3603 474.262 68.414 474.689 68.4265 475.147C68.4303 475.595 68.3709 476.059 68.2482 476.539C68.1256 477.019 67.9267 477.501 67.6516 477.985C67.377 478.452 67.0135 478.897 66.561 479.322C65.6284 480.198 64.6212 480.735 63.5396 480.934C62.4673 481.124 61.3782 480.991 60.2724 480.535C59.1666 480.079 58.1065 479.311 57.0921 478.231C56.069 477.141 55.3691 476.035 54.9922 474.912C54.6154 473.789 54.5643 472.707 54.839 471.667C55.1051 470.618 55.6952 469.665 56.6094 468.806Z" fill="white"/>
<path d="M63.2792 462.903C63.2152 462.842 63.1826 462.784 63.1814 462.731C63.1799 462.659 63.2141 462.587 63.2842 462.513L70.4985 454.979C70.5686 454.906 70.6351 454.873 70.698 454.881C70.7517 454.88 70.8106 454.91 70.8746 454.971L71.7529 455.812C71.8627 455.917 71.8562 456.034 71.7336 456.162L69.1317 458.879C69.0353 458.98 69.0283 459.07 69.1107 459.148L77.7286 467.401C77.8659 467.532 77.8775 467.658 77.7637 467.776L76.5284 469.066C76.4145 469.185 76.2935 469.183 76.1655 469.061L67.5612 460.822C67.4606 460.725 67.3621 460.727 67.2657 460.828L64.5061 463.71C64.3835 463.838 64.2673 463.849 64.1575 463.744L63.2792 462.903Z" fill="white"/>
<path d="M73.5782 451.353C73.6869 451.229 73.8126 451.23 73.9553 451.356L84.0546 460.242C84.1592 460.334 84.2096 460.42 84.2058 460.501C84.2104 460.573 84.1624 460.666 84.062 460.78L83.0329 461.95C82.9408 462.054 82.8638 462.113 82.8018 462.126C82.7387 462.121 82.6643 462.081 82.5787 462.005L72.4366 453.082C72.294 452.956 72.2812 452.827 72.3984 452.694L73.5782 451.353Z" fill="white"/>
<path d="M93.0331 450.266C92.2365 451.267 91.3323 451.956 90.3205 452.332C89.2987 452.701 88.2178 452.747 87.0776 452.471C85.9275 452.188 84.7577 451.572 83.5683 450.626C82.369 449.672 81.5008 448.657 80.9638 447.583C80.4269 446.508 80.2232 445.431 80.3529 444.353C80.4727 443.266 80.9269 442.228 81.7156 441.236C82.4963 440.255 83.3986 439.589 84.4224 439.238C85.4442 438.87 86.535 438.831 87.695 439.123C88.853 439.397 90.0317 440.011 91.231 440.965C92.4204 441.911 93.2826 442.913 93.8176 443.97C94.3426 445.019 94.5403 446.083 94.4106 447.161C94.2809 448.24 93.8217 449.274 93.0331 450.266ZM91.7217 449.198C92.5103 448.207 92.752 447.201 92.4466 446.181C92.1392 445.144 91.2421 444.033 89.7553 442.85C88.2487 441.651 86.9414 441.016 85.8334 440.944C84.7333 440.862 83.7968 441.306 83.0239 442.277C82.2353 443.269 82.0056 444.3 82.3348 445.371C82.6541 446.435 83.5622 447.562 85.0589 448.753C86.5357 449.928 87.8183 450.544 88.9064 450.6C89.9946 450.657 90.933 450.189 91.7217 449.198Z" fill="white"/>
<path d="M94.4781 424.038C94.5579 423.924 94.6653 423.914 94.8003 424.009L105.953 431.799C106.015 431.843 106.052 431.9 106.065 431.971C106.067 432.034 106.043 432.102 105.992 432.174L105.285 433.187C105.234 433.26 105.185 433.318 105.138 433.363C105.081 433.4 104.998 433.42 104.889 433.421L92.7561 433.404C92.6472 433.405 92.587 433.425 92.5756 433.464C92.5642 433.502 92.5897 433.543 92.652 433.587L100.736 439.234C100.881 439.335 100.896 439.469 100.78 439.635L100.007 440.741C99.8912 440.907 99.7604 440.94 99.6151 440.838L88.5096 433.08C88.3538 432.971 88.3303 432.839 88.4391 432.683L89.2879 431.468C89.3459 431.385 89.3998 431.33 89.4496 431.303C89.5066 431.266 89.5948 431.25 89.7141 431.256L101.419 431.321C101.546 431.317 101.619 431.29 101.637 431.242C101.653 431.175 101.624 431.117 101.551 431.066L93.7169 425.593C93.5715 425.491 93.5496 425.368 93.6511 425.222L94.4781 424.038Z" fill="white"/>
<path d="M125.96 357.804C126.005 357.672 126.105 357.632 126.261 357.685L139.142 362.061C139.214 362.086 139.266 362.13 139.297 362.195C139.317 362.255 139.313 362.327 139.284 362.411L138.887 363.58C138.858 363.664 138.828 363.734 138.796 363.79C138.751 363.842 138.677 363.883 138.573 363.915L126.915 367.278C126.81 367.31 126.758 367.346 126.758 367.386C126.758 367.426 126.794 367.458 126.866 367.482L136.202 370.655C136.37 370.712 136.422 370.836 136.356 371.028L135.923 372.305C135.857 372.497 135.741 372.565 135.573 372.508L122.746 368.15C122.566 368.088 122.507 367.968 122.568 367.788L123.045 366.385C123.077 366.289 123.114 366.221 123.154 366.181C123.198 366.129 123.279 366.09 123.395 366.062L134.655 362.865C134.775 362.825 134.838 362.78 134.842 362.728C134.839 362.659 134.795 362.611 134.711 362.583L125.662 359.508C125.494 359.451 125.438 359.339 125.496 359.171L125.96 357.804Z" fill="white"/>
<path d="M127.751 352.591C127.568 352.54 127.5 352.429 127.548 352.258L129.885 343.896C129.926 343.749 130.026 343.698 130.184 343.742L131.332 344.083C131.515 344.134 131.581 344.251 131.53 344.434L129.837 350.491C129.786 350.674 129.84 350.788 129.998 350.832L133.987 351.947C134.134 351.988 134.229 351.929 134.273 351.77L135.557 347.177C135.598 347.031 135.692 346.978 135.838 347.019L137.046 347.357C137.18 347.394 137.227 347.486 137.186 347.633L135.897 352.244C135.856 352.39 135.909 352.484 136.055 352.525L141.38 354.013C141.575 354.068 141.642 354.205 141.581 354.424L141.141 355.998C141.107 356.12 141.065 356.2 141.014 356.239C140.955 356.262 140.871 356.258 140.761 356.227L127.751 352.591Z" fill="white"/>
<path d="M130.692 341.473C130.605 341.453 130.548 341.42 130.519 341.375C130.481 341.314 130.474 341.234 130.496 341.136L132.822 330.967C132.845 330.868 132.885 330.806 132.943 330.78C132.988 330.752 133.054 330.747 133.141 330.767L134.326 331.038C134.474 331.072 134.529 331.176 134.489 331.349L133.65 335.016C133.619 335.152 133.659 335.232 133.77 335.258L145.402 337.918C145.587 337.961 145.661 338.062 145.625 338.223L145.226 339.964C145.19 340.124 145.085 340.185 144.912 340.145L133.299 337.489C133.163 337.458 133.08 337.51 133.049 337.646L132.159 341.535C132.119 341.708 132.025 341.778 131.877 341.744L130.692 341.473Z" fill="white"/>
<path d="M135.388 313.507C135.479 312.842 135.671 312.229 135.964 311.668C136.247 311.093 136.603 310.591 137.031 310.164C137.46 309.736 137.934 309.404 138.452 309.168C138.959 308.917 139.494 308.786 140.058 308.773C140.2 308.766 140.294 308.779 140.341 308.811C140.375 308.841 140.392 308.901 140.393 308.991L140.268 310.757C140.27 310.834 140.251 310.883 140.21 310.903C140.169 310.923 140.109 310.94 140.03 310.955C139.255 311.016 138.593 311.277 138.045 311.74C137.496 312.202 137.166 312.841 137.055 313.657C136.893 314.849 137.22 315.833 138.035 316.609C138.851 317.372 140.189 317.879 142.046 318.132C143.879 318.381 145.289 318.253 146.278 317.748C147.269 317.231 147.851 316.338 148.023 315.071C148.137 314.23 148.032 313.5 147.707 312.88C147.371 312.246 146.764 311.685 145.884 311.194C145.802 311.145 145.783 311.046 145.829 310.899L146.33 309.606C146.348 309.57 146.378 309.536 146.421 309.503C146.464 309.471 146.546 309.475 146.668 309.518C146.983 309.65 147.302 309.84 147.626 310.089C147.95 310.337 148.261 310.635 148.559 310.983C148.845 311.328 149.091 311.726 149.298 312.176C149.506 312.626 149.655 313.126 149.747 313.675C149.827 314.21 149.826 314.785 149.742 315.4C149.57 316.668 149.127 317.72 148.412 318.556C147.699 319.379 146.77 319.962 145.624 320.305C144.478 320.648 143.171 320.72 141.702 320.52C140.221 320.319 138.981 319.901 137.98 319.267C136.98 318.632 136.259 317.825 135.817 316.844C135.362 315.862 135.219 314.75 135.388 313.507Z" fill="white"/>
<path d="M151.342 299.317C151.246 300.593 150.886 301.671 150.262 302.552C149.624 303.431 148.757 304.078 147.659 304.491C146.548 304.903 145.235 305.053 143.719 304.94C142.191 304.825 140.902 304.475 139.854 303.889C138.805 303.302 138.031 302.527 137.532 301.562C137.02 300.597 136.811 299.482 136.905 298.219C136.999 296.969 137.37 295.91 138.019 295.044C138.656 294.165 139.536 293.519 140.66 293.108C141.771 292.683 143.091 292.527 144.619 292.642C146.135 292.755 147.411 293.098 148.448 293.671C149.472 294.243 150.234 295.011 150.734 295.975C151.233 296.94 151.436 298.054 151.342 299.317ZM149.657 299.172C149.751 297.909 149.385 296.942 148.559 296.27C147.721 295.585 146.355 295.172 144.46 295.03C142.54 294.887 141.102 295.097 140.145 295.661C139.189 296.212 138.665 297.106 138.573 298.344C138.478 299.607 138.868 300.589 139.743 301.289C140.606 301.989 141.99 302.41 143.898 302.552C145.78 302.693 147.187 302.481 148.118 301.915C149.049 301.35 149.562 300.435 149.657 299.172Z" fill="white"/>
<path d="M137.903 287.501C137.713 287.496 137.62 287.405 137.625 287.228L137.67 285.442C137.674 285.278 137.771 285.198 137.961 285.203L149.832 285.501C149.971 285.504 150.043 285.443 150.046 285.316L150.207 278.896C150.211 278.719 150.29 278.632 150.442 278.636L151.695 278.667C151.771 278.669 151.834 278.696 151.883 278.748C151.92 278.787 151.938 278.851 151.935 278.939L151.72 287.525C151.717 287.651 151.689 287.739 151.637 287.789C151.586 287.825 151.509 287.843 151.408 287.84L137.903 287.501Z" fill="white"/>
<path d="M137.998 277.939C137.808 277.941 137.712 277.854 137.71 277.676L137.689 275.89C137.687 275.726 137.781 275.642 137.971 275.64L149.846 275.503C149.985 275.501 150.054 275.437 150.052 275.31L149.978 268.889C149.976 268.711 150.051 268.622 150.203 268.62L151.457 268.606C151.533 268.605 151.597 268.629 151.648 268.68C151.686 268.717 151.706 268.78 151.707 268.869L151.806 277.456C151.808 277.583 151.783 277.672 151.733 277.723C151.683 277.762 151.607 277.782 151.506 277.783L137.998 277.939Z" fill="white"/>
<path d="M137.784 268.53C137.595 268.541 137.494 268.459 137.484 268.282L136.943 259.444C136.934 259.292 137.012 259.212 137.176 259.202L138.372 259.147C138.562 259.136 138.662 259.225 138.674 259.415L139.068 265.862C139.079 266.052 139.167 266.142 139.332 266.132L143.239 265.893C143.403 265.883 143.48 265.796 143.47 265.632L143.187 261.004C143.177 260.84 143.248 260.753 143.4 260.744L144.67 260.666C144.734 260.662 144.785 260.678 144.825 260.714C144.865 260.737 144.888 260.799 144.894 260.9L145.178 265.546C145.187 265.698 145.261 265.769 145.4 265.761L149.497 265.511C149.636 265.502 149.702 265.435 149.694 265.308L149.278 258.5C149.267 258.323 149.337 258.23 149.489 258.22L150.741 258.144C150.817 258.139 150.881 258.154 150.934 258.189C150.974 258.225 150.997 258.293 151.004 258.394L151.552 267.365C151.565 267.58 151.47 267.693 151.268 267.706L137.784 268.53Z" fill="white"/>
<path d="M135.404 246.868C135.323 246.202 135.353 245.56 135.494 244.943C135.622 244.315 135.839 243.739 136.145 243.217C136.451 242.695 136.825 242.254 137.266 241.894C137.692 241.522 138.177 241.259 138.72 241.103C138.855 241.061 138.949 241.05 139.002 241.069C139.043 241.089 139.075 241.143 139.099 241.229L139.426 242.97C139.448 243.043 139.441 243.095 139.407 243.125C139.372 243.155 139.319 243.187 139.246 243.221C138.512 243.477 137.938 243.898 137.525 244.484C137.111 245.071 136.955 245.773 137.054 246.59C137.2 247.784 137.766 248.653 138.751 249.196C139.734 249.727 141.157 249.879 143.018 249.651C144.853 249.427 146.185 248.946 147.014 248.206C147.841 247.455 148.177 246.444 148.022 245.174C147.919 244.331 147.632 243.652 147.16 243.135C146.675 242.607 145.944 242.218 144.969 241.967C144.877 241.94 144.834 241.85 144.841 241.696L144.998 240.318C145.006 240.278 145.026 240.238 145.059 240.195C145.092 240.153 145.173 240.137 145.302 240.146C145.64 240.194 145.997 240.298 146.373 240.456C146.75 240.614 147.127 240.823 147.503 241.083C147.867 241.345 148.206 241.668 148.521 242.05C148.835 242.433 149.107 242.878 149.335 243.386C149.548 243.883 149.693 244.44 149.768 245.056C149.923 246.326 149.761 247.456 149.283 248.446C148.802 249.423 148.051 250.223 147.03 250.846C146.009 251.468 144.762 251.869 143.291 252.049C141.808 252.23 140.501 252.141 139.373 251.781C138.244 251.421 137.342 250.823 136.665 249.987C135.976 249.152 135.556 248.113 135.404 246.868Z" fill="white"/>
<path d="M134.584 237.998C134.496 238.013 134.431 238.006 134.387 237.975C134.328 237.934 134.29 237.863 134.272 237.764L132.459 227.491C132.442 227.392 132.455 227.319 132.498 227.272C132.529 227.228 132.588 227.199 132.675 227.183L133.873 226.972C134.022 226.945 134.113 227.02 134.143 227.194L134.797 230.899C134.821 231.036 134.89 231.095 135.002 231.075L146.752 229.001C146.939 228.968 147.047 229.033 147.076 229.195L147.386 230.954C147.415 231.116 147.342 231.212 147.167 231.243L135.436 233.314C135.298 233.338 135.242 233.419 135.266 233.556L135.959 237.485C135.99 237.66 135.931 237.76 135.781 237.787L134.584 237.998Z" fill="white"/>
<path d="M131.355 222.865C131.32 222.704 131.395 222.603 131.581 222.562L144.718 219.668C144.854 219.638 144.953 219.648 145.016 219.699C145.077 219.738 145.123 219.831 145.156 219.98L145.491 221.501C145.521 221.637 145.523 221.734 145.497 221.792C145.455 221.84 145.379 221.876 145.268 221.901L132.075 224.807C131.89 224.848 131.778 224.782 131.74 224.609L131.355 222.865Z" fill="white"/>
<path d="M141.977 206.528C142.313 207.763 142.335 208.899 142.04 209.938C141.734 210.98 141.132 211.879 140.236 212.636C139.327 213.396 138.139 213.976 136.673 214.376C135.194 214.779 133.863 214.88 132.679 214.678C131.494 214.476 130.506 214.004 129.712 213.262C128.907 212.523 128.337 211.542 128.004 210.32C127.674 209.111 127.67 207.989 127.992 206.956C128.299 205.914 128.912 205.011 129.833 204.248C130.739 203.476 131.931 202.888 133.409 202.485C134.876 202.085 136.193 201.981 137.362 202.174C138.519 202.371 139.493 202.84 140.287 203.582C141.08 204.324 141.643 205.306 141.977 206.528ZM140.34 206.955C140.007 205.733 139.339 204.944 138.335 204.587C137.317 204.222 135.891 204.289 134.058 204.789C132.2 205.296 130.915 205.975 130.202 206.826C129.485 207.665 129.29 208.683 129.617 209.88C129.95 211.102 130.647 211.897 131.705 212.265C132.752 212.636 134.198 212.57 136.043 212.066C137.864 211.57 139.119 210.899 139.807 210.055C140.496 209.21 140.674 208.177 140.34 206.955Z" fill="white"/>
<path d="M121.676 189.861C121.631 189.729 121.686 189.636 121.842 189.583L134.718 185.192C134.79 185.168 134.858 185.171 134.923 185.203C134.975 185.239 135.015 185.299 135.044 185.383L135.443 186.551C135.471 186.635 135.49 186.709 135.498 186.773C135.495 186.841 135.461 186.92 135.398 187.008L128.213 196.786C128.149 196.874 128.13 196.934 128.154 196.966C128.178 196.998 128.226 197.002 128.298 196.977L137.631 193.795C137.799 193.737 137.916 193.805 137.981 193.996L138.417 195.273C138.482 195.465 138.431 195.59 138.263 195.647L125.441 200.019C125.261 200.081 125.141 200.021 125.079 199.841L124.601 198.439C124.568 198.343 124.556 198.267 124.563 198.211C124.567 198.143 124.606 198.062 124.682 197.97L131.653 188.566C131.724 188.462 131.746 188.387 131.718 188.344C131.673 188.292 131.609 188.28 131.525 188.309L122.48 191.393C122.312 191.451 122.199 191.395 122.142 191.228L121.676 189.861Z" fill="white"/>
<path d="M81.0426 117.735C80.9585 117.624 80.9821 117.518 81.1135 117.419L91.9635 109.212C92.0241 109.167 92.0899 109.149 92.1609 109.158C92.2217 109.176 92.2789 109.22 92.3324 109.291L93.0774 110.276C93.1309 110.346 93.1717 110.411 93.1998 110.469C93.2178 110.535 93.2105 110.62 93.178 110.724L89.421 122.261C89.3885 122.365 89.3887 122.428 89.4217 122.451C89.4548 122.473 89.5016 122.462 89.5622 122.416L97.427 116.467C97.5684 116.36 97.7002 116.388 97.8225 116.549L98.6363 117.625C98.7585 117.787 98.7489 117.921 98.6075 118.028L87.8029 126.2C87.6514 126.315 87.5183 126.296 87.4037 126.145L86.5097 124.963C86.4486 124.882 86.4128 124.814 86.4025 124.758C86.3845 124.692 86.3968 124.604 86.4394 124.492L90.1108 113.377C90.1457 113.255 90.1429 113.178 90.1022 113.145C90.0438 113.11 89.9793 113.119 89.9085 113.173L82.2862 118.938C82.1448 119.045 82.0206 119.028 81.9136 118.886L81.0426 117.735Z" fill="white"/>
<path d="M77.7331 113.328C77.5881 113.451 77.4583 113.445 77.3437 113.309L71.7331 106.682C71.6349 106.566 71.6486 106.455 71.7743 106.349L72.7001 105.59C72.8451 105.467 72.979 105.478 73.1018 105.623L77.1655 110.423C77.2882 110.568 77.4125 110.587 77.5381 110.481L80.6993 107.804C80.8153 107.706 80.8201 107.594 80.7137 107.469L77.6322 103.829C77.534 103.713 77.5429 103.606 77.6589 103.507L78.6159 102.697C78.7223 102.607 78.8245 102.62 78.9228 102.736L82.0166 106.39C82.1148 106.506 82.2219 106.515 82.3379 106.417L86.5577 102.844C86.7123 102.714 86.8633 102.735 87.0107 102.909L88.0665 104.156C88.1483 104.253 88.1911 104.333 88.1949 104.396C88.1807 104.458 88.1302 104.525 88.0432 104.599L77.7331 113.328Z" fill="white"/>
<path d="M70.1806 104.655C70.1158 104.716 70.0565 104.745 70.0028 104.743C69.9312 104.741 69.8608 104.702 69.7917 104.628L62.6801 96.9973C62.611 96.9232 62.582 96.8549 62.5932 96.7926C62.5951 96.7389 62.6285 96.6818 62.6933 96.6214L63.5829 95.7923C63.6941 95.6887 63.8101 95.7017 63.931 95.8315L66.4959 98.5836C66.5909 98.6855 66.6801 98.6976 66.7635 98.6199L75.4924 90.4849C75.6314 90.3553 75.757 90.3508 75.8693 90.4713L77.087 91.7778C77.1992 91.8983 77.1905 92.019 77.0608 92.1399L68.3458 100.262C68.2438 100.357 68.2404 100.455 68.3353 100.557L71.0557 103.476C71.1766 103.606 71.1814 103.723 71.0702 103.826L70.1806 104.655Z" fill="white"/>
<path d="M49.6667 85.076C49.1668 84.6279 48.767 84.125 48.4674 83.5673C48.15 83.0106 47.9346 82.4348 47.8214 81.84C47.7081 81.2452 47.699 80.6671 47.7939 80.1058C47.8709 79.5454 48.0624 79.0282 48.3683 78.554C48.4425 78.4333 48.5059 78.3626 48.5586 78.3417C48.6028 78.3303 48.6621 78.3495 48.7366 78.3993L50.1285 79.4938C50.1935 79.5351 50.2228 79.5783 50.2163 79.6235C50.2098 79.6687 50.1906 79.7281 50.1588 79.8016C49.7741 80.4774 49.6192 81.1721 49.6941 81.8856C49.769 82.5991 50.113 83.2307 50.7261 83.7802C51.6221 84.5834 52.6198 84.8652 53.719 84.6257C54.8087 84.3778 55.9792 83.5559 57.2305 82.1599C58.4649 80.7828 59.1506 79.5433 59.2877 78.4415C59.4154 77.3312 59.0029 76.3491 58.0503 75.4952C57.4183 74.9287 56.7548 74.6062 56.0598 74.5276C55.347 74.4499 54.5409 74.6375 53.6418 75.0903C53.5543 75.131 53.4624 75.0911 53.3661 74.9708L52.5772 73.8299C52.5574 73.7951 52.546 73.7509 52.543 73.6972C52.5401 73.6436 52.5903 73.578 52.6937 73.5006C52.9796 73.3146 53.3163 73.1571 53.704 73.0283C54.0916 72.8995 54.5128 72.8092 54.9674 72.7574C55.4136 72.7151 55.8811 72.7344 56.3699 72.8153C56.8587 72.8962 57.3561 73.0529 57.8622 73.2854C58.3504 73.5188 58.8255 73.8427 59.2877 74.2569C60.2404 75.1109 60.8623 76.068 61.1535 77.1285C61.4352 78.1806 61.3965 79.277 61.0373 80.4179C60.678 81.5588 60.0038 82.6811 59.0147 83.7846C58.017 84.8976 56.975 85.6901 55.8885 86.1621C54.802 86.6341 53.729 86.778 52.6694 86.5937C51.6014 86.4189 50.6005 85.913 49.6667 85.076Z" fill="white"/>
<path d="M46.8723 63.9086C47.8748 64.7034 48.5653 65.6063 48.9436 66.6175C49.3141 67.6386 49.3625 68.7195 49.0886 69.8601C48.8068 71.0107 48.1938 72.1816 47.2496 73.3727C46.2974 74.5738 45.2845 75.4437 44.2107 75.9826C43.137 76.5215 42.0607 76.727 40.982 76.5993C39.8955 76.4814 38.8559 76.0291 37.8633 75.2422C36.8806 74.4632 36.2129 73.5621 35.8602 72.5389C35.4897 71.5178 35.4493 70.427 35.7389 69.2665C36.0107 68.108 36.6227 66.9283 37.5748 65.7272C38.5191 64.5361 39.5192 63.6722 40.5752 63.1353C41.6233 62.6084 42.6867 62.4089 43.7654 62.5366C44.8441 62.6644 45.8797 63.1217 46.8723 63.9086ZM45.8069 65.2219C44.8143 64.435 43.8083 64.1952 42.7889 64.5024C41.7517 64.8116 40.643 65.7107 39.4626 67.1996C38.2666 68.7083 37.6334 70.0168 37.5631 71.1249C37.483 72.2251 37.9292 73.1608 38.902 73.932C39.8946 74.7189 40.9262 74.9467 41.997 74.6156C43.0598 74.2943 44.1854 73.3843 45.3736 71.8855C46.546 70.4065 47.1595 69.1229 47.214 68.0346C47.2686 66.9464 46.7995 66.0088 45.8069 65.2219Z" fill="white"/>
<path d="M29.5517 68.402C29.4411 68.5565 29.3138 68.5822 29.1695 68.479L27.7168 67.4401C27.5828 67.3443 27.5711 67.2192 27.6816 67.0646L34.5894 57.4055C34.6704 57.2921 34.6594 57.1986 34.5564 57.125L29.3327 53.3893C29.1885 53.2861 29.1606 53.1727 29.249 53.0491L29.9785 52.0291C30.0227 51.9672 30.0801 51.9305 30.1508 51.9187C30.2038 51.9099 30.2664 51.9313 30.3385 51.9829L37.324 56.9786C37.427 57.0522 37.4844 57.1244 37.4962 57.1951C37.4976 57.2584 37.4688 57.3313 37.4099 57.4137L29.5517 68.402Z" fill="white"/>
<path d="M21.6895 62.9583C21.5848 63.1167 21.4584 63.1471 21.3105 63.0493L19.8206 62.0643C19.6833 61.9735 19.667 61.8488 19.7718 61.6903L26.3209 51.7845C26.3977 51.6683 26.3833 51.5753 26.2776 51.5054L20.9206 47.9637C20.7727 47.8659 20.7406 47.7536 20.8244 47.6268L21.516 46.5807C21.5579 46.5173 21.614 46.4785 21.6842 46.4641C21.7369 46.4534 21.8002 46.4725 21.8741 46.5214L29.038 51.2577C29.1437 51.3275 29.2037 51.3976 29.218 51.4678C29.2217 51.531 29.1957 51.6049 29.1398 51.6894L21.6895 62.9583Z" fill="white"/>
<path d="M13.7818 57.8559C13.685 58.0194 13.5603 58.056 13.4077 57.9656L5.78944 53.4539C5.65865 53.3765 5.63521 53.2669 5.71912 53.1252L6.34542 52.105C6.44223 51.9415 6.57238 51.9081 6.73587 52.005L12.2943 55.2967C12.4577 55.3936 12.5814 55.3711 12.6653 55.2294L14.6598 51.8617C14.7437 51.72 14.7148 51.6072 14.5731 51.5233L10.5841 49.161C10.4425 49.0771 10.4103 48.9697 10.4878 48.8389L11.1365 47.7436C11.1687 47.6891 11.2109 47.6552 11.263 47.6419C11.3041 47.6221 11.3683 47.638 11.4555 47.6896L15.4608 50.0617C15.5916 50.1391 15.6925 50.1179 15.7635 49.998L17.8547 46.4668C17.9257 46.3469 17.9067 46.2547 17.7978 46.1901L11.9287 42.7144C11.7762 42.6241 11.7386 42.5135 11.8161 42.3827L12.455 41.3037C12.4938 41.2383 12.5424 41.1935 12.6009 41.1693C12.653 41.1559 12.7226 41.1751 12.8098 41.2267L20.5425 45.8062C20.7278 45.9159 20.7688 46.058 20.6655 46.2323L13.7818 57.8559Z" fill="white"/>
<path d="M-5.48467 47.6712C-6.08193 47.3646 -6.59622 46.9796 -7.02754 46.5162C-7.47591 46.0583 -7.83034 45.556 -8.09083 45.0094C-8.35132 44.4629 -8.5069 43.906 -8.55757 43.339C-8.6253 42.7775 -8.57135 42.2285 -8.39575 41.6922C-8.35466 41.5567 -8.31128 41.4721 -8.26561 41.4386C-8.22572 41.4164 -8.16344 41.4199 -8.07877 41.4491L-6.45469 42.1545C-6.38129 42.178 -6.342 42.2124 -6.33681 42.2578C-6.33163 42.3031 -6.33511 42.3654 -6.34728 42.4446C-6.54781 43.1959 -6.52132 43.9072 -6.26781 44.5783C-6.0143 45.2495 -5.5213 45.773 -4.78881 46.149C-3.71825 46.6984 -2.68176 46.7178 -1.67933 46.2072C-0.688169 45.6908 0.235417 44.5987 1.09143 42.9309C1.93587 41.2856 2.28459 39.9127 2.13758 38.8122C1.97929 37.7058 1.33107 36.8605 0.192892 36.2764C-0.562134 35.8889 -1.28574 35.7453 -1.97793 35.8456C-2.68718 35.9514 -3.4192 36.3374 -4.17401 37.0036C-4.24831 37.0651 -4.34728 37.0499 -4.47094 36.958L-5.52361 36.0546C-5.55163 36.026 -5.57387 35.9861 -5.59033 35.935C-5.60678 35.8838 -5.57482 35.8077 -5.49445 35.7065C-5.26518 35.454 -4.97942 35.2163 -4.63717 34.9933C-4.29492 34.7703 -3.91048 34.5761 -3.48386 34.4106C-3.06302 34.2564 -2.60593 34.1565 -2.11259 34.1107C-1.61925 34.0649 -1.09834 34.0902 -0.549847 34.1866C-0.0184098 34.2886 0.5234 34.4812 1.07558 34.7646C2.21376 35.3488 3.05824 36.1168 3.60904 37.0687C4.14857 38.0148 4.38938 39.0852 4.33146 40.2799C4.27354 41.4746 3.90622 42.7312 3.22951 44.0496C2.54701 45.3794 1.7402 46.4104 0.809079 47.1427C-0.122042 47.875 -1.12343 48.2865 -2.19507 48.3772C-3.2725 48.4791 -4.36903 48.2438 -5.48467 47.6712Z" fill="white"/>
</g>
<g opacity="0.7">
<path d="M-5.81577 469.567C-5.96538 469.663 -6.08439 469.641 -6.17278 469.502L-11.3134 461.423C-11.4018 461.284 -11.3872 461.177 -11.2696 461.102L-10.3078 460.49C-10.1903 460.415 -10.0941 460.437 -10.0193 460.554L-9.4277 461.484C-9.39371 461.537 -9.36262 461.563 -9.33445 461.56C-9.30627 461.557 -9.27907 461.517 -9.25283 461.44C-9.07696 460.938 -8.9006 460.496 -8.72377 460.113C-8.54304 459.713 -8.32298 459.362 -8.06357 459.062C-7.81096 458.751 -7.50298 458.48 -7.13963 458.249C-6.30606 457.719 -5.5274 457.539 -4.80365 457.709C-4.06921 457.872 -3.47421 458.311 -3.01863 459.027L0.785809 465.007C0.894604 465.178 0.868851 465.314 0.708548 465.416L-0.189146 465.987C-0.263954 466.035 -0.327588 466.053 -0.380048 466.041C-0.439307 466.019 -0.489336 465.976 -0.530134 465.912L-4.17137 460.189C-4.50456 459.665 -4.89653 459.344 -5.3473 459.226C-5.80486 459.096 -6.32219 459.215 -6.89928 459.582C-7.20919 459.78 -7.46908 460.02 -7.67894 460.304C-7.88492 460.57 -8.06564 460.888 -8.2211 461.257C-8.38336 461.615 -8.54369 462.047 -8.70207 462.554L-4.84664 468.613C-4.74465 468.773 -4.7738 468.905 -4.9341 469.007L-5.81577 469.567Z" fill="white"/>
<path d="M3.82046 450.902C3.87195 450.865 3.91905 450.855 3.96178 450.871C4.0148 450.88 4.05606 450.905 4.08557 450.946L4.56137 451.61C4.63514 451.713 4.62053 451.801 4.51756 451.875L2.75678 453.136C2.6744 453.195 2.66272 453.266 2.72174 453.349L7.64572 460.222C7.74899 460.366 7.73885 460.482 7.61528 460.571L6.67311 461.246C6.55984 461.327 6.45526 461.301 6.35936 461.167L1.41325 454.263C1.36161 454.19 1.29975 454.18 1.22768 454.232L-0.285982 455.316C-0.388952 455.39 -0.477321 455.375 -0.551088 455.272L-1.02689 454.608C-1.0564 454.567 -1.07192 454.524 -1.07345 454.478C-1.06469 454.425 -1.02942 454.376 -0.967639 454.332L0.499682 453.281C0.592355 453.215 0.601808 453.13 0.52804 453.027L-0.279714 451.899C-0.74445 451.251 -0.93893 450.642 -0.863156 450.074C-0.787382 449.505 -0.42514 448.989 0.22357 448.524L1.50555 447.605C1.63941 447.509 1.7506 447.523 1.83912 447.647L2.27066 448.249C2.30754 448.301 2.3216 448.353 2.31284 448.406C2.307 448.441 2.27319 448.481 2.21141 448.525L1.13023 449.3C0.811019 449.529 0.653104 449.798 0.656481 450.107C0.662779 450.398 0.787644 450.714 1.03108 451.054L1.80564 452.135C1.87203 452.228 1.95156 452.241 2.04423 452.174L3.82046 450.902Z" fill="white"/>
<path d="M10.6819 447.103C10.6024 447.166 10.5941 447.237 10.657 447.316L14.3939 452.04C14.7632 452.507 15.0903 452.757 15.3749 452.79C15.6596 452.823 15.9609 452.714 16.2788 452.463L17.307 451.649C17.3566 451.61 17.4082 451.593 17.4615 451.6C17.507 451.596 17.5534 451.624 17.6005 451.683L17.9864 452.202C18.065 452.301 18.0565 452.413 17.9609 452.537C17.8773 452.635 17.745 452.764 17.5641 452.924C17.3932 453.075 17.2222 453.226 17.0513 453.378C16.8824 453.511 16.7383 453.625 16.6191 453.72C15.9933 454.215 15.4224 454.432 14.9064 454.372C14.3825 454.302 13.8691 453.949 13.3662 453.313L9.42887 448.336C9.35028 448.237 9.26132 448.227 9.16198 448.305L7.96991 449.248C7.86064 449.335 7.76278 449.323 7.67633 449.214L7.18122 448.588C7.10263 448.489 7.11301 448.4 7.21235 448.321L8.47892 447.319C8.54846 447.264 8.55179 447.197 8.48892 447.118L6.77849 444.619C6.68625 444.482 6.68981 444.374 6.78915 444.295L7.53419 443.706C7.6534 443.612 7.76801 443.634 7.87804 443.773L9.74059 446.127C9.80346 446.207 9.87463 446.215 9.9541 446.152L11.8316 444.667C11.9409 444.58 12.0309 444.582 12.1016 444.671L12.6085 445.312C12.695 445.421 12.6835 445.519 12.5743 445.606L10.6819 447.103Z" fill="white"/>
<path d="M24.4632 433.195C24.941 432.742 25.4332 432.423 25.9398 432.24C26.4469 432.038 26.9555 431.948 27.4656 431.971C27.9762 431.975 28.467 432.051 28.938 432.198C29.0977 432.256 29.1401 432.346 29.0652 432.47L28.4771 433.368C28.439 433.457 28.3531 433.486 28.2195 433.455C27.7829 433.363 27.3942 433.322 27.0535 433.331C26.722 433.331 26.4159 433.386 26.1353 433.495C25.846 433.595 25.5818 433.758 25.3429 433.985C24.8743 434.429 24.5741 434.941 24.4424 435.52C24.3112 436.081 24.3583 436.674 24.5838 437.298C24.8093 437.922 25.2098 438.537 25.7852 439.144C26.3693 439.759 26.9671 440.196 27.5785 440.454C28.1991 440.703 28.793 440.777 29.3602 440.676C29.9365 440.565 30.4636 440.284 30.9414 439.83C31.3825 439.412 31.6592 438.94 31.7716 438.414C31.8839 437.888 31.8729 437.288 31.7383 436.612C31.7223 436.54 31.7235 436.495 31.7418 436.478C31.7607 436.443 31.8018 436.412 31.8652 436.387L32.6671 436.045C32.7576 436.012 32.8326 436.054 32.8922 436.172C32.9811 436.542 33.0382 436.924 33.0637 437.319C33.0891 437.714 33.0563 438.112 32.9651 438.513C32.8831 438.905 32.7385 439.295 32.5311 439.684C32.3151 440.063 32.0233 440.428 31.6557 440.776C30.9757 441.421 30.2256 441.836 29.4054 442.021C28.5857 442.187 27.7629 442.13 26.9371 441.848C26.1025 441.558 25.3321 441.04 24.6259 440.296C23.911 439.542 23.4304 438.741 23.1839 437.893C22.9466 437.035 22.9327 436.201 23.1421 435.392C23.352 434.564 23.7924 433.832 24.4632 433.195Z" fill="white"/>
<path d="M40.8816 431.385C40.2332 432.08 39.5009 432.548 38.6847 432.791C37.8679 433.017 37.0389 433.014 36.1975 432.782C35.3555 432.533 34.5642 432.063 33.8236 431.372C33.0552 430.654 32.5224 429.879 32.225 429.047C31.9271 428.197 31.8625 427.356 32.0313 426.526C32.2 425.696 32.6086 424.934 33.257 424.239C33.914 423.536 34.6513 423.08 35.4687 422.873C36.2855 422.648 37.1195 422.664 37.9707 422.922C38.8213 423.162 39.6216 423.632 40.3715 424.332C41.1121 425.024 41.631 425.786 41.9284 426.618C42.2164 427.441 42.2761 428.268 42.1073 429.099C41.9472 429.92 41.5386 430.682 40.8816 431.385ZM40.0327 430.541C40.4822 430.059 40.7512 429.539 40.8397 428.981C40.9188 428.413 40.823 427.839 40.5522 427.256C40.2807 426.656 39.8395 426.071 39.2284 425.5C38.6174 424.93 38.0079 424.534 37.3999 424.313C36.7826 424.083 36.1937 424.027 35.6331 424.145C35.0726 424.262 34.5675 424.562 34.118 425.043C33.6771 425.515 33.4127 426.04 33.3249 426.616C33.2371 427.193 33.3246 427.786 33.5874 428.395C33.8496 428.987 34.2862 429.568 34.8972 430.138C35.4989 430.7 36.1084 431.096 36.7257 431.326C37.3516 431.547 37.9492 431.593 38.5184 431.466C39.0784 431.331 39.5831 431.022 40.0327 430.541Z" fill="white"/>
<path d="M47.9367 422.6C48.0335 422.682 48.0848 422.759 48.0908 422.83C48.0871 422.893 48.0444 422.973 47.9626 423.07L47.3249 423.825C47.2022 423.97 47.0732 423.985 46.9377 423.87L36.5891 415.099C36.4537 414.984 36.4351 414.869 36.5332 414.753L37.2691 413.882C37.3672 413.766 37.4791 413.761 37.6049 413.868L47.9367 422.6Z" fill="white"/>
<path d="M53.0709 416.233C53.1705 416.311 53.2247 416.386 53.2333 416.457C53.2319 416.52 53.1921 416.602 53.114 416.702L52.5043 417.479C52.387 417.629 52.2586 417.649 52.1191 417.539L41.456 409.153C41.3164 409.043 41.2936 408.929 41.3874 408.809L42.0909 407.912C42.1847 407.792 42.2964 407.783 42.4259 407.885L53.0709 416.233Z" fill="white"/>
<path d="M54.3536 407.725C54.8604 408.084 55.4098 408.294 56.0021 408.356C56.5913 408.4 57.1526 408.308 57.686 408.081C58.2268 407.843 58.6764 407.47 59.0348 406.963C59.4005 406.446 59.6225 405.913 59.7009 405.363C59.769 404.806 59.6883 404.23 59.4587 403.633C59.4466 403.562 59.4479 403.517 59.4625 403.496C59.4741 403.457 59.5085 403.42 59.5658 403.383L60.3523 402.962C60.4699 402.905 60.5496 402.946 60.5914 403.084C60.8076 403.656 60.9295 404.208 60.957 404.739C60.9815 405.253 60.9095 405.76 60.741 406.262C60.5726 406.763 60.3055 407.272 59.9398 407.79C59.3986 408.555 58.7437 409.108 57.9752 409.449C57.2066 409.789 56.3863 409.907 55.5141 409.803C54.6419 409.698 53.7921 409.353 52.9648 408.768C52.0651 408.131 51.4153 407.416 51.0155 406.621C50.6126 405.809 50.4439 404.983 50.5091 404.145C50.5817 403.297 50.8777 402.505 51.397 401.771C51.9309 401.016 52.5608 400.476 53.2867 400.152C54.0126 399.828 54.8007 399.733 55.6509 399.869C56.5012 400.005 57.371 400.388 58.2604 401.017C58.3328 401.068 58.3979 401.129 58.4556 401.201C58.5207 401.263 58.5094 401.356 58.4216 401.48L54.2197 407.421C54.1904 407.462 54.1907 407.517 54.2204 407.584C54.2472 407.634 54.2916 407.681 54.3536 407.725ZM56.6249 402.21C56.7054 402.097 56.7462 402.017 56.7475 401.971C56.7384 401.918 56.6873 401.859 56.5942 401.793C56.1495 401.479 55.6664 401.284 55.1448 401.21C54.6202 401.118 54.1109 401.169 53.6171 401.363C53.1305 401.546 52.7081 401.891 52.3497 402.398C51.9547 402.957 51.7564 403.522 51.7546 404.095C51.7426 404.661 51.879 405.192 52.1641 405.688C52.4491 406.184 52.8243 406.597 53.2897 406.926L56.6249 402.21Z" fill="white"/>
<path d="M58.6676 390.686C59.0147 390.126 59.4099 389.693 59.8533 389.387C60.2925 389.063 60.7617 388.847 61.2608 388.739C61.7558 388.614 62.2497 388.562 62.7426 388.585C62.9118 388.6 62.9759 388.677 62.9347 388.816L62.5939 389.834C62.5795 389.929 62.5038 389.979 62.3668 389.984C61.9211 390.006 61.5347 390.064 61.2074 390.159C60.8868 390.244 60.6046 390.374 60.3609 390.551C60.1064 390.721 59.8923 390.946 59.7188 391.226C59.3783 391.775 59.2178 392.346 59.2374 392.939C59.2528 393.515 59.4488 394.077 59.8253 394.623C60.2019 395.17 60.7454 395.663 61.4558 396.104C62.1771 396.551 62.8662 396.822 63.5231 396.916C64.1866 397 64.7798 396.92 65.3026 396.678C65.8321 396.425 66.2704 396.019 66.6175 395.459C66.9379 394.942 67.0858 394.416 67.0611 393.879C67.0364 393.342 66.8732 392.764 66.5716 392.144C66.5378 392.079 66.5276 392.035 66.5409 392.014C66.5502 391.975 66.5823 391.935 66.6372 391.894L67.3261 391.36C67.4052 391.305 67.4885 391.327 67.5761 391.426C67.7559 391.761 67.9082 392.116 68.033 392.492C68.1578 392.867 68.227 393.26 68.2406 393.671C68.2608 394.071 68.2199 394.486 68.118 394.914C68.0054 395.336 67.8156 395.762 67.5485 396.193C67.0545 396.99 66.4343 397.581 65.6878 397.968C64.9372 398.337 64.1267 398.49 63.2565 398.428C62.3754 398.358 61.4989 398.053 60.627 397.512C59.7443 396.965 59.076 396.312 58.6222 395.554C58.1751 394.785 57.9501 393.982 57.9471 393.145C57.9401 392.291 58.1802 391.472 58.6676 390.686Z" fill="white"/>
<path d="M65.387 381.816C65.3382 381.905 65.3583 381.973 65.4471 382.022L70.7272 384.92C71.2491 385.206 71.6476 385.31 71.9228 385.229C72.198 385.149 72.4331 384.932 72.6281 384.576L73.2588 383.427C73.2893 383.371 73.3303 383.336 73.3819 383.321C73.4224 383.3 73.476 383.308 73.5426 383.344L74.0998 383.672C74.2108 383.733 74.2464 383.839 74.2066 383.99C74.1679 384.114 74.0962 384.284 73.9915 384.501C73.8929 384.707 73.7943 384.913 73.6957 385.119C73.5921 385.308 73.5038 385.469 73.4306 385.602C73.0467 386.301 72.6053 386.724 72.1066 386.869C71.5967 387.008 70.9865 386.883 70.2758 386.493L64.7125 383.44C64.6015 383.379 64.5155 383.404 64.4546 383.515L63.7233 384.847C63.6562 384.969 63.5616 384.997 63.4395 384.93L62.7399 384.546C62.6289 384.485 62.6038 384.399 62.6648 384.288L63.4418 382.872C63.4844 382.795 63.4613 382.731 63.3725 382.683L60.8247 381.046C60.6864 380.956 60.6478 380.855 60.7087 380.744L61.1658 379.911C61.2389 379.778 61.3532 379.754 61.5087 379.839L64.1404 381.283C64.2292 381.332 64.298 381.312 64.3468 381.223L65.4986 379.125C65.5656 379.002 65.6491 378.969 65.749 379.024L66.4653 379.417C66.5874 379.484 66.615 379.578 66.5479 379.7L65.387 381.816Z" fill="white"/>
<path d="M77.2592 377.448C77.3727 377.504 77.441 377.566 77.4639 377.634C77.4811 377.685 77.4588 377.773 77.3969 377.897L76.9669 378.766C76.9163 378.868 76.8656 378.928 76.8147 378.945C76.7638 378.962 76.6929 378.948 76.6021 378.903L68.0546 374.671C67.8957 374.592 67.85 374.484 67.9174 374.348L68.4317 373.31C68.4935 373.185 68.5982 373.159 68.7458 373.232L77.2592 377.448ZM66.6171 372.093C66.8328 372.2 66.89 372.355 66.7889 372.56L66.2998 373.547C66.2493 373.649 66.1928 373.706 66.1306 373.718C66.0569 373.724 65.9747 373.704 65.8839 373.659L64.4537 372.951C64.272 372.861 64.2206 372.737 64.2993 372.578L64.8304 371.505C64.9091 371.346 65.0336 371.309 65.2039 371.393L66.6171 372.093Z" fill="white"/>
<path d="M82.2642 367.783C81.8853 368.655 81.3518 369.341 80.6639 369.843C79.9693 370.328 79.187 370.603 78.3167 370.666C77.44 370.713 76.5369 370.534 75.6077 370.13C74.6436 369.711 73.8824 369.159 73.3239 368.474C72.7589 367.772 72.4171 367.002 72.2985 366.163C72.18 365.324 72.3102 364.469 72.6891 363.598C73.0731 362.715 73.6156 362.039 74.3167 361.571C75.0112 361.085 75.8027 360.822 76.6911 360.78C77.5729 360.722 78.4843 360.897 79.4251 361.306C80.3543 361.711 81.0982 362.255 81.6567 362.94C82.2035 363.62 82.5362 364.379 82.6548 365.218C82.7784 366.046 82.6482 366.901 82.2642 367.783ZM81.1817 367.271C81.4444 366.667 81.5241 366.087 81.4206 365.531C81.3056 364.97 81.0231 364.46 80.5732 364.002C80.1167 363.527 79.5051 363.123 78.7385 362.79C77.9719 362.456 77.2651 362.287 76.6181 362.282C75.9595 362.271 75.3858 362.416 74.8968 362.714C74.4079 363.012 74.032 363.464 73.7693 364.068C73.5116 364.66 73.4378 365.243 73.5478 365.815C73.6578 366.388 73.9385 366.918 74.39 367.404C74.8349 367.874 75.4406 368.275 76.2072 368.609C76.9622 368.937 77.669 369.107 78.3276 369.117C78.9912 369.115 79.5701 368.96 80.064 368.65C80.5464 368.335 80.919 367.875 81.1817 367.271Z" fill="white"/>
<path d="M85.8452 358.467C85.7848 358.633 85.6771 358.689 85.5223 358.632L76.5203 355.367C76.3655 355.311 76.3118 355.217 76.3593 355.086L76.7481 354.015C76.7956 353.884 76.8848 353.842 77.0158 353.89L78.0518 354.265C78.1113 354.287 78.1513 354.288 78.1719 354.268C78.1924 354.249 78.1897 354.201 78.1637 354.124C77.9966 353.619 77.8664 353.161 77.773 352.749C77.672 352.322 77.6327 351.91 77.6551 351.514C77.6656 351.114 77.7443 350.711 77.8912 350.306C78.2281 349.377 78.7351 348.76 79.4123 348.453C80.0938 348.134 80.8335 348.12 81.6313 348.409L88.2935 350.826C88.4841 350.895 88.5469 351.019 88.4821 351.197L88.1193 352.197C88.0891 352.281 88.0496 352.334 88.0009 352.357C87.9404 352.375 87.8743 352.371 87.8029 352.345L81.4264 350.032C80.843 349.821 80.3365 349.805 79.907 349.986C79.4656 350.163 79.1283 350.573 78.8951 351.216C78.7698 351.561 78.7106 351.91 78.7173 352.263C78.7165 352.6 78.7671 352.962 78.8692 353.349C78.9593 353.732 79.096 354.172 79.2793 354.67L86.0308 357.119C86.2094 357.184 86.2664 357.306 86.2016 357.484L85.8452 358.467Z" fill="white"/>
<path d="M99.603 297.115C99.5914 297.292 99.5034 297.375 99.3391 297.364L89.7837 296.735C89.6194 296.725 89.5419 296.65 89.551 296.511L89.6259 295.373C89.635 295.234 89.7091 295.169 89.8481 295.178L90.9478 295.251C91.011 295.255 91.0497 295.245 91.064 295.22C91.0783 295.196 91.0623 295.15 91.0159 295.084C90.7147 294.645 90.462 294.241 90.2578 293.872C90.0418 293.49 89.8894 293.105 89.8006 292.719C89.6991 292.331 89.6625 291.923 89.6908 291.493C89.7557 290.507 90.0706 289.772 90.6356 289.289C91.2014 288.793 91.9077 288.573 92.7545 288.629L99.8262 289.094C100.028 289.108 100.123 289.209 100.111 289.399L100.041 290.46C100.035 290.549 100.012 290.611 99.9716 290.646C99.9186 290.681 99.8541 290.696 99.7783 290.691L93.0099 290.245C92.3906 290.204 91.8999 290.331 91.5378 290.624C91.1631 290.917 90.9533 291.405 90.9084 292.087C90.8843 292.454 90.9246 292.805 91.0294 293.142C91.1223 293.466 91.2718 293.799 91.4776 294.143C91.6709 294.486 91.9248 294.871 92.2395 295.298L99.406 295.769C99.5956 295.782 99.6841 295.883 99.6716 296.072L99.603 297.115Z" fill="white"/>
<path d="M90.2406 278.309C90.2413 278.245 90.2608 278.201 90.299 278.176C90.3374 278.139 90.382 278.12 90.4326 278.121L91.2496 278.13C91.3763 278.131 91.4389 278.195 91.4375 278.322L91.4143 280.488C91.4132 280.589 91.4633 280.64 91.5647 280.641L100.019 280.732C100.196 280.734 100.284 280.811 100.283 280.963L100.27 282.122C100.269 282.261 100.186 282.33 100.021 282.328L91.5285 282.237C91.4399 282.236 91.3951 282.28 91.3941 282.368L91.3741 284.23C91.3728 284.357 91.3088 284.42 91.1821 284.418L90.3651 284.409C90.3145 284.409 90.2703 284.396 90.2326 284.37C90.195 284.332 90.1766 284.274 90.1774 284.198L90.1968 282.394C90.198 282.28 90.1353 282.222 90.0086 282.221L88.6217 282.206C87.8237 282.197 87.2179 281.994 86.8041 281.597C86.3904 281.2 86.1878 280.602 86.1963 279.804L86.2133 278.228C86.215 278.063 86.2919 277.981 86.4439 277.983L87.1849 277.991C87.2482 277.992 87.2986 278.011 87.3362 278.05C87.3613 278.075 87.3734 278.126 87.3726 278.202L87.3583 279.532C87.3541 279.925 87.4777 280.211 87.7291 280.391C87.968 280.558 88.2964 280.644 88.7144 280.649L90.0443 280.663C90.1583 280.664 90.2159 280.608 90.2172 280.494L90.2406 278.309Z" fill="white"/>
<path d="M91.234 270.53C91.2377 270.631 91.2902 270.68 91.3915 270.676L97.4104 270.454C98.0053 270.432 98.4003 270.316 98.5953 270.106C98.7904 269.896 98.8804 269.589 98.8655 269.184L98.8171 267.873C98.8147 267.81 98.8318 267.759 98.8684 267.719C98.8923 267.681 98.9423 267.66 99.0182 267.657L99.6645 267.652C99.7911 267.647 99.8761 267.72 99.9197 267.871C99.9497 267.996 99.9755 268.179 99.997 268.419C100.018 268.647 100.039 268.874 100.06 269.101C100.068 269.317 100.075 269.5 100.081 269.652C100.11 270.45 99.948 271.039 99.5945 271.419C99.2283 271.8 98.6402 272.006 97.83 272.036L91.4884 272.27C91.3618 272.275 91.3008 272.34 91.3055 272.467L91.3616 273.986C91.3668 274.125 91.2997 274.197 91.1605 274.202L90.363 274.232C90.2364 274.237 90.1708 274.176 90.1661 274.049L90.1065 272.435C90.1032 272.347 90.051 272.304 89.9497 272.308L86.9231 272.21C86.758 272.204 86.6732 272.137 86.6685 272.011L86.6334 271.061C86.6278 270.909 86.7136 270.83 86.8908 270.824L89.8908 270.713C89.9921 270.709 90.0408 270.657 90.0371 270.555L89.9487 268.163C89.9436 268.024 89.998 267.952 90.1119 267.948L90.9283 267.918C91.0676 267.913 91.1398 267.98 91.1449 268.119L91.234 270.53Z" fill="white"/>
<path d="M88.1607 251.194C88.0775 250.541 88.1115 249.956 88.2626 249.439C88.3996 248.91 88.6279 248.447 88.9475 248.049C89.2529 247.64 89.604 247.288 90.0008 246.995C90.1419 246.901 90.2402 246.92 90.2955 247.053L90.6726 248.059C90.7215 248.142 90.6942 248.228 90.5907 248.318C90.2583 248.616 89.9951 248.905 89.8009 249.185C89.6052 249.453 89.4684 249.732 89.3905 250.023C89.3001 250.315 89.2757 250.625 89.3173 250.951C89.3989 251.592 89.6343 252.137 90.0235 252.585C90.3984 253.023 90.9043 253.335 91.541 253.522C92.1778 253.709 92.9108 253.75 93.7401 253.644C94.5819 253.537 95.2876 253.313 95.8571 252.972C96.425 252.619 96.8356 252.183 97.0889 251.666C97.3406 251.136 97.4248 250.544 97.3416 249.891C97.2647 249.288 97.0475 248.785 96.6899 248.384C96.3323 247.983 95.8413 247.637 95.2169 247.346C95.1493 247.316 95.1138 247.289 95.1106 247.264C95.0933 247.227 95.0932 247.176 95.1103 247.11L95.3086 246.262C95.3351 246.169 95.4135 246.133 95.544 246.155C95.8947 246.302 96.2368 246.482 96.5704 246.694C96.904 246.907 97.2055 247.169 97.4749 247.479C97.7427 247.777 97.9721 248.125 98.1632 248.522C98.3416 248.92 98.4629 249.371 98.5269 249.874C98.6454 250.804 98.5367 251.654 98.2007 252.424C97.8506 253.184 97.3179 253.814 96.6027 254.314C95.8749 254.815 95.0021 255.13 93.9843 255.26C92.954 255.391 92.0237 255.306 91.1934 255.003C90.3615 254.687 89.6809 254.206 89.1514 253.558C88.6078 252.9 88.2776 252.112 88.1607 251.194Z" fill="white"/>
<path d="M96.4059 236.881C96.5827 237.815 96.5279 238.682 96.2415 239.484C95.9403 240.276 95.4478 240.943 94.7641 241.485C94.0656 242.017 93.2185 242.378 92.2229 242.566C91.1899 242.762 90.2499 242.734 89.4028 242.482C88.541 242.219 87.8251 241.775 87.2551 241.148C86.6851 240.521 86.3117 239.741 86.1349 238.808C85.9557 237.862 86.0242 236.998 86.3402 236.216C86.6414 235.424 87.1475 234.761 87.8584 234.227C88.5546 233.682 89.4067 233.315 90.4148 233.124C91.4104 232.935 92.3318 232.967 93.1788 233.219C94.0134 233.473 94.7157 233.914 95.2857 234.541C95.8533 235.155 96.2267 235.935 96.4059 236.881ZM95.2227 237.067C95.1001 236.42 94.8396 235.895 94.4413 235.494C94.0305 235.095 93.5102 234.832 92.8805 234.706C92.2359 234.571 91.503 234.581 90.6816 234.736C89.8602 234.892 89.1806 235.15 88.6428 235.509C88.0926 235.871 87.6993 236.313 87.463 236.835C87.2266 237.357 87.1697 237.941 87.2923 238.588C87.4126 239.223 87.6793 239.746 88.0924 240.158C88.5056 240.57 89.0356 240.849 89.6825 240.998C90.3146 241.136 91.0413 241.127 91.8627 240.971C92.6717 240.818 93.3513 240.56 93.9015 240.198C94.4494 239.824 94.8403 239.37 95.0743 238.835C95.2958 238.303 95.3453 237.714 95.2227 237.067Z" fill="white"/>
<path d="M93.4897 225.997C93.6128 225.968 93.7049 225.972 93.7661 226.009C93.8149 226.049 93.8542 226.131 93.8839 226.254L94.1155 227.215C94.1601 227.399 94.0962 227.512 93.9238 227.554L80.7316 230.717C80.5592 230.758 80.4552 230.705 80.4196 230.557L80.1522 229.449C80.1166 229.301 80.1788 229.208 80.3389 229.17L93.4897 225.997Z" fill="white"/>
<path d="M91.3877 218.091C91.5097 218.057 91.6019 218.057 91.6643 218.093C91.7146 218.131 91.7568 218.211 91.791 218.333L92.0578 219.285C92.109 219.468 92.0493 219.583 91.8786 219.631L78.8111 223.275C78.6404 223.323 78.5345 223.274 78.4935 223.127L78.1857 222.03C78.1447 221.883 78.2034 221.788 78.362 221.743L91.3877 218.091Z" fill="white"/>
<path d="M85.2836 212.029C85.8722 211.832 86.3666 211.513 86.7666 211.072C87.1507 210.623 87.4085 210.116 87.54 209.551C87.6676 208.974 87.6329 208.391 87.436 207.802C87.235 207.202 86.9361 206.707 86.5391 206.319C86.1301 205.935 85.6171 205.659 85.0001 205.492C84.936 205.46 84.8999 205.432 84.8918 205.408C84.8678 205.376 84.8577 205.326 84.8616 205.258L84.9868 204.374C85.0107 204.246 85.0908 204.206 85.227 204.254C85.816 204.417 86.333 204.645 86.7779 204.937C87.2068 205.221 87.5737 205.579 87.8786 206.011C88.1835 206.444 88.4365 206.96 88.6374 207.561C88.9348 208.45 88.9938 209.305 88.8144 210.126C88.6351 210.947 88.2453 211.679 87.6452 212.32C87.0451 212.962 86.2645 213.443 85.3035 213.765C84.2585 214.115 83.2973 214.216 82.4199 214.069C81.5265 213.913 80.761 213.562 80.1235 213.014C79.482 212.454 79.0186 211.747 78.7333 210.894C78.4399 210.017 78.3769 209.19 78.5443 208.413C78.7117 207.636 79.1015 206.944 79.7137 206.339C80.3259 205.733 81.1485 205.258 82.1815 204.912C82.2656 204.884 82.3537 204.868 82.4459 204.864C82.534 204.848 82.6021 204.912 82.6503 205.056L84.9591 211.957C84.9752 212.005 85.0193 212.037 85.0914 212.053C85.1475 212.061 85.2115 212.053 85.2836 212.029ZM82.1777 206.937C82.1335 206.805 82.0934 206.725 82.0573 206.697C82.0092 206.673 81.9311 206.679 81.823 206.715C81.3065 206.888 80.8642 207.163 80.4961 207.54C80.1119 207.909 79.8521 208.349 79.7164 208.862C79.5768 209.363 79.6054 209.908 79.8023 210.496C80.0194 211.145 80.3584 211.639 80.8194 211.979C81.2684 212.323 81.7773 212.527 82.3462 212.591C82.915 212.654 83.4697 212.595 84.0103 212.415L82.1777 206.937Z" fill="white"/>
<path d="M74.0887 198.477C73.8424 197.866 73.7267 197.292 73.7416 196.753C73.7401 196.207 73.8433 195.701 74.0513 195.235C74.2429 194.762 74.4934 194.333 74.8028 193.948C74.9153 193.821 75.0153 193.815 75.1026 193.93L75.7225 194.807C75.7909 194.875 75.7865 194.965 75.7092 195.078C75.4632 195.451 75.2819 195.797 75.1652 196.117C75.0438 196.426 74.9823 196.731 74.9808 197.032C74.9676 197.337 75.0225 197.643 75.1457 197.948C75.3873 198.548 75.7532 199.015 76.2434 199.35C76.7171 199.678 77.2856 199.851 77.949 199.871C78.6124 199.89 79.3317 199.743 80.107 199.43C80.8941 199.113 81.5198 198.717 81.9842 198.243C82.4439 197.757 82.7305 197.232 82.8442 196.667C82.9531 196.091 82.8844 195.497 82.6381 194.886C82.4107 194.322 82.0731 193.891 81.6253 193.594C81.1776 193.297 80.6148 193.086 79.9371 192.964C79.8641 192.952 79.8229 192.935 79.8134 192.911C79.7875 192.881 79.7744 192.831 79.7742 192.763L79.7506 191.892C79.7527 191.795 79.8195 191.741 79.9512 191.729C80.3277 191.782 80.7043 191.869 81.081 191.99C81.4577 192.111 81.8157 192.288 82.1551 192.52C82.4897 192.74 82.7998 193.018 83.0854 193.353C83.3592 193.694 83.5908 194.099 83.7803 194.569C84.1309 195.438 84.2415 196.288 84.1121 197.119C83.9662 197.942 83.6108 198.687 83.0458 199.352C82.4691 200.021 81.705 200.548 80.7534 200.932C79.7901 201.32 78.8685 201.473 77.9886 201.391C77.1039 201.297 76.3233 201.004 75.6469 200.512C74.9539 200.013 74.4346 199.335 74.0887 198.477Z" fill="white"/>
<path d="M70.9045 187.814C70.9473 187.906 71.0147 187.931 71.1065 187.888L76.5648 185.342C77.1043 185.09 77.4231 184.829 77.5211 184.56C77.6191 184.291 77.5824 183.972 77.411 183.605L76.8568 182.417C76.83 182.359 76.8258 182.306 76.8442 182.255C76.8511 182.21 76.889 182.171 76.9579 182.139L77.5513 181.883C77.6661 181.83 77.7729 181.864 77.8715 181.985C77.9481 182.09 78.0429 182.248 78.1561 182.461C78.264 182.662 78.3719 182.863 78.4797 183.064C78.5708 183.26 78.6484 183.426 78.7127 183.564C79.05 184.287 79.1299 184.893 78.9523 185.381C78.7632 185.874 78.3014 186.293 77.5667 186.635L71.8157 189.318C71.7009 189.372 71.6703 189.456 71.7238 189.571L72.3664 190.948C72.4253 191.074 72.3916 191.167 72.2653 191.226L71.5422 191.563C71.4274 191.617 71.3432 191.586 71.2896 191.471L70.6069 190.008C70.5694 189.927 70.5048 189.909 70.4129 189.951L67.5868 191.039C67.4322 191.097 67.3282 191.069 67.2746 190.954L66.873 190.093C66.8087 189.956 66.857 189.849 67.0177 189.774L69.7382 188.505C69.83 188.462 69.8545 188.395 69.8117 188.303L68.7996 186.134C68.7407 186.007 68.7629 185.92 68.8662 185.872L69.6066 185.526C69.7329 185.468 69.8255 185.501 69.8844 185.627L70.9045 187.814Z" fill="white"/>
<path d="M74.4 175.657C74.5125 175.599 74.6029 175.58 74.6712 175.602C74.7224 175.618 74.7801 175.688 74.8443 175.812L75.2906 176.672C75.3431 176.773 75.3612 176.849 75.345 176.9C75.3287 176.952 75.2757 177.001 75.1857 177.047L66.7196 181.44C66.5622 181.522 66.4484 181.495 66.3784 181.36L65.8446 180.332C65.7805 180.208 65.8215 180.108 65.9676 180.032L74.4 175.657ZM63.7908 181.076C64.0044 180.965 64.1637 181.011 64.2687 181.214L64.7763 182.192C64.8288 182.293 64.8413 182.372 64.8138 182.429C64.7751 182.492 64.7108 182.547 64.6208 182.593L63.2042 183.329C63.0243 183.422 62.8935 183.39 62.8118 183.232L62.2605 182.17C62.1789 182.013 62.2224 181.89 62.391 181.803L63.7908 181.076Z" fill="white"/>
<path d="M69.5609 165.905C70.0396 166.726 70.2781 167.562 70.2763 168.414C70.2572 169.261 70.016 170.054 69.5529 170.793C69.0724 171.528 68.3946 172.151 67.5193 172.662C66.6112 173.191 65.7159 173.479 64.8333 173.525C63.9334 173.566 63.11 173.386 62.3633 172.986C61.6165 172.586 61.0038 171.975 60.5251 171.155C60.04 170.323 59.8156 169.486 59.8521 168.644C59.8712 167.797 60.1264 167.003 60.6178 166.261C61.0919 165.516 61.7721 164.884 62.6583 164.367C63.5335 163.856 64.4125 163.578 65.2951 163.533C66.1667 163.493 66.9759 163.674 67.7227 164.074C68.463 164.463 69.0758 165.074 69.5609 165.905ZM68.5078 166.476C68.1759 165.907 67.7551 165.5 67.2454 165.254C66.7248 165.016 66.1467 164.942 65.5112 165.034C64.8584 165.122 64.1709 165.376 63.4488 165.798C62.7267 166.219 62.1724 166.689 61.7858 167.208C61.3883 167.733 61.1654 168.281 61.1171 168.852C61.0688 169.422 61.2107 169.992 61.5426 170.561C61.8681 171.119 62.2944 171.523 62.8214 171.773C63.3484 172.023 63.9415 172.109 64.6007 172.033C65.2426 171.951 65.9246 171.7 66.6467 171.279C67.3578 170.864 67.9122 170.394 68.3097 169.869C68.7008 169.333 68.9173 168.774 68.9592 168.192C68.9902 167.617 68.8397 167.045 68.5078 166.476Z" fill="white"/>
<path d="M64.1633 157.511C64.262 157.659 64.243 157.778 64.1062 157.87L56.1514 163.201C56.0147 163.293 55.9075 163.281 55.8299 163.165L55.1952 162.218C55.1177 162.102 55.1368 162.006 55.2525 161.928L56.1679 161.315C56.2205 161.279 56.2451 161.248 56.2415 161.219C56.2379 161.191 56.1974 161.165 56.1201 161.141C55.6138 160.977 55.1672 160.811 54.7804 160.643C54.3759 160.472 54.0206 160.261 53.7143 160.008C53.3976 159.763 53.1193 159.462 52.8795 159.104C52.3295 158.283 52.1309 157.509 52.2837 156.782C52.4294 156.043 52.8548 155.438 53.5598 154.966L59.4469 151.02C59.6153 150.907 59.7523 150.93 59.8581 151.088L60.4505 151.971C60.4998 152.045 60.5193 152.108 60.5089 152.161C60.488 152.221 60.4459 152.272 60.3828 152.314L54.7482 156.09C54.2326 156.436 53.9209 156.835 53.8131 157.289C53.6948 157.749 53.826 158.264 54.2068 158.832C54.4113 159.137 54.6579 159.391 54.9464 159.594C55.2174 159.794 55.5393 159.967 55.9121 160.114C56.2743 160.267 56.7103 160.417 57.22 160.564L63.1861 156.565C63.3439 156.459 63.4757 156.485 63.5815 156.643L64.1633 157.511Z" fill="white"/>
<path d="M16.5084 104.915C16.6483 105.024 16.6677 105.143 16.5666 105.273L10.6845 112.829C10.5833 112.959 10.4778 112.982 10.3678 112.896L9.46823 112.196C9.35828 112.11 9.3461 112.012 9.43169 111.902L10.1086 111.033C10.1475 110.983 10.1608 110.945 10.1486 110.92C10.1364 110.894 10.0898 110.882 10.0087 110.883C9.47653 110.886 9.0005 110.869 8.58058 110.831C8.14288 110.795 7.73909 110.705 7.3692 110.562C6.99154 110.428 6.63278 110.229 6.29294 109.965C5.5133 109.358 5.08197 108.685 4.99894 107.946C4.90592 107.2 5.12006 106.492 5.64135 105.822L9.99458 100.229C10.1191 100.07 10.2563 100.048 10.4062 100.165L11.2458 100.818C11.3158 100.873 11.3541 100.927 11.3607 100.98C11.3596 101.043 11.3357 101.105 11.289 101.165L7.12252 106.517C6.74127 107.007 6.57055 107.484 6.61036 107.949C6.64239 108.423 6.92828 108.87 7.46803 109.29C7.75789 109.516 8.07167 109.68 8.40935 109.782C8.72926 109.887 9.08918 109.95 9.48911 109.973C9.88126 110.005 10.3423 110.011 10.8722 109.99L15.2838 104.323C15.4005 104.173 15.5338 104.156 15.6838 104.273L16.5084 104.915Z" fill="white"/>
<path d="M-4.31088 102.11C-4.36291 102.074 -4.38851 102.033 -4.38767 101.988C-4.39724 101.935 -4.38758 101.888 -4.3587 101.846L-3.89304 101.175C-3.82085 101.071 -3.73271 101.055 -3.62863 101.127L-1.84889 102.361C-1.76563 102.419 -1.69512 102.406 -1.63736 102.323L3.18164 95.3758C3.28271 95.2301 3.3957 95.2006 3.52059 95.2872L4.47291 95.9478C4.5874 96.0272 4.59771 96.1346 4.50386 96.2699L-0.3368 103.248C-0.387337 103.321 -0.376177 103.383 -0.303322 103.433L1.22663 104.495C1.33071 104.567 1.34665 104.655 1.27446 104.759L0.808802 105.43C0.779924 105.472 0.744249 105.501 0.701775 105.518C0.648892 105.528 0.591228 105.511 0.528781 105.467L-0.95434 104.439C-1.04801 104.374 -1.13094 104.393 -1.20314 104.497L-1.99367 105.637C-2.4485 106.293 -2.95636 106.68 -3.51724 106.8C-4.07813 106.92 -4.68642 106.752 -5.34211 106.297L-6.63789 105.398C-6.7732 105.305 -6.79753 105.195 -6.7109 105.07L-6.28856 104.461C-6.25246 104.409 -6.20797 104.379 -6.15509 104.369C-6.11983 104.363 -6.07098 104.381 -6.00853 104.424L-4.91571 105.182C-4.59307 105.406 -4.28669 105.465 -3.99659 105.358C-3.72412 105.254 -3.46876 105.03 -3.23052 104.687L-2.47248 103.594C-2.4075 103.5 -2.42185 103.421 -2.51552 103.356L-4.31088 102.11Z" fill="white"/>
</g>
</g>
<defs>
<clipPath id="clip0_75_7065">
<rect width="182" height="550" fill="white"/>
</clipPath>
</defs>
</svg>
