<svg width="550" height="661" viewBox="0 0 550 661" fill="none" xmlns="http://www.w3.org/2000/svg">
<g opacity="0.5">
<path opacity="0.5" d="M453.105 251.919C517.423 318.16 563.33 385.916 585.569 441.902C596.69 469.896 601.883 494.924 600.521 515.337C599.159 535.749 591.248 551.5 576.219 561.029C561.191 570.557 540.376 573.019 515.517 569.232C490.657 565.444 461.81 555.413 430.808 540.024C368.806 509.249 298.288 457.097 233.971 390.856C169.654 324.614 123.747 256.858 101.507 200.873C90.3868 172.879 85.1932 147.851 86.5553 127.438C87.9173 107.025 95.8288 91.274 110.857 81.7456C125.886 72.2171 146.7 69.7551 171.56 73.5427C196.42 77.3304 225.267 87.3615 256.269 102.75C318.27 133.526 388.788 185.677 453.105 251.919Z" stroke="url(#paint0_linear_71_3705)"/>
<path opacity="0.9" d="M511.53 256.215C568.385 326.756 603.967 398.956 615.551 458.65C627.141 518.377 614.687 565.422 575.757 585.911C536.828 606.4 478.544 596.584 415.627 563.871C352.747 531.176 285.412 475.688 228.556 405.147C171.7 334.605 136.119 262.405 124.535 202.712C112.945 142.985 125.399 95.9393 164.328 75.4504C203.258 54.9615 261.542 64.7772 324.458 97.4906C387.339 130.186 454.674 185.674 511.53 256.215Z" stroke="url(#paint1_linear_71_3705)"/>
</g>
<defs>
<linearGradient id="paint0_linear_71_3705" x1="110.509" y1="81.3869" x2="461.213" y2="634.525" gradientUnits="userSpaceOnUse">
<stop stop-color="white"/>
<stop offset="1" stop-color="white" stop-opacity="0"/>
</linearGradient>
<linearGradient id="paint1_linear_71_3705" x1="164.015" y1="75.0611" x2="464.101" y2="645.232" gradientUnits="userSpaceOnUse">
<stop stop-color="white"/>
<stop offset="1" stop-color="white" stop-opacity="0"/>
</linearGradient>
</defs>
</svg>
