<svg width="718" height="661" viewBox="0 0 718 661" fill="none" xmlns="http://www.w3.org/2000/svg">
<g opacity="0.5">
<path opacity="0.5" d="M452.586 251.556C516.903 317.798 562.81 385.554 585.05 441.539C596.17 469.533 601.364 494.561 600.002 514.974C598.64 535.387 590.728 551.138 575.7 560.667C560.671 570.195 539.857 572.657 514.997 568.869C490.137 565.082 461.29 555.051 430.288 539.662C368.287 508.887 297.769 456.735 233.452 390.493C169.134 324.252 123.227 256.496 100.988 200.511C89.8673 172.516 84.6737 147.489 86.0358 127.075C87.3978 106.663 95.3093 90.9117 110.338 81.3833C125.366 71.8548 146.181 69.3928 171.04 73.1804C195.9 76.9681 224.747 86.9992 255.749 102.388C317.75 133.163 388.269 185.315 452.586 251.556Z" stroke="url(#paint0_linear_75_8423)"/>
<path opacity="0.9" d="M511.01 255.853C567.866 326.394 603.447 398.594 615.031 458.287C626.621 518.014 614.167 565.06 575.238 585.549C536.308 606.038 478.024 596.222 415.108 563.509C352.227 530.814 284.892 475.326 228.037 404.784C171.181 334.243 135.599 262.043 124.016 202.35C112.425 142.623 124.88 95.577 163.809 75.0881C202.738 54.5992 261.022 64.4149 323.939 97.1283C386.82 129.823 454.154 185.311 511.01 255.853Z" stroke="url(#paint1_linear_75_8423)"/>
</g>
<defs>
<linearGradient id="paint0_linear_75_8423" x1="109.989" y1="81.0245" x2="460.694" y2="634.163" gradientUnits="userSpaceOnUse">
<stop stop-color="white"/>
<stop offset="1" stop-color="white" stop-opacity="0"/>
</linearGradient>
<linearGradient id="paint1_linear_75_8423" x1="163.495" y1="74.6988" x2="463.581" y2="644.869" gradientUnits="userSpaceOnUse">
<stop stop-color="white"/>
<stop offset="1" stop-color="white" stop-opacity="0"/>
</linearGradient>
</defs>
</svg>
