<svg width="245" height="301" viewBox="0 0 245 301" fill="none" xmlns="http://www.w3.org/2000/svg">
<path fill-rule="evenodd" clip-rule="evenodd" d="M89.1606 0.250003C89.158 0.25012 89.1561 0.252317 89.1562 0.25488C92.8428 83.0216 28.786 153.15 -53.9969 156.933C-53.998 156.933 -53.9989 156.934 -53.9989 156.935C-53.9988 156.936 -53.9979 156.937 -53.9968 156.937C28.8438 153.158 99.0646 217.248 102.847 300.09L102.854 300.249C102.854 300.249 102.855 300.25 102.856 300.25C102.856 300.25 102.857 300.249 102.857 300.248L102.85 300.082C99.0829 217.575 162.64 147.586 244.995 143.283C162.647 146.499 93.0151 82.6792 89.1632 0.252405C89.1632 0.251023 89.162 0.24994 89.1606 0.250003Z" fill="#272730"/>
</svg>
